<svg width="65" height="50" viewBox="0 0 65 50" fill="none" xmlns="http://www.w3.org/2000/svg">
<g clip-path="url(#clip0)">
<path d="M1.49789 39.3877C3.42757 39.3877 63.7049 39.3877 63.7049 39.3877C63.7049 39.3877 67.0565 25.3061 58.3475 13.4694C49.6385 1.63263 36.3338 0.510187 33.0077 0.637738C29.6815 0.765289 15.9705 0.459164 5.81429 15C5.81429 15 1.4725 20.7653 0.83773 29.2602C0.202964 37.7551 1.49789 39.3877 1.49789 39.3877Z" fill="#98AAFF"/>
<path d="M21.0742 18.2653L9.2168 38.8776H32.9316L21.0742 18.2653Z" fill="white"/>
<path d="M37.4004 13.1633C37.0957 12.8827 36.6641 12.7041 36.2324 12.7041C36.1055 12.7041 36.0039 12.7041 35.9023 12.7296C35.5723 11.7347 34.6328 11.0204 33.541 11.0204C32.1699 11.0204 31.0273 12.1429 31.0273 13.546C31.0273 14.0817 31.2051 14.5664 31.4844 14.9745H37.3242" fill="white"/>
<path d="M37.3242 15.3827H31.459C31.332 15.3827 31.2051 15.3317 31.1289 15.2041C30.7988 14.7194 30.6211 14.1327 30.6211 13.546C30.6211 11.9388 31.916 10.6378 33.5156 10.6378C34.6582 10.6378 35.6738 11.3011 36.1309 12.3215C36.6895 12.296 37.2227 12.5001 37.6543 12.8572C37.8066 13.0103 37.832 13.2399 37.6797 13.4184C37.5273 13.5715 37.2988 13.597 37.1211 13.4439C36.791 13.1633 36.3848 13.0358 35.9277 13.1123C35.7246 13.1378 35.5469 13.0358 35.4961 12.8572C35.2168 11.9899 34.4043 11.4031 33.4902 11.4031C32.3223 11.4031 31.3828 12.347 31.3828 13.5205C31.3828 13.8776 31.4844 14.2603 31.6621 14.5664H37.3242C37.5273 14.5664 37.7051 14.745 37.7051 14.949C37.7051 15.1531 37.5527 15.3827 37.3242 15.3827Z" fill="#211815"/>
<path d="M61.2168 50H3.75781C3.55469 50 3.37695 49.8215 3.37695 49.6174C3.37695 49.4133 3.55469 49.2347 3.75781 49.2347H61.1914C61.3945 49.2347 61.5723 49.4133 61.5723 49.6174C61.5723 49.8215 61.4199 50 61.2168 50Z" fill="#211815"/>
<path d="M32.9316 39.3878H9.14063C9.01367 39.3878 8.86133 39.3112 8.81055 39.1837C8.73437 39.0561 8.73437 38.9031 8.81055 38.801L9.4961 37.602C9.59766 37.4235 9.85156 37.3469 10.0293 37.449C10.207 37.551 10.2832 37.8061 10.1816 37.9847L9.82617 38.5969H32.2715L31.6621 37.551C31.5605 37.3725 31.6113 37.1174 31.8145 37.0153C31.9922 36.9133 32.2461 36.9643 32.3477 37.1684L33.2871 38.801C33.3633 38.9286 33.3633 39.0816 33.2871 39.1837C33.2109 39.3112 33.084 39.3878 32.9316 39.3878Z" fill="#211815"/>
<path d="M27.5488 38.6735C27.4219 38.6735 27.2949 38.597 27.2188 38.4949L18.1289 23.1378C18.0273 22.9592 18.0781 22.7041 18.2559 22.6021C18.4336 22.5 18.6875 22.551 18.7891 22.7296L27.8789 38.0867C27.9805 38.2653 27.9297 38.5204 27.752 38.6225C27.6758 38.648 27.625 38.6735 27.5488 38.6735Z" fill="#211815"/>
<path d="M22.9785 39.3367C22.8516 39.3367 22.7246 39.2602 22.6484 39.1327L15.7422 27.449C15.6406 27.2704 15.6914 27.0153 15.8691 26.9133C16.0469 26.8112 16.3008 26.8623 16.4024 27.0408L23.3086 38.7245C23.4102 38.9031 23.3594 39.1582 23.1816 39.2602C23.1309 39.3112 23.0547 39.3367 22.9785 39.3367Z" fill="#211815"/>
<path d="M18.1545 39.3878C18.0276 39.3878 17.9006 39.3368 17.8244 39.2092L13.2287 32.1939C13.1018 32.0153 13.1526 31.7602 13.3303 31.6582C13.508 31.5306 13.7619 31.5817 13.8635 31.7602L18.4592 38.7755C18.5861 38.9541 18.5354 39.2092 18.3576 39.3113C18.3069 39.3623 18.2307 39.3878 18.1545 39.3878Z" fill="#211815"/>
<path d="M14.4981 39.2602C14.422 39.2602 14.3712 39.2347 14.295 39.2092C14.1173 39.1072 14.0411 38.8776 14.1427 38.6735L23.1817 22.6021C23.2833 22.4235 23.5118 22.347 23.7149 22.449C23.8927 22.5511 23.9688 22.7807 23.8673 22.9847L14.8282 39.0562C14.752 39.1837 14.6251 39.2602 14.4981 39.2602Z" fill="#211815"/>
<path d="M19.3985 39.2347C19.3477 39.2347 19.2716 39.2092 19.2208 39.1837C19.043 39.0817 18.9669 38.8521 19.0684 38.648L25.5684 26.7347C25.67 26.5561 25.8985 26.4796 26.1016 26.5817C26.2794 26.6837 26.3555 26.9133 26.254 27.1174L19.7286 39.0306C19.6778 39.1582 19.5255 39.2347 19.3985 39.2347Z" fill="#211815"/>
<path d="M24.1973 39.3878C24.1212 39.3878 24.0704 39.3623 23.9942 39.3368C23.8165 39.2347 23.7403 38.9796 23.8419 38.8011L28.2091 31.25C28.3106 31.0715 28.5645 30.9949 28.7423 31.097C28.92 31.199 28.9962 31.4541 28.8946 31.6327L24.5274 39.1837C24.4513 39.3113 24.3243 39.3878 24.1973 39.3878Z" fill="#211815"/>
<path d="M1.21875 39.6939C1.01562 39.6939 0.837891 39.5153 0.837891 39.3112C0.837891 39.1072 1.01562 38.9286 1.21875 38.9286L63.7305 38.9031C63.9336 38.9031 64.1113 39.0816 64.1113 39.2857C64.1113 39.4898 63.9336 39.6684 63.7305 39.6684L1.21875 39.6939Z" fill="#211815"/>
<path d="M63.8066 39.5664C63.7812 39.5664 63.7558 39.5664 63.7305 39.5664C63.5273 39.5153 63.375 39.3112 63.4258 39.1072C63.8574 37.0153 64.0605 34.8725 64.0605 32.7041C64.0605 15.2296 49.8926 0.99492 32.4746 0.99492C15.0566 0.99492 0.914062 15.2296 0.914062 32.7296C0.914062 34.8725 1.11719 37.0408 1.54883 39.1327C1.59961 39.3368 1.44727 39.5408 1.24414 39.5919C1.04102 39.6429 0.83789 39.4898 0.787109 39.2857C0.355468 37.1429 0.126953 34.949 0.126953 32.7296C0.126953 14.8215 14.6504 0.229614 32.4746 0.229614C50.2988 0.229614 64.8476 14.7959 64.8476 32.7296C64.8476 34.9235 64.6191 37.1429 64.1875 39.2857C64.1367 39.4388 63.9844 39.5664 63.8066 39.5664Z" fill="#211815"/>
<path d="M16.9355 24.9235H9.80078C9.52148 24.5409 9.34375 24.0562 9.34375 23.546C9.34375 22.296 10.3086 21.2755 11.502 21.2755C11.8574 21.2755 12.1875 21.3776 12.4922 21.5306C12.9746 20.8419 13.8125 20.4082 14.7266 20.4082C15.7422 20.4082 16.6309 20.9439 17.1133 21.7347C17.3672 21.6327 17.6719 21.5562 17.9512 21.5562C18.2305 21.5562 18.5098 21.6072 18.7637 21.7092" fill="white"/>
<path d="M16.9355 25.3062H9.80078C9.67383 25.3062 9.57227 25.2552 9.49609 25.1531C9.14062 24.6939 8.96289 24.1327 8.96289 23.5205C8.96289 22.0664 10.1055 20.8674 11.5273 20.8674C11.832 20.8674 12.1113 20.9184 12.3906 21.0205C12.9746 20.3572 13.8379 19.9745 14.752 19.9745C15.7676 19.9745 16.707 20.4592 17.291 21.2501C17.8242 21.097 18.4082 21.1225 18.9414 21.3521C19.1445 21.4286 19.2461 21.6582 19.1699 21.8623C19.0938 22.0664 18.8652 22.1684 18.6621 22.0919C18.2305 21.9133 17.7227 21.9133 17.291 22.0919C17.1133 22.1684 16.9102 22.0919 16.8086 21.9388C16.4023 21.2246 15.6152 20.7909 14.7773 20.7909C14.0156 20.7909 13.3047 21.148 12.8477 21.7603C12.7461 21.9133 12.5176 21.9643 12.3398 21.8878C12.0859 21.7603 11.8066 21.6837 11.5273 21.6837C10.5371 21.6837 9.75 22.5256 9.75 23.5715C9.75 23.9286 9.85156 24.2603 10.0293 24.5664H16.9609C17.1641 24.5664 17.3418 24.745 17.3418 24.949C17.3418 25.1531 17.1641 25.3062 16.9355 25.3062Z" fill="#211815"/>
<path d="M14.1426 34.3112C14.1426 33.3929 13.4063 32.6531 12.4922 32.6531C12.4414 32.6531 12.3906 32.6531 12.3398 32.6531C12.3398 31.6582 11.5273 30.8674 10.5625 30.8674C9.59766 30.8674 8.78516 31.6837 8.78516 32.6531C8.78516 32.6786 8.78516 32.6786 8.78516 32.7041C8.68359 32.6786 8.55664 32.6531 8.42969 32.6531C7.51563 32.6531 6.7793 33.3929 6.7793 34.3112C6.7793 35.1786 7.43945 35.8929 8.30273 35.9439C8.27734 36.0459 8.25195 36.1735 8.25195 36.301C8.25195 37.0919 8.88672 37.7296 9.67383 37.7296C10.0293 37.7296 10.334 37.6021 10.5625 37.398C10.8164 37.6276 11.1465 37.7551 11.502 37.7551C12.2891 37.7551 12.9238 37.1174 12.9238 36.3266C12.9238 36.1735 12.8984 36.0459 12.8477 35.9184C13.584 35.7653 14.1426 35.1021 14.1426 34.3112Z" fill="white"/>
<path d="M11.502 38.1633C11.1719 38.1633 10.8418 38.0613 10.5625 37.8827C10.2832 38.0358 9.97852 38.1123 9.67383 38.1123C8.68359 38.1123 7.87109 37.296 7.87109 36.3011V36.2756C7.0332 36.0205 6.39844 35.2296 6.39844 34.3113C6.39844 33.1888 7.3125 32.2705 8.42969 32.2705C8.60742 31.25 9.4961 30.4847 10.5625 30.4847C11.6289 30.4847 12.5176 31.2756 12.6953 32.296C13.7109 32.398 14.5234 33.2654 14.5234 34.3368C14.5234 35.1531 14.0156 35.8929 13.2793 36.2245C13.2793 36.2756 13.2793 36.3266 13.2793 36.3776C13.3047 37.347 12.4922 38.1633 11.502 38.1633ZM10.5625 37.0154C10.6641 37.0154 10.7402 37.0409 10.8164 37.1174C11.0195 37.296 11.248 37.3725 11.502 37.3725C12.0605 37.3725 12.5176 36.9133 12.5176 36.3521C12.5176 36.25 12.4922 36.1735 12.4668 36.046C12.4414 35.9439 12.4414 35.8164 12.4922 35.7398C12.543 35.6378 12.6445 35.5868 12.7461 35.5613C13.3301 35.4337 13.7363 34.9235 13.7363 34.3368C13.7363 33.648 13.1777 33.0868 12.4922 33.0868C12.4414 33.0868 12.416 33.0868 12.3652 33.0868C12.2637 33.0868 12.1367 33.0613 12.0605 32.9847C11.9844 32.9082 11.9336 32.8062 11.9336 32.7041V32.6786C11.9336 31.9388 11.2988 31.3011 10.5371 31.3011C9.77539 31.3011 9.14063 31.9388 9.14063 32.7041V32.7296C9.14063 32.8572 9.08985 32.9592 8.98828 33.0358C8.88672 33.1123 8.78516 33.1378 8.6582 33.1123C7.87109 32.9337 7.13477 33.546 7.13477 34.3368C7.13477 35 7.64258 35.5358 8.30273 35.5868C8.42969 35.5868 8.53125 35.6633 8.58203 35.7398C8.63281 35.8164 8.68359 35.9439 8.63281 36.0715C8.60742 36.1735 8.60742 36.25 8.60742 36.3266C8.60742 36.8878 9.06445 37.347 9.62305 37.347C9.92774 37.347 10.1309 37.2194 10.2832 37.1174C10.3848 37.0409 10.4609 37.0154 10.5625 37.0154Z" fill="#211815"/>
<path d="M10.6641 39.3623C10.4609 39.3623 10.2832 39.1837 10.2832 38.9797V35.0001C10.2832 34.796 10.4609 34.6174 10.6641 34.6174C10.8672 34.6174 11.0449 34.796 11.0449 35.0001V38.9797C11.0449 39.1837 10.8672 39.3623 10.6641 39.3623Z" fill="#211815"/>
<path d="M10.4612 36.4286C10.385 36.4286 10.3088 36.4031 10.2327 36.3521L9.36939 35.7144C9.19165 35.5868 9.16626 35.3317 9.29321 35.1786C9.42017 35.0001 9.67407 34.9746 9.82642 35.1021L10.6897 35.7399C10.8674 35.8674 10.8928 36.1225 10.7659 36.2756C10.6897 36.3776 10.5881 36.4286 10.4612 36.4286Z" fill="#211815"/>
<path d="M10.7146 37.1939C10.5876 37.1939 10.4861 37.1429 10.4099 37.0408C10.283 36.8623 10.3084 36.6327 10.4861 36.5051L11.4001 35.7908C11.5779 35.6633 11.8064 35.6888 11.9333 35.8674C12.0603 36.0459 12.0349 36.2755 11.8572 36.4031L10.9431 37.1174C10.8923 37.1684 10.8162 37.1939 10.7146 37.1939Z" fill="#211815"/>
<path d="M16.5547 12.0153L16.9863 12.8571L17.9258 12.9846L17.2402 13.6479L17.3926 14.5918L16.5547 14.1581L15.7168 14.5918L15.8945 13.6479L15.209 12.9846L16.1484 12.8571L16.5547 12.0153Z" fill="white"/>
<path d="M15.7167 14.9745C15.6405 14.9745 15.5644 14.949 15.4882 14.8979C15.3612 14.8214 15.3104 14.6683 15.3358 14.5153L15.4628 13.7755L14.9296 13.2653C14.828 13.1632 14.7772 13.0102 14.828 12.8571C14.8788 12.7041 15.0058 12.602 15.1327 12.602L15.869 12.5L16.1991 11.8367C16.2753 11.7092 16.4022 11.6071 16.5546 11.6071C16.7069 11.6071 16.8339 11.6836 16.9101 11.8367L17.2401 12.5L17.9765 12.602C18.1288 12.6275 18.2558 12.7296 18.2812 12.8571C18.3319 13.0102 18.2812 13.1632 18.1796 13.2653L17.6464 13.7755L17.7733 14.5153C17.7987 14.6683 17.7479 14.8214 17.621 14.8979C17.494 14.9745 17.3417 15 17.2147 14.9234L16.5546 14.5663L15.8944 14.9234C15.8437 14.9745 15.7929 14.9745 15.7167 14.9745ZM16.0468 13.2653L16.1483 13.3673C16.2499 13.4694 16.2753 13.5969 16.2499 13.7245L16.2245 13.8775L16.3515 13.801C16.453 13.75 16.6054 13.75 16.7069 13.801L16.8339 13.8775L16.8085 13.7245C16.7831 13.5969 16.8339 13.4694 16.9101 13.3673L17.0116 13.2653L16.8593 13.2398C16.7323 13.2143 16.6308 13.1377 16.5546 13.0357L16.4784 12.8826L16.4022 13.0357C16.3515 13.1632 16.2245 13.2398 16.0976 13.2398L16.0468 13.2653Z" fill="#030000"/>
<path d="M26.4062 15L26.8379 15.8674L27.7519 15.9949L27.0918 16.6582L27.2441 17.602L26.4062 17.1429L25.5684 17.602L25.7207 16.6582L25.0605 15.9949L26 15.8674L26.4062 15Z" fill="white"/>
<path d="M27.244 17.9847C27.1933 17.9847 27.1171 17.9592 27.0663 17.9337L26.4062 17.6021L25.746 17.9592C25.619 18.0357 25.4667 18.0102 25.3397 17.9337C25.2128 17.8572 25.162 17.7041 25.1874 17.551L25.3144 16.8113L24.7812 16.301C24.6796 16.199 24.6288 16.0459 24.6796 15.8929C24.7304 15.7398 24.8573 15.6378 24.9843 15.6378L25.7206 15.5357L26.0507 14.8725C26.1269 14.7449 26.2538 14.6429 26.4062 14.6429C26.5585 14.6429 26.6854 14.7194 26.7616 14.8725L27.0917 15.5357L27.828 15.6378C27.9804 15.6633 28.1073 15.7653 28.1327 15.8929C28.1835 16.0459 28.1327 16.199 28.0311 16.301L27.4979 16.8113L27.6249 17.551C27.6503 17.7041 27.5995 17.8572 27.4726 17.9337C27.3964 17.9592 27.3202 17.9847 27.244 17.9847ZM26.4062 16.7602C26.4569 16.7602 26.5331 16.7857 26.5839 16.8113L26.7108 16.8878L26.6854 16.7347C26.6601 16.6072 26.7108 16.4796 26.787 16.3776L26.8886 16.2755L26.7362 16.25C26.6093 16.2245 26.5077 16.148 26.4315 16.0459L26.3554 15.8929L26.2792 16.0459C26.2284 16.1735 26.1015 16.25 25.9745 16.25L25.8222 16.2755L25.9237 16.3776C26.0253 16.4796 26.0507 16.6072 26.0253 16.7347L25.9999 16.8878L26.1269 16.8113C26.2792 16.7857 26.3554 16.7602 26.4062 16.7602Z" fill="#030000"/>
<path d="M32.4746 5.02551L32.8809 5.86735L33.8203 6.02041L33.1348 6.68368L33.3125 7.60205L32.4746 7.16837L31.6367 7.60205L31.7891 6.68368L31.1035 6.02041L32.043 5.86735L32.4746 5.02551Z" fill="white"/>
<path d="M33.3124 8.01023C33.2616 8.01023 33.1855 7.98472 33.1347 7.95921L32.4745 7.60207L31.8144 7.95921C31.6874 8.03574 31.5351 8.01023 31.4081 7.9337C31.2812 7.85717 31.2304 7.70411 31.2558 7.55105L31.3827 6.81125L30.8495 6.30105C30.7479 6.19901 30.6972 6.04595 30.7479 5.89289C30.7987 5.73982 30.9257 5.63778 31.0526 5.63778L31.789 5.53574L32.119 4.87248C32.1952 4.74493 32.3222 4.64288 32.4745 4.64288C32.6269 4.64288 32.7538 4.71942 32.83 4.87248L33.1601 5.53574L33.8964 5.63778C34.0487 5.66329 34.1757 5.76533 34.2011 5.89289C34.2519 6.04595 34.2011 6.19901 34.0995 6.30105L33.5663 6.81125L33.6933 7.55105C33.7187 7.70411 33.6679 7.85717 33.5409 7.9337C33.4648 7.98472 33.3886 8.01023 33.3124 8.01023ZM32.4745 6.78574C32.5253 6.78574 32.6015 6.81125 32.6523 6.83676L32.7792 6.91329L32.7538 6.76023C32.7284 6.63268 32.7792 6.50513 32.8554 6.40309L32.9569 6.30105L32.8046 6.27554C32.6776 6.25003 32.5761 6.1735 32.4999 6.07146L32.4237 5.91839L32.3476 6.07146C32.2968 6.19901 32.1698 6.27554 32.0429 6.27554L31.8905 6.30105L31.9921 6.40309C32.0937 6.50513 32.119 6.63268 32.0937 6.76023L32.0683 6.91329L32.1952 6.83676C32.3476 6.78574 32.3983 6.78574 32.4745 6.78574Z" fill="#030000"/>
<path d="M49.4356 12.0918L49.8418 12.9336L50.7813 13.0867L50.0957 13.75L50.2481 14.6683L49.4356 14.2346L48.5977 14.6683L48.75 13.75L48.0645 13.0867L49.0039 12.9336L49.4356 12.0918Z" fill="white"/>
<path d="M48.5976 15.0765C48.5214 15.0765 48.4452 15.051 48.369 15C48.2421 14.9235 48.1913 14.7704 48.2167 14.6173L48.3437 13.8775L47.8104 13.3673C47.7089 13.2653 47.6581 13.1122 47.7089 12.9592C47.7597 12.8061 47.8866 12.7041 48.0136 12.7041L48.7499 12.602L49.08 11.9388C49.1561 11.8112 49.2831 11.7092 49.4354 11.7092C49.5878 11.7092 49.7147 11.7857 49.7909 11.9388L50.121 12.602L50.8573 12.7041C51.0097 12.7296 51.1366 12.8316 51.162 12.9592C51.2128 13.1122 51.162 13.2653 51.0604 13.3673L50.5272 13.8775L50.6542 14.6173C50.6796 14.7704 50.6288 14.9235 50.5018 15C50.3749 15.0765 50.2226 15.102 50.0956 15.0255L49.4354 14.6684L48.7753 15.0255C48.6991 15.051 48.6483 15.0765 48.5976 15.0765ZM48.9022 13.3418L49.0038 13.4439C49.1054 13.5459 49.1308 13.6735 49.1054 13.801L49.08 13.9541L49.2069 13.8775C49.3085 13.8265 49.4608 13.8265 49.5624 13.8775L49.6894 13.9541L49.664 13.801C49.6386 13.6735 49.6894 13.5459 49.7655 13.4439L49.8671 13.3418L49.7147 13.3163C49.5878 13.2908 49.4862 13.2143 49.4101 13.1122L49.3339 12.9592L49.2577 13.1122C49.2069 13.2398 49.08 13.3163 48.953 13.3163L48.9022 13.3418Z" fill="#030000"/>
<path d="M30.3419 34.898C30.2149 34.898 30.088 34.8215 30.0118 34.6939L21.0489 19.0817L13.127 32.8572C13.0255 33.0357 12.7716 33.1123 12.5938 33.0102C12.4161 32.9082 12.3399 32.6531 12.4415 32.4745L20.6934 18.1123C20.7696 17.9847 20.8966 17.9082 21.0235 17.9082C21.1505 17.9082 21.3028 17.9847 21.3536 18.1123L30.672 34.3113C30.7735 34.4898 30.7227 34.7449 30.5196 34.847C30.4942 34.8725 30.4181 34.898 30.3419 34.898Z" fill="#211815"/>
<path d="M57.4082 38.1123H56.1133C54.9961 38.1123 54.1074 37.1939 54.1074 36.0969V34.5153C54.1074 33.3929 55.0215 32.5 56.1133 32.5H57.4082C58.5254 32.5 59.4141 33.4184 59.4141 34.5153V36.0969C59.4141 37.1939 58.5254 38.1123 57.4082 38.1123Z" fill="white"/>
<path d="M57.1289 38.4694H56.3672C54.9199 38.4694 53.7266 37.2704 53.7266 35.8164V34.7704C53.7266 33.3163 54.9199 32.1174 56.3672 32.1174H57.1289C58.5762 32.1174 59.7695 33.3163 59.7695 34.7704V35.8164C59.7949 37.2704 58.6016 38.4694 57.1289 38.4694ZM56.3672 32.8317C55.3008 32.8317 54.4375 33.699 54.4375 34.7704V35.8164C54.4375 36.8878 55.3008 37.7551 56.3672 37.7551H57.1289C58.1953 37.7551 59.0586 36.8878 59.0586 35.8164V34.7704C59.0586 33.699 58.1953 32.8317 57.1289 32.8317H56.3672Z" fill="#211815"/>
<path d="M56.9004 39.3367C56.6973 39.3367 56.5195 39.1582 56.5195 38.9541V35.9694C56.5195 35.7653 56.6973 35.5867 56.9004 35.5867C57.1035 35.5867 57.2812 35.7653 57.2812 35.9694V38.9796C57.2812 39.1837 57.1289 39.3367 56.9004 39.3367Z" fill="#211815"/>
<path d="M56.7483 37.1428C56.6721 37.1428 56.5959 37.1173 56.5198 37.0663L55.8596 36.5816C55.6819 36.4541 55.6565 36.199 55.7834 36.0459C55.9104 35.8673 56.1643 35.8418 56.3166 35.9694L56.9768 36.4541C57.1545 36.5816 57.1799 36.8367 57.053 36.9898C57.0022 37.0918 56.8752 37.1428 56.7483 37.1428Z" fill="#211815"/>
<path d="M56.9514 37.7296C56.8245 37.7296 56.7229 37.6785 56.6467 37.5765C56.5198 37.3979 56.5452 37.1683 56.7229 37.0408L57.4084 36.5051C57.5862 36.3775 57.8147 36.403 57.9416 36.5816C58.0686 36.7602 58.0432 36.9898 57.8655 37.1173L57.1799 37.653C57.1291 37.7041 57.0276 37.7296 56.9514 37.7296Z" fill="#211815"/>
<path d="M23.8418 47.8062H21.9375V41.8113H22.7246V47.0664H23.8164V47.8062H23.8418Z" fill="#030000"/>
<path d="M23.4863 44.0052L23.8672 42.9337H23.4863V41.8113H24.0449C24.2734 41.8113 24.375 41.9133 24.375 42.1429V42.9337L23.9687 44.0052H23.4863Z" fill="#030000"/>
<path d="M24.9844 47.8062V41.8113H26.9648V42.5256H25.7969V44.3368H26.8379V45.0511H25.7969V47.0409H26.9648V47.7551H24.9844V47.8062ZM25.9746 41.4286H25.416L25.7969 40.4337H26.5332L25.9746 41.4286Z" fill="#030000"/>
<path d="M28.793 42.5256V47.7807H28.0059V42.5256H27.2441V41.8113H29.5801V42.5256H28.793Z" fill="#030000"/>
<path d="M30.7734 47.8062H29.9863V42.8317C29.9863 42.1429 30.3164 41.8113 30.9512 41.8113H31.5605C32.1953 41.8113 32.5254 42.1429 32.5254 42.8317V47.8062H31.7383V45.6123H30.8242V47.8062H30.7734ZM31.6875 44.8725V42.8827C31.6875 42.6531 31.5605 42.5256 31.332 42.5256H31.1035C30.875 42.5256 30.748 42.6531 30.748 42.8827V44.8725H31.6875Z" fill="#030000"/>
<path d="M33.1855 41.8113H34.6328C35.2676 41.8113 35.5977 42.1429 35.5977 42.8317V44.6174C35.5977 45.3062 35.2676 45.6378 34.6328 45.6378H33.9727V47.8062H33.1855V41.8113ZM33.998 44.898H34.5059C34.709 44.898 34.8105 44.7705 34.8105 44.5409V42.8827C34.8105 42.6531 34.6836 42.5256 34.4551 42.5256H33.998V44.898Z" fill="#030000"/>
<path d="M36.2578 47.8062V41.8113H38.2383V42.5256H37.0703V44.3368H38.1113V45.0511H37.0703V47.0409H38.2383V47.7552H36.2578V47.8062Z" fill="#030000"/>
<path d="M41.9707 44.3623V45.0766H40.9297V47.8062H40.1172V41.8113H42.0977V42.5256H40.9297V44.3368H41.9707V44.3623Z" fill="#030000"/>
<path d="M42.6309 41.8113H44.2051C44.8145 41.8113 45.1191 42.1429 45.1191 42.8317V44.3113C45.1191 44.847 44.9668 45.1531 44.6367 45.3062L45.1953 47.8062H44.4336L43.9004 45.3827H43.418V47.8062H42.6309V41.8113ZM43.4434 44.6939H43.9766C44.2051 44.6939 44.332 44.5409 44.332 44.2603V42.9592C44.332 42.6786 44.2051 42.5256 43.9766 42.5256H43.4434V44.6939Z" fill="#030000"/>
<path d="M46.541 47.8062H45.7539V42.8317C45.7539 42.1429 46.084 41.8113 46.7187 41.8113H47.3281C47.9629 41.8113 48.293 42.1429 48.293 42.8317V47.8062H47.5059V45.6123H46.5918V47.8062H46.541ZM47.4551 44.8725V42.8827C47.4551 42.6531 47.3281 42.5256 47.0996 42.5256H46.8711C46.6426 42.5256 46.5156 42.6531 46.5156 42.8827V44.8725H47.4551Z" fill="#030000"/>
<path d="M50.6035 44.7194V41.8113H51.3906V47.8062H50.6035V46.6072L49.7656 43.8776V47.8062H48.9785V41.8113H49.7656L50.6035 44.7194Z" fill="#030000"/>
<path d="M54.5391 46.4031V46.7858C54.5391 47.4745 54.209 47.8062 53.5742 47.8062H53.0664C52.4316 47.8062 52.1016 47.4745 52.1016 46.7858V42.8317C52.1016 42.1429 52.4316 41.8113 53.0664 41.8113H53.5742C54.209 41.8113 54.5391 42.1429 54.5391 42.8317V43.5205H53.752V42.9082C53.752 42.6786 53.625 42.5511 53.3965 42.5511H53.2441C53.041 42.5511 52.9395 42.6786 52.9395 42.9082V46.7603C52.9395 46.9899 53.041 47.1174 53.2441 47.1174H53.4473C53.6504 47.1174 53.752 46.9899 53.752 46.7603V46.4286H54.5391V46.4031Z" fill="#030000"/>
<path d="M55.1738 47.8062V41.8113H57.1543V42.5256H55.9863V44.3368H57.0273V45.0511H55.9863V47.0409H57.1543V47.7552H55.1738V47.8062Z" fill="#030000"/>
<path d="M53.3457 37.8826H51.3398C50.1465 37.8826 49.1816 36.9133 49.1816 35.7143V33.3673C49.1816 32.1684 50.1465 31.199 51.3398 31.199H53.3457C54.5391 31.199 55.5039 32.1684 55.5039 33.3673V35.7143C55.5039 36.9133 54.5137 37.8826 53.3457 37.8826Z" fill="white"/>
<path d="M53.041 38.2398H51.6191C50.0703 38.2398 48.8008 36.9643 48.8008 35.4082V33.648C48.8008 32.0919 50.0703 30.8163 51.6191 30.8163H53.041C54.5898 30.8163 55.8594 32.0919 55.8594 33.648V35.4082C55.8594 36.9898 54.5898 38.2398 53.041 38.2398ZM51.6191 31.5561C50.4766 31.5561 49.5371 32.5 49.5371 33.648V35.4082C49.5371 36.5561 50.4766 37.5 51.6191 37.5H53.041C54.1836 37.5 55.1231 36.5561 55.1231 35.4082V33.648C55.1231 32.5 54.1836 31.5561 53.041 31.5561H51.6191Z" fill="#211815"/>
<path d="M52.3555 39.3368C52.1523 39.3368 51.9746 39.1582 51.9746 38.9541V35.2041C51.9746 35 52.1523 34.8215 52.3555 34.8215C52.5586 34.8215 52.7363 35 52.7363 35.2041V38.9541C52.7363 39.1837 52.5586 39.3368 52.3555 39.3368Z" fill="#211815"/>
<path d="M52.1526 36.5817C52.0764 36.5817 52.0002 36.5562 51.9241 36.5051L51.0862 35.8929C50.9085 35.7653 50.8831 35.5102 51.01 35.3572C51.137 35.1786 51.3909 35.1531 51.5432 35.2806L52.3811 35.8929C52.5588 36.0205 52.5842 36.2755 52.4573 36.4286C52.4065 36.5307 52.2795 36.5817 52.1526 36.5817Z" fill="#211815"/>
<path d="M52.4065 37.3215C52.2795 37.3215 52.178 37.2704 52.1018 37.1684C51.9749 36.9898 52.0002 36.7602 52.178 36.6327L53.0413 35.9439C53.219 35.8164 53.4475 35.8419 53.5745 36.0204C53.7014 36.199 53.676 36.4286 53.4983 36.5562L52.635 37.2449C52.5842 37.296 52.4827 37.3215 52.4065 37.3215Z" fill="#211815"/>
<path d="M18.5259 47.1677V42.1932H14.4888V47.1677H18.5259Z" fill="#C23F40"/>
<path d="M18.5098 47.5765H14.4727C14.2695 47.5765 14.0918 47.398 14.0918 47.1939V42.2194C14.0918 42.0153 14.2695 41.8367 14.4727 41.8367H18.5098C18.7129 41.8367 18.8906 42.0153 18.8906 42.2194V47.1939C18.8906 47.398 18.7383 47.5765 18.5098 47.5765ZM14.8789 46.7857H18.1289V42.5765H14.8789V46.7857Z" fill="#211815"/>
<path d="M15.2622 47.1912V43.6198H11.5552V47.1912H15.2622Z" fill="white"/>
<path d="M15.2851 47.5765H11.5781C11.375 47.5765 11.1973 47.398 11.1973 47.1939V43.6225C11.1973 43.4184 11.375 43.2398 11.5781 43.2398H15.2851C15.4883 43.2398 15.666 43.4184 15.666 43.6225V47.1939C15.666 47.398 15.4883 47.5765 15.2851 47.5765ZM11.959 46.7857H14.8789V44.0051H11.959V46.7857Z" fill="#211815"/>
<path d="M12.729 47.1991V45.1838H8.6919V47.1991H12.729Z" fill="#1B3170"/>
<path d="M12.7207 47.5765H8.68359C8.48047 47.5765 8.30273 47.3979 8.30273 47.1939V45.1786C8.30273 44.9745 8.48047 44.7959 8.68359 44.7959H12.7207C12.9238 44.7959 13.1016 44.9745 13.1016 45.1786V47.1939C13.127 47.3979 12.9492 47.5765 12.7207 47.5765ZM9.08985 46.7857H12.3398V45.5612H9.08985V46.7857Z" fill="#211815"/>
<path d="M45.1191 32.4235L45.1699 31.4796L44.3066 31.4286L41.6152 25.2551L42.377 24.4133H41.3359C41.3359 24.4133 39.5332 11.25 39.5078 7.52555H39.9648V6.70922L39.4824 5.63779H39.127L39.1523 2.88269H38.873H38.7461H38.4668L38.4922 5.63779H38.1367L37.6543 6.70922V7.52555H38.1113C38.0605 11.25 36.2832 24.4133 36.2832 24.4133H35.2422L36.0039 25.2551L33.3379 31.4286L32.4746 31.4796L32.5254 32.4235L27.7266 39.2857H32.4238C32.4238 39.2857 32.6777 34.1837 38.8223 34.1837C44.9668 34.1837 44.916 39.2857 44.916 39.2857H49.8672L45.1191 32.4235Z" fill="white"/>
<path d="M32.2716 39.5401H27.5743C27.422 39.5401 27.295 39.4635 27.2188 39.336C27.1427 39.2084 27.1681 39.0554 27.2442 38.9278L31.9669 32.1931L31.9161 31.4023C31.9161 31.3003 31.9415 31.1982 32.0177 31.1217C32.0938 31.0452 32.1954 30.9942 32.297 30.9942L32.9317 30.9686L35.3692 25.484L35.1153 24.9227C34.9884 24.7442 34.963 24.5146 35.0645 24.3105C35.1661 24.0809 35.3946 23.9278 35.6231 23.9278H35.8009C36.0802 21.9125 37.4513 11.5554 37.5782 7.80538H37.5274C37.3243 7.80538 37.1466 7.62681 37.1466 7.42273V6.6064C37.1466 6.55538 37.1466 6.50436 37.172 6.45334L37.6544 5.38191C37.7052 5.25436 37.8575 5.15232 38.0099 5.15232H38.213V2.80538C38.213 2.6013 38.3907 2.42273 38.5938 2.42273H38.9747C39.1778 2.42273 39.3556 2.6013 39.3556 2.80538C39.3556 3.00946 39.1778 3.18804 38.9747 3.18804V5.53497C38.9747 5.73906 38.797 5.91763 38.5938 5.91763H38.2384L37.8829 6.68293V7.04008H37.9591C38.0606 7.04008 38.1622 7.0911 38.2384 7.16763C38.3146 7.24416 38.3399 7.3462 38.3399 7.44824C38.2892 11.1727 36.5626 23.8513 36.4864 24.387C36.461 24.5911 36.2833 24.7186 36.1056 24.7186H35.8517L36.131 25.3054C36.1817 25.4074 36.1817 25.535 36.131 25.637L33.5411 31.5044C33.4903 31.6319 33.3634 31.734 33.211 31.734L32.7286 31.7595L32.754 32.2952C32.754 32.3717 32.7286 32.4738 32.6778 32.5503L28.3106 38.7748H31.9161C32.1954 36.785 33.8712 33.5962 38.797 33.6727C39.0001 33.6727 39.1778 33.8513 39.1778 34.0554C39.1778 34.2595 39.0001 34.438 38.797 34.438C38.7462 34.438 38.7208 34.438 38.67 34.438C32.9825 34.438 32.6778 38.9789 32.6524 39.1829C32.6524 39.387 32.4747 39.5401 32.2716 39.5401Z" fill="#211815"/>
<path d="M50.0195 39.5408H45.0684C44.9668 39.5408 44.8652 39.4898 44.7891 39.4133C44.7129 39.3367 44.6875 39.2347 44.6875 39.1326C44.6875 39.1071 44.6875 37.2704 43.3164 35.8929C42.3008 34.898 40.8027 34.3877 38.873 34.4133C38.6699 34.4133 38.4922 34.2347 38.4922 34.0306C38.4922 33.8265 38.6699 33.6479 38.873 33.6479C41.0566 33.6224 42.7324 34.2092 43.9004 35.3571C45.0938 36.5561 45.3984 38.0357 45.4746 38.75H49.2578L44.8906 32.5C44.8398 32.4235 44.8145 32.3469 44.8145 32.2449L44.8398 31.7092L44.3574 31.6837C44.2051 31.6837 44.0781 31.5816 44.0273 31.4541L41.3867 25.7143C41.3359 25.6122 41.3359 25.4847 41.3867 25.3826L41.7168 24.6939H41.4629C41.2598 24.6939 41.1074 24.5408 41.082 24.3622C41.0059 23.8265 39.2793 11.1224 39.2285 7.42346C39.2285 7.32142 39.2793 7.21938 39.3301 7.14285C39.4062 7.06632 39.5078 7.0153 39.6094 7.0153H39.6855V6.65816L39.3301 5.89285H38.9746C38.7715 5.89285 38.5938 5.71428 38.5938 5.5102V3.16326C38.3906 3.16326 38.2129 2.98468 38.2129 2.7806C38.2129 2.57652 38.3906 2.39795 38.5938 2.39795H38.9746C39.1777 2.39795 39.3555 2.57652 39.3555 2.7806V5.12754H39.5586C39.7109 5.12754 39.8379 5.22958 39.9141 5.35713L40.3965 6.42856C40.4219 6.47958 40.4219 6.5306 40.4219 6.58162V7.39795C40.4219 7.60203 40.2441 7.7806 40.041 7.7806H39.9902C40.1172 11.5051 41.5137 21.8877 41.7676 23.9031H41.9453C42.1992 23.9031 42.4023 24.0561 42.5039 24.2857C42.6055 24.4898 42.5801 24.7194 42.4531 24.898L42.1484 25.5612L44.6367 30.9439L45.2715 30.9694C45.373 30.9694 45.4746 31.0204 45.5508 31.0969C45.627 31.1735 45.6523 31.2755 45.6523 31.3775L45.6016 32.1684L50.3242 38.9031C50.4004 39.0306 50.4258 39.1837 50.3496 39.3112C50.2988 39.4643 50.1465 39.5408 50.0195 39.5408Z" fill="#211815"/>
<path d="M36.5371 30.5358L37.7813 26.3011H39.8633L41.0566 30.4848L36.5371 30.5358Z" fill="#211815"/>
<path d="M40.8789 20.5868H48.3691C48.5977 20.2806 48.7246 19.9235 48.7246 19.5153C48.7246 18.5459 47.9629 17.7806 46.998 17.7806C46.7187 17.7806 46.4394 17.8572 46.2109 17.9592C45.8301 17.449 45.1699 17.0919 44.4336 17.0919C43.6211 17.0919 42.9102 17.5 42.5547 18.1123C42.3516 18.0357 42.123 17.9847 41.8945 17.9847C40.8789 17.9847 40.0664 18.801 40.0664 19.8215C40.0664 20.0766 40.1172 20.3317 40.2187 20.5612H40.8789" fill="white"/>
<path d="M48.3437 20.9949H40.168C40.0156 20.9949 39.8633 20.8929 39.8125 20.7653C39.6855 20.4847 39.6348 20.1786 39.6348 19.8725C39.6348 18.648 40.625 17.6276 41.8691 17.6276C42.0469 17.6276 42.2246 17.6531 42.3769 17.6786C42.8594 17.0919 43.6211 16.7092 44.4336 16.7092C45.1445 16.7092 45.8301 16.9898 46.3125 17.5C46.541 17.4235 46.7441 17.398 46.998 17.398C48.166 17.398 49.1055 18.3419 49.1055 19.5154C49.1055 20 48.9531 20.4337 48.6484 20.8164C48.5977 20.9439 48.4707 20.9949 48.3437 20.9949ZM40.4473 20.2041H48.1406C48.2676 20 48.3184 19.7705 48.3184 19.5409C48.3184 18.8011 47.709 18.1888 46.9727 18.1888C46.7695 18.1888 46.5664 18.2398 46.3633 18.3419C46.1855 18.4184 45.9824 18.3929 45.8809 18.2398C45.5508 17.8062 44.9922 17.5256 44.4082 17.5256C43.7734 17.5256 43.1641 17.8572 42.8594 18.3674C42.7578 18.5205 42.5547 18.597 42.3769 18.5205C42.1992 18.4439 42.0215 18.4184 41.8437 18.4184C41.0566 18.4184 40.3965 19.0817 40.3965 19.8725C40.4219 19.9745 40.4219 20.1021 40.4473 20.2041Z" fill="#211815"/>
</g>
<defs>
<clipPath id="clip0">
<rect width="65" height="50" fill="white"/>
</clipPath>
</defs>
</svg>
