<svg width="83" height="111" viewBox="0 0 83 111" fill="none" xmlns="http://www.w3.org/2000/svg">
<path d="M0.0567106 87.8267L34.0567 77.4997L79.5127 85.8389L57.5567 98.4998L0.0567106 87.8267Z" fill="url(#paint0_linear)"/>
<path d="M30.6215 7.88575C30.5857 3.53057 34.0283 0.643417 38.3107 1.43711L74.4959 8.14363C78.7782 8.93732 82.2788 13.1113 82.3145 17.4665L82.832 80.5524C82.8677 84.9076 79.4251 87.7948 75.1427 87.0011L38.9576 80.2945C34.6752 79.5008 31.1747 75.3269 31.139 70.9717L30.6215 7.88575Z" fill="#F3F8FF"/>
<path fill-rule="evenodd" clip-rule="evenodd" d="M74.526 11.8236L38.3409 5.11712C36.057 4.69382 34.2209 6.23364 34.24 8.5564L34.7575 71.6423C34.7765 73.9651 36.6435 76.1912 38.9274 76.6145L75.1125 83.321C77.3965 83.7444 79.2325 82.2045 79.2135 79.8818L78.696 16.7958C78.6769 14.4731 76.81 12.2469 74.526 11.8236ZM38.3107 1.43711C34.0283 0.643417 30.5857 3.53057 30.6215 7.88575L31.139 70.9717C31.1747 75.3269 34.6752 79.5008 38.9576 80.2945L75.1427 87.0011C79.4251 87.7948 82.8677 84.9076 82.832 80.5524L82.3145 17.4665C82.2788 13.1113 78.7782 8.93732 74.4959 8.14363L38.3107 1.43711Z" fill="#3D4FA6"/>
<rect width="6.30881" height="2.62867" rx="1.31433" transform="matrix(0.983255 0.182236 0.00820296 0.999966 39.4049 8.98877)" fill="#6AA0FF"/>
<circle r="1.31433" transform="matrix(0.983255 0.182236 0.00820296 0.999966 63.97 14.854)" fill="#6AA0FF"/>
<circle r="1.31433" transform="matrix(0.983255 0.182236 0.00820296 0.999966 68.1055 15.6203)" fill="#6AA0FF"/>
<circle r="1.31433" transform="matrix(0.983255 0.182236 0.00820296 0.999966 72.2409 16.3868)" fill="#6AA0FF"/>
<mask id="mask0" mask-type="alpha" maskUnits="userSpaceOnUse" x="34" y="4" width="46" height="81">
<rect width="45.2131" height="71.4998" transform="matrix(0.983255 0.182236 0.00820296 0.999966 34.2054 4.35071)" fill="#C4C4C4"/>
</mask>
<g mask="url(#mask0)">
<path d="M58.5845 36.7964C56.5721 37.0928 55.0061 38.3898 53.7515 39.8797C53.0774 40.6976 52.4553 41.5693 52.041 42.587C51.2712 44.4523 51.193 46.6825 51.5279 48.9007C51.8628 51.1189 52.5851 53.3285 53.3761 55.5173C53.9212 57.0407 54.5876 58.6754 55.8781 59.7249C56.9695 60.6129 58.3408 60.9329 59.5802 60.8881C61.3705 60.8244 63.0349 60.0242 63.859 58.5341C64.1819 57.9489 64.3748 57.2594 64.5506 56.5838C64.852 55.4305 65.1275 54.2547 65.3944 53.0858C65.8614 51.0381 66.3023 48.9504 66.2343 46.7341C66.1663 44.5177 65.5634 42.1501 64.1455 40.1817C62.7275 38.2046 60.4094 36.7396 58.2835 36.8397" fill="#FCDABF"/>
<path d="M57.1142 43.3419C57.3374 43.2632 57.6044 43.3105 57.8291 43.4661C58.2873 43.7789 58.6962 43.2044 58.2208 42.8879C57.728 42.5428 57.1852 42.4295 56.7046 42.5965C56.2668 42.7306 56.6766 43.4927 57.1142 43.3419Z" fill="#977A65"/>
<path d="M62.2927 43.7683C62.5757 43.6286 62.8681 43.6077 63.2301 43.7017C63.7474 43.8456 63.7419 43.0687 63.2246 42.9247C62.7418 42.7882 62.2688 42.8206 61.8916 43.0152C61.7201 43.1037 61.6354 43.2942 61.7488 43.5186C61.8534 43.6995 62.1212 43.8568 62.2927 43.7683Z" fill="#977A65"/>
<path d="M63.1295 45.0057C63.1208 44.9952 63.1035 44.9744 63.0948 44.964C63.1035 44.9744 63.1471 45.0519 63.1295 45.0057C63.1296 45.0141 63.1647 45.1067 63.1556 45.0454C63.1558 45.0708 63.1559 45.0878 63.1647 45.1152C63.1647 45.1067 63.1646 45.0897 63.1645 45.0813C63.1728 45.0408 63.1565 45.1725 63.1562 45.1217C63.1561 45.1132 63.1816 45.0682 63.1562 45.1217C63.1222 45.1902 63.1905 45.1041 63.1305 45.1497C63.0878 45.1993 63.1305 45.1497 63.1392 45.1517C62.9581 45.1107 62.7597 45.0659 62.5786 45.0249C62.509 44.9331 62.5699 45.0145 62.5786 45.0334C62.6223 45.1194 62.5522 44.9513 62.5786 45.0334C62.605 45.1071 62.5867 44.9591 62.5786 45.0334C62.5788 45.0588 62.5791 45.0927 62.5792 45.1097C62.5547 45.3072 62.7891 45.5633 62.9787 45.5892C63.2201 45.6354 63.3569 45.5055 63.3726 45.2891C63.3968 45.0576 63.2918 44.8139 63.1439 44.6028C62.9961 44.4001 62.7289 44.3736 62.5833 44.476C62.3004 44.6574 62.3039 45.1405 62.5902 45.4506C62.755 45.6233 63.0053 45.7053 63.1508 45.5774C63.2618 45.4417 63.2858 45.1848 63.1295 45.0057Z" fill="#5A849C"/>
<path d="M58.1772 44.9697C58.2462 44.9936 58.2549 44.9955 58.2203 44.9794C58.2809 45.0182 58.2895 45.0286 58.2549 44.9955C58.2982 45.039 58.3155 45.0513 58.2895 45.0286C58.2635 44.9975 58.2808 45.0182 58.3243 45.0701C58.3506 45.1435 58.3507 45.152 58.3331 45.1059C58.342 45.1416 58.3422 45.1669 58.3424 45.2007C58.3343 45.2749 58.3002 45.3178 58.2315 45.3446C58.2658 45.327 58.2573 45.342 58.1971 45.3454C58.154 45.3357 58.0936 45.3222 58.0505 45.3125C58.0073 45.2944 57.9726 45.2613 57.9379 45.2198C57.8944 45.151 57.8771 45.1387 57.9031 45.1698C57.8943 45.1426 57.8769 45.1218 57.8768 45.0964C57.8857 45.1406 57.8856 45.1237 57.8677 45.0354C57.8674 44.9931 57.8757 44.9444 57.9013 44.9079C57.944 44.8584 57.9611 44.8538 57.9354 44.8734C57.7726 44.9719 57.7918 45.2546 57.9393 45.4226C58.1129 45.6218 58.337 45.6551 58.4998 45.5482C58.6798 45.4282 58.7122 45.1402 58.5728 44.9065C58.4072 44.6247 58.0875 44.4603 57.8299 44.5545C57.5894 44.6356 57.4792 44.8808 57.5586 45.1517C57.6381 45.4395 57.8893 45.6476 58.1653 45.7263C58.3724 45.7811 58.5779 45.6331 58.5592 45.4265C58.5664 45.2256 58.4015 45.0284 58.1772 44.9697Z" fill="#5A849C"/>
<path d="M60.4548 43.8616C60.1503 44.7031 60.2523 45.6824 60.6904 46.6366C60.9356 47.1499 61.6153 46.9123 61.3701 46.399C61.011 45.6439 60.9712 44.903 61.2166 44.2543C61.3859 43.8117 60.6067 43.4064 60.4548 43.8616Z" fill="#333333"/>
<path d="M62.4397 48.7929C61.776 48.6203 61.1038 48.4542 60.4318 48.33C60.113 48.2631 59.7942 48.1878 59.4756 48.1544C59.0968 48.1084 58.9786 48.4343 59.0843 48.7822C59.2602 49.3285 59.9 49.7717 60.3923 50.0504C60.8847 50.329 61.4271 50.3927 61.882 50.2292C62.1309 50.1478 62.3364 50.0072 62.4899 49.8139C62.6349 49.6356 62.8392 49.3277 62.6909 49.0377C62.6212 48.9145 62.5003 48.8557 62.3712 48.8453C62.2937 48.8374 62.208 48.8863 62.1827 48.9478C62.1231 49.0438 62.1413 49.1813 62.2281 49.2913L62.2368 49.3015C62.497 49.5983 62.9078 49.3003 62.6304 48.9999L62.6217 48.9898C62.6311 49.1003 62.6577 49.2144 62.6672 49.3333C62.6671 49.325 62.6757 49.3268 62.6756 49.31C62.6156 49.3392 62.5642 49.3785 62.5042 49.3994C62.5128 49.4012 62.5128 49.4012 62.53 49.4048C62.4263 49.3413 62.314 49.2676 62.2103 49.2124C62.2104 49.2208 62.2191 49.2393 62.2191 49.2393C62.2102 49.1957 62.1926 49.1419 62.1837 49.0899C62.1759 49.2136 62.0565 49.3639 61.9797 49.448C61.8772 49.5518 61.7658 49.6203 61.6286 49.675C61.3454 49.7826 61.0184 49.7641 60.6904 49.6118C60.4746 49.5081 60.267 49.356 60.0767 49.2075C59.9297 49.1015 59.7653 48.9668 59.6781 48.8065C59.6693 48.7796 59.6427 48.6655 59.634 48.6553C59.5997 48.6732 59.5655 48.6994 59.5398 48.7107C59.5484 48.7125 59.5656 48.7161 59.5742 48.7179C59.6001 48.7234 59.6346 48.7306 59.6518 48.7342C59.7293 48.7505 59.7983 48.7649 59.8758 48.7812C60.1343 48.8354 60.4013 48.8831 60.6598 48.9373C61.2543 49.062 61.849 49.2118 62.435 49.3514C62.8142 49.4393 62.8103 48.8873 62.4397 48.7929Z" fill="#333333"/>
<path d="M37.9561 62.7671C35.4757 60.2102 33.5165 57.1439 32.2878 53.9216C32.042 53.2754 31.8469 52.4924 32.2656 52.0835C32.6502 51.7109 33.3658 51.8893 33.8767 52.3033C34.379 52.7156 34.7016 53.2908 35.05 53.8451C35.6074 54.7356 36.2335 55.5966 36.9108 56.4073C37.0888 56.0279 36.9732 55.5289 37.0388 55.0923C37.1044 54.6557 37.5838 54.2936 37.9563 54.6279C38.1209 54.7648 38.1827 54.9848 38.2358 55.1771C38.6081 56.6445 38.6193 58.1604 39.3183 59.5723C39.6505 60.2705 40.1633 60.953 40.2203 61.6737C40.2677 62.2628 39.9876 62.7947 39.4986 63.0165C39.0183 63.24 38.3634 63.1344 37.8441 62.7533" fill="#FCDABF"/>
<path d="M74.7335 76.6546C74.5624 73.2783 74.2272 69.8095 72.9207 66.4577C71.6143 63.106 69.173 59.8475 65.9609 58.2237C65.5465 58.0128 65.1236 57.8346 64.7018 57.794C63.8926 57.7112 63.2333 58.1392 62.5473 58.433C60.7123 59.2384 58.3629 59.117 56.2651 58.109C55.7471 57.8604 55.246 57.5636 54.7116 57.4234C54.2289 57.2935 53.7644 57.2961 53.3 57.3159C49.2242 57.5574 45.8545 60.2328 44.7644 64.0554C43.5823 62.4123 42.1434 60.9332 40.5344 59.7126C39.2094 60.8508 37.8756 61.9702 36.5506 63.1085C36.5422 63.1326 36.5423 63.1412 36.5252 63.1636L36.5509 63.1429C36.5752 67.6156 39.4726 72.0641 41.6553 76.4228C41.7689 76.66 41.8998 76.9179 42.1075 77.0879C42.2894 77.2528 42.5223 77.3419 42.7466 77.4292C46.2485 78.698 49.8019 78.7655 53.3501 79.3131C60.1278 80.3453 66.9618 83.1672 73.6925 83.6573C74.8742 81.7432 74.855 79.1446 74.7335 76.6546Z" fill="#6370B4"/>
<path d="M75.0213 76.9008C74.8509 73.5112 74.4904 70.0055 73.0895 66.5961C71.9514 63.838 70.0476 61.1092 67.4966 59.3068C66.822 58.8274 66.0874 58.3771 65.3369 58.0994C64.4915 57.7931 63.7783 57.9341 63.0834 58.23C62.44 58.5034 61.7967 58.7851 61.0575 58.8955C60.3442 59.0114 59.5783 58.9987 58.8031 58.8918C58.0193 58.7663 57.226 58.5297 56.4749 58.1849C56.0606 57.9958 55.6631 57.7684 55.2489 57.5877C54.8 57.3912 54.3605 57.2889 53.9042 57.2585C53.1725 57.2028 52.4589 57.2851 51.7886 57.4018C51.1527 57.5175 50.5344 57.6872 49.9509 57.9231C47.5912 58.8358 45.7367 60.6193 44.781 62.9552C44.6711 63.2336 44.5699 63.5221 44.4773 63.8125C44.6407 63.8055 44.7956 63.8051 44.959 63.7897C43.7598 62.1335 42.2951 60.647 40.6687 59.411C40.5649 59.3301 40.4099 59.3138 40.3243 59.3794C39.6314 59.9439 38.9469 60.4935 38.254 61.0581C37.9117 61.3287 37.5867 61.603 37.2444 61.8736C37.0733 62.0131 36.9022 62.1526 36.7226 62.2986C36.5515 62.4381 36.3372 62.56 36.244 62.7581C36.1508 62.9561 36.4713 63.2593 36.6685 63.1589C36.677 63.1523 36.677 63.1523 36.6941 63.1392C36.5471 63.0324 36.4086 62.919 36.2615 62.8037C36.2843 66.011 37.8217 69.2567 39.4352 72.3091C39.8537 73.0859 40.2636 73.8525 40.6821 74.6293C40.8914 75.0177 41.1006 75.4061 41.2927 75.7993C41.4847 76.1756 41.677 76.5939 42.0317 76.8709C42.3951 77.1497 42.8433 77.2622 43.2573 77.4009C43.723 77.5591 44.1973 77.7023 44.6628 77.8269C45.6024 78.0695 46.5417 78.2618 47.4807 78.4204C49.3586 78.7293 51.2444 78.9226 53.131 79.2417C54.9917 79.547 56.8621 79.9968 58.7155 80.4765C62.4567 81.4601 66.1909 82.6517 69.9304 83.3834C70.8695 83.5589 71.7999 83.7157 72.7387 83.8408C72.954 83.8616 73.1865 83.8945 73.4018 83.9153C73.5137 83.9309 73.6258 83.9548 73.7289 83.9433C73.8752 83.941 73.9349 83.8615 74.003 83.7587C74.1901 83.4466 74.3597 83.1056 74.4949 82.7572C75.0357 81.3638 75.1102 79.7366 75.073 78.1358C75.0614 77.7142 75.05 77.3177 75.0213 76.9008C75.0101 76.5464 74.4414 76.4249 74.4525 76.7793C74.5725 79.1355 74.6159 81.6178 73.4416 83.4712C73.5189 83.4457 73.6047 83.4138 73.6906 83.3902C70.5996 83.0988 67.488 82.342 64.3844 81.4946C61.2722 80.6454 58.168 79.714 55.0399 79.0543C51.9118 78.3945 48.8131 78.2356 45.6933 77.5356C44.9263 77.3634 44.1677 77.1679 43.4001 76.9117C43.0723 76.7998 42.6586 76.6946 42.3473 76.4856C42.062 76.2905 41.9303 75.9271 41.7821 75.6439C41.1102 74.3351 40.3956 73.0508 39.7152 71.7486C38.398 69.2289 37.14 66.5626 36.8803 63.9083C36.8435 63.5819 36.8327 63.2694 36.8304 62.942C36.8291 62.7573 36.5779 62.5192 36.3978 62.6065C36.3892 62.613 36.3893 62.613 36.3721 62.6261C36.5107 62.7563 36.6494 62.8949 36.7966 63.027C36.7712 63.0802 36.8652 62.9997 36.8737 62.9848C36.9165 62.952 36.9679 62.9127 37.002 62.8781C37.0791 62.8191 37.1646 62.7535 37.2416 62.6861C37.4041 62.5532 37.5667 62.4202 37.7292 62.2873C38.0715 62.0167 38.3965 61.7424 38.7387 61.4718C39.4061 60.9353 40.0647 60.3886 40.7321 59.8605C40.6202 59.8449 40.5083 59.8462 40.3877 59.8288C41.9796 61.0491 43.3924 62.491 44.5653 64.0912C44.7044 64.2886 44.9881 64.2486 45.047 64.0683C45.7445 61.7191 47.3661 59.8524 49.5096 58.7845C50.59 58.2524 51.7923 57.9224 53.0823 57.8291C53.4607 57.8009 53.8477 57.783 54.2439 57.8341C54.6659 57.8907 55.08 58.0462 55.4772 58.24C56.2457 58.6137 56.971 58.9783 57.7729 59.2082C59.2903 59.6413 60.8393 59.662 62.1787 59.2607C62.8484 59.0601 63.4308 58.6815 64.1095 58.533C64.8569 58.3573 65.6253 58.7311 66.3683 59.158C68.9602 60.6506 70.9486 63.1879 72.2149 65.8056C73.7259 68.9703 74.1971 72.3236 74.4091 75.5126C74.4379 75.9295 74.458 76.3446 74.4867 76.7531C74.4636 77.1338 75.0324 77.2553 75.0213 76.9008Z" fill="#6370B4"/>
<path d="M58.4791 39.0466C59.0368 37.6435 61.2155 37.7615 62.601 38.889C63.978 40.0234 64.7053 41.7631 65.2426 43.4126C65.9208 45.5061 66.4018 47.6985 66.0721 49.6757C65.7424 51.653 64.4725 53.3718 62.5207 53.663C61.9318 54.3498 62.1478 55.6316 62.8856 56.4642C63.6062 57.2933 64.7281 57.6923 65.6831 57.6247C65.8293 57.6108 65.9755 57.5883 66.0956 57.5259C66.3356 57.3923 66.4195 57.0975 66.5122 56.8304C67.5373 53.4344 68.225 49.8059 67.8354 45.9953C67.4457 42.1847 65.8665 38.1434 62.9867 35.1565C61.781 33.9093 60.2925 32.8304 58.7152 32.5476C57.1551 32.2683 55.5506 32.9672 55.2343 34.4362C53.7143 33.7493 52.2664 34.6789 51.3967 35.8028C50.0837 37.5129 49.4286 39.719 48.9285 41.9391C47.8449 46.7435 47.4181 51.8878 48.3693 57.145C48.45 57.5855 48.6261 58.1232 49.0404 58.2759C49.2303 58.3487 49.4194 58.3089 49.5999 58.2759C51.0095 57.9881 52.419 57.7002 53.82 57.4107C54.2411 57.3222 54.6622 57.2338 55.0136 57.0188C55.9733 56.4326 56.1527 55.0745 56.0832 53.8222C56.0021 52.1693 55.6108 50.4626 54.9617 48.8252C54.8303 48.5043 54.6814 48.1626 54.4299 47.9129C54.1698 47.6527 53.8244 47.5139 53.5046 47.3283C52.8735 46.9588 52.3269 46.3725 52.1239 45.6909C51.9295 45.011 52.1565 44.2773 52.7403 44.0744C53.3155 43.8698 54.1884 44.3399 54.3655 45.0163C54.3288 42.3765 55.9855 39.4107 58.4791 39.0466Z" fill="#977A65"/>
<path d="M58.7495 39.3277C59.0035 38.7298 59.6476 38.4919 60.3365 38.5109C61.0513 38.5356 61.8544 38.8524 62.4868 39.386C63.3011 40.0797 63.8674 41.0068 64.296 41.9284C64.7684 42.9619 65.0948 44.0476 65.3778 45.0981C65.9532 47.2777 66.1853 49.6097 65.2164 51.3652C64.834 52.0703 64.2787 52.6769 63.5494 53.0317C63.3693 53.1273 63.1632 53.2 62.9569 53.2557C62.8624 53.2769 62.7851 53.3106 62.6991 53.3253C62.5873 53.3426 62.4237 53.3398 62.3379 53.3886C62.1578 53.4842 62.0479 53.7657 61.989 53.9481C61.9215 54.1455 61.8887 54.3678 61.8903 54.5894C61.8973 55.5607 62.4814 56.5683 63.364 57.1753C63.8226 57.4911 64.3235 57.706 64.8237 57.8185C65.3152 57.9206 65.9271 57.9902 66.3041 57.7433C66.6984 57.4918 66.7888 56.8996 66.9234 56.4536C67.083 55.9025 67.234 55.3495 67.3764 54.8031C67.6525 53.6828 67.8768 52.5424 68.0233 51.3674C68.3001 49.1584 68.2834 46.8408 67.8274 44.4924C67.4164 42.4264 66.6609 40.3339 65.5018 38.4057C64.3339 36.4416 62.7273 34.5318 60.7729 33.3434C59.8216 32.7721 58.7598 32.38 57.7612 32.4105C56.8573 32.4283 56.0331 32.7532 55.4778 33.3598C55.2216 33.6509 55.026 33.9982 54.9343 34.4114C55.0459 34.3685 55.1748 34.3294 55.2866 34.3035C53.6366 33.5495 52.1961 34.3822 51.2995 35.4139C50.2746 36.5699 49.6312 38.0924 49.1687 39.6301C48.6638 41.2604 48.3146 42.9852 48.0344 44.7256C47.7547 46.5341 47.5699 48.3725 47.5404 50.2543C47.5109 52.1277 47.6366 54.0444 47.9433 55.9764C48.0513 56.6302 48.1283 57.7619 48.9487 58.0911C49.1991 58.19 49.4314 58.1743 49.655 58.1395C49.8787 58.1048 50.1108 58.0634 50.3344 58.0202C50.7902 57.9441 51.2373 57.8661 51.6844 57.7795C52.5874 57.6255 53.4905 57.4884 54.3846 57.3068C54.7715 57.2237 55.1321 57.0922 55.4145 56.8495C55.6713 56.6351 55.8759 56.3579 56.0114 56.0396C56.2911 55.4305 56.3633 54.6897 56.3494 53.955C56.3343 53.0584 56.1985 52.1346 56.0024 51.2058C55.8064 50.2855 55.5069 49.3504 55.1129 48.4536C54.9378 48.0399 54.6853 47.6513 54.2958 47.3766C53.941 47.1266 53.5438 46.9691 53.1974 46.687C52.6345 46.2371 52.1988 45.5181 52.3406 44.8865C52.4075 44.6123 52.5522 44.3726 52.8184 44.2709C53.0588 44.1804 53.3175 44.2386 53.5854 44.3755C53.8102 44.5026 54.0098 44.7176 54.0805 44.9717C54.1776 45.2998 54.6428 45.345 54.6405 45.0212C54.6331 43.9987 54.8844 43.026 55.3002 42.1753C55.7244 41.301 56.3388 40.529 57.153 40.0147C57.573 39.752 58.0538 39.5624 58.57 39.4999C58.7163 39.4903 58.8101 39.3668 58.7572 39.1933C58.7217 39.0492 58.5484 38.8996 58.4023 38.9263C56.2172 39.1916 54.8276 41.1077 54.2995 43.0985C54.1399 43.6581 54.0668 44.2626 54.0626 44.8827C54.2436 44.8979 54.4418 44.9254 54.6226 44.9321C54.4281 44.2248 53.7097 43.7059 53.0377 43.6397C52.2967 43.5751 51.8358 44.1349 51.7546 44.8141C51.6653 45.5596 52.1101 46.3488 52.7169 46.9192C53.029 47.2106 53.3922 47.4284 53.7552 47.6292C53.9281 47.7277 54.101 47.8176 54.2398 47.9594C54.3873 48.1202 54.4919 48.2969 54.5708 48.4847C54.9644 49.3474 55.2293 50.2662 55.4338 51.1544C55.6296 52.0406 55.7565 52.9284 55.78 53.8013C55.7935 54.4764 55.747 55.1975 55.4497 55.7516C55.3139 56.0273 55.1261 56.2487 54.8776 56.4225C54.5691 56.6253 54.1823 56.7084 53.8125 56.7698C52.9268 56.9277 52.0238 57.0733 51.1381 57.2398C50.691 57.3178 50.2524 57.3892 49.8052 57.4672C49.5988 57.4974 49.3841 57.5766 49.1687 57.5622C49.0309 57.5567 48.9443 57.4777 48.8747 57.3855C48.6659 57.0918 48.6286 56.6921 48.5747 56.3737C48.4938 55.9046 48.4215 55.429 48.3579 54.9638C48.2391 54.0099 48.1635 53.0827 48.1309 52.1396C48.0571 50.2685 48.1473 48.4429 48.3496 46.6424C48.5521 44.8676 48.8839 43.1303 49.2936 41.4361C49.6697 39.862 50.1494 38.3196 50.9492 36.9939C51.3236 36.3721 51.7497 35.7704 52.3061 35.3172C52.8198 34.9139 53.4288 34.5916 54.1607 34.5861C54.4878 34.5832 54.8242 34.6589 55.1524 34.8093C55.2993 34.8764 55.4712 34.8385 55.5047 34.7014C55.7217 33.7464 56.5441 33.1829 57.4989 33.049C58.5998 32.8884 59.8256 33.3259 60.8898 34.0332C62.0232 34.7987 63.012 35.8038 63.8636 36.8887C64.6805 37.9317 65.3516 39.061 65.8938 40.2293C67.0394 42.6818 67.5832 45.2626 67.6526 47.7197C67.7423 50.6066 67.2281 53.3321 66.4804 55.92C66.388 56.2395 66.3042 56.5524 66.2031 56.8614C66.1272 57.0825 66.034 57.2997 65.7846 57.3372C65.2859 57.4291 64.6564 57.296 64.1293 57.0413C63.6282 56.8009 63.1347 56.4261 62.8297 55.9237C62.551 55.4696 62.4093 54.9273 62.4922 54.4781C62.5335 54.2407 62.6267 54.032 62.7719 53.869C62.7118 53.8981 62.6605 53.9375 62.6003 53.958C64.0026 53.7972 65.0728 52.9492 65.7189 51.8016C66.4584 50.4708 66.5843 48.8233 66.3568 47.1303C66.2209 46.1895 65.9988 45.2378 65.7077 44.2791C65.4607 43.458 65.1793 42.6375 64.8206 41.8422C64.1992 40.4519 63.1812 38.9724 61.7301 38.3311C60.5294 37.7887 59.0914 37.7713 58.4092 38.6981C58.3153 38.8131 58.2646 38.9463 58.2053 39.0776C58.146 39.2089 58.2679 39.3979 58.3976 39.4696C58.5702 39.5255 58.6988 39.4609 58.7495 39.3277Z" fill="#977A65"/>
<path d="M44.7301 64.6692C45.9383 66.249 47.0092 67.8998 47.9256 69.6261C48.109 69.9816 48.5986 69.8118 48.4152 69.4563C47.4812 67.6836 46.3754 65.9741 45.1326 64.3694C44.8719 64.039 44.478 64.3407 44.7301 64.6692Z" fill="#4C4797"/>
<path d="M55.5813 57.8112C57.6183 58.8391 59.857 59.1667 61.8154 58.7648C62.3651 58.6576 62.88 58.4769 63.3859 58.2528C63.5145 58.1868 63.5651 58.0471 63.4867 57.8985C63.4169 57.7598 63.227 57.6639 63.0984 57.7216C61.4437 58.5081 59.3971 58.5846 57.3887 57.9783C56.8285 57.809 56.285 57.5847 55.7413 57.3105C55.3873 57.1238 55.2274 57.6328 55.5813 57.8112Z" fill="#4C4797"/>
<path d="M59.7569 60.6841C60.7715 60.5902 61.7337 60.3851 62.652 60.0623C62.9696 59.9543 62.6819 59.4181 62.3643 59.526C61.4888 59.8245 60.5697 60.0304 59.5981 60.1251C59.2542 60.1608 59.4044 60.7263 59.7569 60.6841Z" fill="#4C4797"/>
<path d="M67.673 72.2222C67.9532 75.0377 67.8951 77.8257 67.4459 80.4431C67.3127 81.1948 67.162 81.9336 66.9765 82.6555C66.8835 82.9903 67.4403 83.287 67.5331 82.9348C68.1905 80.3491 68.4915 77.601 68.4018 74.7608C68.3701 73.9615 68.3211 73.1669 68.2459 72.3486C68.2361 72.1984 68.1136 72.0303 67.9574 71.9934C67.8098 71.9673 67.6632 72.0545 67.673 72.2222Z" fill="#4C4797"/>
</g>
<path d="M37.9237 18.1866L39.7674 18.5576C40.9243 18.7904 41.7943 19.2913 41.8021 20.3427C41.8058 20.8503 41.5206 21.3359 41.052 21.4226L41.0523 21.4589C41.6679 21.7276 42.1049 22.2499 42.1106 23.0113C42.1188 24.1352 41.1829 24.4899 39.9538 24.2426L37.9654 23.8425L37.9237 18.1866ZM39.7123 20.8634C40.4353 21.0089 40.7224 20.7771 40.7191 20.342C40.7154 19.8344 40.3887 19.5877 39.7018 19.4495L39.0511 19.3185L39.0615 20.7325L39.7123 20.8634ZM39.875 23.3579C40.6342 23.5107 41.0659 23.3079 41.0616 22.7278C41.0576 22.184 40.6583 21.8864 39.863 21.7264L39.0677 21.5664L39.0797 23.1979L39.875 23.3579Z" fill="#FB6C6C"/>
<path d="M42.8181 21.9125C42.8045 20.0661 43.8088 19.2192 45.2907 19.5165C46.7726 19.8139 47.8288 21.1103 47.8422 22.9206C47.8556 24.7308 46.8518 25.6501 45.3337 25.3455C43.8157 25.0409 42.8315 23.7227 42.8181 21.9125ZM46.7217 22.6957C46.7129 21.501 46.1654 20.6681 45.3341 20.5013C44.5028 20.3345 43.9659 20.9498 43.9747 22.1446C43.9836 23.3393 44.5313 24.2084 45.3626 24.3752C46.194 24.542 46.7305 23.8905 46.7217 22.6957Z" fill="#FB6C6C"/>
<path d="M48.9352 20.2272L50.092 20.4598L51.7409 23.7952L52.3284 25.1439L52.3646 25.1511C52.288 24.5567 52.2101 23.781 52.2055 23.1648L52.1889 20.9177L53.2373 21.1285L53.2787 26.7464L52.1219 26.5138L50.473 23.1783L49.8858 21.866L49.8496 21.8587C49.8903 22.4821 50.0039 23.1926 50.0087 23.845L50.0252 26.0921L48.9769 25.8813L48.9352 20.2272Z" fill="#FB6C6C"/>
<path d="M54.1335 25.9814L54.8886 25.5531C55.1085 25.9967 55.3991 26.2368 55.7245 26.3024C56.2308 26.4046 56.482 26.2013 56.4761 25.4017L56.4485 21.6584L57.5694 21.8846L57.5975 25.7006C57.6053 26.7546 57.0694 27.5173 55.8761 27.2765C55.0448 27.145 54.5 26.7085 54.1335 25.9814Z" fill="#FB6C6C"/>
<path d="M58.668 24.8501C58.6544 23.0037 59.6587 22.1568 61.1767 22.4614C62.6948 22.766 63.6787 24.0479 63.6921 25.8582C63.7054 27.6684 62.7016 28.5877 61.2197 28.2904C59.7378 27.993 58.6813 26.6604 58.668 24.8501ZM62.5354 25.6261C62.5266 24.4313 61.9791 23.5985 61.1478 23.4317C60.3165 23.2649 59.7796 23.8802 59.7884 25.0749C59.7973 26.2697 60.345 27.1388 61.1764 27.3056C62.0077 27.4724 62.5443 26.8209 62.5354 25.6261Z" fill="#FB6C6C"/>
<path d="M64.7356 26.2694L64.7129 23.1881L65.8335 23.4135L65.8571 26.6036C65.8656 27.7636 66.2662 28.2423 66.9169 28.3732C67.5676 28.504 67.9985 28.1925 67.9899 27.0325L67.9664 23.8424L69.0509 24.0605L69.0736 27.1418C69.0875 29.0269 68.2978 29.6282 66.9241 29.352C65.5866 29.083 64.7495 28.1545 64.7356 26.2694Z" fill="#FB6C6C"/>
<path d="M73.5314 30.4815L72.3588 28.1102L71.5635 27.9503L71.5792 30.0888L70.4586 29.8634L70.4171 24.2452L72.3693 24.6379C73.5622 24.8778 74.4689 25.4583 74.4786 26.7631C74.4847 27.5968 74.0549 28.0533 73.4061 28.1761L74.7246 30.7576L73.5316 30.5177L73.5314 30.4815ZM71.5571 27.0804L72.2801 27.2258C73.0031 27.3712 73.3986 27.1612 73.394 26.545C73.3895 25.9288 72.9905 25.6676 72.2675 25.5222L71.5445 25.3768L71.5571 27.0804Z" fill="#FB6C6C"/>
<defs>
<linearGradient id="paint0_linear" x1="52.5568" y1="96" x2="55.6728" y2="81.8689" gradientUnits="userSpaceOnUse">
<stop stop-color="#C4C4C4" stop-opacity="0"/>
<stop offset="1" stop-color="#999999" stop-opacity="0.53"/>
</linearGradient>
</defs>
</svg>
