<svg width="160" height="122" viewBox="0 0 160 122" fill="none" xmlns="http://www.w3.org/2000/svg">
<g clip-path="url(#clip0)">
<path d="M91.8749 37.5337H77.4374C77.1249 37.5337 76.8124 37.4092 76.6249 37.098C75.8124 35.9153 75.3749 34.4837 75.3749 33.0521C75.3749 29.1306 78.5624 25.9561 82.4999 25.9561C85.3124 25.9561 87.8124 27.5745 88.9374 30.0643C90.3124 30.002 91.6249 30.5 92.6874 31.3714C93.0624 31.7449 93.1249 32.3051 92.7499 32.7408C92.3749 33.1143 91.8124 33.1765 91.3749 32.8031C90.5624 32.1184 89.5624 31.8071 88.4374 31.9939C87.9374 32.0561 87.4999 31.8071 87.3749 31.3714C86.6874 29.2551 84.6874 27.8235 82.4374 27.8235C79.5624 27.8235 77.2499 30.1265 77.2499 32.9898C77.2499 33.8612 77.4999 34.7949 77.9374 35.5419H91.8749C92.3749 35.5419 92.8124 35.9776 92.8124 36.4755C92.8124 36.9735 92.4374 37.5337 91.8749 37.5337Z" fill="white"/>
<path d="M150.687 122H9.25C8.75 122 8.3125 121.564 8.3125 121.066C8.3125 120.568 8.75 120.133 9.25 120.133H150.625C151.125 120.133 151.562 120.568 151.562 121.066C151.562 121.564 151.187 122 150.687 122Z" fill="white"/>
<path d="M81.0625 96.1061H22.5C22.1875 96.1061 21.8125 95.9194 21.6875 95.6082C21.5 95.2969 21.5 94.9235 21.6875 94.6745L23.375 91.749C23.625 91.3133 24.25 91.1265 24.6875 91.3755C25.125 91.6245 25.3125 92.2469 25.0625 92.6826L24.1875 94.1765H79.4375L77.9375 91.6245C77.6875 91.1888 77.8125 90.5663 78.3125 90.3173C78.75 90.0684 79.375 90.1929 79.625 90.6908L81.9375 94.6745C82.125 94.9857 82.125 95.3592 81.9375 95.6082C81.75 95.9194 81.4375 96.1061 81.0625 96.1061Z" fill="white"/>
<path d="M67.8126 94.3633C67.5001 94.3633 67.1876 94.1765 67.0001 93.9276L44.6251 56.4561C44.3751 56.0204 44.5001 55.398 44.9376 55.149C45.3751 54.9 46.0001 55.0245 46.2501 55.4602L68.6251 92.9316C68.8751 93.3674 68.7501 93.9898 68.3126 94.2388C68.1251 94.301 68.0001 94.3633 67.8126 94.3633Z" fill="white"/>
<path d="M56.5625 95.9816C56.25 95.9816 55.9375 95.7949 55.75 95.4837L38.75 66.9755C38.5 66.5398 38.625 65.9173 39.0625 65.6684C39.5 65.4194 40.125 65.5439 40.375 65.9796L57.375 94.4877C57.625 94.9235 57.5 95.5459 57.0625 95.7949C56.9375 95.9194 56.75 95.9816 56.5625 95.9816Z" fill="white"/>
<path d="M44.6875 96.1061C44.375 96.1061 44.0625 95.9816 43.875 95.6704L32.5625 78.5531C32.25 78.1173 32.375 77.4949 32.8125 77.2459C33.25 76.9347 33.875 77.0592 34.125 77.4949L45.4375 94.6122C45.75 95.048 45.625 95.6704 45.1875 95.9194C45.0625 96.0439 44.875 96.1061 44.6875 96.1061Z" fill="white"/>
<path d="M35.6874 95.7949C35.4999 95.7949 35.3749 95.7326 35.1874 95.6704C34.7499 95.4214 34.5624 94.8612 34.8124 94.3633L57.0624 55.149C57.3124 54.7133 57.8749 54.5265 58.3749 54.7755C58.8124 55.0245 58.9999 55.5847 58.7499 56.0826L36.4999 95.2969C36.3124 95.6082 35.9999 95.7949 35.6874 95.7949Z" fill="white"/>
<path d="M47.7499 95.7326C47.6249 95.7326 47.4374 95.6704 47.3124 95.6082C46.8749 95.3592 46.6874 94.799 46.9374 94.301L62.9374 65.2327C63.1874 64.7969 63.7499 64.6102 64.2499 64.8592C64.6874 65.1082 64.8749 65.6684 64.6249 66.1663L48.5624 95.2347C48.4374 95.5459 48.0624 95.7326 47.7499 95.7326Z" fill="white"/>
<path d="M59.5624 96.1061C59.3749 96.1061 59.2499 96.0439 59.0624 95.9816C58.6249 95.7326 58.4374 95.1102 58.6874 94.6745L69.4374 76.25C69.6874 75.8143 70.3124 75.6275 70.7499 75.8765C71.1874 76.1255 71.3749 76.7479 71.1249 77.1836L60.3749 95.6082C60.1874 95.9194 59.8749 96.1061 59.5624 96.1061Z" fill="white"/>
<path d="M3 96.8531C2.5 96.8531 2.0625 96.4173 2.0625 95.9194C2.0625 95.4214 2.5 94.9857 3 94.9857L156.875 94.9235C157.375 94.9235 157.812 95.3592 157.812 95.8571C157.812 96.3551 157.375 96.7908 156.875 96.7908L3 96.8531Z" fill="white"/>
<path d="M157.062 96.5419C157 96.5419 156.938 96.5419 156.875 96.5419C156.375 96.4174 156 95.9194 156.125 95.4214C157.187 90.3174 157.687 85.0888 157.687 79.798C157.687 37.1602 122.812 2.42755 79.9375 2.42755C37.0625 2.42755 2.25 37.1602 2.25 79.8602C2.25 85.0888 2.75 90.3796 3.8125 95.4837C3.9375 95.9816 3.5625 96.4796 3.0625 96.6041C2.5625 96.7286 2.0625 96.3551 1.9375 95.8572C0.874999 90.6286 0.3125 85.2755 0.3125 79.8602C0.3125 36.1643 36.0625 0.560204 79.9375 0.560204C123.812 0.560204 159.625 36.102 159.625 79.8602C159.625 85.2133 159.062 90.6286 158 95.8572C157.875 96.2306 157.5 96.5419 157.062 96.5419Z" fill="white"/>
<path d="M41.6875 61.747H24.125C23.8125 61.747 23.5625 61.6225 23.375 61.3735C22.5 60.2531 22.0625 58.8837 22.0625 57.3898C22.0625 53.8419 24.875 50.9163 28.375 50.9163C29.125 50.9163 29.8125 51.0408 30.5 51.2898C31.9375 49.6714 34.0625 48.7378 36.3125 48.7378C38.8125 48.7378 41.125 49.9204 42.5625 51.85C43.875 51.4765 45.3125 51.5388 46.625 52.099C47.125 52.2857 47.375 52.8459 47.1875 53.3439C47 53.8419 46.4375 54.0908 45.9375 53.9041C44.875 53.4684 43.625 53.4684 42.5625 53.9041C42.125 54.0908 41.625 53.9041 41.375 53.5306C40.375 51.7878 38.4375 50.7296 36.375 50.7296C34.5 50.7296 32.75 51.601 31.625 53.0949C31.375 53.4684 30.8125 53.5929 30.375 53.4061C29.75 53.0949 29.0625 52.9082 28.375 52.9082C25.9375 52.9082 24 54.9623 24 57.5143C24 58.3857 24.25 59.1949 24.6875 59.9418H41.75C42.25 59.9418 42.6875 60.3776 42.6875 60.8755C42.6875 61.3735 42.25 61.747 41.6875 61.747Z" fill="white"/>
<path d="M28.3125 93.1184C27.5 93.1184 26.6875 92.8694 26 92.4337C25.3125 92.8071 24.5625 92.9939 23.8125 92.9939C21.375 92.9939 19.375 91.002 19.375 88.5745V88.5122C17.3125 87.8898 15.75 85.9602 15.75 83.7194C15.75 80.9806 18 78.7398 20.75 78.7398C21.1875 76.25 23.375 74.3826 26 74.3826C28.625 74.3826 30.8125 76.3122 31.25 78.802C33.75 79.051 35.75 81.1673 35.75 83.7816C35.75 85.7735 34.5 87.5786 32.6875 88.3877C32.6875 88.5122 32.6875 88.6367 32.6875 88.7612C32.75 91.1265 30.75 93.1184 28.3125 93.1184ZM26 90.3173C26.25 90.3173 26.4375 90.3796 26.625 90.5663C27.125 91.002 27.6875 91.1888 28.3125 91.1888C29.6875 91.1888 30.8125 90.0684 30.8125 88.699C30.8125 88.45 30.75 88.2632 30.6875 87.952C30.625 87.703 30.625 87.3918 30.75 87.2051C30.875 86.9561 31.125 86.8316 31.375 86.7694C32.8125 86.4581 33.8125 85.2133 33.8125 83.7816C33.8125 82.101 32.4375 80.7316 30.75 80.7316C30.625 80.7316 30.5625 80.7316 30.4375 80.7316C30.1875 80.7316 29.875 80.6694 29.6875 80.4826C29.5 80.2959 29.375 80.0469 29.375 79.7979V79.7357C29.375 77.9306 27.8125 76.3745 25.9375 76.3745C24.0625 76.3745 22.5 77.9306 22.5 79.7979V79.8602C22.5 80.1714 22.375 80.4204 22.125 80.6071C21.875 80.7939 21.625 80.8561 21.3125 80.7939C19.375 80.3581 17.5625 81.852 17.5625 83.7816C17.5625 85.4 18.8125 86.7071 20.4375 86.8316C20.75 86.8316 21 87.0184 21.125 87.2051C21.25 87.3918 21.375 87.703 21.25 88.0143C21.1875 88.2632 21.1875 88.45 21.1875 88.6367C21.1875 90.0061 22.3125 91.1265 23.6875 91.1265C24.4375 91.1265 24.9375 90.8153 25.3125 90.5663C25.5625 90.3796 25.75 90.3173 26 90.3173Z" fill="white"/>
<path d="M26.25 96.0439C25.75 96.0439 25.3125 95.6081 25.3125 95.1102V85.4C25.3125 84.902 25.75 84.4663 26.25 84.4663C26.75 84.4663 27.1875 84.902 27.1875 85.4V95.1102C27.1875 95.6081 26.75 96.0439 26.25 96.0439Z" fill="white"/>
<path d="M25.75 88.8857C25.5625 88.8857 25.375 88.8235 25.1875 88.699L23.0625 87.1428C22.625 86.8316 22.5625 86.2092 22.875 85.8357C23.1875 85.4 23.8125 85.3377 24.1875 85.649L26.3125 87.2051C26.75 87.5163 26.8125 88.1388 26.5 88.5122C26.3125 88.7612 26.0625 88.8857 25.75 88.8857Z" fill="white"/>
<path d="M26.375 90.753C26.0625 90.753 25.8125 90.6286 25.625 90.3796C25.3125 89.9439 25.375 89.3837 25.8125 89.0724L28.0625 87.3296C28.5 87.0183 29.0625 87.0806 29.375 87.5163C29.6875 87.952 29.625 88.5122 29.1875 88.8235L26.9375 90.5663C26.8125 90.6908 26.625 90.753 26.375 90.753Z" fill="white"/>
<path d="M40.75 29.3173L41.8125 31.3714L44.125 31.6826L42.4375 33.301L42.8125 35.6041L40.75 34.5459L38.6875 35.6041L39.125 33.301L37.4375 31.6826L39.75 31.3714L40.75 29.3173Z" fill="white"/>
<path d="M38.6875 36.5378C38.5 36.5378 38.3125 36.4755 38.125 36.351C37.8125 36.1643 37.6875 35.7908 37.75 35.4173L38.0625 33.6122L36.75 32.3673C36.5 32.1184 36.375 31.7449 36.5 31.3714C36.625 30.998 36.9375 30.749 37.25 30.749L39.0625 30.5L39.875 28.8816C40.0625 28.5704 40.375 28.3214 40.75 28.3214C41.125 28.3214 41.4375 28.5082 41.625 28.8816L42.4375 30.5L44.25 30.749C44.625 30.8112 44.9375 31.0602 45 31.3714C45.125 31.7449 45 32.1184 44.75 32.3673L43.4375 33.6122L43.75 35.4173C43.8125 35.7908 43.6875 36.1643 43.375 36.351C43.0625 36.5378 42.6875 36.6 42.375 36.4133L40.75 35.5418L39.125 36.4133C39 36.5378 38.875 36.5378 38.6875 36.5378ZM39.5 32.3673L39.75 32.6163C40 32.8653 40.0625 33.1765 40 33.4877L39.9375 33.8612L40.25 33.6745C40.5 33.55 40.875 33.55 41.125 33.6745L41.4375 33.8612L41.375 33.4877C41.3125 33.1765 41.4375 32.8653 41.625 32.6163L41.875 32.3673L41.5 32.3051C41.1875 32.2429 40.9375 32.0561 40.75 31.8071L40.5625 31.4337L40.375 31.8071C40.25 32.1184 39.9375 32.3051 39.625 32.3051L39.5 32.3673Z" fill="white"/>
<path d="M65 36.6L66.0625 38.7163L68.3125 39.0276L66.6875 40.6459L67.0625 42.949L65 41.8286L62.9375 42.949L63.3125 40.6459L61.6875 39.0276L64 38.7163L65 36.6Z" fill="white"/>
<path d="M67.0625 43.8827C66.9375 43.8827 66.75 43.8204 66.625 43.7582L65 42.949L63.375 43.8204C63.0625 44.0071 62.6875 43.9449 62.375 43.7582C62.0625 43.5714 61.9375 43.198 62 42.8245L62.3125 41.0194L61 39.7745C60.75 39.5255 60.625 39.152 60.75 38.7786C60.875 38.4051 61.1875 38.1561 61.5 38.1561L63.3125 37.9071L64.125 36.2888C64.3125 35.9776 64.625 35.7286 65 35.7286C65.375 35.7286 65.6875 35.9153 65.875 36.2888L66.6875 37.9071L68.5 38.1561C68.875 38.2184 69.1875 38.4673 69.25 38.7786C69.375 39.152 69.25 39.5255 69 39.7745L67.6875 41.0194L68 42.8245C68.0625 43.198 67.9375 43.5714 67.625 43.7582C67.4375 43.8204 67.25 43.8827 67.0625 43.8827ZM65 40.8949C65.125 40.8949 65.3125 40.9571 65.4375 41.0194L65.75 41.2061L65.6875 40.8327C65.625 40.5214 65.75 40.2102 65.9375 39.9612L66.1875 39.7122L65.8125 39.65C65.5 39.5878 65.25 39.401 65.0625 39.152L64.875 38.7786L64.6875 39.152C64.5625 39.4633 64.25 39.65 63.9375 39.65L63.5625 39.7122L63.8125 39.9612C64.0625 40.2102 64.125 40.5214 64.0625 40.8327L64 41.2061L64.3125 41.0194C64.6875 40.9571 64.875 40.8949 65 40.8949Z" fill="white"/>
<path d="M79.9375 12.2622L80.9375 14.3163L83.25 14.6898L81.5625 16.3082L82 18.549L79.9375 17.4908L77.875 18.549L78.25 16.3082L76.5625 14.6898L78.875 14.3163L79.9375 12.2622Z" fill="white"/>
<path d="M82 19.5449C81.875 19.5449 81.6875 19.4827 81.5625 19.4204L79.9375 18.549L78.3125 19.4204C78 19.6071 77.625 19.5449 77.3125 19.3582C77 19.1714 76.875 18.798 76.9375 18.4245L77.25 16.6194L75.9375 15.3745C75.6875 15.1255 75.5625 14.752 75.6875 14.3786C75.8125 14.0051 76.125 13.7561 76.4375 13.7561L78.25 13.5071L79.0625 11.8888C79.25 11.5776 79.5625 11.3286 79.9375 11.3286C80.3125 11.3286 80.625 11.5153 80.8125 11.8888L81.625 13.5071L83.4375 13.7561C83.8125 13.8184 84.125 14.0673 84.1875 14.3786C84.3125 14.752 84.1875 15.1255 83.9375 15.3745L82.625 16.6194L82.9375 18.4245C83 18.798 82.875 19.1714 82.5625 19.3582C82.375 19.4827 82.1875 19.5449 82 19.5449ZM79.9375 16.5571C80.0625 16.5571 80.25 16.6194 80.375 16.6816L80.6875 16.8684L80.625 16.4949C80.5625 16.1837 80.6875 15.8725 80.875 15.6235L81.125 15.3745L80.75 15.3122C80.4375 15.25 80.1875 15.0633 80 14.8143L79.8125 14.4408L79.625 14.8143C79.5 15.1255 79.1875 15.3122 78.875 15.3122L78.5 15.3745L78.75 15.6235C79 15.8725 79.0625 16.1837 79 16.4949L78.9375 16.8684L79.25 16.6816C79.625 16.5571 79.75 16.5571 79.9375 16.5571Z" fill="white"/>
<path d="M121.688 29.5041L122.687 31.5582L125 31.9316L123.312 33.55L123.687 35.7908L121.688 34.7326L119.625 35.7908L120 33.55L118.312 31.9316L120.625 31.5582L121.688 29.5041Z" fill="white"/>
<path d="M119.625 36.7867C119.437 36.7867 119.25 36.7245 119.062 36.6C118.75 36.4133 118.625 36.0398 118.687 35.6663L119 33.8612L117.687 32.6163C117.437 32.3674 117.312 31.9939 117.437 31.6204C117.562 31.2469 117.875 30.998 118.187 30.998L120 30.749L120.812 29.1306C121 28.8194 121.312 28.5704 121.687 28.5704C122.062 28.5704 122.375 28.7571 122.562 29.1306L123.375 30.749L125.187 30.998C125.562 31.0602 125.875 31.3092 125.937 31.6204C126.062 31.9939 125.937 32.3674 125.687 32.6163L124.375 33.8612L124.687 35.6663C124.75 36.0398 124.625 36.4133 124.312 36.6C124 36.7867 123.625 36.849 123.312 36.6622L121.687 35.7908L120.062 36.6622C119.875 36.7245 119.75 36.7867 119.625 36.7867ZM120.375 32.5541L120.625 32.8031C120.875 33.0521 120.937 33.3633 120.875 33.6745L120.812 34.048L121.125 33.8612C121.375 33.7367 121.75 33.7367 122 33.8612L122.312 34.048L122.25 33.6745C122.187 33.3633 122.312 33.0521 122.5 32.8031L122.75 32.5541L122.375 32.4919C122.062 32.4296 121.812 32.2429 121.625 31.9939L121.437 31.6204L121.25 31.9939C121.125 32.3051 120.812 32.4919 120.5 32.4919L120.375 32.5541Z" fill="white"/>
<path d="M74.6877 85.151C74.3752 85.151 74.0627 84.9643 73.8752 84.6531L51.8127 46.5592L32.3127 80.1714C32.0627 80.6071 31.4377 80.7939 31.0002 80.5449C30.5627 80.2959 30.3752 79.6735 30.6252 79.2378L50.9377 44.1939C51.1252 43.8827 51.4377 43.6959 51.7502 43.6959C52.0627 43.6959 52.4377 43.8827 52.5627 44.1939L75.5002 83.7194C75.7502 84.1551 75.6252 84.7776 75.1252 85.0265C75.0627 85.0888 74.8752 85.151 74.6877 85.151Z" fill="white"/>
<path d="M140.062 95.9816C139.563 95.9816 139.125 95.5459 139.125 95.048V87.7653C139.125 87.2673 139.563 86.8316 140.062 86.8316C140.562 86.8316 141 87.2673 141 87.7653V95.1102C141 95.6081 140.625 95.9816 140.062 95.9816Z" fill="white"/>
<path d="M139.687 90.6286C139.5 90.6286 139.312 90.5663 139.125 90.4418L137.5 89.2592C137.062 88.9479 137 88.3255 137.312 87.952C137.625 87.5163 138.25 87.4541 138.625 87.7653L140.25 88.9479C140.687 89.2592 140.75 89.8816 140.437 90.2551C140.312 90.5041 140 90.6286 139.687 90.6286Z" fill="white"/>
<path d="M140.187 92.0602C139.875 92.0602 139.625 91.9357 139.438 91.6867C139.125 91.251 139.187 90.6908 139.625 90.3796L141.312 89.0724C141.75 88.7612 142.312 88.8234 142.625 89.2592C142.937 89.6949 142.875 90.2551 142.437 90.5663L140.75 91.8735C140.625 91.998 140.375 92.0602 140.187 92.0602Z" fill="white"/>
<path d="M58.6875 116.647H54V102.019H55.9375V114.842H58.625V116.647H58.6875Z" fill="white"/>
<path d="M57.8125 107.372L58.75 104.758H57.8125V102.019H59.1875C59.75 102.019 60 102.268 60 102.829V104.758L59 107.372H57.8125Z" fill="white"/>
<path d="M61.5 116.647V102.019H66.375V103.762H63.5V108.182H66.0625V109.924H63.5V114.78H66.375V116.522H61.5V116.647ZM63.9375 101.086H62.5625L63.5 98.6582H65.3125L63.9375 101.086Z" fill="white"/>
<path d="M70.875 103.762V116.585H68.9375V103.762H67.0625V102.019H72.8125V103.762H70.875Z" fill="white"/>
<path d="M75.75 116.647H73.8125V104.509C73.8125 102.829 74.625 102.019 76.1875 102.019H77.6875C79.25 102.019 80.0625 102.829 80.0625 104.509V116.647H78.125V111.294H75.875V116.647H75.75ZM78 109.489V104.634C78 104.073 77.6875 103.762 77.125 103.762H76.5625C76 103.762 75.6875 104.073 75.6875 104.634V109.489H78Z" fill="white"/>
<path d="M81.6875 102.019H85.25C86.8125 102.019 87.625 102.829 87.625 104.509V108.866C87.625 110.547 86.8125 111.356 85.25 111.356H83.625V116.647H81.6875V102.019ZM83.6875 109.551H84.9375C85.4375 109.551 85.6875 109.24 85.6875 108.68V104.634C85.6875 104.073 85.375 103.762 84.8125 103.762H83.6875V109.551Z" fill="white"/>
<path d="M89.2501 116.647V102.019H94.1251V103.762H91.2501V108.182H93.8126V109.925H91.2501V114.78H94.1251V116.522H89.2501V116.647Z" fill="white"/>
<path d="M103.312 108.244V109.987H100.75V116.647H98.7499V102.019H103.625V103.762H100.75V108.182H103.312V108.244Z" fill="white"/>
<path d="M104.938 102.019H108.813C110.313 102.019 111.063 102.829 111.063 104.509V108.119C111.063 109.427 110.687 110.173 109.875 110.547L111.25 116.647H109.375L108.062 110.734H106.875V116.647H104.938V102.019ZM106.938 109.053H108.25C108.813 109.053 109.125 108.68 109.125 107.995V104.82C109.125 104.136 108.813 103.762 108.25 103.762H106.938V109.053Z" fill="white"/>
<path d="M114.562 116.647H112.625V104.509C112.625 102.829 113.437 102.019 115 102.019H116.5C118.062 102.019 118.875 102.829 118.875 104.509V116.647H116.937V111.294H114.687V116.647H114.562ZM116.812 109.489V104.634C116.812 104.073 116.5 103.762 115.937 103.762H115.375C114.812 103.762 114.5 104.073 114.5 104.634V109.489H116.812Z" fill="white"/>
<path d="M124.562 109.115V102.019H126.5V116.647H124.562V113.721L122.5 107.061V116.647H120.562V102.019H122.5L124.562 109.115Z" fill="white"/>
<path d="M134.25 113.223V114.157C134.25 115.838 133.438 116.647 131.875 116.647H130.625C129.062 116.647 128.25 115.838 128.25 114.157V104.509C128.25 102.829 129.062 102.019 130.625 102.019H131.875C133.438 102.019 134.25 102.829 134.25 104.509V106.19H132.313V104.696C132.313 104.136 132 103.824 131.437 103.824H131.063C130.563 103.824 130.312 104.136 130.312 104.696V114.095C130.312 114.655 130.563 114.966 131.063 114.966H131.563C132.063 114.966 132.313 114.655 132.313 114.095V113.286H134.25V113.223Z" fill="white"/>
<path d="M135.812 116.647V102.019H140.687V103.762H137.812V108.182H140.375V109.925H137.812V114.78H140.687V116.522H135.812V116.647Z" fill="white"/>
<path d="M130.562 93.3051H127.062C123.25 93.3051 120.125 90.1929 120.125 86.3959V82.101C120.125 78.3041 123.25 75.1918 127.062 75.1918H130.562C134.375 75.1918 137.5 78.3041 137.5 82.101V86.3959C137.5 90.2551 134.375 93.3051 130.562 93.3051ZM127.062 76.997C124.25 76.997 121.937 79.3 121.937 82.101V86.3959C121.937 89.1969 124.25 91.5 127.062 91.5H130.562C133.375 91.5 135.688 89.1969 135.688 86.3959V82.101C135.688 79.3 133.375 76.997 130.562 76.997H127.062Z" fill="white"/>
<path d="M128.875 95.9816C128.375 95.9816 127.938 95.5459 127.938 95.048V85.898C127.938 85.4 128.375 84.9643 128.875 84.9643C129.375 84.9643 129.812 85.4 129.812 85.898V95.048C129.812 95.6082 129.375 95.9816 128.875 95.9816Z" fill="white"/>
<path d="M128.375 89.2592C128.187 89.2592 128 89.197 127.812 89.0725L125.75 87.5786C125.313 87.2674 125.25 86.6449 125.562 86.2714C125.875 85.8357 126.5 85.7735 126.875 86.0847L128.937 87.5786C129.375 87.8898 129.438 88.5122 129.125 88.8857C129 89.1347 128.687 89.2592 128.375 89.2592Z" fill="white"/>
<path d="M129 91.0643C128.687 91.0643 128.438 90.9398 128.25 90.6908C127.938 90.2551 128 89.6949 128.437 89.3837L130.562 87.7031C131 87.3918 131.562 87.4541 131.875 87.8898C132.187 88.3255 132.125 88.8857 131.688 89.1969L129.562 90.8776C129.437 91.002 129.187 91.0643 129 91.0643Z" fill="white"/>
<path d="M45.6023 115.089V102.952H35.6648V115.089H45.6023Z" fill="#C23F40"/>
<path d="M45.5625 116.087H35.625C35.125 116.087 34.6875 115.651 34.6875 115.153V103.015C34.6875 102.517 35.125 102.082 35.625 102.082H45.5625C46.0625 102.082 46.5 102.517 46.5 103.015V115.153C46.5 115.651 46.125 116.087 45.5625 116.087ZM36.625 114.157H44.625V103.887H36.625V114.157Z" fill="white"/>
<path d="M37.5687 115.147V106.432H28.4437V115.147H37.5687Z" fill="white"/>
<path d="M37.625 116.087H28.5C28 116.087 27.5625 115.651 27.5625 115.153V106.439C27.5625 105.941 28 105.505 28.5 105.505H37.625C38.125 105.505 38.5625 105.941 38.5625 106.439V115.153C38.5625 115.651 38.125 116.087 37.625 116.087ZM29.4375 114.157H36.625V107.372H29.4375V114.157Z" fill="white"/>
<path d="M31.333 115.166V110.248H21.3955V115.166H31.333Z" fill="#1B3170"/>
<path d="M31.3125 116.087H21.375C20.875 116.087 20.4375 115.651 20.4375 115.153V110.236C20.4375 109.738 20.875 109.302 21.375 109.302H31.3125C31.8125 109.302 32.25 109.738 32.25 110.236V115.153C32.3125 115.651 31.875 116.087 31.3125 116.087ZM22.375 114.157H30.375V111.169H22.375V114.157Z" fill="white"/>
<path d="M79.4374 96.4801H67.8749C67.4999 96.4801 67.1874 96.2934 66.9999 95.9821C66.8124 95.6709 66.8749 95.2974 67.0624 94.9862L78.6874 78.5536L78.5624 76.624C78.5624 76.375 78.6249 76.126 78.8124 75.9393C78.9999 75.7525 79.2499 75.628 79.4999 75.628L81.0624 75.5658L87.0624 62.1831L86.4374 60.8138C86.1249 60.3781 86.0624 59.8178 86.3124 59.3199C86.5624 58.7597 87.1249 58.3862 87.6874 58.3862H88.1249C88.8124 53.4689 92.1874 28.1974 92.4999 19.0474H92.3749C91.8749 19.0474 91.4374 18.6117 91.4374 18.1138V16.1219C91.4374 15.9974 91.4374 15.8729 91.4999 15.7485L92.6874 13.1342C92.8124 12.823 93.1874 12.574 93.5624 12.574H94.0624V6.84744C94.0624 6.34948 94.4999 5.91376 94.9999 5.91376H95.9374C96.4374 5.91376 96.8749 6.34948 96.8749 6.84744C96.8749 7.3454 96.4374 7.78111 95.9374 7.78111V13.5076C95.9374 14.0056 95.4999 14.4413 94.9999 14.4413H94.1249L93.2499 16.3087V17.1801H93.4374C93.6874 17.1801 93.9374 17.3046 94.1249 17.4913C94.3124 17.6781 94.3749 17.927 94.3749 18.176C94.2499 27.2638 89.9999 58.1995 89.8124 59.5066C89.7499 60.0046 89.3124 60.3158 88.8749 60.3158H88.2499L88.9374 61.7474C89.0624 61.9964 89.0624 62.3076 88.9374 62.5566L82.5624 76.8729C82.4374 77.1842 82.1249 77.4331 81.7499 77.4331L80.5624 77.4954L80.6249 78.8025C80.6249 78.9893 80.5624 79.2383 80.4374 79.425L69.6874 94.6127H78.5624C79.2499 89.7576 83.3749 81.977 95.4999 82.1638C95.9999 82.1638 96.4374 82.5995 96.4374 83.0974C96.4374 83.5954 95.9999 84.0311 95.4999 84.0311C95.3749 84.0311 95.3124 84.0311 95.1874 84.0311C81.1874 84.0311 80.4374 95.1107 80.3749 95.6087C80.3749 96.1066 79.9374 96.4801 79.4374 96.4801Z" fill="white"/>
<path d="M89.9375 74.5072L93 64.1745H98.125L101.063 74.3827L89.9375 74.5072Z" fill="white"/>
<path fill-rule="evenodd" clip-rule="evenodd" d="M110.937 96.4796H123.125C123.437 96.4796 123.812 96.2929 123.937 95.9194C124.125 95.6082 124.063 95.2347 123.875 94.9235L112.25 78.4908L112.375 76.5612C112.375 76.3122 112.312 76.0633 112.125 75.8765C111.937 75.6898 111.687 75.5653 111.437 75.5653L109.875 75.503L103.75 62.3694L104.5 60.751C104.812 60.3153 104.875 59.7551 104.625 59.2571C104.375 58.6969 103.875 58.3235 103.25 58.3235H102.812C102.734 57.7081 102.612 56.773 102.457 55.5901C102.267 54.1346 102.028 52.3038 101.761 50.2316H100.625V50.1694H99.8887C100.55 55.2813 101.063 59.0086 101.125 59.4439C101.188 59.8796 101.563 60.253 102.062 60.253H102.688L101.875 61.9337C101.75 62.1826 101.75 62.4939 101.875 62.7428L108.375 76.7479C108.5 77.0592 108.813 77.3082 109.188 77.3082L110.375 77.3704L110.312 78.6775C110.312 78.9265 110.375 79.1133 110.5 79.3L121.25 94.55H111.938C111.75 92.8071 111 89.1969 108.062 86.2714C105.187 83.4704 101.063 82.0388 95.6875 82.101C95.1875 82.101 94.75 82.5367 94.75 83.0347C94.75 83.5326 95.1875 83.9684 95.6875 83.9684C100.438 83.9061 104.125 85.151 106.625 87.5786C110 90.9398 110 95.4214 110 95.4837C110 95.7326 110.062 95.9816 110.25 96.1684C110.437 96.3551 110.687 96.4796 110.937 96.4796ZM99.3462 45.9176C99.7627 45.2776 100.339 44.7521 101.021 44.3955C99.8838 35.2748 98.6211 24.3249 98.4375 18.9847H98.5625C99.0625 18.9847 99.5 18.549 99.5 18.051V16.0592V16.0591C99.5 15.9347 99.5 15.8102 99.4375 15.6857L98.25 13.0714C98.0625 12.7602 97.75 12.5112 97.375 12.5112H96.875V6.78469C96.875 6.28673 96.4375 5.85101 95.9375 5.85101H95C94.5 5.85101 94.0625 6.28673 94.0625 6.78469C94.0625 7.28265 94.5 7.71836 95 7.71836V13.4449C95 13.9429 95.4375 14.3786 95.9375 14.3786H96.8125L97.6875 16.2459V17.1173H97.5C97.25 17.1173 97 17.2418 96.8125 17.4286C96.6875 17.6153 96.5625 17.8643 96.5625 18.1133C96.635 23.349 98.0957 35.979 99.3462 45.9176Z" fill="white"/>
<path d="M119 51.2275H98.8749C98.4999 51.2275 98.1249 50.9786 97.9999 50.6673C97.6874 49.9826 97.5624 49.2357 97.5624 48.4888C97.5624 45.501 99.9999 43.0112 103.062 43.0112C103.5 43.0112 103.937 43.0735 104.312 43.1357C105.5 41.7041 107.375 40.7704 109.375 40.7704C111.125 40.7704 112.812 41.4551 114 42.7C114.562 42.5133 115.062 42.451 115.687 42.451C118.562 42.451 120.875 44.7541 120.875 47.6173C120.875 48.8 120.5 49.8582 119.75 50.7918C119.625 51.1031 119.312 51.2275 119 51.2275ZM99.5624 49.298H118.5C118.812 48.8 118.937 48.2398 118.937 47.6796C118.937 45.8745 117.437 44.3806 115.625 44.3806C115.125 44.3806 114.625 44.5051 114.125 44.7541C113.687 44.9408 113.187 44.8786 112.937 44.5051C112.125 43.4469 110.75 42.7622 109.312 42.7622C107.75 42.7622 106.25 43.5714 105.5 44.8163C105.25 45.1898 104.75 45.3765 104.312 45.1898C103.875 45.0031 103.437 44.9408 103 44.9408C101.062 44.9408 99.4374 46.5592 99.4374 48.4888C99.4999 48.7377 99.4999 49.049 99.5624 49.298Z" fill="white"/>
<path fill-rule="evenodd" clip-rule="evenodd" d="M138.75 93.8653H140.625C144.25 93.8653 147.187 90.9398 147.125 87.3918V84.8398C147.125 81.2918 144.187 78.3663 140.625 78.3663H138.75C135.187 78.3663 132.25 81.2918 132.25 84.8398V87.3918C132.25 90.9398 135.187 93.8653 138.75 93.8653ZM134 84.8398C134 82.2255 136.125 80.1092 138.75 80.1092H140.625C143.25 80.1092 145.375 82.2255 145.375 84.8398V87.3918C145.375 90.0061 143.25 92.1225 140.625 92.1225H138.75C136.125 92.1225 134 90.0061 134 87.3918V84.8398Z" fill="white"/>
</g>
<defs>
<clipPath id="clip0">
<rect width="160" height="122" fill="white"/>
</clipPath>
</defs>
</svg>
