<svg width="232" height="46" viewBox="0 0 232 46" fill="none" xmlns="http://www.w3.org/2000/svg">
<path d="M0.52 40V5.64H7.4V34.16H14.48V40H0.52ZM17.0584 15.72L18.3384 11.08H15.8584V5.28H23.1784V10.92L21.1784 15.72H17.0584ZM33.7953 40.32C30.782 40.32 28.622 39.4933 27.3153 37.84C26.0086 36.1867 25.3553 33.72 25.3553 30.44V18.68C25.3553 15.9867 26.1286 13.9333 27.6753 12.52C29.222 11.1067 31.382 10.4 34.1553 10.4C39.782 10.4 42.5953 13.16 42.5953 18.68V20.8C42.5953 22.9333 42.5686 24.6667 42.5153 26H32.3553V31.68C32.3553 32.6933 32.462 33.4933 32.6753 34.08C32.8886 34.64 33.342 34.92 34.0353 34.92C34.5686 34.92 34.942 34.76 35.1553 34.44C35.3953 34.12 35.5286 33.76 35.5553 33.36C35.6086 32.9333 35.6353 32.32 35.6353 31.52V28.68H42.5953V30.36C42.5953 33.7733 41.9286 36.2933 40.5953 37.92C39.2886 39.52 37.022 40.32 33.7953 40.32ZM35.6353 22.52V18.76C35.6353 16.6533 35.1153 15.6 34.0753 15.6C32.902 15.6 32.3153 16.6533 32.3153 18.76V22.52H35.6353ZM29.4753 9.36V5L38.7553 0.719998V7.52L29.4753 9.36ZM51.1666 40.32C49.3266 40.32 48.0599 39.9333 47.3666 39.16C46.6732 38.3867 46.3266 37.1467 46.3266 35.44V17.16H44.3666V11.84H46.3266V5.64H53.1266V11.84H55.1266V17.16H53.1266V33.6C53.1266 34.1067 53.1666 34.48 53.2466 34.72C53.3266 34.96 53.5399 35.08 53.8866 35.08C54.1532 35.08 54.4066 35.0667 54.6466 35.04C54.8866 35.0133 55.0466 35 55.1266 35V39.8C54.7266 39.9067 54.1399 40.0133 53.3666 40.12C52.6199 40.2533 51.8866 40.32 51.1666 40.32ZM62.6341 40.32C60.3674 40.32 58.8074 39.5733 57.9541 38.08C57.1274 36.56 56.7141 34.4 56.7141 31.6C56.7141 29.3067 57.0074 27.5467 57.5941 26.32C58.2074 25.0933 59.0474 24.2 60.1141 23.64C61.1807 23.0533 62.8074 22.4133 64.9941 21.72L66.9141 21.08V21V18.08C66.9141 17.3067 66.7541 16.72 66.4341 16.32C66.1407 15.8933 65.7807 15.68 65.3541 15.68C64.9807 15.68 64.6474 15.8533 64.3541 16.2C64.0874 16.5467 63.9541 17.0133 63.9541 17.6V19.36H57.1541V18.4C57.1541 15.52 57.8207 13.4667 59.1541 12.24C60.5141 11.0133 62.7141 10.4 65.7541 10.4C68.1807 10.4 70.1541 11.04 71.6741 12.32C73.1941 13.5733 73.9541 15.36 73.9541 17.68V40H66.9941V36.52C66.6474 37.72 66.0874 38.6533 65.3141 39.32C64.5674 39.9867 63.6741 40.32 62.6341 40.32ZM65.3941 34.88C65.9274 34.88 66.3007 34.6667 66.5141 34.24C66.7541 33.7867 66.8741 33.24 66.8741 32.6V24.44C65.8341 24.84 65.0607 25.3467 64.5541 25.96C64.0741 26.5733 63.8341 27.4267 63.8341 28.52V32.28C63.8341 34.0133 64.3541 34.88 65.3941 34.88ZM76.65 10.72H83.77V12.28C84.7833 11.0267 86.1833 10.4 87.97 10.4C90.2367 10.4 91.81 11.16 92.69 12.68C93.5967 14.2 94.05 16.3067 94.05 19V29.84C94.05 32.1333 93.9167 34.0133 93.65 35.48C93.3833 36.92 92.7967 38.0933 91.89 39C90.9833 39.88 89.61 40.32 87.77 40.32C86.01 40.32 84.6767 39.8267 83.77 38.84V45.84H76.65V10.72ZM85.45 34.88C86.09 34.88 86.5033 34.5867 86.69 34C86.8767 33.4133 86.97 32.56 86.97 31.44V19C86.97 17.9867 86.8767 17.2133 86.69 16.68C86.5033 16.1467 86.0767 15.88 85.41 15.88C84.3167 15.88 83.77 16.8933 83.77 18.92V31.76C83.77 32.7467 83.8767 33.52 84.09 34.08C84.33 34.6133 84.7833 34.88 85.45 34.88ZM104.85 40.32C101.837 40.32 99.6767 39.4933 98.37 37.84C97.0633 36.1867 96.41 33.72 96.41 30.44V18.68C96.41 15.9867 97.1833 13.9333 98.73 12.52C100.277 11.1067 102.437 10.4 105.21 10.4C110.837 10.4 113.65 13.16 113.65 18.68V20.8C113.65 22.9333 113.623 24.6667 113.57 26H103.41V31.68C103.41 32.6933 103.517 33.4933 103.73 34.08C103.943 34.64 104.397 34.92 105.09 34.92C105.623 34.92 105.997 34.76 106.21 34.44C106.45 34.12 106.583 33.76 106.61 33.36C106.663 32.9333 106.69 32.32 106.69 31.52V28.68H113.65V30.36C113.65 33.7733 112.983 36.2933 111.65 37.92C110.343 39.52 108.077 40.32 104.85 40.32ZM106.69 22.52V18.76C106.69 16.6533 106.17 15.6 105.13 15.6C103.957 15.6 103.37 16.6533 103.37 18.76V22.52H106.69ZM125.676 40V5.64H139.436V12.32H132.596V17.8H139.076V24.4H132.596V40H125.676ZM141.533 10.72H148.533V13.96C148.879 12.8133 149.479 11.9333 150.333 11.32C151.213 10.68 152.293 10.36 153.573 10.36V16.2C152.586 16.2 151.493 16.3467 150.293 16.64C149.119 16.9067 148.533 17.2267 148.533 17.6V40H141.533V10.72ZM160.603 40.32C158.336 40.32 156.776 39.5733 155.923 38.08C155.096 36.56 154.683 34.4 154.683 31.6C154.683 29.3067 154.976 27.5467 155.563 26.32C156.176 25.0933 157.016 24.2 158.083 23.64C159.149 23.0533 160.776 22.4133 162.963 21.72L164.883 21.08V21V18.08C164.883 17.3067 164.723 16.72 164.403 16.32C164.109 15.8933 163.749 15.68 163.323 15.68C162.949 15.68 162.616 15.8533 162.323 16.2C162.056 16.5467 161.923 17.0133 161.923 17.6V19.36H155.123V18.4C155.123 15.52 155.789 13.4667 157.123 12.24C158.483 11.0133 160.683 10.4 163.723 10.4C166.149 10.4 168.123 11.04 169.643 12.32C171.163 13.5733 171.923 15.36 171.923 17.68V40H164.963V36.52C164.616 37.72 164.056 38.6533 163.283 39.32C162.536 39.9867 161.643 40.32 160.603 40.32ZM163.363 34.88C163.896 34.88 164.269 34.6667 164.483 34.24C164.723 33.7867 164.843 33.24 164.843 32.6V24.44C163.803 24.84 163.029 25.3467 162.523 25.96C162.043 26.5733 161.803 27.4267 161.803 28.52V32.28C161.803 34.0133 162.323 34.88 163.363 34.88ZM174.619 10.72H181.619V14.44C181.912 13.24 182.419 12.2667 183.139 11.52C183.859 10.7733 184.819 10.4 186.019 10.4C187.992 10.4 189.445 11.0133 190.379 12.24C191.339 13.44 191.819 15.16 191.819 17.4V40H184.939V18.12C184.939 17.48 184.805 16.9333 184.539 16.48C184.299 16.0267 183.912 15.8 183.379 15.8C182.659 15.8 182.179 16.1333 181.939 16.8C181.725 17.44 181.619 18.3067 181.619 19.4V40H174.619V10.72ZM203.38 40.32C200.18 40.32 197.873 39.5067 196.46 37.88C195.046 36.2533 194.34 33.76 194.34 30.4V21.36C194.34 18.8267 194.606 16.7733 195.14 15.2C195.7 13.6 196.62 12.4 197.9 11.6C199.206 10.8 201.006 10.4 203.3 10.4C205.806 10.4 207.846 11.0533 209.42 12.36C210.993 13.6667 211.78 15.4933 211.78 17.84V22.32H204.66V18.2C204.66 17.4267 204.553 16.84 204.34 16.44C204.126 16.0133 203.713 15.8 203.1 15.8C201.953 15.8 201.38 16.6133 201.38 18.24V32.44C201.38 33.1067 201.513 33.68 201.78 34.16C202.073 34.6133 202.5 34.84 203.06 34.84C203.62 34.84 204.033 34.6133 204.3 34.16C204.593 33.7067 204.726 33.12 204.7 32.4L204.66 27.48H211.78V32.6C211.78 35 210.993 36.8933 209.42 38.28C207.873 39.64 205.86 40.32 203.38 40.32ZM222.428 40.32C219.415 40.32 217.255 39.4933 215.948 37.84C214.641 36.1867 213.988 33.72 213.988 30.44V18.68C213.988 15.9867 214.761 13.9333 216.308 12.52C217.855 11.1067 220.015 10.4 222.788 10.4C228.415 10.4 231.228 13.16 231.228 18.68V20.8C231.228 22.9333 231.201 24.6667 231.148 26H220.988V31.68C220.988 32.6933 221.095 33.4933 221.308 34.08C221.521 34.64 221.975 34.92 222.668 34.92C223.201 34.92 223.575 34.76 223.788 34.44C224.028 34.12 224.161 33.76 224.188 33.36C224.241 32.9333 224.268 32.32 224.268 31.52V28.68H231.228V30.36C231.228 33.7733 230.561 36.2933 229.228 37.92C227.921 39.52 225.655 40.32 222.428 40.32ZM224.268 22.52V18.76C224.268 16.6533 223.748 15.6 222.708 15.6C221.535 15.6 220.948 16.6533 220.948 18.76V22.52H224.268Z" fill="#3D4FA6"/>
</svg>
