<svg width="21" height="15" viewBox="0 0 21 15" fill="none" xmlns="http://www.w3.org/2000/svg">
<path d="M11.4065 12.2601C12.7201 11.7647 13.7218 11.3313 14.4114 10.9598C15.1339 10.5573 15.4952 9.90712 15.4952 9.00929C15.4952 8.57585 15.3146 8.25078 14.9533 8.03406C14.5921 7.81734 14.1651 7.56966 13.6725 7.29102C13.2127 7.01238 12.8022 6.59443 12.441 6.03715C12.0797 5.44892 11.8991 4.613 11.8991 3.52941C11.8991 2.35294 12.2604 1.47059 12.9829 0.882353C13.7054 0.294118 14.6085 0 15.6922 0C17.3343 0 18.5822 0.541797 19.4361 1.62539C20.3228 2.67802 20.7661 4.10217 20.7661 5.89783C20.7661 7.87926 20.06 9.6904 18.6479 11.3313C17.2357 12.9721 14.8219 14.195 11.4065 15V12.2601ZM0.766113 12.2601C2.07974 11.7647 3.08138 11.3313 3.77104 10.9598C4.49354 10.5573 4.85478 9.90712 4.85478 9.00929C4.85478 8.57585 4.67416 8.25078 4.31291 8.03406C3.95166 7.81734 3.52473 7.56966 3.03212 7.29102C2.57235 7.01238 2.16184 6.59443 1.8006 6.03715C1.43935 5.44892 1.25872 4.613 1.25872 3.52941C1.25872 2.35294 1.61997 1.47059 2.34247 0.882353C3.06496 0.294118 3.96808 0 5.05183 0C6.69386 0 7.94181 0.541797 8.79567 1.62539C9.68237 2.67802 10.1257 4.10217 10.1257 5.89783C10.1257 7.87926 9.41964 9.6904 8.00749 11.3313C6.59534 12.9721 4.18155 14.195 0.766113 15V12.2601Z" fill="#98AAFF"/>
</svg>
