<svg width="91" height="85" viewBox="0 0 91 85" fill="none" xmlns="http://www.w3.org/2000/svg">
<path d="M73.3363 68.7029H8.14848C5.98737 68.7029 3.91477 67.8444 2.38663 66.3162C0.858498 64.7881 0 62.7155 0 60.5544V17.0959C0 14.9348 0.858498 12.8622 2.38663 11.334C3.91477 9.80589 5.98737 8.94739 8.14848 8.94739H73.3363C75.4974 8.94739 77.57 9.80589 79.0981 11.334C80.6263 12.8622 81.4847 14.9348 81.4847 17.0959V60.5544C81.4847 62.7155 80.6263 64.7881 79.0981 66.3162C77.57 67.8444 75.4974 68.7029 73.3363 68.7029ZM8.14848 14.3797C7.42811 14.3797 6.73724 14.6659 6.22786 15.1752C5.71848 15.6846 5.43232 16.3755 5.43232 17.0959V60.5544C5.43232 61.2748 5.71848 61.9656 6.22786 62.475C6.73724 62.9844 7.42811 63.2705 8.14848 63.2705H73.3363C74.0566 63.2705 74.7475 62.9844 75.2569 62.475C75.7663 61.9656 76.0524 61.2748 76.0524 60.5544V17.0959C76.0524 16.3755 75.7663 15.6846 75.2569 15.1752C74.7475 14.6659 74.0566 14.3797 73.3363 14.3797H8.14848Z" fill="black" fill-opacity="0.87"/>
<path d="M54.3239 84.9998H27.1623C26.7659 85.0049 26.3732 84.9231 26.0118 84.7603C25.6503 84.5975 25.3289 84.3576 25.07 84.0573C24.8112 83.7571 24.6212 83.4038 24.5134 83.0223C24.4057 82.6408 24.3827 82.2403 24.4462 81.849L27.1623 65.5521C27.2664 64.9094 27.598 64.3254 28.0965 63.9066C28.5951 63.4879 29.2274 63.2621 29.8785 63.2705H51.6077C52.2588 63.2621 52.8912 63.4879 53.3897 63.9066C53.8883 64.3254 54.2198 64.9094 54.3239 65.5521L57.0401 81.849C57.1035 82.2403 57.0806 82.6408 56.9728 83.0223C56.865 83.4038 56.675 83.7571 56.4162 84.0573C56.1573 84.3576 55.8359 84.5975 55.4745 84.7603C55.113 84.9231 54.7203 85.0049 54.3239 84.9998ZM30.3674 79.5674H51.1188L49.299 68.7028H32.1872L30.3674 79.5674Z" fill="black" fill-opacity="0.87"/>
<path d="M62.4716 84.9998H19.013C18.2927 84.9998 17.6018 84.7137 17.0924 84.2043C16.583 83.6949 16.2969 83.004 16.2969 82.2837C16.2969 81.5633 16.583 80.8724 17.0924 80.363C17.6018 79.8537 18.2927 79.5675 19.013 79.5675H62.4716C63.1919 79.5675 63.8828 79.8537 64.3922 80.363C64.9016 80.8724 65.1877 81.5633 65.1877 82.2837C65.1877 83.004 64.9016 83.6949 64.3922 84.2043C63.8828 84.7137 63.1919 84.9998 62.4716 84.9998Z" fill="black" fill-opacity="0.87"/>
<path d="M78.7686 55.122H2.71616C1.99579 55.122 1.30492 54.8358 0.795544 54.3265C0.286166 53.8171 0 53.1262 0 52.4059C0 51.6855 0.286166 50.9946 0.795544 50.4852C1.30492 49.9759 1.99579 49.6897 2.71616 49.6897H78.7686C79.489 49.6897 80.1798 49.9759 80.6892 50.4852C81.1986 50.9946 81.4847 51.6855 81.4847 52.4059C81.4847 53.1262 81.1986 53.8171 80.6892 54.3265C80.1798 54.8358 79.489 55.122 78.7686 55.122Z" fill="black" fill-opacity="0.87"/>
<path d="M30.2296 27.6817C30.45 27.8987 30.7291 28 31.0083 28C31.2874 28 31.5666 27.8987 31.787 27.6817L35.6804 23.8481C36.1065 23.4286 36.1065 22.7342 35.6804 22.3146C35.2544 21.8951 34.5491 21.8951 34.123 22.3146L31.0083 25.3816L29.877 24.2676C29.4509 23.8481 28.7456 23.8481 28.3196 24.2676C27.8935 24.6872 27.8935 25.3816 28.3196 25.8011L30.2296 27.6817Z" fill="#333333"/>
<path d="M38.0462 26H51.9538C52.5257 26 53 25.5467 53 25C53 24.4533 52.5257 24 51.9538 24H38.0462C37.4743 24 37 24.4533 37 25C37 25.5467 37.4743 26 38.0462 26Z" fill="#333333"/>
<path d="M30.2296 35.6817C30.45 35.8987 30.7291 36 31.0083 36C31.2874 36 31.5666 35.8987 31.787 35.6817L35.6804 31.8481C36.1065 31.4286 36.1065 30.7342 35.6804 30.3146C35.2544 29.8951 34.5491 29.8951 34.123 30.3146L31.0083 33.3671L29.877 32.2532C29.4509 31.8336 28.7456 31.8336 28.3196 32.2532C27.8935 32.6727 27.8935 33.3671 28.3196 33.7866L30.2296 35.6817Z" fill="#333333"/>
<path d="M38.0462 34H51.9538C52.5257 34 53 33.5467 53 33C53 32.4533 52.5257 32 51.9538 32H38.0462C37.4743 32 37 32.4533 37 33C37 33.5467 37.4743 34 38.0462 34Z" fill="#333333"/>
<path d="M30.2296 43.6817C30.45 43.8987 30.7291 44 31.0083 44C31.2874 44 31.5666 43.8987 31.787 43.6817L35.6804 39.8481C36.1065 39.4286 36.1065 38.7342 35.6804 38.3146C35.2544 37.8951 34.5491 37.8951 34.123 38.3146L31.0083 41.3816L29.877 40.2676C29.4509 39.8481 28.7456 39.8481 28.3196 40.2676C27.8935 40.6872 27.8935 41.3816 28.3196 41.8011L30.2296 43.6817Z" fill="#333333"/>
<path d="M38.0462 42H51.9538C52.5257 42 53 41.5467 53 41C53 40.4533 52.5257 40 51.9538 40H38.0462C37.4743 40 37 40.4533 37 41C37 41.5467 37.4743 42 38.0462 42Z" fill="#333333"/>
<circle cx="72.4738" cy="17.8947" r="17.8947" fill="#F5F5F5"/>
<circle cx="72.4738" cy="17.8947" r="15.3947" stroke="black" stroke-opacity="0.87" stroke-width="5"/>
<path d="M66.5088 18.0283C66.5088 17.8136 66.5374 17.5989 66.5947 17.3841C66.6663 17.1694 66.7665 16.9761 66.8953 16.8043C67.0385 16.6325 67.2174 16.4965 67.4322 16.3963C67.6612 16.2818 67.9332 16.2245 68.2482 16.2245H70.5673V13.9698C70.5673 13.2683 70.7606 12.753 71.1471 12.4237C71.5479 12.0944 72.0132 11.9298 72.5429 11.9298C73.0726 11.9298 73.5307 12.0944 73.9172 12.4237C74.3181 12.753 74.5185 13.2683 74.5185 13.9698V16.2245H76.8376C77.1526 16.2245 77.4174 16.2818 77.6322 16.3963C77.8612 16.4965 78.0402 16.6325 78.169 16.8043C78.3122 16.9761 78.4124 17.1694 78.4696 17.3841C78.5412 17.5989 78.577 17.8136 78.577 18.0283C78.577 18.2431 78.5412 18.465 78.4696 18.694C78.4124 18.9088 78.3122 19.1092 78.169 19.2953C78.0258 19.4671 77.8469 19.6102 77.6322 19.7248C77.4174 19.8393 77.1526 19.8965 76.8376 19.8965H74.5185V22.1513C74.5185 22.8528 74.3181 23.3681 73.9172 23.6974C73.5307 24.0267 73.0726 24.1913 72.5429 24.1913C72.0132 24.1913 71.5479 24.0267 71.1471 23.6974C70.7606 23.3681 70.5673 22.8528 70.5673 22.1513V19.8965H68.2482C67.9332 19.8965 67.6612 19.8393 67.4322 19.7248C67.2174 19.6102 67.0385 19.4671 66.8953 19.2953C66.7665 19.1092 66.6663 18.9088 66.5947 18.694C66.5374 18.465 66.5088 18.2431 66.5088 18.0283Z" fill="#5771EE"/>
</svg>
