<svg width="335" height="100" viewBox="0 0 335 100" fill="none" xmlns="http://www.w3.org/2000/svg">
<rect width="160" height="100" fill="#5771EE"/>
<rect x="175" width="160" height="100" fill="#5771EE"/>
<path d="M46.6001 45.134C46.1054 45.134 45.6621 45.0733 45.2701 44.952C44.8781 44.8307 44.5421 44.672 44.2621 44.476C43.9914 44.2707 43.7814 44.0373 43.6321 43.776C43.4921 43.5053 43.4221 43.2253 43.4221 42.936V42.488C43.4221 42.1987 43.4921 41.9233 43.6321 41.662C43.7814 41.4007 43.9914 41.1673 44.2621 40.962C44.5421 40.7567 44.8781 40.5933 45.2701 40.472C45.6621 40.3507 46.1054 40.29 46.6001 40.29C47.0948 40.29 47.5381 40.3507 47.9301 40.472C48.3221 40.5933 48.6534 40.7567 48.9241 40.962C49.2041 41.1673 49.4141 41.4007 49.5541 41.662C49.7034 41.9233 49.7781 42.1987 49.7781 42.488V42.936C49.7781 43.2253 49.7034 43.5053 49.5541 43.776C49.4141 44.0373 49.2041 44.2707 48.9241 44.476C48.6534 44.672 48.3221 44.8307 47.9301 44.952C47.5381 45.0733 47.0948 45.134 46.6001 45.134ZM51.7521 50.048V48.9H49.0221V47.738H51.7521V40.052H53.1241V50.048H51.7521ZM46.0541 51.644H53.3901V52.834H44.6681V49.376H46.0541V51.644ZM45.7741 48.858V47.01C44.7941 47.038 43.7301 47.052 42.5821 47.052V45.848C43.3568 45.848 44.0754 45.848 44.7381 45.848C45.4101 45.8387 46.0681 45.8247 46.7121 45.806C47.3561 45.778 48.0094 45.7453 48.6721 45.708C49.3348 45.6613 50.0488 45.6053 50.8141 45.54L50.9121 46.702C50.3148 46.7673 49.7081 46.8233 49.0921 46.87C48.4761 46.9073 47.8274 46.94 47.1461 46.968V48.858H45.7741ZM46.6001 43.972C46.8988 43.972 47.1601 43.9393 47.3841 43.874C47.6174 43.8087 47.8134 43.7247 47.9721 43.622C48.1308 43.51 48.2521 43.3887 48.3361 43.258C48.4201 43.1273 48.4621 42.992 48.4621 42.852V42.572C48.4621 42.432 48.4201 42.2967 48.3361 42.166C48.2521 42.0353 48.1308 41.9187 47.9721 41.816C47.8134 41.7133 47.6174 41.6293 47.3841 41.564C47.1601 41.4987 46.8988 41.466 46.6001 41.466C46.3014 41.466 46.0354 41.4987 45.8021 41.564C45.5781 41.6293 45.3868 41.7133 45.2281 41.816C45.0694 41.9187 44.9481 42.0353 44.8641 42.166C44.7801 42.2967 44.7381 42.432 44.7381 42.572V42.852C44.7381 42.992 44.7801 43.1273 44.8641 43.258C44.9481 43.3887 45.0694 43.51 45.2281 43.622C45.3868 43.7247 45.5781 43.8087 45.8021 43.874C46.0354 43.9393 46.3014 43.972 46.6001 43.972ZM64.5943 52.96V45.806H62.1023V46.128C62.1023 46.744 62.0183 47.2853 61.8503 47.752C61.6916 48.2187 61.4676 48.606 61.1783 48.914C60.8983 49.222 60.5576 49.4553 60.1563 49.614C59.7643 49.7727 59.3303 49.852 58.8543 49.852C58.3783 49.852 57.9396 49.7727 57.5383 49.614C57.1463 49.4553 56.8056 49.222 56.5163 48.914C56.2363 48.606 56.0123 48.2187 55.8443 47.752C55.6856 47.2853 55.6063 46.744 55.6063 46.128V44.672C55.6063 44.056 55.6856 43.5147 55.8443 43.048C56.0123 42.5813 56.2363 42.194 56.5163 41.886C56.8056 41.5687 57.1463 41.3307 57.5383 41.172C57.9396 41.0133 58.3783 40.934 58.8543 40.934C59.3209 40.934 59.7503 41.0133 60.1423 41.172C60.5343 41.3213 60.875 41.55 61.1643 41.858C61.4536 42.166 61.6776 42.5487 61.8363 43.006C62.0043 43.4633 62.093 43.9907 62.1023 44.588H64.5943V40.052H65.9803V52.96H64.5943ZM58.8543 48.606C59.1063 48.606 59.3489 48.5593 59.5823 48.466C59.8156 48.3727 60.0163 48.2233 60.1843 48.018C60.3616 47.8033 60.5016 47.528 60.6043 47.192C60.7163 46.8467 60.7723 46.4267 60.7723 45.932V44.868C60.7723 44.3733 60.7163 43.958 60.6043 43.622C60.5016 43.2767 60.3616 43.0013 60.1843 42.796C60.0163 42.5813 59.8156 42.4273 59.5823 42.334C59.3489 42.2407 59.1063 42.194 58.8543 42.194C58.6023 42.194 58.3596 42.2407 58.1263 42.334C57.8929 42.4273 57.6876 42.5813 57.5103 42.796C57.3423 43.0013 57.2023 43.2767 57.0903 43.622C56.9876 43.958 56.9363 44.3733 56.9363 44.868V45.932C56.9363 46.4267 56.9876 46.8467 57.0903 47.192C57.2023 47.528 57.3423 47.8033 57.5103 48.018C57.6876 48.2233 57.8929 48.3727 58.1263 48.466C58.3596 48.5593 58.6023 48.606 58.8543 48.606ZM77.3525 49.264V40.052H78.7245V49.264H77.3525ZM74.7625 47.038H68.8685V40.836H74.7625V47.038ZM70.2265 45.862H73.4045V42.012H70.2265V45.862ZM72.0465 51.616H78.9905V52.82H70.6605V48.536H72.0465V51.616ZM89.8307 52.96V40.052H91.2027V44.812H93.1347V46.016H91.2027V52.96H89.8307ZM89.1167 49.768C88.538 49.824 87.992 49.8707 87.4787 49.908C86.9653 49.9453 86.4053 49.978 85.7987 50.006C85.2013 50.0247 84.5107 50.0387 83.7267 50.048C82.952 50.0573 82.014 50.062 80.9127 50.062V48.858C81.3887 48.858 81.8367 48.858 82.2567 48.858C82.6767 48.858 83.0687 48.8533 83.4327 48.844V44.98H84.8047V48.816C85.2247 48.8067 85.6167 48.7973 85.9807 48.788C86.3447 48.7693 86.69 48.7507 87.0167 48.732C87.3527 48.704 87.6793 48.676 87.9967 48.648C88.3233 48.62 88.6593 48.592 89.0047 48.564L89.1167 49.768ZM81.5427 41.27H88.0667V43.202C88.0667 43.4353 88.062 43.7153 88.0527 44.042C88.0433 44.3687 88.0247 44.7093 87.9967 45.064C87.9687 45.4187 87.9313 45.7687 87.8847 46.114C87.8473 46.4593 87.8007 46.772 87.7447 47.052L86.3867 46.884C86.452 46.548 86.5033 46.212 86.5407 45.876C86.5873 45.54 86.62 45.218 86.6387 44.91C86.6667 44.602 86.6807 44.322 86.6807 44.07C86.69 43.8087 86.6947 43.594 86.6947 43.426V42.474H81.5427V41.27ZM101.429 51.364V42.894L99.0628 44.294L98.4048 43.174L101.653 41.27H102.815V51.364H101.429ZM107.19 49.208H108.786V50.818H107.19V49.208ZM107.19 42.964H108.786V44.574H107.19V42.964ZM115.123 51.364V42.894L112.757 44.294L112.099 43.174L115.347 41.27H116.509V51.364H115.123ZM41.7323 70.478V64.052H43.1043V70.478H41.7323ZM35.1103 77.044V73.516H41.7463V72.27H35.0403V71.122H43.1043V74.636H36.4683V75.896H43.4683V77.044H35.1103ZM36.4823 67.916C36.4543 68.028 36.3563 68.182 36.1883 68.378C36.0203 68.5647 35.8057 68.7747 35.5443 69.008C35.2457 69.2693 34.8957 69.5633 34.4943 69.89C34.1023 70.2073 33.7103 70.5013 33.3183 70.772L32.5203 69.792C32.9683 69.456 33.4023 69.1247 33.8223 68.798C34.2423 68.462 34.5783 68.1773 34.8303 67.944C35.1757 67.6267 35.4137 67.314 35.5443 67.006C35.675 66.6887 35.7403 66.2827 35.7403 65.788V64.374H37.1403V65.732C37.1403 65.9467 37.1497 66.1427 37.1683 66.32C37.187 66.488 37.2197 66.6467 37.2663 66.796C37.3223 66.936 37.397 67.076 37.4903 67.216C37.5837 67.3467 37.7097 67.482 37.8683 67.622C38.195 67.9207 38.5543 68.2147 38.9463 68.504C39.3477 68.784 39.749 69.0593 40.1503 69.33L39.3523 70.338C38.9977 70.0767 38.6477 69.82 38.3023 69.568C37.957 69.316 37.621 69.05 37.2943 68.77C37.1077 68.6113 36.935 68.4573 36.7763 68.308C36.627 68.1493 36.5337 68.0187 36.4963 67.916H36.4823ZM49.4505 69.134C49.4039 69.2553 49.2872 69.4187 49.1005 69.624C48.9232 69.8293 48.7272 70.03 48.5125 70.226C48.2139 70.4967 47.8779 70.7767 47.5045 71.066C47.1405 71.346 46.7625 71.6213 46.3705 71.892L45.5585 70.898C46.0065 70.5807 46.4312 70.268 46.8325 69.96C47.2339 69.652 47.5559 69.3813 47.7985 69.148C47.9665 68.9893 48.1065 68.8307 48.2185 68.672C48.3399 68.5133 48.4332 68.35 48.4985 68.182C48.5732 68.0047 48.6245 67.8133 48.6525 67.608C48.6899 67.4027 48.7085 67.174 48.7085 66.922V66.068H45.9925V64.878H52.6565V66.068H50.1085V66.866C50.1085 67.314 50.1552 67.6873 50.2485 67.986C50.3419 68.2753 50.5379 68.5507 50.8365 68.812C51.1725 69.1107 51.5225 69.3953 51.8865 69.666C52.2505 69.9367 52.6379 70.2073 53.0485 70.478L52.2645 71.486C51.9005 71.234 51.5599 70.9867 51.2425 70.744C50.9252 70.5013 50.5985 70.24 50.2625 69.96C50.0479 69.7827 49.8705 69.6287 49.7305 69.498C49.5999 69.358 49.5112 69.2367 49.4645 69.134H49.4505ZM54.7005 73.25V68.532H52.3205V67.342H54.7005V64.052H56.0725V73.25H54.7005ZM49.3945 75.616H56.3385V76.82H48.0085V72.508H49.3945V75.616ZM65.7527 75.616H72.6967V76.82H64.3667V72.536H65.7527V75.616ZM71.0587 73.264V64.052H72.4307V73.264H71.0587ZM67.4187 67.58C67.4187 67.3653 67.3814 67.1507 67.3067 66.936C67.2321 66.7213 67.1154 66.53 66.9567 66.362C66.8074 66.1847 66.6114 66.0447 66.3687 65.942C66.1354 65.83 65.8507 65.774 65.5147 65.774C65.1787 65.774 64.8894 65.83 64.6467 65.942C64.404 66.0447 64.2034 66.1847 64.0447 66.362C63.8954 66.53 63.7834 66.7213 63.7087 66.936C63.6434 67.1507 63.6107 67.3653 63.6107 67.58V68.196C63.6107 68.4107 63.648 68.6253 63.7227 68.84C63.7974 69.0547 63.9094 69.2507 64.0587 69.428C64.2174 69.596 64.4134 69.736 64.6467 69.848C64.8894 69.9507 65.1787 70.002 65.5147 70.002C65.8507 70.002 66.1354 69.9507 66.3687 69.848C66.6114 69.736 66.8074 69.596 66.9567 69.428C67.1154 69.2507 67.2321 69.0547 67.3067 68.84C67.3814 68.6253 67.4187 68.4107 67.4187 68.196V67.58ZM62.2807 67.524C62.2807 67.2067 62.346 66.8753 62.4767 66.53C62.6074 66.1753 62.808 65.8533 63.0787 65.564C63.3494 65.2747 63.6854 65.0367 64.0867 64.85C64.488 64.6633 64.9641 64.57 65.5147 64.57C66.0561 64.57 66.5274 64.6633 66.9287 64.85C67.3394 65.0367 67.6801 65.2747 67.9507 65.564C68.2214 65.8533 68.422 66.1753 68.5527 66.53C68.6834 66.8753 68.7487 67.2067 68.7487 67.524V68.252C68.7487 68.5693 68.6834 68.9053 68.5527 69.26C68.422 69.6053 68.2214 69.9227 67.9507 70.212C67.6801 70.5013 67.3394 70.7393 66.9287 70.926C66.5274 71.1127 66.0561 71.206 65.5147 71.206C64.9641 71.206 64.488 71.1127 64.0867 70.926C63.6854 70.7393 63.3494 70.5013 63.0787 70.212C62.808 69.9227 62.6074 69.6053 62.4767 69.26C62.346 68.9053 62.2807 68.5693 62.2807 68.252V67.524ZM76.8729 66.278V68.756H80.9189V69.932H76.8729V72.578H78.0909C78.9402 72.578 79.7289 72.5593 80.4569 72.522C81.1849 72.4753 81.8709 72.4007 82.5149 72.298L82.6549 73.474C82.2722 73.53 81.8942 73.5813 81.5209 73.628C81.1569 73.6653 80.7789 73.6933 80.3869 73.712C79.9949 73.7307 79.5842 73.7447 79.1549 73.754C78.7256 73.7633 78.2589 73.768 77.7549 73.768H75.5009V65.088H81.4089V66.278H76.8729ZM83.9989 76.96V69.932H81.6609V68.728H83.9989V64.052H85.3849V76.96H83.9989ZM97.5831 70.268H89.0991V64.556H90.4711V66.32H96.2111V64.542H97.5831V70.268ZM94.8951 76.932V72.858H91.7871V76.932H90.4011V72.858H87.4191V71.682H99.2631V72.858H96.2811V76.932H94.8951ZM90.4711 69.078H96.2111V67.496H90.4711V69.078ZM115.117 76.96H113.759V69.75H112.233V76.33H110.875V64.318H112.233V68.546H113.759V64.052H115.117V76.96ZM109.363 66.488H105.793V72.298H106.507C106.825 72.298 107.123 72.2933 107.403 72.284C107.683 72.2747 107.959 72.2607 108.229 72.242C108.5 72.2233 108.78 72.2 109.069 72.172C109.359 72.1347 109.667 72.088 109.993 72.032L110.133 73.194C109.769 73.25 109.429 73.3013 109.111 73.348C108.794 73.3853 108.481 73.418 108.173 73.446C107.865 73.4647 107.553 73.4787 107.235 73.488C106.927 73.4973 106.591 73.502 106.227 73.502H104.393V65.284H109.363V66.488ZM126.013 76.96V64.052H127.399V76.96H126.013ZM117.641 73.572V65.102H119.013V68.154H122.275V65.102H123.647V73.572H117.641ZM119.013 72.382H122.275V69.33H119.013V72.382Z" fill="white" fill-opacity="0.87"/>
<path d="M232.516 53.044V49.516H239.152V48.27H232.446V47.122H240.51V50.636H233.874V51.896H240.874V53.044H232.516ZM239.138 46.478V40.052H240.51V46.478H239.138ZM233.482 40.234C234.004 40.234 234.466 40.3133 234.868 40.472C235.269 40.6307 235.605 40.836 235.876 41.088C236.146 41.34 236.347 41.6247 236.478 41.942C236.618 42.2593 236.688 42.5767 236.688 42.894V43.454C236.688 43.7807 236.618 44.1027 236.478 44.42C236.347 44.7373 236.146 45.022 235.876 45.274C235.605 45.526 235.269 45.7313 234.868 45.89C234.466 46.0393 234.004 46.114 233.482 46.114C232.959 46.114 232.497 46.0393 232.096 45.89C231.694 45.7313 231.358 45.526 231.088 45.274C230.817 45.022 230.612 44.7373 230.472 44.42C230.341 44.1027 230.276 43.7807 230.276 43.454V42.894C230.276 42.5767 230.341 42.2593 230.472 41.942C230.612 41.6247 230.817 41.34 231.088 41.088C231.358 40.836 231.694 40.6307 232.096 40.472C232.497 40.3133 232.959 40.234 233.482 40.234ZM233.482 44.924C233.78 44.924 234.046 44.882 234.28 44.798C234.513 44.7047 234.709 44.588 234.868 44.448C235.026 44.2987 235.148 44.1307 235.232 43.944C235.316 43.7573 235.358 43.566 235.358 43.37V42.978C235.358 42.782 235.316 42.5907 235.232 42.404C235.148 42.2173 235.026 42.054 234.868 41.914C234.709 41.774 234.513 41.662 234.28 41.578C234.046 41.4847 233.78 41.438 233.482 41.438C233.183 41.438 232.917 41.48 232.684 41.564C232.45 41.648 232.254 41.7647 232.096 41.914C231.937 42.054 231.816 42.2173 231.732 42.404C231.648 42.5907 231.606 42.782 231.606 42.978V43.37C231.606 43.566 231.648 43.7573 231.732 43.944C231.816 44.1307 231.937 44.2987 232.096 44.448C232.254 44.588 232.45 44.7047 232.684 44.798C232.917 44.882 233.183 44.924 233.482 44.924ZM245.078 50.3C245.078 49.964 245.166 49.6467 245.344 49.348C245.521 49.0493 245.778 48.788 246.114 48.564C246.45 48.34 246.856 48.1627 247.332 48.032C247.817 47.9013 248.363 47.836 248.97 47.836C249.576 47.836 250.118 47.9013 250.594 48.032C251.079 48.1627 251.49 48.34 251.826 48.564C252.162 48.788 252.418 49.0493 252.596 49.348C252.773 49.6467 252.862 49.964 252.862 50.3V50.86C252.862 51.196 252.773 51.5133 252.596 51.812C252.418 52.1107 252.162 52.372 251.826 52.596C251.49 52.82 251.079 52.9973 250.594 53.128C250.118 53.2587 249.576 53.324 248.97 53.324C248.363 53.324 247.817 53.2587 247.332 53.128C246.856 52.9973 246.45 52.82 246.114 52.596C245.778 52.372 245.521 52.1107 245.344 51.812C245.166 51.5133 245.078 51.196 245.078 50.86V50.3ZM246.408 44.504C246.37 44.6253 246.258 44.7933 246.072 45.008C245.885 45.2227 245.684 45.428 245.47 45.624C245.18 45.8947 244.844 46.1933 244.462 46.52C244.079 46.8373 243.701 47.1453 243.328 47.444L242.502 46.464C242.95 46.1187 243.374 45.7733 243.776 45.428C244.186 45.0827 244.513 44.7887 244.756 44.546C244.933 44.3687 245.078 44.2007 245.19 44.042C245.311 43.874 245.404 43.706 245.47 43.538C245.544 43.3607 245.596 43.174 245.624 42.978C245.652 42.782 245.666 42.5627 245.666 42.32V40.626H247.066V42.264C247.066 42.4787 247.07 42.6747 247.08 42.852C247.098 43.02 247.131 43.1787 247.178 43.328C247.224 43.4773 247.294 43.6267 247.388 43.776C247.49 43.916 247.626 44.0607 247.794 44.21C248.12 44.5087 248.475 44.8167 248.858 45.134C249.25 45.4513 249.656 45.7593 250.076 46.058L249.264 47.024C248.9 46.7533 248.55 46.4827 248.214 46.212C247.887 45.932 247.556 45.652 247.22 45.372C247.005 45.1947 246.828 45.0313 246.688 44.882C246.557 44.7327 246.468 44.6067 246.422 44.504H246.408ZM251.504 50.384C251.504 50.216 251.443 50.048 251.322 49.88C251.21 49.7027 251.042 49.5487 250.818 49.418C250.603 49.2873 250.337 49.18 250.02 49.096C249.712 49.012 249.362 48.97 248.97 48.97C248.578 48.97 248.223 49.012 247.906 49.096C247.598 49.18 247.332 49.2873 247.108 49.418C246.893 49.5487 246.725 49.7027 246.604 49.88C246.492 50.048 246.436 50.216 246.436 50.384V50.776C246.436 50.944 246.492 51.112 246.604 51.28C246.725 51.4573 246.893 51.6113 247.108 51.742C247.332 51.8727 247.598 51.98 247.906 52.064C248.223 52.148 248.578 52.19 248.97 52.19C249.362 52.19 249.712 52.148 250.02 52.064C250.337 51.98 250.603 51.8727 250.818 51.742C251.042 51.6113 251.21 51.4573 251.322 51.28C251.443 51.112 251.504 50.944 251.504 50.776V50.384ZM254.64 44.378H252.806V47.668H251.434V40.052H252.806V43.174H254.64V44.378ZM264.388 50.3C263.8 50.356 263.231 50.4027 262.68 50.44C262.129 50.4773 261.527 50.51 260.874 50.538C260.23 50.566 259.502 50.5847 258.69 50.594C257.878 50.6033 256.921 50.608 255.82 50.608V49.432C256.52 49.432 257.159 49.432 257.738 49.432C258.317 49.432 258.858 49.4227 259.362 49.404V48.13C258.961 48.0833 258.601 47.9947 258.284 47.864C257.976 47.724 257.71 47.556 257.486 47.36C257.271 47.164 257.108 46.9447 256.996 46.702C256.884 46.4593 256.828 46.212 256.828 45.96V45.428C256.828 45.148 256.898 44.8773 257.038 44.616C257.178 44.3453 257.383 44.1073 257.654 43.902C257.925 43.6967 258.251 43.5333 258.634 43.412C259.026 43.2907 259.469 43.23 259.964 43.23C260.459 43.23 260.897 43.2907 261.28 43.412C261.672 43.5333 262.003 43.6967 262.274 43.902C262.545 44.1073 262.75 44.3453 262.89 44.616C263.03 44.8773 263.1 45.148 263.1 45.428V45.96C263.1 46.4547 262.895 46.9073 262.484 47.318C262.073 47.7193 261.49 47.9807 260.734 48.102V49.362C261.406 49.3433 262.017 49.3153 262.568 49.278C263.128 49.2313 263.697 49.18 264.276 49.124L264.388 50.3ZM265.032 52.96V40.052H266.404V52.96H265.032ZM263.632 42.698H256.17V41.508H259.264V39.954H260.636V41.508H263.632V42.698ZM259.964 47.024C260.253 47.024 260.51 46.9913 260.734 46.926C260.958 46.8607 261.145 46.772 261.294 46.66C261.453 46.548 261.569 46.422 261.644 46.282C261.719 46.142 261.756 45.9973 261.756 45.848V45.54C261.756 45.3907 261.714 45.246 261.63 45.106C261.555 44.966 261.443 44.84 261.294 44.728C261.145 44.616 260.958 44.5273 260.734 44.462C260.51 44.3967 260.253 44.364 259.964 44.364C259.665 44.364 259.404 44.3967 259.18 44.462C258.965 44.5273 258.779 44.616 258.62 44.728C258.471 44.84 258.359 44.966 258.284 45.106C258.209 45.246 258.172 45.3907 258.172 45.54V45.848C258.172 45.9973 258.209 46.142 258.284 46.282C258.368 46.422 258.485 46.548 258.634 46.66C258.783 46.772 258.97 46.8607 259.194 46.926C259.418 46.9913 259.675 47.024 259.964 47.024ZM276.656 50.272C276.078 50.328 275.527 50.3793 275.004 50.426C274.482 50.4633 273.912 50.496 273.296 50.524C272.69 50.552 271.994 50.5753 271.21 50.594C270.426 50.6033 269.484 50.608 268.382 50.608V49.432C269.073 49.432 269.698 49.432 270.258 49.432C270.818 49.432 271.336 49.4227 271.812 49.404V48.13C271.42 48.0833 271.066 47.99 270.748 47.85C270.44 47.71 270.179 47.542 269.964 47.346C269.75 47.15 269.586 46.9353 269.474 46.702C269.362 46.4593 269.306 46.212 269.306 45.96V45.428C269.306 45.148 269.376 44.8773 269.516 44.616C269.666 44.3453 269.871 44.1073 270.132 43.902C270.403 43.6967 270.73 43.5333 271.112 43.412C271.504 43.2907 271.943 43.23 272.428 43.23C272.914 43.23 273.348 43.2907 273.73 43.412C274.122 43.5333 274.449 43.6967 274.71 43.902C274.981 44.1073 275.186 44.3453 275.326 44.616C275.476 44.8773 275.55 45.148 275.55 45.428V45.96C275.55 46.4547 275.34 46.9073 274.92 47.318C274.51 47.7193 273.931 47.9807 273.184 48.102V49.362C273.81 49.3433 274.384 49.3153 274.906 49.278C275.438 49.2313 275.984 49.1847 276.544 49.138L276.656 50.272ZM277.3 52.96V40.052H278.672V45.218H280.604V46.422H278.672V52.96H277.3ZM276.068 42.698H268.648V41.508H271.742V39.954H273.114V41.508H276.068V42.698ZM272.428 47.024C272.998 47.024 273.436 46.9027 273.744 46.66C274.052 46.4173 274.206 46.142 274.206 45.834V45.554C274.206 45.246 274.048 44.9707 273.73 44.728C273.422 44.4853 272.988 44.364 272.428 44.364C271.859 44.364 271.42 44.4853 271.112 44.728C270.804 44.9707 270.65 45.246 270.65 45.554V45.834C270.65 46.142 270.804 46.4173 271.112 46.66C271.43 46.9027 271.868 47.024 272.428 47.024ZM207.973 71.164C207.973 72.228 208.113 73.2827 208.393 74.328C208.673 75.3733 209.173 76.3907 209.891 77.38H208.603C207.903 76.5493 207.385 75.6067 207.049 74.552C206.713 73.4973 206.545 72.3447 206.545 71.094V70.534C206.545 69.2833 206.713 68.1353 207.049 67.09C207.385 66.0447 207.903 65.1067 208.603 64.276H209.891C209.201 65.2093 208.706 66.194 208.407 67.23C208.118 68.2567 207.973 69.3347 207.973 70.464V71.164ZM213.028 77.044V73.572H219.594V72.382H212.958V71.234H220.952V74.692H214.386V75.896H221.316V77.044H213.028ZM211.418 70.114V64.43H212.776V66.292H215.968V64.43H217.326V70.114H211.418ZM222.786 67.874H220.952V70.562H219.58V64.052H220.952V66.67H222.786V67.874ZM212.776 68.966H215.968V67.426H212.776V68.966ZM233.752 76.946H225.296V72.508H233.752V76.946ZM232.38 73.67H226.668V75.784H232.38V73.67ZM235.446 70.17V71.346H223.602V70.17H235.446ZM229.524 64.234C230.14 64.234 230.7 64.29 231.204 64.402C231.718 64.5047 232.156 64.6587 232.52 64.864C232.884 65.06 233.164 65.3073 233.36 65.606C233.566 65.8953 233.668 66.222 233.668 66.586V66.978C233.668 67.342 233.566 67.6733 233.36 67.972C233.164 68.2613 232.884 68.5087 232.52 68.714C232.156 68.91 231.718 69.064 231.204 69.176C230.7 69.2787 230.14 69.33 229.524 69.33C228.908 69.33 228.344 69.2787 227.83 69.176C227.326 69.064 226.892 68.91 226.528 68.714C226.164 68.5087 225.88 68.2613 225.674 67.972C225.478 67.6733 225.38 67.342 225.38 66.978V66.586C225.38 66.222 225.478 65.8953 225.674 65.606C225.88 65.3073 226.164 65.06 226.528 64.864C226.892 64.6587 227.326 64.5047 227.83 64.402C228.344 64.29 228.908 64.234 229.524 64.234ZM229.524 68.182C229.926 68.182 230.299 68.154 230.644 68.098C230.99 68.0327 231.284 67.944 231.526 67.832C231.769 67.72 231.96 67.5893 232.1 67.44C232.24 67.2813 232.31 67.1087 232.31 66.922V66.642C232.31 66.4553 232.24 66.2873 232.1 66.138C231.96 65.9793 231.769 65.844 231.526 65.732C231.284 65.62 230.99 65.536 230.644 65.48C230.299 65.4147 229.926 65.382 229.524 65.382C229.114 65.382 228.736 65.4147 228.39 65.48C228.054 65.536 227.765 65.62 227.522 65.732C227.28 65.844 227.088 65.9793 226.948 66.138C226.808 66.2873 226.738 66.4553 226.738 66.642V66.922C226.738 67.1087 226.808 67.2813 226.948 67.44C227.088 67.5893 227.28 67.72 227.522 67.832C227.765 67.944 228.054 68.0327 228.39 68.098C228.736 68.154 229.114 68.182 229.524 68.182ZM241.862 64.248L237.578 76.792H236.248L240.518 64.248H241.862ZM244.924 77.044V73.572H251.49V72.382H244.854V71.234H252.848V74.692H246.282V75.896H253.212V77.044H244.924ZM243.314 70.114V64.43H244.672V66.292H247.864V64.43H249.222V70.114H243.314ZM254.682 67.874H252.848V70.562H251.476V64.052H252.848V66.67H254.682V67.874ZM244.672 68.966H247.864V67.426H244.672V68.966ZM258.354 74.314C258.354 73.978 258.443 73.6607 258.62 73.362C258.807 73.0633 259.068 72.802 259.404 72.578C259.749 72.354 260.165 72.1813 260.65 72.06C261.145 71.9293 261.7 71.864 262.316 71.864C262.932 71.864 263.483 71.9293 263.968 72.06C264.463 72.1813 264.878 72.354 265.214 72.578C265.559 72.802 265.821 73.0633 265.998 73.362C266.185 73.6607 266.278 73.978 266.278 74.314V74.874C266.278 75.21 266.185 75.5273 265.998 75.826C265.821 76.1247 265.559 76.386 265.214 76.61C264.878 76.834 264.463 77.0067 263.968 77.128C263.483 77.2587 262.932 77.324 262.316 77.324C261.7 77.324 261.145 77.2587 260.65 77.128C260.165 77.0067 259.749 76.834 259.404 76.61C259.068 76.386 258.807 76.1247 258.62 75.826C258.443 75.5273 258.354 75.21 258.354 74.874V74.314ZM259.446 68.546C259.409 68.6673 259.297 68.8353 259.11 69.05C258.923 69.2647 258.723 69.47 258.508 69.666C258.219 69.9367 257.883 70.2353 257.5 70.562C257.117 70.8793 256.739 71.1873 256.366 71.486L255.54 70.506C255.988 70.1607 256.413 69.8153 256.814 69.47C257.225 69.1247 257.551 68.8307 257.794 68.588C257.971 68.4107 258.116 68.2427 258.228 68.084C258.349 67.916 258.443 67.748 258.508 67.58C258.583 67.4027 258.634 67.216 258.662 67.02C258.69 66.824 258.704 66.6047 258.704 66.362V64.626H260.104V66.306C260.104 66.5207 260.109 66.7167 260.118 66.894C260.137 67.062 260.169 67.2207 260.216 67.37C260.263 67.5193 260.333 67.6687 260.426 67.818C260.529 67.958 260.664 68.1027 260.832 68.252C261.159 68.5507 261.513 68.8587 261.896 69.176C262.288 69.484 262.694 69.7873 263.114 70.086L262.302 71.052C261.938 70.7813 261.588 70.5107 261.252 70.24C260.925 69.9693 260.594 69.694 260.258 69.414C260.043 69.2367 259.866 69.0733 259.726 68.924C259.595 68.7747 259.507 68.6487 259.46 68.546H259.446ZM264.85 71.682V68.028H262.26V66.838H264.85V64.052H266.222V71.682H264.85ZM264.92 74.398C264.92 74.23 264.859 74.062 264.738 73.894C264.617 73.726 264.444 73.5767 264.22 73.446C263.996 73.306 263.721 73.1987 263.394 73.124C263.077 73.04 262.717 72.998 262.316 72.998C261.915 72.998 261.551 73.04 261.224 73.124C260.907 73.1987 260.636 73.306 260.412 73.446C260.188 73.5767 260.015 73.726 259.894 73.894C259.773 74.062 259.712 74.23 259.712 74.398V74.79C259.712 74.958 259.773 75.126 259.894 75.294C260.015 75.462 260.188 75.6113 260.412 75.742C260.636 75.882 260.907 75.9893 261.224 76.064C261.551 76.148 261.915 76.19 262.316 76.19C262.717 76.19 263.077 76.148 263.394 76.064C263.721 75.9893 263.996 75.882 264.22 75.742C264.444 75.6113 264.617 75.462 264.738 75.294C264.859 75.126 264.92 74.958 264.92 74.79V74.398ZM273.758 64.248L269.474 76.792H268.144L272.414 64.248H273.758ZM277.016 74.3C277.016 73.964 277.104 73.6467 277.282 73.348C277.459 73.0493 277.716 72.788 278.052 72.564C278.388 72.34 278.794 72.1627 279.27 72.032C279.755 71.9013 280.301 71.836 280.908 71.836C281.514 71.836 282.056 71.9013 282.532 72.032C283.017 72.1627 283.428 72.34 283.764 72.564C284.1 72.788 284.356 73.0493 284.534 73.348C284.711 73.6467 284.8 73.964 284.8 74.3V74.86C284.8 75.196 284.711 75.5133 284.534 75.812C284.356 76.1107 284.1 76.372 283.764 76.596C283.428 76.82 283.017 76.9973 282.532 77.128C282.056 77.2587 281.514 77.324 280.908 77.324C280.301 77.324 279.755 77.2587 279.27 77.128C278.794 76.9973 278.388 76.82 278.052 76.596C277.716 76.372 277.459 76.1107 277.282 75.812C277.104 75.5133 277.016 75.196 277.016 74.86V74.3ZM279.452 66.026H275.336V64.85H280.81V66.88C280.81 67.4213 280.73 67.888 280.572 68.28C280.413 68.672 280.128 69.0453 279.718 69.4C279.307 69.7453 278.747 70.1 278.038 70.464C277.328 70.8187 276.423 71.2293 275.322 71.696L274.804 70.576C275.793 70.1653 276.591 69.806 277.198 69.498C277.804 69.1807 278.276 68.882 278.612 68.602C278.948 68.322 279.172 68.042 279.284 67.762C279.396 67.4727 279.452 67.146 279.452 66.782V66.026ZM283.442 74.384C283.442 74.216 283.381 74.048 283.26 73.88C283.148 73.7027 282.98 73.5487 282.756 73.418C282.541 73.2873 282.275 73.18 281.958 73.096C281.65 73.012 281.3 72.97 280.908 72.97C280.516 72.97 280.161 73.012 279.844 73.096C279.536 73.18 279.27 73.2873 279.046 73.418C278.831 73.5487 278.663 73.7027 278.542 73.88C278.43 74.048 278.374 74.216 278.374 74.384V74.776C278.374 74.944 278.43 75.112 278.542 75.28C278.663 75.4573 278.831 75.6113 279.046 75.742C279.27 75.8727 279.536 75.98 279.844 76.064C280.161 76.148 280.516 76.19 280.908 76.19C281.3 76.19 281.65 76.148 281.958 76.064C282.275 75.98 282.541 75.8727 282.756 75.742C282.98 75.6113 283.148 75.4573 283.26 75.28C283.381 75.112 283.442 74.944 283.442 74.776V74.384ZM286.578 68.196H284.744V71.668H283.372V64.052H284.744V66.992H286.578V68.196ZM294.716 64.318H296.074V76.33H294.716V69.428H292.644V68.224H294.716V64.318ZM290.614 70.576C290.567 70.716 290.488 70.8653 290.376 71.024C290.273 71.1827 290.152 71.346 290.012 71.514C289.732 71.85 289.414 72.2093 289.06 72.592C288.714 72.9653 288.35 73.3433 287.968 73.726L287.03 72.788C287.45 72.3773 287.851 71.9667 288.234 71.556C288.626 71.1453 288.971 70.744 289.27 70.352C289.41 70.1653 289.522 69.9833 289.606 69.806C289.699 69.6193 289.769 69.428 289.816 69.232C289.862 69.036 289.89 68.8307 289.9 68.616C289.918 68.392 289.928 68.154 289.928 67.902V65.102H291.272V67.902C291.272 68.154 291.276 68.3827 291.286 68.588C291.304 68.7933 291.337 68.994 291.384 69.19C291.43 69.3767 291.496 69.5587 291.58 69.736C291.664 69.9133 291.78 70.0953 291.93 70.282C292.228 70.674 292.555 71.066 292.91 71.458C293.274 71.8407 293.666 72.2373 294.086 72.648L293.134 73.558C292.76 73.1847 292.415 72.8347 292.098 72.508C291.79 72.172 291.496 71.836 291.216 71.5C291.076 71.332 290.954 71.1733 290.852 71.024C290.749 70.8653 290.674 70.716 290.628 70.576H290.614ZM298.636 76.96H297.278V64.052H298.636V76.96ZM302.028 70.464C302.028 69.3347 301.879 68.2567 301.58 67.23C301.291 66.194 300.801 65.2093 300.11 64.276H301.398C302.098 65.1067 302.616 66.0447 302.952 67.09C303.288 68.1353 303.456 69.2833 303.456 70.534V71.094C303.456 72.3447 303.288 73.4973 302.952 74.552C302.616 75.6067 302.098 76.5493 301.398 77.38H300.11C300.829 76.3907 301.328 75.3733 301.608 74.328C301.888 73.2827 302.028 72.228 302.028 71.164V70.464Z" fill="white" fill-opacity="0.87"/>
<path fill-rule="evenodd" clip-rule="evenodd" d="M100 0H60V10C60 21.0457 68.9543 30 80 30C91.0457 30 100 21.0457 100 10V0Z" fill="#FB6C6C"/>
<path d="M75.3844 20.4C77.9124 20.4 79.8644 18.944 79.8644 16.112V11.424C79.8644 8.608 77.9124 7.136 75.3844 7.136C72.8564 7.136 70.9044 8.608 70.9044 11.424V16.112C70.9044 18.944 72.8564 20.4 75.3844 20.4ZM75.3844 17.68C74.8244 17.68 74.1204 17.36 74.1204 16.336V11.2C74.1204 10.208 74.8244 9.856 75.3844 9.856C75.9444 9.856 76.6484 10.208 76.6484 11.2V16.336C76.6484 17.36 75.9444 17.68 75.3844 17.68ZM84.6906 8.144C84.3866 8.992 83.5226 9.344 82.4986 9.472C81.8586 9.552 81.3466 10.032 81.3466 10.768C81.3466 11.648 82.0986 12.112 82.9946 12.112H84.4986V20.096H87.6986V8.768C87.6986 7.712 87.0266 7.152 86.0986 7.152C85.4266 7.152 84.9306 7.488 84.6906 8.144Z" fill="white"/>
<path fill-rule="evenodd" clip-rule="evenodd" d="M275 0H235V10C235 21.0457 243.954 30 255 30C266.046 30 275 21.0457 275 10V0Z" fill="#FB6C6C"/>
<path d="M250.408 20.4C252.936 20.4 254.888 18.944 254.888 16.112V11.424C254.888 8.608 252.936 7.136 250.408 7.136C247.88 7.136 245.928 8.608 245.928 11.424V16.112C245.928 18.944 247.88 20.4 250.408 20.4ZM250.408 17.68C249.848 17.68 249.144 17.36 249.144 16.336V11.2C249.144 10.208 249.848 9.856 250.408 9.856C250.968 9.856 251.672 10.208 251.672 11.2V16.336C251.672 17.36 250.968 17.68 250.408 17.68ZM265.058 20.096V17.328H260.13C259.954 17.328 259.89 17.248 259.89 17.088V16.976C259.89 16.384 260.226 16.064 261.042 15.536L263.026 14.272C264.354 13.408 264.93 12.352 264.93 10.624C264.93 8.416 262.994 7.152 260.578 7.152C259.234 7.152 257.602 7.664 256.818 8.848C256.418 9.44 256.418 10.304 256.994 10.768C257.458 11.152 258.098 11.152 258.578 11.024C258.882 10.944 259.122 10.736 259.298 10.592C259.666 10.288 260.018 10.064 260.498 10.064C261.218 10.064 261.666 10.496 261.666 11.024C261.666 11.408 261.522 11.84 261.01 12.176L258.498 13.84C256.994 14.848 256.514 15.888 256.514 18.032V18.208C256.514 19.408 257.298 20.096 258.498 20.096H265.058Z" fill="white"/>
</svg>
