<svg width="205" height="10" viewBox="0 0 205 10" fill="none" xmlns="http://www.w3.org/2000/svg">
<path fill-rule="evenodd" clip-rule="evenodd" d="M128.014 3.16784C85.8463 3.16784 43.6147 3.59265 1.61358 6.95853C0.787531 7.02473 0.0670631 6.37128 0.00437233 5.49901C-0.0583183 4.62675 0.560508 3.86597 1.38656 3.79977C43.5092 0.424152 85.838 0 128.014 0H172.462C173.542 0 177.285 0.067197 180.548 0.293009C182.163 0.404786 183.736 0.560079 184.814 0.782072C185.089 0.838656 185.357 0.904648 185.6 0.983915C185.821 1.0562 186.116 1.16917 186.384 1.35635C186.589 1.49933 187.241 2.01604 187.188 2.97211C187.139 3.83829 186.534 4.29227 186.353 4.41992C185.663 4.90514 184.732 4.70845 184.272 3.98059C184.253 3.94974 184.235 3.91843 184.218 3.88673C183.342 3.70884 181.946 3.56439 180.351 3.45407C177.168 3.23379 173.493 3.16784 172.462 3.16784H128.014Z" fill="#FB6C6C"/>
<path fill-rule="evenodd" clip-rule="evenodd" d="M148.828 8.48332C105.68 8.29399 48.2157 8.48436 19.5461 9.99798C18.7187 10.0417 18.0145 9.36882 17.9731 8.49514C17.9317 7.62145 18.5689 6.87778 19.3963 6.8341C48.1619 5.3154 105.711 5.12626 148.84 5.31551C170.413 5.41016 188.398 5.5996 197.398 5.76552C199.647 5.80697 201.343 5.8471 202.396 5.88418C202.911 5.90233 203.306 5.92079 203.536 5.94098C203.592 5.94597 203.667 5.95342 203.742 5.96526C203.774 5.97047 203.846 5.9824 203.93 6.00575C203.975 6.01901 204.083 6.05737 204.149 6.08523C204.258 6.14036 204.553 6.35571 204.72 6.53814C204.959 6.96864 205.001 7.98803 204.779 8.47041C204.602 8.68674 204.277 8.93854 204.156 9.00095C203.986 9.07911 203.835 9.10716 203.805 9.11282L203.801 9.11342C203.705 9.13178 203.612 9.14011 203.563 9.14423C202.813 9.20693 199.13 9.24094 191.99 9.24094C191.604 9.24094 191.251 9.08636 190.985 8.83251C181.097 8.69594 166.118 8.55919 148.828 8.48332ZM203.34 5.98493C203.34 5.98495 203.338 5.98515 203.335 5.98549C203.338 5.98508 203.34 5.98491 203.34 5.98493Z" fill="#FB6C6C"/>
</svg>
