<svg width="334" height="88" viewBox="0 0 334 88" fill="none" xmlns="http://www.w3.org/2000/svg">
<mask id="mask0" mask-type="alpha" maskUnits="userSpaceOnUse" x="0" y="11" width="62" height="62">
<circle cx="31" cy="42" r="31" fill="#C4C4C4"/>
</mask>
<g mask="url(#mask0)">
<path d="M27.1508 46.7096C22.0584 47.7665 17.9268 51.6098 14.8041 55.5492C11.7774 59.2965 9.47143 63.6203 7.93409 68.2323C6.39675 72.7962 5.67613 77.6965 5.77221 82.5007C5.82025 84.9028 6.10851 87.3049 6.58893 89.707C6.82914 90.908 7.16543 92.1091 7.54976 93.3101C7.88606 94.319 8.31843 95.472 9.23123 96.0965C10.5764 97.0574 12.0176 96.2406 13.2667 95.52C14.6599 94.7033 16.0051 93.8385 17.3503 92.9258C20.0406 91.1002 22.5868 89.0344 24.9409 86.8245C25.6135 86.1999 24.6046 85.191 23.932 85.8156C21.9143 87.6892 19.8004 89.4187 17.5905 91.0041C16.5336 91.7727 15.4286 92.4934 14.2756 93.214C13.7472 93.5503 13.2187 93.8386 12.6902 94.1749C12.1137 94.5111 11.4412 95.0396 10.7205 95.0876C9.66361 95.1837 9.18318 93.7905 8.94297 92.9738C8.60668 91.9169 8.31844 90.8119 8.07823 89.755C7.59781 87.5451 7.30955 85.2871 7.21346 83.0291C6.87717 73.9973 9.61556 64.8693 14.9962 57.567C18.0709 53.4354 22.2506 49.1597 27.4871 48.1027C28.4479 47.9106 28.0636 46.5174 27.1508 46.7096Z" fill="#FFD066"/>
<path d="M29.1205 46.8536C21.8182 48.8233 15.7169 54.156 11.9216 60.6897C8.12626 67.2233 6.49283 74.8139 6.30066 82.3565C6.15654 86.5842 6.54087 91.004 8.65471 94.7032C8.991 95.2797 9.37534 95.8082 9.9038 96.1445C11.4411 97.0573 13.3148 95.9043 14.708 94.7993C17.3022 92.7816 20.0406 90.6677 23.3075 90.1393C25.5174 89.7549 27.7753 90.1393 29.9853 89.9952C32.1952 89.851 34.6453 89.0343 35.7023 87.0646C36.2788 86.0557 36.3748 84.8547 36.6631 83.7017C36.9513 82.5967 37.5759 81.3957 38.6808 81.0113C37.3357 79.9544 35.9905 78.8975 34.6453 77.8406C34.3571 77.6004 34.0688 77.3602 33.9727 77.0239C33.8286 76.6395 33.9727 76.2552 34.1169 75.8709C34.6453 74.5257 35.2218 73.2286 35.9425 71.9314C36.0385 72.556 36.8553 72.7962 37.4798 72.8923C39.7378 73.1325 42.0438 73.4207 44.3017 73.1325C46.5597 72.8442 48.8177 71.8834 50.2589 70.1539C51.2678 68.9529 51.7963 67.4155 52.1806 65.9262C52.9973 62.7555 53.0934 59.4406 53.1895 56.1737C53.3336 51.5617 53.4777 46.7575 51.6521 42.5299C51.0756 41.1847 49.9226 39.7434 48.5294 40.0797C47.4244 40.3199 46.848 41.521 46.5117 42.5779C44.8782 48.0066 45.9352 54.204 43.2929 59.2004C41.6594 57.4709 40.3143 55.4051 39.3534 53.2432C38.873 52.1863 38.4887 51.0332 37.672 50.1685C36.8552 49.3037 35.5101 48.8233 34.5012 49.3998C34.213 50.8891 33.2521 52.2343 31.8109 52.7628C30.4177 53.2912 28.6401 52.8108 27.8714 51.5137C27.1028 50.2166 27.7273 48.2468 29.1205 47.8145" fill="#FFD066"/>
<path d="M28.9283 46.1814C23.1633 47.7668 18.1189 51.3699 14.3716 55.9339C10.192 61.0263 7.69379 67.2718 6.49275 73.7574C5.8682 77.1203 5.57996 80.5793 5.57996 84.0383C5.57996 87.3052 6.01234 90.6201 7.30946 93.6467C7.88597 94.9919 8.70268 96.6253 10.24 97.1057C11.7774 97.5861 13.4108 96.7214 14.6599 95.8566C17.2541 93.983 19.7523 91.7731 22.9711 91.0044C26.6223 90.1877 30.4656 91.5329 33.9246 89.7553C35.4139 88.9867 36.4228 87.7376 36.9032 86.1522C37.2876 84.759 37.3356 82.4049 38.969 81.7804C39.4014 81.5882 39.7377 80.9637 39.3053 80.5794C38.5847 80.0029 37.816 79.4263 37.0954 78.8498C36.4228 78.3214 35.6061 77.7929 34.9815 77.1684C34.6453 76.8321 34.7894 76.5438 34.9335 76.1595C35.0776 75.7271 35.2698 75.2947 35.462 74.8624C35.8463 74.0457 36.2306 73.229 36.663 72.4122C36.2306 72.3642 35.7983 72.3162 35.3659 72.2201C35.6061 73.277 36.663 73.5652 37.6238 73.7094C38.969 73.9015 40.3622 74.0457 41.7554 74.0457C44.1575 74.0937 46.6077 73.7574 48.6735 72.5564C53.1894 69.9621 53.6698 64.053 53.9581 59.3929C54.1022 56.7986 54.1983 54.2044 54.1502 51.6101C54.1022 49.1119 53.862 46.5657 53.1894 44.1636C52.6609 42.3381 51.652 39.6477 49.4421 39.3114C47.0881 38.9751 46.1753 41.5214 45.7429 43.347C44.5419 48.4394 45.3105 54.1083 42.8124 58.8645C43.1967 58.8164 43.581 58.7684 43.9654 58.7203C42.5721 57.231 41.4191 55.5496 40.5064 53.724C39.6896 52.0425 39.1612 50.0247 37.5278 48.9678C36.8071 48.5354 35.9904 48.2952 35.1737 48.4394C34.7894 48.4874 34.309 48.6315 34.0687 48.9198C33.8285 49.2561 33.7805 49.7845 33.6364 50.1689C32.9638 51.6582 31.3304 52.7151 29.745 52.0425C28.9763 51.7543 28.4479 51.0817 28.4479 50.265C28.4479 49.5443 28.7841 48.7276 29.5048 48.4874C30.3695 48.1511 29.9852 46.7579 29.1204 47.0942C27.8714 47.5266 27.1027 48.6796 27.0066 49.9767C26.9105 51.3699 27.6792 52.619 28.8802 53.2436C31.7627 54.6848 34.7413 52.4749 35.3659 49.5924C35.2698 49.7365 35.1257 49.8806 35.0296 50.0247C35.8943 49.5924 36.9032 50.1689 37.4797 50.8415C38.2003 51.7062 38.5847 52.9073 39.0651 53.9162C40.074 56.078 41.4191 57.9997 43.0045 59.7292C43.2928 60.0655 43.9173 59.9694 44.1575 59.5851C46.1272 55.8378 46.1753 51.6101 46.6077 47.5266C46.7037 46.4696 46.8479 45.3647 47.0881 44.3078C47.2802 43.395 47.4724 42.4341 47.9528 41.6174C48.3372 40.9448 49.0098 40.4644 49.8265 40.8968C50.5951 41.3292 51.0755 42.242 51.3638 43.0107C53.0453 47.1903 52.9011 51.8503 52.757 56.2702C52.6609 58.6723 52.6129 61.0744 52.2286 63.4765C51.8923 65.5903 51.4118 67.9443 50.0186 69.6258C48.6254 71.3553 46.3674 72.2201 44.2056 72.4603C42.8604 72.6044 41.4672 72.5564 40.074 72.4603C39.3533 72.4122 38.6808 72.3162 37.9601 72.2201C37.6238 72.172 36.9513 72.172 36.8552 71.7877C36.711 71.2112 35.8463 71.0671 35.558 71.5955C35.0296 72.6044 34.5492 73.6133 34.1168 74.6222C33.7805 75.4869 33.204 76.4477 33.5883 77.4086C33.9727 78.2733 34.9815 78.8018 35.6541 79.3783C36.5669 80.0989 37.4797 80.8196 38.3925 81.5402C38.4886 81.1559 38.5847 80.7235 38.7288 80.3391C37.4317 80.8676 36.663 81.9726 36.2787 83.2697C35.8463 84.6629 35.8463 86.2963 34.7894 87.4493C32.6755 89.7553 29.1204 89.2749 26.334 89.2749C24.6526 89.2749 23.0191 89.419 21.4338 89.9955C19.9925 90.524 18.6473 91.2927 17.3502 92.1574C16.0531 93.0222 14.9001 94.0791 13.6029 94.8958C12.3539 95.7125 10.8165 96.289 9.80763 94.8477C8.03008 92.3015 7.45359 88.8906 7.30946 85.864C7.1173 82.6452 7.30946 79.3783 7.78988 76.2075C8.65463 69.9621 10.7204 63.7647 14.4196 58.5762C18.1189 53.3877 23.4035 49.2561 29.6009 47.5746C30.2254 47.3344 29.8411 45.9412 28.9283 46.1814Z" fill="#FFD066"/>
<path d="M46.3676 40.2247C45.5989 43.1072 44.4939 46.0858 42.1399 47.9114C39.8819 49.6409 36.6631 49.9772 34.0688 48.7762C34.4051 50.1694 33.6365 51.7548 32.3394 52.4754C31.0422 53.196 29.4568 53.148 28.1597 52.4754C27.1508 51.995 26.19 50.938 26.4302 49.8331C26.6224 48.9203 27.5352 48.2957 27.9195 47.431C28.496 46.1339 27.6793 44.5965 26.6224 43.6357C25.5654 42.6748 24.2683 42.0022 23.3555 40.8973C21.4339 38.5913 21.9143 34.9882 23.7879 32.5861C25.6615 30.184 28.496 28.8869 31.3305 27.9741C34.0689 27.0613 36.9514 26.4847 39.8339 26.1484C41.6114 25.9563 43.485 25.9083 44.9743 26.9171C47.0882 28.4064 47.3284 31.4331 47.0882 34.0273C46.7999 36.7177 46.2234 39.408 45.3587 41.9542" fill="#FAC9B4"/>
<path d="M45.6469 40.0327C44.9743 42.6269 44.0615 45.3173 41.9957 47.1429C39.9779 48.9204 36.9033 49.3048 34.4531 48.1518C33.8766 47.8635 33.2521 48.3439 33.3962 48.9684C33.8766 51.1784 31.4745 52.5716 29.5529 52.1872C28.6401 51.9951 27.3429 51.4186 27.1508 50.3136C27.0067 49.4008 28.1116 48.6802 28.496 47.9596C29.5529 45.8938 28.0636 43.828 26.4782 42.5789C25.6134 41.9063 24.6526 41.3298 23.932 40.4651C23.3074 39.7444 22.9711 38.7836 22.8751 37.8228C22.5388 33.2107 26.7184 30.4243 30.5137 29.0791C32.9158 28.2144 35.414 27.5898 37.9602 27.2055C40.026 26.8692 42.8124 26.3408 44.638 27.6859C46.3675 28.9831 46.5116 31.4812 46.3675 33.4509C46.1753 36.2854 45.5028 39.1679 44.59 41.8583C44.3017 42.723 45.6949 43.1073 45.9832 42.2426C46.896 39.4562 47.5685 36.5737 47.7607 33.6431C47.9048 31.5293 47.7127 29.1272 46.3195 27.3977C44.686 25.3319 41.9477 25.2838 39.5456 25.524C36.615 25.8603 33.7325 26.4849 30.8981 27.3977C26.3821 28.887 21.5299 31.8175 21.3858 37.1502C21.3377 38.3032 21.5779 39.4562 22.1064 40.4651C22.6829 41.57 23.6918 42.3867 24.7006 43.1074C25.6615 43.828 26.7184 44.5486 27.1508 45.6536C27.6792 46.9507 26.8625 47.6713 26.1899 48.6322C25.3732 49.7852 25.5174 51.1303 26.4302 52.1392C27.3429 53.1961 28.7842 53.6765 30.1294 53.7246C32.8678 53.8207 35.3179 51.4186 34.6934 48.5841C34.3571 48.8724 33.9727 49.1126 33.6364 49.4008C36.4709 50.746 39.9779 50.4577 42.4761 48.488C45.0223 46.5183 46.1753 43.3956 46.944 40.417C47.2803 39.5042 45.8871 39.1199 45.6469 40.0327Z" fill="#FAC9B4"/>
<path d="M51.2196 42.8184C49.8264 40.1761 48.8656 40.128 48.5773 40.1761C47.6165 40.2721 46.992 41.6173 46.5596 42.7703C44.782 47.3823 45.6468 49.7364 44.8301 54.4925C44.3977 57.1348 43.6771 59.2487 43.1967 60.8821C41.8034 58.1437 39.6896 54.6367 37.7199 51.5139C37.4316 51.562 37.1914 51.61 36.9032 51.61L36.1345 72.316C37.1434 72.6043 45.839 74.7662 50.5951 69.9139C52.6609 67.8001 52.9011 63.6205 53.3815 55.3573C53.5737 52.5228 53.6698 47.4304 51.2196 42.8184Z" fill="#FFD066"/>
<path d="M51.8442 42.4333C51.2677 41.3284 50.403 39.791 49.0578 39.4547C47.4724 39.0704 46.5596 40.8479 46.0792 42.049C45.3105 43.9226 44.8301 45.8923 44.686 47.9101C44.5419 49.8318 44.5419 51.8015 44.2536 53.7231C43.9173 56.0772 43.1967 58.3832 42.5722 60.6892C43.0045 60.6412 43.4369 60.5931 43.8693 60.497C42.2359 57.2782 40.3142 54.2035 38.3925 51.1289C38.2004 50.8406 37.9121 50.7446 37.5758 50.7926C37.3836 50.8406 37.1434 50.8406 36.9513 50.8406C36.5669 50.8887 36.2306 51.1289 36.2306 51.5613C36.1346 53.8673 36.0385 56.2213 35.9904 58.5273C35.8463 62.2265 35.7022 65.9738 35.6061 69.673C35.5581 70.5378 35.5581 71.4025 35.51 72.2192C35.51 72.5075 35.7502 72.8438 36.0385 72.8918C40.6505 74.1409 46.4155 74.1889 50.3549 71.0662C52.1805 69.625 52.9492 67.5592 53.3335 65.3012C53.91 61.7942 54.0542 58.191 54.1983 54.684C54.3424 50.5524 53.862 46.2286 51.8442 42.4333C51.4118 41.6166 50.1628 42.3372 50.5951 43.1539C52.3247 46.4208 52.8051 50.12 52.709 53.7712C52.6129 57.1341 52.4207 60.497 52.0364 63.8119C51.7962 65.6855 51.4599 67.9435 50.1628 69.3367C48.193 71.4506 45.2145 72.2192 42.428 72.2673C40.4103 72.3153 38.3445 72.1232 36.3748 71.5947C36.5669 71.8349 36.7111 72.0751 36.9032 72.2673C36.9993 69.9613 37.0954 67.6072 37.1434 65.3012C37.2876 61.602 37.4317 57.8547 37.5278 54.1555C37.5758 53.2908 37.5758 52.426 37.6239 51.6093C37.3837 51.8495 37.1434 52.0897 36.9032 52.3299C37.2395 52.3299 37.5758 52.2819 37.9121 52.1858C37.6238 52.0897 37.3836 51.9456 37.0954 51.8495C39.0171 54.9242 40.9387 57.9988 42.5722 61.2176C42.8604 61.7942 43.7252 61.602 43.8693 61.0255C44.3497 59.248 44.9262 57.5184 45.2625 55.7409C45.6468 53.8673 45.839 51.9936 45.9351 50.072C46.0312 48.4386 46.0792 46.8051 46.5116 45.1717C46.7518 44.2109 47.0401 43.25 47.4244 42.3853C47.6646 41.8088 48.097 41.0401 48.5774 40.7999C48.6254 40.7999 48.6735 40.7999 48.7215 40.7999C48.4813 40.7999 48.6735 40.7999 48.7696 40.7999C48.9137 40.8479 48.7215 40.7519 48.8656 40.8479C48.9617 40.896 49.0098 40.944 49.0578 40.9921C49.7304 41.5205 50.1628 42.3372 50.5951 43.1059C51.0756 43.9707 52.2766 43.25 51.8442 42.4333Z" fill="#FFD066"/>
<path d="M30.2734 20.1439C29.0243 18.7027 27.0065 18.0781 25.0849 18.0781C21.77 18.0781 18.5992 19.7115 16.2932 22.0656C13.9392 24.3716 12.3057 27.3502 11.0086 30.3768C9.32715 34.2202 8.12611 38.3998 8.75066 42.5314C8.94282 43.6364 9.75952 45.0296 10.7684 44.5972C11.1047 44.4531 11.3449 44.1648 11.5371 43.8285C12.546 42.2912 13.0264 40.4656 13.5548 38.7361C15.3804 32.923 18.5031 27.2061 23.8358 24.2275C26.0457 22.9784 28.5439 22.2578 30.4175 20.5283C30.1773 20.1439 29.7449 19.9037 29.3125 19.8557" fill="#333333"/>
<path d="M30.7539 19.6145C27.2949 15.675 20.9534 17.3565 17.3502 20.0949C13.0745 23.3137 10.5283 28.6463 8.94291 33.6427C8.07815 36.333 7.59773 39.2155 7.93402 42.05C8.07815 43.1069 8.36641 44.2119 9.23116 44.9325C10.24 45.7492 11.393 45.3168 12.0656 44.356C13.5549 42.2902 13.9873 39.5999 14.852 37.2458C15.6688 34.9878 16.7257 32.7779 18.0228 30.7602C19.4641 28.5502 21.3377 26.5805 23.5476 25.1873C25.9497 23.698 28.7361 22.9294 30.898 21.0077C31.1382 20.8155 31.1863 20.3831 30.9941 20.1429C30.6098 19.6144 30.1294 19.2301 29.4568 19.134C28.544 18.9899 28.1596 20.3831 29.0724 20.5273C29.3607 20.5753 29.5528 20.6714 29.745 20.8635C29.793 20.5753 29.8411 20.287 29.8411 19.9988C28.1116 21.5361 25.8536 22.2568 23.8359 23.3137C21.9142 24.3226 20.2327 25.7158 18.7915 27.3011C15.8609 30.616 13.9873 34.6996 12.6902 38.8792C12.3539 40.0322 12.0176 41.1852 11.4891 42.2902C11.2489 42.7706 11.0087 43.3952 10.6244 43.7315C10.2881 44.0677 9.99982 43.7795 9.80765 43.4432C9.18311 42.4823 9.23116 41.1372 9.23116 40.0803C9.23116 38.7831 9.42333 37.5341 9.71158 36.285C10.2881 33.7868 11.2489 31.3366 12.3539 29.0306C13.4108 26.8688 14.6599 24.7549 16.3413 22.9774C18.1189 21.0557 20.4249 19.5664 22.9711 18.9899C25.3252 18.4615 28.0635 18.7497 29.745 20.6233C30.3695 21.3439 31.3784 20.3351 30.7539 19.6145Z" fill="#333333"/>
<path d="M42.3318 27.7811C41.9475 25.1389 40.1699 22.7367 37.8159 21.5837C36.6148 20.9592 35.2697 20.671 33.9245 20.4308C30.8978 19.9023 27.5349 19.8062 25.1328 21.6798C23.4514 22.977 22.5386 24.9467 21.8179 26.9164C21.0493 28.8861 20.4728 30.9519 19.9924 33.0177C19.5119 35.1796 19.2237 37.5336 20.2326 39.5034C21.0493 41.1368 22.6347 42.1937 24.3161 42.9623C25.0848 43.2986 25.9495 43.635 26.8143 43.4908C27.6791 43.3467 28.4477 42.6261 28.3997 41.7613C27.1025 41.3289 25.8535 40.5122 25.277 39.2632C24.6524 38.0621 24.7485 36.4287 25.7093 35.4198C26.6702 34.4109 28.4958 34.4109 29.3125 35.5159C29.6968 36.0443 29.8409 36.7169 30.3694 37.1013C30.8979 37.4856 31.5704 37.4856 32.243 37.3895C37.0472 36.765 41.2749 32.9697 42.4279 28.3096C42.524 27.9733 42.2837 27.3968 41.9955 27.589" fill="#333333"/>
<path d="M43.0044 27.5888C42.4279 24.1298 39.8817 21.3915 36.5668 20.2865C34.8373 19.71 32.9637 19.4217 31.1381 19.3737C29.4086 19.2776 27.6311 19.5178 26.0457 20.2384C22.5867 21.8238 21.2415 25.8113 20.1846 29.1742C19.6081 31.0479 19.0796 33.0176 18.8394 34.9873C18.5992 36.8129 18.7914 38.7345 19.8003 40.3199C20.9052 42.0014 22.6828 43.1064 24.5083 43.827C25.4692 44.2113 26.5742 44.3554 27.535 43.9231C28.3997 43.4907 28.9762 42.674 28.9762 41.7131C28.9762 41.3769 28.736 41.1366 28.4478 41.0405C27.3909 40.7043 26.382 40.0317 25.8055 39.0708C25.3251 38.2061 25.277 36.957 25.9016 36.1403C26.43 35.4677 27.535 35.2275 28.2556 35.6599C28.688 35.9481 28.8321 36.3805 29.0723 36.8129C29.3606 37.2933 29.6969 37.7257 30.2253 37.9659C31.2342 38.3983 32.4352 38.158 33.4441 37.9178C34.501 37.6776 35.558 37.2452 36.4708 36.7168C38.3444 35.7079 39.9778 34.2186 41.1308 32.4411C41.8034 31.4322 42.3319 30.3272 42.7162 29.1742C42.8603 28.6458 43.0525 28.1653 42.8603 27.5888C42.6682 27.0604 42.1397 26.628 41.6112 26.8682C41.2269 27.0123 40.9867 27.3487 41.1308 27.733C41.2269 28.0693 41.6593 28.4056 41.9956 28.2134C41.8514 28.1654 41.7073 28.1173 41.5151 28.0212C41.5151 28.0693 41.5151 28.0693 41.5151 28.1173C41.4671 28.2134 41.4671 28.3575 41.4191 28.4536C41.371 28.6938 41.2749 28.934 41.1789 29.1742C40.9867 29.7027 40.7465 30.1831 40.5063 30.6635C39.9778 31.5763 39.3533 32.4411 38.6326 33.2097C37.1914 34.699 35.3178 35.804 33.3 36.3805C32.4353 36.6207 30.946 37.1011 30.3695 36.1403C30.0812 35.7079 29.9371 35.2275 29.6008 34.8432C29.2645 34.4588 28.8321 34.2186 28.3997 34.0265C26.3339 33.3058 24.3162 34.7951 24.0279 36.8609C23.6436 39.5032 25.7094 41.521 28.0154 42.2897C27.8232 42.0494 27.6791 41.8092 27.4869 41.6171C27.4869 42.3857 26.6702 42.722 25.9976 42.626C25.1809 42.5779 24.3642 42.1455 23.6916 41.7612C22.4426 41.0886 21.2415 40.1278 20.617 38.8306C19.9444 37.3894 20.0405 35.7079 20.3287 34.1706C20.617 32.4411 21.0974 30.7596 21.6258 29.1262C22.5386 26.3398 23.5955 22.9768 26.382 21.5356C28.9762 20.1904 32.3872 20.6228 35.1256 21.2954C36.8071 21.6797 38.2963 22.4003 39.4974 23.6494C40.6024 24.8024 41.323 26.2917 41.5632 27.8771C41.7554 28.886 43.1486 28.5016 43.0044 27.5888Z" fill="#333333"/>
<path d="M31.3304 20.0464C31.6667 19.4219 32.2432 18.8934 32.8677 18.5571C33.7805 18.0767 34.8855 17.9806 35.9424 18.0287C38.921 18.1728 41.8035 19.4219 43.9654 21.4877C46.1273 23.5535 47.4725 26.3879 47.7607 29.3665C47.8568 30.1832 47.7607 31.1441 47.0881 31.6245C46.6077 31.9608 45.9351 31.9127 45.4067 31.7206C44.2537 31.2402 43.485 30.1352 43.0046 28.9822C42.5242 27.8292 42.2839 26.5801 41.6594 25.4751C40.7466 23.7937 39.1612 22.5446 37.4317 21.7279C35.7022 20.9112 33.8286 20.4307 31.955 19.9984C31.6187 19.9023 30.9941 20.0945 31.2343 20.4308" fill="#333333"/>
<path d="M31.9549 20.4307C32.8677 18.9414 34.5012 18.7012 36.1346 18.7973C37.6239 18.8934 39.1132 19.3258 40.4103 19.9503C43.1967 21.2955 45.3586 23.6976 46.3675 26.5801C46.6077 27.2527 46.7999 27.9252 46.896 28.6459C46.992 29.2704 47.1842 30.2312 46.8479 30.8077C46.5116 31.3842 45.743 31.1441 45.2625 30.8558C44.638 30.4715 44.2056 29.8949 43.9174 29.2704C43.1487 27.8291 42.9565 26.1957 42.0918 24.8025C41.3711 23.6015 40.3142 22.5926 39.1132 21.8239C37.5758 20.815 35.8463 20.2385 34.1168 19.7581C33.3482 19.566 32.3393 19.1336 31.5226 19.2777C30.7539 19.4218 30.3215 19.9984 30.6098 20.767C30.7539 21.1514 31.2824 21.1994 31.6187 21.0072C32.003 20.8151 32.051 20.3827 31.8589 19.9983C31.9069 20.0944 31.7147 20.5748 31.7628 20.6229L32.003 20.6709C32.1952 20.767 32.4354 20.767 32.6275 20.8151C33.1079 20.9111 33.5403 21.0553 34.0208 21.1994C34.9336 21.4396 35.7983 21.7279 36.6631 22.1122C38.1043 22.7367 39.4975 23.6495 40.4584 24.9466C41.4672 26.3399 41.7555 28.0213 42.4281 29.5587C43.0526 30.9038 44.1095 32.249 45.6469 32.5373C47.2803 32.8255 48.3372 31.6245 48.4333 30.0391C48.4813 28.4537 48.0009 26.7723 47.3764 25.331C46.0792 22.3044 43.7252 19.8062 40.6986 18.461C37.6239 17.0678 32.6756 16.155 30.6098 19.614C30.2255 20.4788 31.4745 21.1994 31.9549 20.4307Z" fill="#333333"/>
<path d="M42.1877 38.1104C42.7642 38.2064 43.3407 38.3506 43.9172 38.4467L42.1877 38.1104Z" fill="#333333"/>
<path d="M41.9957 38.7825C42.5722 38.8786 43.1487 39.0227 43.7252 39.1188C43.9174 39.1668 44.1096 39.1668 44.3017 39.0227C44.4459 38.9266 44.59 38.7825 44.638 38.5903C44.6861 38.3981 44.6861 38.206 44.5419 38.0138C44.4459 37.8697 44.3017 37.7256 44.1096 37.6775C43.5331 37.5814 42.9566 37.4373 42.3801 37.3412C42.1879 37.2932 41.9957 37.2932 41.8036 37.4373C41.6594 37.5334 41.5153 37.6775 41.4673 37.8697C41.4192 38.0619 41.4192 38.254 41.5633 38.4462C41.6594 38.6384 41.8516 38.7345 41.9957 38.7825Z" fill="#333333"/>
<path d="M48.9138 38.4943C48.4334 37.005 47.9529 35.4677 47.0882 34.1706C46.2234 32.8734 44.8302 31.7685 43.2929 31.6244C42.6203 31.5763 41.8997 31.6724 41.4673 32.1528C40.7467 32.9215 41.083 34.1706 41.7075 34.9873C42.3321 35.804 43.2448 36.4285 43.7733 37.2933C44.1576 37.9178 44.3498 38.6385 44.8783 39.1189C45.8871 40.1278 47.5206 39.7915 48.8657 39.4552" fill="#FAC9B4"/>
<path d="M49.5863 38.302C49.0098 36.4283 48.3853 34.5547 47.1362 33.0654C46.0312 31.7683 44.3017 30.7113 42.5722 30.9035C41.6594 30.9996 40.8427 31.48 40.5064 32.3448C40.1701 33.1615 40.3623 34.0262 40.6986 34.7949C41.0829 35.6116 41.8035 36.2362 42.4281 36.8607C42.7163 37.149 43.0046 37.4853 43.1967 37.8215C43.437 38.2059 43.5811 38.6382 43.8213 39.0706C44.9743 40.9443 47.1842 40.7041 49.0098 40.2236C49.9226 39.9834 49.5383 38.5902 48.6255 38.8304C47.6166 39.1187 45.9832 39.5511 45.2145 38.5422C44.7821 37.9657 44.59 37.245 44.1576 36.6685C43.6772 36.044 43.1007 35.5155 42.5722 34.9871C42.1398 34.5547 41.8035 34.0262 41.7555 33.4017C41.7074 32.8252 42.0918 32.4889 42.6202 32.3928C43.9174 32.2006 45.2145 33.1134 46.0312 34.0262C47.1842 35.3234 47.6646 37.1009 48.1931 38.7343C48.4814 39.551 49.8746 39.1667 49.5863 38.302Z" fill="#FAC9B4"/>
<path d="M37.912 63.4289C36.7109 67.7046 35.1736 71.8842 33.3961 75.9678C33.0117 76.7845 34.2608 77.5531 34.6451 76.6884C36.5188 72.5087 38.0561 68.233 39.3052 63.8132C39.5454 62.9484 38.1522 62.5641 37.912 63.4289Z" fill="#FFB213"/>
<path d="M19.4641 68.2341C19.6563 73.807 20.5691 79.572 23.4996 84.3281C24.1722 85.4331 24.9889 86.538 26.0939 87.2587C28.0156 88.6038 30.5618 88.748 32.9158 88.6519C35.0777 88.5558 37.3357 88.3156 39.2573 87.3067C41.179 86.2498 42.7164 84.2801 42.6203 82.0702C39.4976 81.1093 36.1827 79.9563 34.213 77.3621C30.9942 73.1344 32.5315 66.8409 30.0333 62.1328" fill="#FFD066"/>
<path d="M18.7435 68.2332C18.9837 73.9982 19.8965 80.0995 23.0672 85.0478C23.8359 86.2008 24.7007 87.2578 25.8537 88.0264C27.0067 88.7951 28.3519 89.1314 29.697 89.3235C31.0902 89.5157 32.5315 89.4677 33.9247 89.3716C35.414 89.2755 36.8552 89.0833 38.2485 88.5549C40.9868 87.546 43.3889 85.1919 43.2929 82.1173C43.2929 81.781 43.0526 81.5408 42.7644 81.4447C39.6897 80.4839 36.2307 79.3789 34.3571 76.4964C32.5795 73.758 32.5795 70.299 32.1471 67.1763C31.8589 65.3507 31.4746 63.5251 30.5618 61.8436C30.1294 61.0269 28.8803 61.7476 29.3127 62.5643C30.8981 65.6389 30.802 69.194 31.3785 72.5089C31.6667 74.1423 32.1472 75.7277 33.0119 77.1209C33.9247 78.6102 35.2699 79.7632 36.7592 80.5799C38.4887 81.5408 40.4103 82.1653 42.284 82.7899C42.0918 82.5496 41.9477 82.3094 41.7555 82.1173C41.8035 84.5193 39.8819 86.393 37.768 87.1616C35.414 88.0264 32.6276 88.1225 30.1774 87.9303C28.9284 87.8342 27.6793 87.546 26.6223 86.8734C25.5174 86.2008 24.7487 85.1919 24.0761 84.135C22.6829 81.9251 21.7701 79.523 21.1456 77.0248C20.4249 74.1423 20.1367 71.2118 20.0406 68.2332C20.1367 67.3204 18.6954 67.3204 18.7435 68.2332Z" fill="#FFD066"/>
<path d="M42.7642 40.9922C42.5721 41.4726 42.3799 41.953 42.1877 42.4334L42.7642 40.9922Z" fill="#333333"/>
<path d="M42.0918 40.8003C41.8996 41.2808 41.7075 41.7612 41.5153 42.2416C41.4673 42.3857 41.5153 42.674 41.6114 42.8181C41.7075 42.9622 41.8516 43.1064 42.0438 43.1544C42.2359 43.2024 42.4281 43.2024 42.6203 43.0583C42.6683 43.0103 42.7164 42.9622 42.7644 42.9622C42.8605 42.8661 42.9085 42.7701 42.9566 42.626C43.1487 42.1455 43.3409 41.6651 43.5331 41.1847C43.5811 41.0406 43.5331 40.7523 43.437 40.6082C43.3409 40.4641 43.1968 40.3199 43.0046 40.2719C42.8124 40.2239 42.6203 40.2239 42.4281 40.368C42.3801 40.416 42.332 40.4641 42.284 40.4641C42.1879 40.5602 42.1399 40.6562 42.0918 40.8003Z" fill="#333333"/>
<path d="M37.8161 38.2547C38.1524 38.2547 38.4887 38.2547 38.7769 38.2547C38.9691 38.2547 39.1613 38.1587 39.3054 38.0626C39.3534 38.0145 39.4015 37.9185 39.4495 37.8224C39.4975 37.7263 39.4975 37.6302 39.4975 37.5341C39.4975 37.3419 39.4495 37.1498 39.3054 37.0057C39.1613 36.8615 38.9691 36.8135 38.7769 36.8135C38.4406 36.8135 38.1043 36.8135 37.8161 36.8135C37.6239 36.8135 37.4317 36.9096 37.2876 37.0057C37.2396 37.0537 37.1915 37.1498 37.1435 37.2459C37.0955 37.3419 37.0955 37.438 37.0955 37.5341C37.0955 37.7263 37.1435 37.9185 37.2876 38.0626C37.4798 38.2067 37.6239 38.2547 37.8161 38.2547Z" fill="#333333"/>
<path d="M36.1345 46.6139C37.2875 46.2296 38.5847 46.1816 39.7857 46.5179L36.1345 46.6139Z" fill="#333333"/>
<path d="M36.3267 47.3351C36.615 47.2391 36.9032 47.143 37.2395 47.0949C37.2876 47.0949 37.3837 47.0949 37.4317 47.0469C37.2876 47.0469 37.4797 47.0469 37.4797 47.0469C37.6239 47.0469 37.768 46.9988 37.9602 46.9988C38.2484 46.9988 38.5367 46.9988 38.8249 47.0469C38.921 47.0469 38.921 47.0469 38.8249 47.0469C38.873 47.0469 38.873 47.0469 38.921 47.0469C39.0171 47.0469 39.0651 47.0949 39.1612 47.0949C39.3053 47.143 39.4495 47.143 39.5936 47.191C39.9779 47.2871 40.4103 47.0469 40.4583 46.7106C40.5544 46.3263 40.3623 45.9419 39.9779 45.8458C38.6808 45.5095 37.2395 45.5095 35.9424 45.9419C35.6061 46.038 35.3179 46.4223 35.462 46.8067C35.5581 47.191 35.9424 47.4312 36.3267 47.3351Z" fill="#333333"/>
<path d="M37.2397 40.5605C37.0955 40.9929 36.9995 41.3773 36.9514 41.8097L37.2397 40.5605Z" fill="#333333"/>
<path d="M36.567 40.3687C36.4229 40.8491 36.3268 41.3296 36.2787 41.81C36.2787 42.0022 36.3748 42.1943 36.4709 42.3384C36.615 42.4826 36.8072 42.5787 36.9994 42.5306C37.1915 42.5306 37.3837 42.4826 37.5278 42.3384C37.5759 42.2904 37.6239 42.2424 37.6239 42.1943C37.672 42.0982 37.72 41.9541 37.72 41.81C37.72 41.7619 37.72 41.6658 37.72 41.6178C37.72 41.6658 37.72 41.7619 37.672 41.81C37.72 41.4257 37.8161 41.0894 37.9122 40.7531C37.9602 40.5609 37.9122 40.3687 37.8161 40.1766C37.72 40.0324 37.5759 39.8883 37.3837 39.8403C37.1916 39.7922 36.9994 39.7922 36.8072 39.9363C36.7111 40.0324 36.615 40.1766 36.567 40.3687Z" fill="#333333"/>
<path d="M34.5011 76.0147C32.1471 71.6909 32.2431 66.5985 30.7538 61.9865C30.4656 61.1217 29.0724 61.506 29.3606 62.3708C30.898 67.1269 30.8499 72.2674 33.252 76.7353C33.6844 77.552 34.9335 76.8314 34.5011 76.0147Z" fill="#FFB213"/>
<path d="M18.7435 68.2324C18.8876 72.1238 19.368 76.1113 20.6171 79.8105C21.8182 83.3176 23.884 86.7285 27.2949 88.458C29.4088 89.515 31.7628 89.8032 34.0688 89.611C34.9816 89.515 34.9816 88.0737 34.0688 88.1698C32.1952 88.3139 30.2255 88.2178 28.4479 87.4492C26.9106 86.7766 25.5654 85.6716 24.5085 84.3265C22.2986 81.492 21.2897 77.8408 20.7132 74.3338C20.3769 72.316 20.2328 70.2982 20.1367 68.2324C20.1367 67.3197 18.6954 67.3197 18.7435 68.2324Z" fill="#FFB213"/>
<path d="M25.0453 49.3081C24.5093 50.1458 24.7113 51.1638 25.4647 52.0913C26.2164 53.0577 27.4827 53.6524 28.7103 54.0047C29.9873 54.3665 31.467 54.6494 32.6739 54.3709C33.731 54.103 34.5577 53.4384 34.8471 52.5536C35.0783 51.8535 33.6623 51.2693 33.4311 51.9694C33.2545 52.5624 32.7875 52.9824 32.0809 53.1998C31.2246 53.4278 30.1413 53.1815 29.206 52.9635C28.3693 52.7643 27.4411 52.3909 26.8214 51.8023C26.3935 51.3679 26.0293 50.6324 26.2991 50.1747C26.4596 49.9312 26.4263 49.5722 26.09 49.312C25.7519 49.0907 25.2076 49.0258 25.0453 49.3081Z" fill="#FFB213"/>
<path d="M29.6008 33.8354C32.3872 33.7393 35.0295 32.1539 36.4227 29.7038C36.7109 29.1754 35.8942 28.6949 35.606 29.2234C34.4049 31.3853 32.0989 32.7785 29.6488 32.8746C28.9762 32.8746 28.9762 33.8354 29.6008 33.8354Z" fill="#676766"/>
<path d="M33.7324 35.276C35.7982 34.4112 37.4797 32.7778 38.4885 30.8081C38.7768 30.2796 37.9601 29.7512 37.6718 30.3277C36.711 32.2013 35.1737 33.6426 33.252 34.4593C33.0118 34.5554 32.9637 34.8916 33.0598 35.1318C33.204 35.372 33.4922 35.372 33.7324 35.276Z" fill="#676766"/>
<path d="M35.0296 21.9686C32.6756 20.8636 29.9853 20.6234 27.4871 21.296C26.9106 21.4401 27.1508 22.401 27.7273 22.2088C29.9853 21.6323 32.4354 21.8244 34.5492 22.7853C35.0777 23.0735 35.5581 22.2568 35.0296 21.9686Z" fill="#676766"/>
<path d="M30.2734 23.7452C29.2165 23.409 28.1596 23.2648 27.0546 23.2168C26.8144 23.2168 26.5742 23.457 26.5742 23.6972C26.5742 23.9855 26.7664 24.1776 27.0546 24.1776C28.0635 24.2257 29.0243 24.3698 30.0332 24.6581C30.2734 24.7541 30.5617 24.562 30.6097 24.3218C30.6578 24.0815 30.5136 23.7933 30.2734 23.7452Z" fill="#676766"/>
<path d="M26.5262 27.0131C26.1419 26.4846 25.8056 25.9081 25.4212 25.3796C25.2771 25.1875 24.9888 25.0433 24.7486 25.1875C24.5565 25.3316 24.4123 25.6198 24.5565 25.8601C24.9408 26.3885 25.2771 26.965 25.6614 27.4935C25.8056 27.6857 26.0938 27.8298 26.334 27.6856C26.5742 27.5415 26.6703 27.2533 26.5262 27.0131Z" fill="#676766"/>
<path d="M14.3716 29.0303C15.957 24.6585 19.8484 21.2476 24.4124 20.2387C25.0369 20.0946 24.7487 19.1818 24.1722 19.3259C19.2719 20.4309 15.1884 24.082 13.4588 28.7901C13.2186 29.3666 14.1314 29.6068 14.3716 29.0303Z" fill="#676766"/>
<path d="M18.3591 26.3878C19.32 24.4661 21.0495 22.9769 23.1633 22.3523C23.7398 22.1601 23.4996 21.2473 22.9231 21.4395C20.6171 22.1121 18.6474 23.7935 17.5905 25.9074C17.2542 26.4839 18.0709 26.9643 18.3591 26.3878Z" fill="#676766"/>
<path d="M40.4103 34.6026C41.3712 35.8997 42.2839 37.2449 43.2448 38.542C44.0135 39.5989 45.0223 40.7519 46.4636 40.7519C47.3764 40.7519 47.3764 39.3107 46.4636 39.3107C46.2714 39.3107 46.0312 39.2626 45.8871 39.1666C45.6469 39.0224 45.5028 38.9263 45.3106 38.7822C44.8782 38.3979 44.59 37.9655 44.2537 37.4851C43.3889 36.284 42.5242 35.083 41.6594 33.882C41.4192 33.5457 41.0349 33.4015 40.6505 33.6417C40.3623 33.8339 40.1701 34.3143 40.4103 34.6026Z" fill="#E5A58F"/>
</g>
<g filter="url(#filter0_d)">
<path fill-rule="evenodd" clip-rule="evenodd" d="M77 25H62L72 15L77.2554 9.7446C78.2781 5.30797 82.2528 2 87 2H320C325.523 2 330 6.47715 330 12V72C330 77.5229 325.523 82 320 82H87C81.4772 82 77 77.5229 77 72V25Z" fill="#D4DCFF"/>
</g>
<path d="M90.92 18.356H89.758L90.738 15.206H91.508L90.92 18.356ZM88.862 18.356H87.7L88.68 15.206H89.45L88.862 18.356ZM102.631 15.668V20.176H94.3985V15.668H102.631ZM95.3645 19.322H101.665V16.508H95.3645V19.322ZM104.395 21.632V22.472H99.1445V25.174H98.1645V22.472H92.6345V21.632H104.395ZM95.3645 26.882H102.925V27.75H94.3705V23.942H95.3645V26.882ZM112.277 17.992H115.287V15.108H116.267V21.73H115.287V18.86H112.277V21.268H106.453V15.682H107.405V17.642H111.325V15.682H112.277V17.992ZM116.267 22.486V27.89H108.455V22.486H109.421V24.264H115.301V22.486H116.267ZM115.301 27.008V25.132H109.421V27.008H115.301ZM107.405 20.414H111.325V18.496H107.405V20.414ZM126.569 19.91C126.541 20.0127 126.424 20.1713 126.219 20.386C126.023 20.6007 125.776 20.8387 125.477 21.1C125.356 21.212 125.206 21.338 125.029 21.478C124.861 21.618 124.679 21.7673 124.483 21.926C124.296 22.0753 124.105 22.2247 123.909 22.374C123.713 22.514 123.531 22.6447 123.363 22.766L122.761 22.066C123.2 21.7673 123.629 21.45 124.049 21.114C124.469 20.778 124.852 20.442 125.197 20.106C125.365 19.938 125.505 19.7793 125.617 19.63C125.729 19.4807 125.813 19.3313 125.869 19.182C125.934 19.0327 125.976 18.8787 125.995 18.72C126.023 18.552 126.037 18.3747 126.037 18.188V16.802H123.125V15.948H129.817V16.802H127.031V18.146C127.031 18.3513 127.04 18.5333 127.059 18.692C127.078 18.8507 127.12 19.0047 127.185 19.154C127.26 19.3033 127.362 19.4573 127.493 19.616C127.633 19.7653 127.815 19.938 128.039 20.134C128.263 20.3207 128.557 20.554 128.921 20.834C129.285 21.1047 129.677 21.3753 130.097 21.646L129.523 22.346C129.234 22.1407 128.935 21.926 128.627 21.702C128.319 21.4687 128.058 21.268 127.843 21.1C127.516 20.8293 127.232 20.5867 126.989 20.372C126.746 20.1573 126.611 20.0033 126.583 19.91H126.569ZM126.093 26.882H133.261V27.75H125.099V23.508H126.093V26.882ZM132.939 24.25H131.959V15.108H132.939V24.25ZM135.655 16.298H143.523V17.152H141.871V19.686C141.871 19.9193 141.88 20.1247 141.899 20.302C141.918 20.4793 141.946 20.652 141.983 20.82C142.03 20.9787 142.09 21.1467 142.165 21.324C142.249 21.492 142.356 21.6927 142.487 21.926C142.674 22.2527 142.874 22.598 143.089 22.962C143.313 23.3167 143.584 23.7227 143.901 24.18L143.173 24.684C142.94 24.3387 142.739 24.04 142.571 23.788C142.403 23.5267 142.244 23.2747 142.095 23.032C141.908 22.7333 141.754 22.4767 141.633 22.262C141.512 22.038 141.428 21.856 141.381 21.716H141.367C141.311 21.8467 141.222 22.01 141.101 22.206C140.989 22.402 140.854 22.6213 140.695 22.864C140.536 23.0973 140.364 23.3493 140.177 23.62C140 23.8813 139.808 24.1567 139.603 24.446H139.575C139.37 24.1567 139.174 23.8813 138.987 23.62C138.81 23.3493 138.642 23.0973 138.483 22.864C138.324 22.6213 138.184 22.402 138.063 22.206C137.951 22.01 137.867 21.8467 137.811 21.716H137.797C137.694 21.996 137.461 22.4347 137.097 23.032C136.948 23.2747 136.77 23.5453 136.565 23.844C136.369 24.1427 136.15 24.4693 135.907 24.824L135.179 24.32C135.524 23.8253 135.823 23.3727 136.075 22.962C136.336 22.5513 136.546 22.206 136.705 21.926C136.826 21.6927 136.924 21.492 136.999 21.324C137.083 21.1467 137.148 20.9787 137.195 20.82C137.242 20.652 137.27 20.4793 137.279 20.302C137.298 20.1247 137.307 19.9193 137.307 19.686V17.152H135.655V16.298ZM145.777 19.896H147.527V20.778H145.777V27.904H144.783V15.108H145.777V19.896ZM139.589 22.976C139.748 22.7427 139.888 22.5233 140.009 22.318C140.14 22.1127 140.252 21.9307 140.345 21.772C140.476 21.548 140.578 21.3567 140.653 21.198C140.728 21.03 140.784 20.8713 140.821 20.722C140.858 20.5727 140.882 20.414 140.891 20.246C140.9 20.078 140.905 19.868 140.905 19.616V17.152H138.273V19.616C138.273 19.868 138.278 20.078 138.287 20.246C138.296 20.414 138.32 20.5727 138.357 20.722C138.394 20.8713 138.45 21.03 138.525 21.198C138.6 21.3567 138.702 21.548 138.833 21.772C138.926 21.9307 139.034 22.1127 139.155 22.318C139.286 22.5233 139.43 22.7427 139.589 22.976ZM155.687 21.086C155.23 21.086 154.81 21.016 154.427 20.876C154.045 20.736 153.713 20.5493 153.433 20.316C153.163 20.0827 152.948 19.812 152.789 19.504C152.64 19.196 152.565 18.874 152.565 18.538V17.936C152.565 17.6 152.64 17.278 152.789 16.97C152.948 16.6527 153.167 16.3773 153.447 16.144C153.727 15.9107 154.059 15.724 154.441 15.584C154.824 15.444 155.244 15.374 155.701 15.374C156.159 15.374 156.579 15.444 156.961 15.584C157.344 15.724 157.671 15.9107 157.941 16.144C158.212 16.3773 158.422 16.648 158.571 16.956C158.73 17.264 158.809 17.586 158.809 17.922V18.538C158.809 18.874 158.73 19.196 158.571 19.504C158.422 19.812 158.207 20.0827 157.927 20.316C157.657 20.5493 157.33 20.736 156.947 20.876C156.565 21.016 156.145 21.086 155.687 21.086ZM162.743 22.178V25.482H155.869V27.106H163.079V27.946H154.903V24.656H161.777V23.032H154.833V22.178H162.743ZM155.701 16.256C155.384 16.256 155.09 16.3027 154.819 16.396C154.558 16.4893 154.329 16.62 154.133 16.788C153.937 16.9467 153.783 17.1333 153.671 17.348C153.569 17.5627 153.517 17.7867 153.517 18.02V18.454C153.517 18.6967 153.569 18.9253 153.671 19.14C153.783 19.3453 153.933 19.5273 154.119 19.686C154.315 19.8447 154.544 19.9707 154.805 20.064C155.076 20.1573 155.37 20.204 155.687 20.204C156.005 20.204 156.294 20.1573 156.555 20.064C156.826 19.9707 157.055 19.8447 157.241 19.686C157.437 19.5273 157.587 19.3453 157.689 19.14C157.801 18.9253 157.857 18.6967 157.857 18.454V18.006C157.857 17.7633 157.801 17.5393 157.689 17.334C157.587 17.1193 157.437 16.9327 157.241 16.774C157.055 16.6153 156.831 16.4893 156.569 16.396C156.308 16.3027 156.019 16.256 155.701 16.256ZM161.777 16.676V15.108H162.743V21.422H161.777V19.952H159.481V19.098H161.777V17.53H159.481V16.676H161.777ZM175.609 22.248H174.629V15.108H175.609V22.248ZM167.783 23.004H175.609V27.876H167.783V23.004ZM168.735 26.994H174.657V23.886H168.735V26.994ZM169.085 19.042C169.067 19.1633 168.955 19.3313 168.749 19.546C168.553 19.7513 168.301 20.0033 167.993 20.302C167.751 20.5353 167.443 20.8107 167.069 21.128C166.696 21.436 166.304 21.7533 165.893 22.08L165.277 21.38C165.66 21.0907 166.057 20.778 166.467 20.442C166.878 20.0967 167.242 19.7653 167.559 19.448C167.783 19.224 167.956 19.0327 168.077 18.874C168.208 18.706 168.306 18.538 168.371 18.37C168.446 18.202 168.493 18.0247 168.511 17.838C168.53 17.6513 168.539 17.4227 168.539 17.152V15.64H169.547V17.124C169.547 17.3853 169.557 17.6093 169.575 17.796C169.594 17.9733 169.636 18.1413 169.701 18.3C169.776 18.4587 169.879 18.622 170.009 18.79C170.149 18.9487 170.336 19.1307 170.569 19.336C170.915 19.6347 171.265 19.9287 171.619 20.218C171.983 20.5073 172.324 20.7687 172.641 21.002L172.053 21.688C171.661 21.3893 171.311 21.1187 171.003 20.876C170.705 20.624 170.434 20.3953 170.191 20.19C169.529 19.63 169.165 19.2473 169.099 19.042H169.085ZM182.134 24.992C181.648 24.992 181.214 24.9173 180.832 24.768C180.458 24.6093 180.141 24.404 179.88 24.152C179.628 23.9 179.432 23.6153 179.292 23.298C179.161 22.9807 179.096 22.6587 179.096 22.332V21.576C179.096 21.2493 179.161 20.9273 179.292 20.61C179.432 20.2927 179.628 20.008 179.88 19.756C180.141 19.504 180.458 19.2987 180.832 19.14C181.214 18.9813 181.648 18.902 182.134 18.902C182.619 18.902 183.048 18.9813 183.422 19.14C183.795 19.2987 184.112 19.504 184.374 19.756C184.635 20.008 184.831 20.2927 184.962 20.61C185.102 20.9273 185.172 21.2493 185.172 21.576V22.332C185.172 22.6587 185.102 22.9807 184.962 23.298C184.831 23.6153 184.635 23.9 184.374 24.152C184.112 24.404 183.795 24.6093 183.422 24.768C183.048 24.9173 182.619 24.992 182.134 24.992ZM182.134 19.784C181.816 19.784 181.527 19.8353 181.266 19.938C181.014 20.0313 180.794 20.162 180.608 20.33C180.43 20.498 180.29 20.6987 180.188 20.932C180.085 21.156 180.034 21.3987 180.034 21.66V22.248C180.034 22.5093 180.085 22.7567 180.188 22.99C180.29 23.214 180.43 23.41 180.608 23.578C180.794 23.746 181.014 23.8813 181.266 23.984C181.527 24.0773 181.816 24.124 182.134 24.124C182.451 24.124 182.736 24.0773 182.988 23.984C183.249 23.8813 183.468 23.746 183.646 23.578C183.832 23.41 183.977 23.214 184.08 22.99C184.182 22.7567 184.234 22.5093 184.234 22.248V21.66C184.234 21.3987 184.182 21.156 184.08 20.932C183.977 20.6987 183.832 20.498 183.646 20.33C183.468 20.162 183.249 20.0313 182.988 19.938C182.736 19.8353 182.451 19.784 182.134 19.784ZM188.672 27.904H187.678V15.108H188.672V27.904ZM181.644 17.124V15.178H182.638V17.124H185.844V17.992H178.396V17.124H181.644ZM196.426 16.242V19.434H199.492V16.242H200.458V24.474H195.46V16.242H196.426ZM203.006 19.924H204.868V15.108H205.848V27.904H204.868V20.806H203.006V27.274H202.026V15.374H203.006V19.924ZM199.492 23.592V20.316H196.426V23.592H199.492ZM212.036 19.49C211.588 19.49 211.177 19.4433 210.804 19.35C210.431 19.2567 210.104 19.1307 209.824 18.972C209.553 18.804 209.339 18.608 209.18 18.384C209.031 18.16 208.956 17.9127 208.956 17.642V17.138C208.956 16.8767 209.031 16.634 209.18 16.41C209.339 16.1767 209.553 15.9807 209.824 15.822C210.104 15.654 210.431 15.5233 210.804 15.43C211.177 15.3367 211.588 15.29 212.036 15.29C212.484 15.29 212.895 15.3367 213.268 15.43C213.641 15.5233 213.963 15.654 214.234 15.822C214.514 15.9807 214.729 16.1767 214.878 16.41C215.037 16.634 215.116 16.8767 215.116 17.138V17.642C215.116 17.9127 215.037 18.16 214.878 18.384C214.729 18.608 214.514 18.804 214.234 18.972C213.963 19.1307 213.641 19.2567 213.268 19.35C212.895 19.4433 212.484 19.49 212.036 19.49ZM214.192 27.946C214.015 27.806 213.8 27.6333 213.548 27.428C213.305 27.2227 213.1 27.0453 212.932 26.896C212.68 26.672 212.465 26.4807 212.288 26.322C212.12 26.1633 211.999 26.0187 211.924 25.888C211.877 25.972 211.775 26.0887 211.616 26.238C211.467 26.3873 211.238 26.5833 210.93 26.826C210.734 26.9847 210.515 27.1527 210.272 27.33C210.029 27.5167 209.745 27.7267 209.418 27.96L208.886 27.246C209.007 27.162 209.143 27.064 209.292 26.952C209.441 26.8493 209.591 26.742 209.74 26.63C209.889 26.5273 210.029 26.4247 210.16 26.322C210.291 26.2193 210.403 26.1307 210.496 26.056C210.729 25.8693 210.907 25.706 211.028 25.566C211.159 25.426 211.252 25.2907 211.308 25.16C211.373 25.02 211.411 24.88 211.42 24.74C211.429 24.6 211.434 24.4367 211.434 24.25V23.634H212.4V24.25C212.4 24.502 212.414 24.7073 212.442 24.866C212.47 25.0247 212.517 25.1693 212.582 25.3C212.657 25.4307 212.759 25.5567 212.89 25.678C213.021 25.7993 213.184 25.9487 213.38 26.126C213.483 26.2193 213.609 26.3267 213.758 26.448C213.917 26.5787 214.061 26.6907 214.192 26.784C214.323 26.6907 214.463 26.5787 214.612 26.448C214.771 26.3267 214.901 26.2193 215.004 26.126C215.2 25.9487 215.363 25.7993 215.494 25.678C215.625 25.5567 215.723 25.4307 215.788 25.3C215.863 25.1693 215.914 25.0247 215.942 24.866C215.97 24.7073 215.984 24.502 215.984 24.25V23.634H216.95V24.25C216.95 24.4367 216.955 24.6 216.964 24.74C216.973 24.88 217.006 25.02 217.062 25.16C217.127 25.2907 217.221 25.426 217.342 25.566C217.473 25.706 217.655 25.8693 217.888 26.056C217.981 26.1307 218.093 26.2193 218.224 26.322C218.355 26.4247 218.495 26.5273 218.644 26.63C218.793 26.742 218.943 26.8493 219.092 26.952C219.241 27.064 219.377 27.162 219.498 27.246L218.966 27.96C218.639 27.7267 218.355 27.5167 218.112 27.33C217.869 27.1527 217.65 26.9847 217.454 26.826C217.146 26.5833 216.913 26.3873 216.754 26.238C216.605 26.0887 216.507 25.972 216.46 25.888C216.385 26.0187 216.259 26.1633 216.082 26.322C215.914 26.4807 215.704 26.672 215.452 26.896C215.284 27.0453 215.074 27.2227 214.822 27.428C214.579 27.6333 214.369 27.806 214.192 27.946ZM217.44 21.772V15.108H218.42V23.06H217.44V22.612H214.556V21.772H217.44ZM216.474 20.848C215.895 20.9227 215.275 20.9833 214.612 21.03C213.959 21.0767 213.207 21.114 212.358 21.142V22.962H211.364V21.17C210.869 21.1887 210.351 21.198 209.81 21.198C209.269 21.198 208.685 21.198 208.06 21.198V20.344C209.096 20.344 210.015 20.3393 210.818 20.33C211.621 20.3113 212.349 20.288 213.002 20.26C213.665 20.232 214.267 20.1993 214.808 20.162C215.349 20.1153 215.877 20.064 216.39 20.008L216.474 20.848ZM212.036 16.13C211.719 16.13 211.429 16.1627 211.168 16.228C210.907 16.284 210.678 16.3633 210.482 16.466C210.295 16.5593 210.146 16.6713 210.034 16.802C209.931 16.9327 209.88 17.0727 209.88 17.222V17.558C209.88 17.7073 209.931 17.8473 210.034 17.978C210.146 18.1087 210.295 18.2253 210.482 18.328C210.678 18.4213 210.907 18.5007 211.168 18.566C211.429 18.622 211.719 18.65 212.036 18.65C212.353 18.65 212.643 18.622 212.904 18.566C213.165 18.5007 213.389 18.4213 213.576 18.328C213.772 18.2253 213.921 18.1087 214.024 17.978C214.136 17.8473 214.192 17.7073 214.192 17.558V17.222C214.192 17.0727 214.136 16.9327 214.024 16.802C213.921 16.6713 213.772 16.5593 213.576 16.466C213.389 16.3633 213.165 16.284 212.904 16.228C212.643 16.1627 212.353 16.13 212.036 16.13ZM232.574 21.73V22.584H220.814V21.73H232.574ZM223.544 26.882H231.09V27.75H222.55V23.928H223.544V26.882ZM223.6 19.084H230.908V19.952H222.606V15.598H223.6V19.084ZM239.238 16.326V17.222H235.402V23.522H236.172C236.555 23.522 236.914 23.5173 237.25 23.508C237.586 23.4987 237.913 23.4847 238.23 23.466C238.548 23.4473 238.86 23.4193 239.168 23.382C239.476 23.3447 239.789 23.298 240.106 23.242L240.218 24.124C239.546 24.236 238.893 24.3153 238.258 24.362C237.633 24.3993 236.966 24.418 236.256 24.418H234.408V16.326H239.238ZM241.254 19.7V15.374H242.234V27.274H241.254V20.596H238.482V19.7H241.254ZM244.754 27.904H243.774V15.108H244.754V27.904ZM257.227 16.284V19.7H260.223V15.108H261.203V27.904H260.223V20.596H257.227V24.502H251.277V16.284H257.227ZM256.247 17.18H252.257V23.606H256.247V17.18ZM269.589 23.018H270.569V23.83C270.569 24.1193 270.592 24.3667 270.639 24.572C270.695 24.7773 270.779 24.964 270.891 25.132C271.012 25.2907 271.166 25.4353 271.353 25.566C271.539 25.6967 271.768 25.832 272.039 25.972C272.403 26.1587 272.827 26.3593 273.313 26.574C273.798 26.7887 274.251 26.98 274.671 27.148L274.265 27.946C273.807 27.7593 273.35 27.554 272.893 27.33C272.435 27.1153 272.048 26.9287 271.731 26.77C270.797 26.3033 270.247 25.8973 270.079 25.552C269.911 25.8973 269.36 26.3033 268.427 26.77C268.109 26.9287 267.722 27.1153 267.265 27.33C266.807 27.554 266.35 27.7593 265.893 27.946L265.473 27.148C265.678 27.064 265.897 26.9707 266.131 26.868C266.373 26.7747 266.607 26.6767 266.831 26.574C267.064 26.4713 267.288 26.3687 267.503 26.266C267.727 26.1633 267.932 26.0653 268.119 25.972C268.38 25.8413 268.599 25.7107 268.777 25.58C268.963 25.4493 269.117 25.3047 269.239 25.146C269.36 24.978 269.449 24.7913 269.505 24.586C269.561 24.3713 269.589 24.1193 269.589 23.83V23.018ZM274.111 23.27H273.131V15.108H274.111V23.27ZM265.417 21.198C266.145 21.198 266.793 21.1933 267.363 21.184C267.941 21.1747 268.469 21.1607 268.945 21.142C269.421 21.1233 269.864 21.1 270.275 21.072C270.695 21.0347 271.115 20.9927 271.535 20.946L271.619 21.814C271.236 21.8607 270.825 21.9027 270.387 21.94C269.948 21.9773 269.444 22.0053 268.875 22.024C268.315 22.0427 267.675 22.0567 266.957 22.066C266.238 22.0753 265.403 22.08 264.451 22.08V18.482H269.029V16.606H264.451V15.738H269.995V19.322H265.417V21.198ZM282.903 21.52H288.293V22.36H276.533V21.52H281.923V19.658H282.903V21.52ZM287.005 20.204C286.51 20.0173 286.006 19.812 285.493 19.588C284.989 19.364 284.56 19.168 284.205 19C283.608 18.72 283.174 18.4867 282.903 18.3C282.632 18.1133 282.474 17.9547 282.427 17.824H282.413C282.366 17.964 282.208 18.1273 281.937 18.314C281.666 18.5007 281.232 18.734 280.635 19.014C280.28 19.182 279.851 19.378 279.347 19.602C278.843 19.826 278.344 20.0313 277.849 20.218L277.443 19.42C278.078 19.1773 278.647 18.9487 279.151 18.734C279.655 18.5193 280.075 18.328 280.411 18.16C280.728 18.0107 280.985 17.8707 281.181 17.74C281.377 17.6 281.531 17.46 281.643 17.32C281.755 17.1707 281.83 17.012 281.867 16.844C281.904 16.6667 281.923 16.4567 281.923 16.214V15.276H282.917V16.214C282.917 16.4567 282.936 16.6667 282.973 16.844C283.01 17.012 283.08 17.1707 283.183 17.32C283.295 17.46 283.449 17.6 283.645 17.74C283.841 17.8707 284.098 18.0107 284.415 18.16C284.751 18.328 285.171 18.5193 285.675 18.734C286.188 18.9487 286.758 19.1773 287.383 19.42L287.005 20.204ZM278.031 23.9H286.599V28.002H285.619V24.754H278.031V23.9ZM292.633 24.684C291.7 24.684 291.009 24.3667 290.561 23.732C290.122 23.088 289.903 22.164 289.903 20.96V19.868C289.903 18.664 290.122 17.7447 290.561 17.11C291.009 16.466 291.7 16.144 292.633 16.144C293.566 16.144 294.252 16.466 294.691 17.11C295.139 17.7447 295.363 18.664 295.363 19.868V19.938H297.085V15.374H298.065V27.274H297.085V20.82H295.363V20.96C295.363 22.164 295.139 23.088 294.691 23.732C294.252 24.3667 293.566 24.684 292.633 24.684ZM292.633 17.054C292.008 17.054 291.555 17.3013 291.275 17.796C290.995 18.2907 290.855 19.0187 290.855 19.98V20.848C290.855 21.8093 290.995 22.5373 291.275 23.032C291.555 23.5267 292.008 23.774 292.633 23.774C293.258 23.774 293.711 23.5267 293.991 23.032C294.271 22.5373 294.411 21.8093 294.411 20.848V19.98C294.411 19.0187 294.271 18.2907 293.991 17.796C293.711 17.3013 293.258 17.054 292.633 17.054ZM300.529 27.904H299.549V15.108H300.529V27.904ZM94.322 42.948C94.8447 42.948 95.3393 43.004 95.806 43.116C96.282 43.2187 96.6973 43.3727 97.052 43.578C97.4067 43.7833 97.6867 44.0353 97.892 44.334C98.0973 44.6233 98.2 44.95 98.2 45.314V45.86C98.2 46.224 98.0973 46.5507 97.892 46.84C97.6867 47.1387 97.4067 47.3907 97.052 47.596C96.6973 47.8013 96.282 47.96 95.806 48.072C95.3393 48.184 94.8447 48.24 94.322 48.24C93.7993 48.24 93.3 48.184 92.824 48.072C92.3573 47.96 91.9467 47.8013 91.592 47.596C91.2373 47.3907 90.9573 47.1387 90.752 46.84C90.5467 46.5507 90.444 46.224 90.444 45.86V45.314C90.444 44.9407 90.5467 44.6093 90.752 44.32C90.9573 44.0213 91.2373 43.7693 91.592 43.564C91.9467 43.3587 92.3573 43.2047 92.824 43.102C93.3 42.9993 93.7993 42.948 94.322 42.948ZM94.322 47.4C94.6953 47.4 95.0547 47.3627 95.4 47.288C95.7547 47.2227 96.0673 47.12 96.338 46.98C96.618 46.8493 96.8373 46.686 96.996 46.49C97.164 46.3033 97.248 46.084 97.248 45.832V45.356C97.248 45.104 97.164 44.8847 96.996 44.698C96.8373 44.502 96.618 44.3387 96.338 44.208C96.0673 44.068 95.7547 43.9653 95.4 43.9C95.0547 43.8253 94.6953 43.788 94.322 43.788C93.9487 43.788 93.5847 43.8253 93.23 43.9C92.8847 43.9653 92.572 44.068 92.292 44.208C92.0213 44.3387 91.802 44.502 91.634 44.698C91.4753 44.8847 91.396 45.104 91.396 45.356V45.832C91.396 46.084 91.4753 46.3033 91.634 46.49C91.802 46.686 92.0213 46.8493 92.292 46.98C92.572 47.12 92.8847 47.2227 93.23 47.288C93.5847 47.3627 93.9487 47.4 94.322 47.4ZM91.606 39.644C91.578 39.7467 91.4613 39.9053 91.256 40.12C91.06 40.3347 90.8127 40.5727 90.514 40.834C90.3927 40.946 90.2433 41.072 90.066 41.212C89.898 41.352 89.716 41.4967 89.52 41.646C89.3333 41.7953 89.142 41.9447 88.946 42.094C88.7593 42.2433 88.5867 42.374 88.428 42.486L87.826 41.786C88.246 41.4873 88.666 41.1747 89.086 40.848C89.506 40.512 89.8887 40.176 90.234 39.84C90.402 39.672 90.542 39.5133 90.654 39.364C90.766 39.2147 90.85 39.0653 90.906 38.916C90.9713 38.7667 91.0133 38.6127 91.032 38.454C91.06 38.286 91.074 38.1087 91.074 37.922V36.774H88.19V35.92H94.812V36.774H92.068V37.88C92.068 38.0853 92.0773 38.2673 92.096 38.426C92.1147 38.5847 92.1567 38.7387 92.222 38.888C92.2967 39.0373 92.3993 39.1913 92.53 39.35C92.67 39.4993 92.852 39.672 93.076 39.868C93.3 40.0547 93.594 40.2833 93.958 40.554C94.322 40.8247 94.7047 41.0953 95.106 41.366L94.532 42.066C94.252 41.87 93.958 41.66 93.65 41.436C93.3513 41.2027 93.0947 41.002 92.88 40.834C92.5533 40.5633 92.2687 40.3207 92.026 40.106C91.7833 39.8913 91.648 39.7373 91.62 39.644H91.606ZM98.13 42.654H97.15V39.252H94.476V38.384H97.15V35.108H98.13V42.654ZM111.038 47.904H110.044V35.108H111.038V47.904ZM102.442 43.844H104.36C105.07 43.844 105.788 43.8253 106.516 43.788C107.254 43.7413 107.949 43.6667 108.602 43.564L108.714 44.418C107.968 44.5393 107.202 44.6233 106.418 44.67C105.644 44.7073 104.874 44.726 104.108 44.726H101.462V39.826H106.096V37.012H101.462V36.144H107.076V40.694H102.442V43.844ZM123.68 41.996H119.844V45.244H125.234V46.098H113.474V45.244H118.864V41.996H115.168V36.228H123.54V37.082H116.162V41.142H123.68V41.996ZM133.759 42.136C133.283 42.136 132.849 42.0567 132.457 41.898C132.074 41.73 131.743 41.5153 131.463 41.254C131.192 40.9833 130.982 40.68 130.833 40.344C130.693 39.9987 130.623 39.6533 130.623 39.308V38.496C130.623 38.1507 130.693 37.81 130.833 37.474C130.982 37.138 131.192 36.8393 131.463 36.578C131.743 36.3073 132.074 36.088 132.457 35.92C132.849 35.752 133.283 35.668 133.759 35.668C134.235 35.668 134.664 35.752 135.047 35.92C135.439 36.0787 135.77 36.2933 136.041 36.564C136.321 36.8253 136.531 37.1287 136.671 37.474C136.82 37.81 136.895 38.1507 136.895 38.496V39.308C136.895 39.6533 136.82 39.9987 136.671 40.344C136.531 40.68 136.321 40.9833 136.041 41.254C135.77 41.5153 135.439 41.73 135.047 41.898C134.664 42.0567 134.235 42.136 133.759 42.136ZM133.759 36.55C133.432 36.55 133.133 36.6107 132.863 36.732C132.601 36.844 132.373 36.9933 132.177 37.18C131.99 37.3667 131.841 37.586 131.729 37.838C131.626 38.0807 131.575 38.328 131.575 38.58V39.224C131.575 39.4853 131.626 39.7373 131.729 39.98C131.841 40.2227 131.99 40.442 132.177 40.638C132.373 40.8247 132.601 40.974 132.863 41.086C133.133 41.198 133.432 41.254 133.759 41.254C134.085 41.254 134.379 41.198 134.641 41.086C134.911 40.974 135.14 40.8247 135.327 40.638C135.523 40.442 135.672 40.2227 135.775 39.98C135.887 39.7373 135.943 39.4853 135.943 39.224V38.58C135.943 38.3187 135.887 38.0667 135.775 37.824C135.672 37.5813 135.523 37.3667 135.327 37.18C135.14 36.984 134.911 36.83 134.641 36.718C134.379 36.606 134.085 36.55 133.759 36.55ZM140.269 38.986H142.229V39.854H140.269V44.264H139.289V35.108H140.269V38.986ZM133.619 46.882H140.661V47.75H132.625V43.55H133.619V46.882ZM150.741 41.352H148.095V44.222C148.851 44.194 149.541 44.1613 150.167 44.124C150.801 44.0867 151.417 44.0307 152.015 43.956L152.099 44.81C151.52 44.866 150.946 44.9173 150.377 44.964C149.817 45.0013 149.205 45.034 148.543 45.062C147.889 45.09 147.157 45.1087 146.345 45.118C145.542 45.1273 144.604 45.132 143.531 45.132V44.264C144.221 44.264 144.856 44.264 145.435 44.264C146.023 44.264 146.578 44.2547 147.101 44.236V41.352H144.413V36.214H150.699V37.11H145.407V40.456H150.741V41.352ZM153.989 47.904H152.995V35.108H153.989V47.904ZM160.667 45.244V40.33H161.675V45.244H167.961V46.098H156.201V45.244H160.667ZM164.671 43.48C164.755 43.0507 164.825 42.6307 164.881 42.22C164.946 41.8 164.998 41.3847 165.035 40.974C165.082 40.554 165.114 40.1293 165.133 39.7C165.161 39.2613 165.175 38.8087 165.175 38.342V37.18H157.685V36.312H166.197V37.824C166.197 38.412 166.188 38.9627 166.169 39.476C166.15 39.98 166.118 40.4653 166.071 40.932C166.034 41.3893 165.982 41.8373 165.917 42.276C165.861 42.7147 165.791 43.158 165.707 43.606L164.671 43.48ZM183.359 36.284V37.11H181.497V41.674H183.485V42.5H174.161V41.674H176.149V37.11H174.287V36.284H183.359ZM177.129 41.674H180.517V37.11H177.129V41.674ZM184.703 45.244V46.098H172.943V45.244H184.703ZM188.427 45.468C188.427 45.1227 188.516 44.81 188.693 44.53C188.871 44.25 189.123 44.012 189.449 43.816C189.785 43.6107 190.187 43.4567 190.653 43.354C191.129 43.242 191.661 43.186 192.249 43.186C192.837 43.186 193.365 43.242 193.831 43.354C194.307 43.466 194.709 43.6247 195.035 43.83C195.371 44.026 195.628 44.264 195.805 44.544C195.983 44.824 196.071 45.132 196.071 45.468V45.972C196.071 46.3173 195.983 46.63 195.805 46.91C195.628 47.19 195.371 47.428 195.035 47.624C194.709 47.8293 194.307 47.9833 193.831 48.086C193.365 48.198 192.837 48.254 192.249 48.254C191.661 48.254 191.129 48.198 190.653 48.086C190.187 47.9833 189.785 47.8293 189.449 47.624C189.123 47.428 188.871 47.19 188.693 46.91C188.516 46.63 188.427 46.3173 188.427 45.972V45.468ZM187.573 41.282C188.376 41.282 189.062 41.282 189.631 41.282C190.201 41.2727 190.714 41.2587 191.171 41.24C191.629 41.2213 192.053 41.198 192.445 41.17C192.837 41.142 193.253 41.1 193.691 41.044L193.775 41.884C193.365 41.94 192.94 41.9867 192.501 42.024C192.072 42.052 191.577 42.0753 191.017 42.094C190.467 42.1127 189.832 42.1267 189.113 42.136C188.404 42.1453 187.569 42.15 186.607 42.15V38.524H191.171V36.62H186.607V35.752H192.137V39.364H187.573V41.282ZM192.249 47.414C192.688 47.414 193.085 47.372 193.439 47.288C193.794 47.2133 194.093 47.106 194.335 46.966C194.587 46.8353 194.779 46.6813 194.909 46.504C195.049 46.3267 195.119 46.1353 195.119 45.93V45.51C195.119 45.3047 195.049 45.1133 194.909 44.936C194.779 44.7587 194.587 44.6047 194.335 44.474C194.093 44.334 193.794 44.2267 193.439 44.152C193.085 44.068 192.688 44.026 192.249 44.026C191.811 44.026 191.414 44.068 191.059 44.152C190.705 44.2267 190.401 44.334 190.149 44.474C189.907 44.6047 189.715 44.7587 189.575 44.936C189.445 45.1133 189.379 45.3047 189.379 45.51V45.93C189.379 46.1353 189.445 46.3267 189.575 46.504C189.715 46.6813 189.907 46.8353 190.149 46.966C190.401 47.106 190.705 47.2133 191.059 47.288C191.414 47.372 191.811 47.414 192.249 47.414ZM196.001 38.412H197.961V39.28H196.001V42.85H195.021V35.108H196.001V38.412ZM204.794 39.728C204.738 39.868 204.574 40.0593 204.304 40.302C204.042 40.5353 203.66 40.82 203.156 41.156C202.736 41.436 202.255 41.7393 201.714 42.066C201.182 42.3833 200.664 42.6773 200.16 42.948L199.628 42.164C200.244 41.8467 200.808 41.5387 201.322 41.24C201.835 40.932 202.255 40.666 202.582 40.442C202.927 40.2087 203.212 39.9987 203.436 39.812C203.66 39.6253 203.832 39.4293 203.954 39.224C204.084 39.0093 204.173 38.776 204.22 38.524C204.266 38.2627 204.29 37.9407 204.29 37.558V36.018H205.312V37.558C205.312 37.9407 205.335 38.2627 205.382 38.524C205.428 38.776 205.512 39.0093 205.633 39.224C205.764 39.4293 205.937 39.6253 206.151 39.812C206.376 39.9987 206.66 40.2087 207.006 40.442C207.332 40.666 207.748 40.9273 208.252 41.226C208.765 41.5247 209.325 41.8327 209.932 42.15L209.414 42.92C208.91 42.6493 208.392 42.3553 207.86 42.038C207.337 41.7207 206.866 41.422 206.446 41.142C205.942 40.806 205.559 40.5213 205.298 40.288C205.036 40.0547 204.873 39.868 204.808 39.728H204.794ZM210.688 45.244V46.098H198.928V45.244H210.688ZM219.898 40.064C219.87 40.1667 219.753 40.3253 219.548 40.54C219.352 40.7547 219.104 40.9927 218.806 41.254C218.684 41.366 218.535 41.492 218.358 41.632C218.19 41.772 218.008 41.9213 217.812 42.08C217.625 42.2293 217.434 42.3787 217.238 42.528C217.042 42.668 216.86 42.7987 216.692 42.92L216.09 42.22C216.519 41.9213 216.944 41.604 217.364 41.268C217.793 40.932 218.18 40.596 218.526 40.26C218.694 40.092 218.834 39.9333 218.946 39.784C219.058 39.6347 219.142 39.4853 219.198 39.336C219.263 39.1867 219.305 39.0327 219.324 38.874C219.352 38.706 219.366 38.5287 219.366 38.342V37.474H216.384V36.62H219.366V35.01H220.36V36.62H223.202V37.474H220.36V38.3C220.36 38.5053 220.369 38.6873 220.388 38.846C220.406 39.0047 220.448 39.1587 220.514 39.308C220.588 39.4573 220.691 39.6113 220.822 39.77C220.962 39.9193 221.144 40.092 221.368 40.288C221.592 40.4747 221.886 40.708 222.25 40.988C222.614 41.2587 223.006 41.5293 223.426 41.8L222.852 42.486C222.553 42.2807 222.25 42.066 221.942 41.842C221.643 41.618 221.386 41.422 221.172 41.254C220.845 40.9833 220.56 40.7407 220.318 40.526C220.075 40.3113 219.94 40.1573 219.912 40.064H219.898ZM219.394 46.882H226.562V47.75H218.4V43.648H219.394V46.882ZM226.24 44.25H225.26V35.108H226.24V44.25ZM237.146 41.814C237.286 41.1793 237.393 40.5073 237.468 39.798C237.543 39.0793 237.58 38.412 237.58 37.796V36.802H230.202V35.948H238.588V37.474C238.588 38.2207 238.551 38.972 238.476 39.728C238.401 40.4747 238.299 41.17 238.168 41.814H240.422V42.668H235.032V47.904H234.038V42.668H228.662V41.814H237.146ZM249.97 44.866C249.391 44.922 248.836 44.9733 248.304 45.02C247.772 45.0573 247.193 45.09 246.568 45.118C245.952 45.146 245.252 45.1647 244.468 45.174C243.693 45.1833 242.769 45.188 241.696 45.188V44.32C242.368 44.32 242.984 44.32 243.544 44.32C244.104 44.32 244.627 44.3107 245.112 44.292V41.856C244.711 41.8093 244.337 41.7067 243.992 41.548C243.647 41.3893 243.348 41.1933 243.096 40.96C242.844 40.7267 242.643 40.4607 242.494 40.162C242.354 39.8633 242.284 39.546 242.284 39.21V38.538C242.284 38.174 242.368 37.8287 242.536 37.502C242.713 37.1753 242.951 36.8907 243.25 36.648C243.549 36.4053 243.899 36.214 244.3 36.074C244.701 35.934 245.131 35.864 245.588 35.864C246.045 35.864 246.475 35.934 246.876 36.074C247.277 36.214 247.627 36.41 247.926 36.662C248.225 36.9047 248.458 37.1893 248.626 37.516C248.803 37.8333 248.892 38.174 248.892 38.538V39.21C248.892 39.5367 248.822 39.8493 248.682 40.148C248.542 40.4467 248.346 40.7127 248.094 40.946C247.842 41.1793 247.543 41.3753 247.198 41.534C246.862 41.6927 246.498 41.8 246.106 41.856V44.264C246.825 44.2453 247.483 44.2173 248.08 44.18C248.677 44.1427 249.279 44.0867 249.886 44.012L249.97 44.866ZM245.588 36.746C245.28 36.746 244.981 36.7973 244.692 36.9C244.412 36.9933 244.165 37.124 243.95 37.292C243.735 37.46 243.563 37.656 243.432 37.88C243.301 38.104 243.236 38.342 243.236 38.594V39.154C243.236 39.406 243.301 39.644 243.432 39.868C243.563 40.092 243.735 40.288 243.95 40.456C244.165 40.624 244.412 40.7593 244.692 40.862C244.981 40.9553 245.28 41.002 245.588 41.002C245.896 41.002 246.19 40.9553 246.47 40.862C246.759 40.7593 247.011 40.624 247.226 40.456C247.441 40.288 247.613 40.092 247.744 39.868C247.875 39.644 247.94 39.406 247.94 39.154V38.594C247.94 38.342 247.875 38.104 247.744 37.88C247.613 37.656 247.441 37.46 247.226 37.292C247.011 37.124 246.759 36.9933 246.47 36.9C246.19 36.7973 245.896 36.746 245.588 36.746ZM251.86 40.134H253.89V41.016H251.86V47.904H250.866V35.108H251.86V40.134ZM266.502 39.714H268.364V35.108H269.344V47.904H268.364V40.596H266.502V47.274H265.522V35.374H266.502V39.714ZM263.828 36.326V37.222H259.992V43.522H260.58C260.963 43.522 261.322 43.5173 261.658 43.508C261.994 43.4987 262.321 43.4847 262.638 43.466C262.956 43.4473 263.268 43.4193 263.576 43.382C263.884 43.3447 264.197 43.298 264.514 43.242L264.626 44.124C263.954 44.236 263.301 44.3153 262.666 44.362C262.041 44.3993 261.374 44.418 260.664 44.418H258.998V36.326H263.828ZM279.718 45.146C279.14 45.202 278.584 45.2533 278.052 45.3C277.52 45.3373 276.942 45.37 276.316 45.398C275.691 45.426 274.986 45.4447 274.202 45.454C273.428 45.4633 272.504 45.468 271.43 45.468V44.6C272.14 44.6 272.788 44.6 273.376 44.6C273.964 44.6 274.51 44.5907 275.014 44.572V42.976C274.622 42.9387 274.268 42.8593 273.95 42.738C273.633 42.6073 273.358 42.444 273.124 42.248C272.891 42.052 272.709 41.8373 272.578 41.604C272.457 41.3613 272.396 41.1093 272.396 40.848V40.316C272.396 40.0267 272.471 39.756 272.62 39.504C272.77 39.2427 272.98 39.014 273.25 38.818C273.521 38.622 273.838 38.468 274.202 38.356C274.576 38.2347 274.986 38.174 275.434 38.174C275.882 38.174 276.288 38.2347 276.652 38.356C277.026 38.468 277.348 38.622 277.618 38.818C277.889 39.014 278.099 39.2427 278.248 39.504C278.398 39.7653 278.472 40.036 278.472 40.316V40.848C278.472 41.1 278.412 41.3427 278.29 41.576C278.178 41.8093 278.01 42.0193 277.786 42.206C277.572 42.3927 277.31 42.556 277.002 42.696C276.704 42.8267 276.372 42.9153 276.008 42.962V44.544C276.699 44.5253 277.329 44.4973 277.898 44.46C278.477 44.4133 279.056 44.3573 279.634 44.292L279.718 45.146ZM281.594 40.386H283.624V41.268H281.594V47.904H280.6V35.108H281.594V40.386ZM275.434 39.014C275.117 39.014 274.828 39.056 274.566 39.14C274.314 39.2147 274.095 39.3173 273.908 39.448C273.731 39.5693 273.591 39.714 273.488 39.882C273.386 40.05 273.334 40.218 273.334 40.386V40.778C273.334 40.946 273.386 41.114 273.488 41.282C273.591 41.45 273.731 41.5993 273.908 41.73C274.095 41.8607 274.314 41.968 274.566 42.052C274.828 42.1267 275.117 42.164 275.434 42.164C275.752 42.164 276.036 42.1267 276.288 42.052C276.55 41.968 276.769 41.8607 276.946 41.73C277.133 41.5993 277.278 41.45 277.38 41.282C277.483 41.114 277.534 40.946 277.534 40.778V40.386C277.534 40.218 277.483 40.05 277.38 39.882C277.278 39.714 277.133 39.5693 276.946 39.448C276.769 39.3173 276.55 39.2147 276.288 39.14C276.036 39.056 275.752 39.014 275.434 39.014ZM275.924 36.592H279.046V37.46H271.696V36.592H274.944V34.996H275.924V36.592ZM288.161 44.964C287.675 44.964 287.246 44.8893 286.873 44.74C286.499 44.5813 286.182 44.3807 285.921 44.138C285.669 43.886 285.473 43.6013 285.333 43.284C285.202 42.9667 285.137 42.6447 285.137 42.318V41.562C285.137 41.2353 285.202 40.9133 285.333 40.596C285.473 40.2787 285.669 39.994 285.921 39.742C286.182 39.49 286.499 39.2893 286.873 39.14C287.246 38.9813 287.675 38.902 288.161 38.902C288.646 38.902 289.075 38.9813 289.449 39.14C289.822 39.2893 290.135 39.49 290.387 39.742C290.648 39.994 290.844 40.2787 290.975 40.596C291.115 40.9133 291.185 41.2353 291.185 41.562V42.318C291.185 42.6447 291.115 42.9667 290.975 43.284C290.844 43.6013 290.648 43.886 290.387 44.138C290.135 44.3807 289.822 44.5813 289.449 44.74C289.075 44.8893 288.646 44.964 288.161 44.964ZM288.161 39.784C287.843 39.784 287.554 39.8307 287.293 39.924C287.041 40.0173 286.821 40.148 286.635 40.316C286.457 40.484 286.317 40.6847 286.215 40.918C286.121 41.142 286.075 41.3847 286.075 41.646V42.234C286.075 42.4953 286.121 42.7427 286.215 42.976C286.317 43.2 286.457 43.396 286.635 43.564C286.821 43.732 287.041 43.8627 287.293 43.956C287.554 44.0493 287.843 44.096 288.161 44.096C288.478 44.096 288.763 44.0493 289.015 43.956C289.276 43.8627 289.495 43.732 289.673 43.564C289.859 43.396 289.999 43.2 290.093 42.976C290.195 42.7427 290.247 42.4953 290.247 42.234V41.646C290.247 41.3847 290.195 41.142 290.093 40.918C289.999 40.6847 289.859 40.484 289.673 40.316C289.495 40.148 289.276 40.0173 289.015 39.924C288.763 39.8307 288.478 39.784 288.161 39.784ZM294.349 40.344H296.477V41.226H294.349V47.904H293.355V35.108H294.349V40.344ZM287.671 37.124V35.178H288.665V37.124H291.857V37.992H284.437V37.124H287.671ZM299.207 43.844H300.971C301.68 43.844 302.399 43.8253 303.127 43.788C303.864 43.7413 304.559 43.6667 305.213 43.564L305.325 44.418C304.578 44.5393 303.813 44.6233 303.029 44.67C302.254 44.7073 301.484 44.726 300.719 44.726H298.227V39.826H302.371V37.012H298.227V36.144H303.351V40.694H299.207V43.844ZM307.033 37.95V35.108H308.027V47.904H307.033V41.954H304.387V41.058H307.033V38.846H304.387V37.95H307.033ZM314.831 45.244V40.33H315.839V45.244H322.125V46.098H310.365V45.244H314.831ZM318.835 43.48C318.919 43.0507 318.989 42.6307 319.045 42.22C319.11 41.8 319.162 41.3847 319.199 40.974C319.246 40.554 319.278 40.1293 319.297 39.7C319.325 39.2613 319.339 38.8087 319.339 38.342V37.18H311.849V36.312H320.361V37.824C320.361 38.412 320.352 38.9627 320.333 39.476C320.314 39.98 320.282 40.4653 320.235 40.932C320.198 41.3893 320.146 41.8373 320.081 42.276C320.025 42.7147 319.955 43.158 319.871 43.606L318.835 43.48ZM95.834 60.008H97.626V55.108H98.606V67.904H97.626V60.89H95.834V67.274H94.854V55.374H95.834V60.008ZM90.808 64.642C90.36 64.642 89.9633 64.572 89.618 64.432C89.2727 64.2827 88.9787 64.0913 88.736 63.858C88.5027 63.6247 88.3253 63.3587 88.204 63.06C88.0827 62.7613 88.022 62.4533 88.022 62.136V61.548C88.022 61.2307 88.0827 60.9227 88.204 60.624C88.3253 60.3253 88.5027 60.0593 88.736 59.826C88.9787 59.5927 89.2727 59.406 89.618 59.266C89.9633 59.1167 90.36 59.042 90.808 59.042C91.256 59.042 91.6527 59.1167 91.998 59.266C92.3433 59.406 92.6327 59.5927 92.866 59.826C93.1087 60.0593 93.2907 60.3253 93.412 60.624C93.5333 60.9227 93.594 61.2307 93.594 61.548V62.136C93.594 62.444 93.5333 62.752 93.412 63.06C93.2907 63.3587 93.1087 63.6247 92.866 63.858C92.6327 64.0913 92.3433 64.2827 91.998 64.432C91.6527 64.572 91.256 64.642 90.808 64.642ZM90.808 59.91C90.528 59.91 90.2713 59.9613 90.038 60.064C89.814 60.1573 89.618 60.2833 89.45 60.442C89.2913 60.6007 89.17 60.7827 89.086 60.988C89.002 61.1933 88.96 61.4033 88.96 61.618V62.066C88.96 62.2807 89.002 62.4907 89.086 62.696C89.17 62.9013 89.2913 63.0833 89.45 63.242C89.618 63.4007 89.814 63.5313 90.038 63.634C90.2713 63.7273 90.528 63.774 90.808 63.774C91.088 63.774 91.34 63.7273 91.564 63.634C91.7973 63.5313 91.9933 63.4007 92.152 63.242C92.32 63.0833 92.446 62.9013 92.53 62.696C92.614 62.4907 92.656 62.2807 92.656 62.066V61.618C92.656 61.4033 92.614 61.1933 92.53 60.988C92.446 60.7827 92.32 60.6007 92.152 60.442C91.9933 60.2833 91.7973 60.1573 91.564 60.064C91.34 59.9613 91.088 59.91 90.808 59.91ZM87.532 57.348H90.304V55.472H91.284V57.348H93.874V58.216H87.532V57.348ZM110.688 61.996H106.852V65.244H112.242V66.098H100.482V65.244H105.872V61.996H102.176V56.228H110.548V57.082H103.17V61.142H110.688V61.996ZM123.566 60.834H117.854V55.626H123.566V60.834ZM127.276 62.164V65.468H120.528V67.106H127.612V67.946H119.562V64.642H126.31V63.018H119.492V62.164H127.276ZM122.614 56.48H118.806V59.98H122.614V56.48ZM127.276 57.698H129.236V58.566H127.276V61.408H126.296V55.108H127.276V57.698ZM140.773 67.904H139.779V55.108H140.773V67.904ZM137.245 61.044C137.245 62.22 136.965 63.1347 136.405 63.788C135.854 64.4413 135.079 64.768 134.081 64.768C133.082 64.768 132.303 64.4413 131.743 63.788C131.192 63.1347 130.917 62.22 130.917 61.044V59.714C130.917 58.538 131.192 57.628 131.743 56.984C132.303 56.3307 133.082 56.004 134.081 56.004C135.079 56.004 135.854 56.3307 136.405 56.984C136.965 57.6373 137.245 58.552 137.245 59.728V61.044ZM136.279 59.896C136.279 59.364 136.223 58.9113 136.111 58.538C136.008 58.1647 135.859 57.8613 135.663 57.628C135.476 57.3853 135.247 57.208 134.977 57.096C134.706 56.984 134.407 56.928 134.081 56.928C133.754 56.928 133.455 56.984 133.185 57.096C132.914 57.208 132.681 57.3853 132.485 57.628C132.298 57.8613 132.149 58.1647 132.037 58.538C131.934 58.9113 131.883 59.364 131.883 59.896V60.876C131.883 61.408 131.934 61.8653 132.037 62.248C132.149 62.6213 132.298 62.9293 132.485 63.172C132.681 63.4053 132.914 63.578 133.185 63.69C133.455 63.802 133.754 63.858 134.081 63.858C134.407 63.858 134.706 63.802 134.977 63.69C135.247 63.578 135.476 63.4053 135.663 63.172C135.859 62.9293 136.008 62.6213 136.111 62.248C136.223 61.8653 136.279 61.408 136.279 60.876V59.896ZM156.871 59.798H158.999V60.68H156.871V67.904H155.877V55.108H156.871V59.798ZM148.835 63.494H150.417C151.089 63.494 151.775 63.4707 152.475 63.424C153.184 63.368 153.921 63.2747 154.687 63.144L154.813 64.026C154.057 64.1567 153.287 64.25 152.503 64.306C151.719 64.362 150.991 64.39 150.319 64.39H147.841V56.158H148.835V63.494ZM161.617 58.916C161.617 58.4587 161.729 58.048 161.953 57.684C162.177 57.3107 162.48 56.9933 162.863 56.732C163.246 56.4613 163.689 56.256 164.193 56.116C164.706 55.9667 165.252 55.892 165.831 55.892C166.4 55.892 166.937 55.9667 167.441 56.116C167.954 56.256 168.402 56.4613 168.785 56.732C169.177 56.9933 169.485 57.3107 169.709 57.684C169.933 58.048 170.045 58.4587 170.045 58.916V59.602C170.045 60.022 169.947 60.4093 169.751 60.764C169.555 61.1187 169.289 61.4267 168.953 61.688C168.617 61.94 168.225 62.15 167.777 62.318C167.329 62.4767 166.848 62.5747 166.335 62.612V65.244H171.711V66.098H159.951V65.244H165.327V62.612C164.804 62.5747 164.319 62.4767 163.871 62.318C163.423 62.15 163.031 61.94 162.695 61.688C162.359 61.4267 162.093 61.1187 161.897 60.764C161.71 60.4093 161.617 60.022 161.617 59.602V58.916ZM165.831 56.802C165.374 56.802 164.949 56.858 164.557 56.97C164.165 57.0727 163.824 57.222 163.535 57.418C163.246 57.6047 163.017 57.8287 162.849 58.09C162.681 58.3513 162.597 58.6407 162.597 58.958V59.56C162.597 59.8773 162.681 60.1667 162.849 60.428C163.017 60.6893 163.246 60.918 163.535 61.114C163.824 61.3007 164.165 61.45 164.557 61.562C164.949 61.6647 165.374 61.716 165.831 61.716C166.279 61.716 166.699 61.6647 167.091 61.562C167.492 61.45 167.838 61.3007 168.127 61.114C168.416 60.918 168.645 60.6893 168.813 60.428C168.981 60.1667 169.065 59.8773 169.065 59.56V58.958C169.065 58.6407 168.981 58.3513 168.813 58.09C168.645 57.8287 168.416 57.6047 168.127 57.418C167.838 57.222 167.492 57.0727 167.091 56.97C166.699 56.858 166.279 56.802 165.831 56.802ZM180.587 57.152H177.689V59.196C177.689 59.4667 177.698 59.7 177.717 59.896C177.736 60.092 177.773 60.2787 177.829 60.456C177.885 60.6333 177.964 60.8107 178.067 60.988C178.179 61.156 178.328 61.3473 178.515 61.562C178.786 61.8793 179.122 62.2387 179.523 62.64C179.934 63.0413 180.4 63.4753 180.923 63.942L180.279 64.6C179.794 64.152 179.374 63.7507 179.019 63.396C178.674 63.0413 178.361 62.7147 178.081 62.416C177.876 62.2013 177.689 61.996 177.521 61.8C177.353 61.604 177.25 61.4593 177.213 61.366H177.199C177.18 61.4313 177.134 61.5153 177.059 61.618C176.994 61.7207 176.91 61.8327 176.807 61.954C176.714 62.0753 176.611 62.2013 176.499 62.332C176.387 62.4533 176.28 62.57 176.177 62.682C176.084 62.7847 175.958 62.92 175.799 63.088C175.64 63.2467 175.463 63.424 175.267 63.62C175.08 63.8067 174.875 64.0073 174.651 64.222C174.436 64.4273 174.226 64.6187 174.021 64.796L173.363 64.138C173.811 63.746 174.226 63.3587 174.609 62.976C175.001 62.5933 175.36 62.22 175.687 61.856C175.911 61.604 176.088 61.38 176.219 61.184C176.35 60.9787 176.448 60.778 176.513 60.582C176.588 60.386 176.634 60.1853 176.653 59.98C176.681 59.7747 176.695 59.5367 176.695 59.266V57.152H173.755V56.284H180.587V57.152ZM183.653 67.904H182.659V55.108H183.653V67.904ZM193.185 61.408C192.709 61.408 192.275 61.3333 191.883 61.184C191.501 61.0253 191.174 60.8247 190.903 60.582C190.642 60.33 190.437 60.05 190.287 59.742C190.147 59.434 190.077 59.126 190.077 58.818V58.118C190.077 57.81 190.147 57.502 190.287 57.194C190.437 56.8767 190.642 56.5967 190.903 56.354C191.174 56.1113 191.501 55.9153 191.883 55.766C192.275 55.6073 192.709 55.528 193.185 55.528C193.661 55.528 194.091 55.6073 194.473 55.766C194.865 55.9153 195.192 56.116 195.453 56.368C195.724 56.6107 195.929 56.886 196.069 57.194C196.219 57.502 196.293 57.81 196.293 58.118V58.818C196.293 59.126 196.219 59.434 196.069 59.742C195.929 60.05 195.724 60.33 195.453 60.582C195.192 60.8247 194.865 61.0253 194.473 61.184C194.091 61.3333 193.661 61.408 193.185 61.408ZM193.185 56.41C192.859 56.41 192.565 56.4613 192.303 56.564C192.042 56.6667 191.813 56.802 191.617 56.97C191.431 57.138 191.286 57.3293 191.183 57.544C191.081 57.7587 191.029 57.9827 191.029 58.216V58.72C191.029 58.9533 191.081 59.1773 191.183 59.392C191.286 59.6067 191.431 59.798 191.617 59.966C191.813 60.134 192.042 60.2693 192.303 60.372C192.565 60.4747 192.859 60.526 193.185 60.526C193.503 60.526 193.792 60.4747 194.053 60.372C194.324 60.2693 194.553 60.134 194.739 59.966C194.935 59.798 195.085 59.6067 195.187 59.392C195.29 59.1773 195.341 58.9533 195.341 58.72V58.216C195.341 57.9827 195.29 57.7587 195.187 57.544C195.085 57.3293 194.935 57.138 194.739 56.97C194.553 56.802 194.324 56.6667 194.053 56.564C193.792 56.4613 193.503 56.41 193.185 56.41ZM195.467 66.168C195.467 65.9347 195.523 65.72 195.635 65.524C195.757 65.3187 195.92 65.1413 196.125 64.992C196.34 64.8427 196.592 64.726 196.881 64.642C197.18 64.558 197.507 64.516 197.861 64.516C198.216 64.516 198.538 64.558 198.827 64.642C199.126 64.726 199.378 64.8427 199.583 64.992C199.798 65.1413 199.961 65.3187 200.073 65.524C200.195 65.72 200.255 65.9347 200.255 66.168V66.532C200.255 66.7653 200.195 66.98 200.073 67.176C199.961 67.3813 199.798 67.5587 199.583 67.708C199.378 67.8573 199.126 67.974 198.827 68.058C198.538 68.142 198.216 68.184 197.861 68.184C197.507 68.184 197.18 68.142 196.881 68.058C196.592 67.974 196.34 67.8573 196.125 67.708C195.92 67.5587 195.757 67.3813 195.635 67.176C195.523 66.98 195.467 66.7653 195.467 66.532V66.168ZM199.737 57.95H201.697V58.818H199.737V61.184H198.757V55.108H199.737V57.95ZM192.317 66.924H192.905C193.213 66.924 193.554 66.91 193.927 66.882C194.31 66.8633 194.651 66.8307 194.949 66.784L195.047 67.624C194.749 67.6707 194.389 67.708 193.969 67.736C193.559 67.764 193.143 67.778 192.723 67.778H191.337V62.738H192.317V66.924ZM198.351 63.158H200.745V63.942H194.949V63.158H197.371V61.828H198.351V63.158ZM199.373 66.224C199.373 65.9533 199.233 65.7293 198.953 65.552C198.673 65.3747 198.309 65.286 197.861 65.286C197.413 65.286 197.049 65.3747 196.769 65.552C196.489 65.7293 196.349 65.9533 196.349 66.224V66.476C196.349 66.7467 196.489 66.9707 196.769 67.148C197.049 67.3253 197.413 67.414 197.861 67.414C198.309 67.414 198.673 67.3253 198.953 67.148C199.233 66.9707 199.373 66.7467 199.373 66.476V66.224ZM209.426 61.03C209.426 62.206 209.146 63.1207 208.586 63.774C208.035 64.418 207.265 64.74 206.276 64.74C205.286 64.74 204.512 64.418 203.952 63.774C203.401 63.1207 203.126 62.206 203.126 61.03V59.714C203.126 58.5473 203.401 57.642 203.952 56.998C204.512 56.3447 205.286 56.018 206.276 56.018C207.265 56.018 208.035 56.3447 208.586 56.998C209.146 57.6513 209.426 58.5613 209.426 59.728V61.03ZM208.46 59.896C208.46 59.364 208.408 58.9113 208.306 58.538C208.203 58.1647 208.054 57.8613 207.858 57.628C207.671 57.3853 207.442 57.2127 207.172 57.11C206.901 56.998 206.602 56.942 206.276 56.942C205.949 56.942 205.65 56.998 205.38 57.11C205.109 57.2127 204.876 57.3853 204.68 57.628C204.493 57.8613 204.348 58.1647 204.245 58.538C204.143 58.9113 204.092 59.364 204.092 59.896V60.862C204.092 61.394 204.143 61.8513 204.245 62.234C204.348 62.6073 204.493 62.9153 204.68 63.158C204.876 63.3913 205.109 63.564 205.38 63.676C205.65 63.7787 205.949 63.83 206.276 63.83C206.602 63.83 206.901 63.7787 207.172 63.676C207.442 63.564 207.671 63.3913 207.858 63.158C208.054 62.9153 208.203 62.6073 208.306 62.234C208.408 61.8513 208.46 61.394 208.46 60.862V59.896ZM212.618 59.91H214.746V60.792H212.618V67.904H211.624V55.108H212.618V59.91ZM217.336 58.888C217.336 58.4307 217.448 58.02 217.672 57.656C217.896 57.2827 218.199 56.9653 218.582 56.704C218.964 56.4427 219.408 56.242 219.912 56.102C220.425 55.9527 220.971 55.878 221.55 55.878C222.119 55.878 222.656 55.9527 223.16 56.102C223.673 56.242 224.121 56.4427 224.504 56.704C224.896 56.9653 225.204 57.2827 225.428 57.656C225.652 58.02 225.764 58.4307 225.764 58.888V59.574C225.764 60.0687 225.633 60.512 225.372 60.904C225.11 61.296 224.76 61.6227 224.322 61.884V65.244H227.43V66.098H215.67V65.244H218.778V61.884C218.33 61.6227 217.975 61.3007 217.714 60.918C217.462 60.526 217.336 60.078 217.336 59.574V58.888ZM221.55 56.788C221.092 56.788 220.668 56.844 220.276 56.956C219.884 57.0587 219.543 57.2033 219.254 57.39C218.964 57.5767 218.736 57.8007 218.568 58.062C218.4 58.3233 218.316 58.6127 218.316 58.93V59.532C218.316 59.8493 218.4 60.1387 218.568 60.4C218.736 60.6613 218.964 60.89 219.254 61.086C219.543 61.2727 219.884 61.4173 220.276 61.52C220.668 61.6227 221.092 61.674 221.55 61.674C221.998 61.674 222.418 61.6227 222.81 61.52C223.211 61.4173 223.556 61.2727 223.846 61.086C224.135 60.89 224.364 60.6613 224.532 60.4C224.7 60.1387 224.784 59.8493 224.784 59.532V58.93C224.784 58.6127 224.7 58.3233 224.532 58.062C224.364 57.8007 224.135 57.5767 223.846 57.39C223.556 57.2033 223.211 57.0587 222.81 56.956C222.418 56.844 221.998 56.788 221.55 56.788ZM221.55 62.584C221.223 62.584 220.91 62.5607 220.612 62.514C220.313 62.4673 220.028 62.402 219.758 62.318V65.244H223.342V62.318C223.071 62.4113 222.782 62.4813 222.474 62.528C222.175 62.5653 221.867 62.584 221.55 62.584ZM229.18 65.37H230.594V66.77H229.18V65.37ZM232.834 55.402H233.996L233.016 58.552H232.246L232.834 55.402ZM234.892 55.402H236.054L235.074 58.552H234.304L234.892 55.402Z" fill="#161260"/>
<defs>
<filter id="filter0_d" x="58" y="0" width="276" height="88" filterUnits="userSpaceOnUse" color-interpolation-filters="sRGB">
<feFlood flood-opacity="0" result="BackgroundImageFix"/>
<feColorMatrix in="SourceAlpha" type="matrix" values="0 0 0 0 0 0 0 0 0 0 0 0 0 0 0 0 0 0 127 0" result="hardAlpha"/>
<feOffset dy="2"/>
<feGaussianBlur stdDeviation="2"/>
<feColorMatrix type="matrix" values="0 0 0 0 0 0 0 0 0 0 0 0 0 0 0 0 0 0 0.15 0"/>
<feBlend mode="normal" in2="BackgroundImageFix" result="effect1_dropShadow"/>
<feBlend mode="normal" in="SourceGraphic" in2="effect1_dropShadow" result="shape"/>
</filter>
</defs>
</svg>
