<svg width="80" height="85" viewBox="0 0 80 85" fill="none" xmlns="http://www.w3.org/2000/svg">
<path d="M16.2407 24.4537C16.6726 24.8856 17.2197 25.0871 17.7667 25.0871C18.3137 25.0871 18.8608 24.8856 19.2927 24.4537L26.9225 16.8239C27.7574 15.9889 27.7574 14.6069 26.9225 13.7719C26.0875 12.937 24.7055 12.937 23.8706 13.7719L17.7667 19.8758L15.5497 17.6588C14.7148 16.8239 13.3328 16.8239 12.4978 17.6588C11.6628 18.4938 11.6628 19.8758 12.4978 20.7108L16.2407 24.4537Z" fill="black" fill-opacity="0.87"/>
<path d="M32.4216 21.2578H61.127C62.3074 21.2578 63.2864 20.2789 63.2864 19.0984C63.2864 17.9179 62.3074 16.939 61.127 16.939H32.4216C31.2411 16.939 30.2622 17.9179 30.2622 19.0984C30.2622 20.2789 31.2411 21.2578 32.4216 21.2578Z" fill="black" fill-opacity="0.87"/>
<path d="M16.2407 44.4928C16.6726 44.9247 17.2197 45.1262 17.7667 45.1262C18.3137 45.1262 18.8608 44.9247 19.2927 44.4928L26.9225 36.863C27.7574 36.028 27.7574 34.646 26.9225 33.811C26.0875 32.9761 24.7055 32.9761 23.8706 33.811L17.7667 39.8861L15.5497 37.6691C14.7148 36.8342 13.3328 36.8342 12.4978 37.6691C11.6628 38.5041 11.6628 39.8861 12.4978 40.7211L16.2407 44.4928Z" fill="#5771EE"/>
<path d="M32.4216 41.2969H61.127C62.3074 41.2969 63.2864 40.318 63.2864 39.1375C63.2864 37.957 62.3074 36.9781 61.127 36.9781H32.4216C31.2411 36.9781 30.2622 37.957 30.2622 39.1375C30.2622 40.318 31.2411 41.2969 32.4216 41.2969Z" fill="#5771EE"/>
<path d="M16.2407 64.5031C16.6726 64.9349 17.2197 65.1365 17.7667 65.1365C18.3137 65.1365 18.8608 64.9349 19.2927 64.5031L26.9225 56.8732C27.7574 56.0383 27.7574 54.6563 26.9225 53.8213C26.0875 52.9864 24.7055 52.9864 23.8706 53.8213L17.7667 59.9252L15.5497 57.7082C14.7148 56.8732 13.3328 56.8732 12.4978 57.7082C11.6628 58.5432 11.6628 59.9252 12.4978 60.7601L16.2407 64.5031Z" fill="black" fill-opacity="0.87"/>
<path d="M32.4216 61.3359H61.127C62.3074 61.3359 63.2864 60.357 63.2864 59.1766C63.2864 57.9961 62.3074 57.0172 61.127 57.0172H32.4216C31.2411 57.0172 30.2622 57.9961 30.2622 59.1766C30.2622 60.357 31.2411 61.3359 32.4216 61.3359Z" fill="black" fill-opacity="0.87"/>
<path fill-rule="evenodd" clip-rule="evenodd" d="M65.6061 4.68615H9.37231C6.78422 4.68615 4.68615 6.78422 4.68615 9.37231V68.7302C4.68615 71.3183 6.78422 73.4164 9.37231 73.4164H65.6061C68.1942 73.4164 70.2923 71.3183 70.2923 68.7302V9.37231C70.2923 6.78422 68.1942 4.68615 65.6061 4.68615ZM9.37231 0C4.19613 0 0 4.19613 0 9.37231V68.7302C0 73.9064 4.19613 78.1026 9.37231 78.1026H65.6061C70.7823 78.1026 74.9785 73.9064 74.9785 68.7302V9.37231C74.9785 4.19612 70.7823 0 65.6061 0H9.37231Z" fill="black" fill-opacity="0.87"/>
<path d="M37.8555 61.3653C38.1525 58.3958 42.4334 57.406 44.5368 57.2823V39.4655C48.3971 30.2602 51.3418 35.63 52.3317 39.4655V59.1382C56.4889 43.994 60.0028 51.5908 61.2401 57.2823C64.8034 45.4045 68.4163 52.3332 69.7773 57.2823C74.2315 51.6403 77.3247 56.1687 78.3145 59.1382C78.5619 57.406 78.9084 56.4657 78.3145 66.5619C77.5721 79.1821 67.179 83.2651 60.4977 83.6363C55.1527 83.9332 48.1249 77.0787 45.2792 73.6143H43.7944C41.6911 70.7686 37.5586 64.3348 37.8555 61.3653Z" fill="#F5F5F5"/>
<path d="M73.9423 52.0946C72.9824 52.0946 72.0775 52.3263 71.2698 52.7249C70.4346 50.3798 68.1956 48.6939 65.5654 48.6939C63.9411 48.6939 62.4683 49.3405 61.3807 50.3842C60.2932 49.3405 58.8173 48.6939 57.1916 48.6939C56.3698 48.6939 55.5866 48.8609 54.8702 49.1579V38.4663C54.8702 35.1286 52.1546 32.4131 48.8169 32.4131C45.4793 32.4131 42.7652 35.1286 42.7652 38.4663V51.235V52.6485V55.7746C40.0392 55.9149 36 56.8087 36 62.5212C36 66.7853 41.1038 76.0998 46.3048 77.2861C49.6907 81.9548 55.1857 85 61.3785 85C71.8206 85 80 77.1532 80 67.1357C80 66.1061 79.1648 65.2709 78.1337 65.2709C77.104 65.2709 76.2689 66.1061 76.2689 67.1357C76.2689 75.0612 69.7279 81.2696 61.3778 81.2696C56.2176 81.2696 51.6647 78.626 48.9936 74.6247C48.9632 74.5727 48.9357 74.5185 48.8993 74.4695C47.3842 72.1393 46.4956 69.3658 46.4956 66.3844V52.6477V51.2342V38.4656C46.4956 37.185 47.5364 36.1427 48.8169 36.1427C50.099 36.1427 51.1398 37.185 51.1398 38.4656V54.7456V60.96V61.2569C51.1398 62.2866 51.975 63.1217 53.0061 63.1217C54.0358 63.1217 54.8709 62.2866 54.8709 61.2569V60.96V54.7456C54.8709 53.4651 55.9117 52.4243 57.1923 52.4243C58.4699 52.4243 59.5077 53.4569 59.5181 54.7286C59.5181 54.7345 59.5167 54.7404 59.5167 54.7456V61.2569C59.5167 61.3557 59.527 61.424 59.5412 61.4774C59.651 62.4024 60.4298 63.1217 61.3837 63.1217C62.348 63.1217 63.1335 62.3868 63.2292 61.4455C63.2366 61.4106 63.2396 61.3675 63.2426 61.3178C63.2426 61.2978 63.2485 61.277 63.2485 61.2569V54.7456C63.2485 54.7397 63.2485 54.7338 63.2485 54.7286C63.2574 53.4569 64.2923 52.4243 65.5654 52.4243C66.849 52.4243 67.8928 53.4651 67.8928 54.7456V58.0982C67.8928 58.1152 67.8913 58.1316 67.8913 58.1486V61.2577C67.8913 61.3653 67.9017 61.4462 67.9187 61.516C68.0464 62.4224 68.8163 63.1225 69.7591 63.1225C70.716 63.1225 71.4947 62.4002 71.6016 61.4722C71.6105 61.4254 71.6165 61.3735 71.6172 61.3141C71.6187 61.2955 71.6231 61.2762 71.6231 61.2577V58.1227C71.638 56.854 72.6714 55.8243 73.9416 55.8243C75.2251 55.8243 76.2689 56.8666 76.2689 58.1486V59.6942C76.2689 60.7254 77.104 61.5605 78.1337 61.5605C79.1648 61.5605 80 60.7254 80 59.6942V58.1486C80 54.8095 77.2829 52.0946 73.9423 52.0946ZM39.7311 62.5204C39.7311 60.6326 40.0355 59.721 42.7659 59.519V66.383C42.7659 67.7036 42.9062 68.9931 43.169 70.2366C41.325 67.7734 39.7311 64.5501 39.7311 62.5204Z" fill="black" fill-opacity="0.87"/>
</svg>
