<svg width="334" height="62" viewBox="0 0 334 62" fill="none" xmlns="http://www.w3.org/2000/svg">
<mask id="mask0" mask-type="alpha" maskUnits="userSpaceOnUse" x="0" y="0" width="62" height="62">
<circle cx="31" cy="31" r="31" fill="#C4C4C4"/>
</mask>
<g mask="url(#mask0)">
<path d="M27.1508 35.7105C22.0584 36.7674 17.9268 40.6108 14.8041 44.5502C11.7774 48.2975 9.47143 52.6212 7.93409 57.2333C6.39675 61.7972 5.67613 66.6975 5.77221 71.5017C5.82025 73.9038 6.10851 76.3059 6.58893 78.7079C6.82914 79.909 7.16543 81.11 7.54976 82.3111C7.88606 83.32 8.31843 84.473 9.23123 85.0975C10.5764 86.0583 12.0176 85.2416 13.2667 84.521C14.6599 83.7043 16.0051 82.8395 17.3503 81.9267C20.0406 80.1011 22.5868 78.0354 24.9409 75.8254C25.6135 75.2009 24.6046 74.192 23.932 74.8165C21.9143 76.6902 19.8004 78.4197 17.5905 80.0051C16.5336 80.7737 15.4286 81.4944 14.2756 82.215C13.7472 82.5513 13.2187 82.8395 12.6902 83.1758C12.1137 83.5121 11.4412 84.0406 10.7205 84.0886C9.66361 84.1847 9.18318 82.7915 8.94297 81.9748C8.60668 80.9179 8.31844 79.8129 8.07823 78.756C7.59781 76.5461 7.30955 74.2881 7.21346 72.0301C6.87717 62.9983 9.61556 53.8703 14.9962 46.568C18.0709 42.4364 22.2506 38.1606 27.4871 37.1037C28.4479 36.9116 28.0636 35.5184 27.1508 35.7105Z" fill="#FFD066"/>
<path d="M29.1205 35.8541C21.8182 37.8238 15.7169 43.1565 11.9216 49.6901C8.12626 56.2238 6.49283 63.8144 6.30066 71.357C6.15654 75.5847 6.54087 80.0045 8.65471 83.7037C8.991 84.2802 9.37534 84.8087 9.9038 85.145C11.4411 86.0578 13.3148 84.9048 14.708 83.7998C17.3022 81.7821 20.0406 79.6682 23.3075 79.1398C25.5174 78.7554 27.7753 79.1398 29.9853 78.9956C32.1952 78.8515 34.6453 78.0348 35.7023 76.0651C36.2788 75.0562 36.3748 73.8552 36.6631 72.7022C36.9513 71.5972 37.5759 70.3962 38.6808 70.0118C37.3357 68.9549 35.9905 67.898 34.6453 66.8411C34.3571 66.6009 34.0688 66.3606 33.9727 66.0244C33.8286 65.64 33.9727 65.2557 34.1169 64.8713C34.6453 63.5262 35.2218 62.2291 35.9425 60.9319C36.0385 61.5565 36.8553 61.7967 37.4798 61.8928C39.7378 62.133 42.0438 62.4212 44.3017 62.133C46.5597 61.8447 48.8177 60.8839 50.2589 59.1544C51.2678 57.9533 51.7963 56.416 52.1806 54.9267C52.9973 51.756 53.0934 48.441 53.1895 45.1742C53.3336 40.5622 53.4777 35.758 51.6521 31.5303C51.0756 30.1852 49.9226 28.7439 48.5294 29.0802C47.4244 29.3204 46.848 30.5215 46.5117 31.5784C44.8782 37.0071 45.9352 43.2045 43.2929 48.2009C41.6594 46.4714 40.3143 44.4055 39.3534 42.2437C38.873 41.1867 38.4887 40.0337 37.672 39.169C36.8552 38.3042 35.5101 37.8238 34.5012 38.4003C34.213 39.8896 33.2521 41.2348 31.8109 41.7632C30.4177 42.2917 28.6401 41.8113 27.8714 40.5142C27.1028 39.217 27.7273 37.2473 29.1205 36.8149" fill="#FFD066"/>
<path d="M28.9283 35.1819C23.1633 36.7673 18.1189 40.3704 14.3716 44.9344C10.192 50.0268 7.69379 56.2723 6.49275 62.7579C5.8682 66.1208 5.57996 69.5798 5.57996 73.0388C5.57996 76.3057 6.01234 79.6206 7.30946 82.6472C7.88597 83.9924 8.70268 85.6258 10.24 86.1062C11.7774 86.5866 13.4108 85.7219 14.6599 84.8571C17.2541 82.9835 19.7523 80.7736 22.9711 80.0049C26.6223 79.1882 30.4656 80.5334 33.9246 78.7558C35.4139 77.9871 36.4228 76.7381 36.9032 75.1527C37.2876 73.7595 37.3356 71.4054 38.969 70.7809C39.4014 70.5887 39.7377 69.9642 39.3053 69.5798C38.5847 69.0033 37.816 68.4268 37.0954 67.8503C36.4228 67.3219 35.6061 66.7934 34.9815 66.1689C34.6453 65.8326 34.7894 65.5443 34.9335 65.16C35.0776 64.7276 35.2698 64.2952 35.462 63.8629C35.8463 63.0461 36.2306 62.2294 36.663 61.4127C36.2306 61.3647 35.7983 61.3166 35.3659 61.2206C35.6061 62.2775 36.663 62.5657 37.6238 62.7098C38.969 62.902 40.3622 63.0461 41.7554 63.0461C44.1575 63.0942 46.6077 62.7579 48.6735 61.5569C53.1894 58.9626 53.6698 53.0534 53.9581 48.3934C54.1022 45.7991 54.1983 43.2049 54.1502 40.6106C54.1022 38.1124 53.862 35.5662 53.1894 33.1641C52.6609 31.3385 51.652 28.6482 49.4421 28.3119C47.0881 27.9756 46.1753 30.5219 45.7429 32.3474C44.5419 37.4399 45.3105 43.1088 42.8124 47.8649C43.1967 47.8169 43.581 47.7689 43.9654 47.7208C42.5721 46.2315 41.4191 44.5501 40.5064 42.7245C39.6896 41.043 39.1612 39.0252 37.5278 37.9683C36.8071 37.5359 35.9904 37.2957 35.1737 37.4399C34.7894 37.4879 34.309 37.632 34.0687 37.9203C33.8285 38.2566 33.7805 38.785 33.6364 39.1694C32.9638 40.6587 31.3304 41.7156 29.745 41.043C28.9763 40.7547 28.4479 40.0822 28.4479 39.2654C28.4479 38.5448 28.7841 37.7281 29.5048 37.4879C30.3695 37.1516 29.9852 35.7584 29.1204 36.0947C27.8714 36.5271 27.1027 37.6801 27.0066 38.9772C26.9105 40.3704 27.6792 41.6195 28.8802 42.244C31.7627 43.6853 34.7413 41.4754 35.3659 38.5929C35.2698 38.737 35.1257 38.8811 35.0296 39.0252C35.8943 38.5929 36.9032 39.1694 37.4797 39.842C38.2003 40.7067 38.5847 41.9078 39.0651 42.9166C40.074 45.0785 41.4191 47.0002 43.0045 48.7297C43.2928 49.066 43.9173 48.9699 44.1575 48.5856C46.1272 44.8383 46.1753 40.6106 46.6077 36.5271C46.7037 35.4701 46.8479 34.3652 47.0881 33.3083C47.2802 32.3955 47.4724 31.4346 47.9528 30.6179C48.3372 29.9453 49.0098 29.4649 49.8265 29.8973C50.5951 30.3297 51.0755 31.2425 51.3638 32.0111C53.0453 36.1908 52.9011 40.8508 52.757 45.2707C52.6609 47.6728 52.6129 50.0749 52.2286 52.4769C51.8923 54.5908 51.4118 56.9448 50.0186 58.6263C48.6254 60.3558 46.3674 61.2206 44.2056 61.4608C42.8604 61.6049 41.4672 61.5569 40.074 61.4608C39.3533 61.4127 38.6808 61.3166 37.9601 61.2206C37.6238 61.1725 36.9513 61.1725 36.8552 60.7882C36.711 60.2117 35.8463 60.0676 35.558 60.596C35.0296 61.6049 34.5492 62.6138 34.1168 63.6226C33.7805 64.4874 33.204 65.4482 33.5883 66.4091C33.9727 67.2738 34.9815 67.8023 35.6541 68.3788C36.5669 69.0994 37.4797 69.8201 38.3925 70.5407C38.4886 70.1563 38.5847 69.724 38.7288 69.3396C37.4317 69.8681 36.663 70.973 36.2787 72.2702C35.8463 73.6634 35.8463 75.2968 34.7894 76.4498C32.6755 78.7558 29.1204 78.2754 26.334 78.2754C24.6526 78.2754 23.0191 78.4195 21.4338 78.996C19.9925 79.5245 18.6473 80.2932 17.3502 81.1579C16.0531 82.0227 14.9001 83.0796 13.6029 83.8963C12.3539 84.713 10.8165 85.2895 9.80763 83.8482C8.03008 81.302 7.45359 77.8911 7.30946 74.8644C7.1173 71.6456 7.30946 68.3788 7.78988 65.208C8.65463 58.9626 10.7204 52.7652 14.4196 47.5767C18.1189 42.3882 23.4035 38.2566 29.6009 36.5751C30.2254 36.3349 29.8411 34.9417 28.9283 35.1819Z" fill="#FFD066"/>
<path d="M46.3676 29.2247C45.5989 32.1072 44.4939 35.0858 42.1399 36.9114C39.8819 38.6409 36.6631 38.9772 34.0688 37.7762C34.4051 39.1694 33.6365 40.7548 32.3394 41.4754C31.0422 42.196 29.4568 42.148 28.1597 41.4754C27.1508 40.995 26.19 39.938 26.4302 38.8331C26.6224 37.9203 27.5352 37.2957 27.9195 36.431C28.496 35.1339 27.6793 33.5965 26.6224 32.6357C25.5654 31.6748 24.2683 31.0022 23.3555 29.8973C21.4339 27.5913 21.9143 23.9882 23.7879 21.5861C25.6615 19.184 28.496 17.8869 31.3305 16.9741C34.0689 16.0613 36.9514 15.4847 39.8339 15.1484C41.6114 14.9563 43.485 14.9083 44.9743 15.9171C47.0882 17.4064 47.3284 20.4331 47.0882 23.0273C46.7999 25.7177 46.2234 28.408 45.3587 30.9542" fill="#FAC9B4"/>
<path d="M45.6469 29.0327C44.9743 31.6269 44.0615 34.3173 41.9957 36.1429C39.9779 37.9204 36.9033 38.3048 34.4531 37.1518C33.8766 36.8635 33.2521 37.3439 33.3962 37.9684C33.8766 40.1784 31.4745 41.5716 29.5529 41.1872C28.6401 40.9951 27.3429 40.4186 27.1508 39.3136C27.0067 38.4008 28.1116 37.6802 28.496 36.9596C29.5529 34.8938 28.0636 32.828 26.4782 31.5789C25.6134 30.9063 24.6526 30.3298 23.932 29.4651C23.3074 28.7444 22.9711 27.7836 22.8751 26.8228C22.5388 22.2107 26.7184 19.4243 30.5137 18.0791C32.9158 17.2144 35.414 16.5898 37.9602 16.2055C40.026 15.8692 42.8124 15.3408 44.638 16.6859C46.3675 17.9831 46.5116 20.4812 46.3675 22.4509C46.1753 25.2854 45.5028 28.1679 44.59 30.8583C44.3017 31.723 45.6949 32.1073 45.9832 31.2426C46.896 28.4562 47.5685 25.5737 47.7607 22.6431C47.9048 20.5293 47.7127 18.1272 46.3195 16.3977C44.686 14.3319 41.9477 14.2838 39.5456 14.524C36.615 14.8603 33.7325 15.4849 30.8981 16.3977C26.3821 17.887 21.5299 20.8175 21.3858 26.1502C21.3377 27.3032 21.5779 28.4562 22.1064 29.4651C22.6829 30.57 23.6918 31.3867 24.7006 32.1074C25.6615 32.828 26.7184 33.5486 27.1508 34.6536C27.6792 35.9507 26.8625 36.6713 26.1899 37.6322C25.3732 38.7852 25.5174 40.1303 26.4302 41.1392C27.3429 42.1961 28.7842 42.6765 30.1294 42.7246C32.8678 42.8207 35.3179 40.4186 34.6934 37.5841C34.3571 37.8724 33.9727 38.1126 33.6364 38.4008C36.4709 39.746 39.9779 39.4577 42.4761 37.488C45.0223 35.5183 46.1753 32.3956 46.944 29.417C47.2803 28.5042 45.8871 28.1199 45.6469 29.0327Z" fill="#FAC9B4"/>
<path d="M51.2196 31.8193C49.8264 29.177 48.8656 29.129 48.5773 29.177C47.6165 29.2731 46.992 30.6183 46.5596 31.7713C44.782 36.3833 45.6468 38.7373 44.8301 43.4935C44.3977 46.1358 43.6771 48.2496 43.1967 49.8831C41.8034 47.1447 39.6896 43.6376 37.7199 40.5149C37.4316 40.563 37.1914 40.611 36.9032 40.611L36.1345 61.317C37.1434 61.6053 45.839 63.7671 50.5951 58.9149C52.6609 56.8011 52.9011 52.6215 53.3815 44.3583C53.5737 41.5238 53.6698 36.4313 51.2196 31.8193Z" fill="#FFD066"/>
<path d="M51.8442 31.4343C51.2677 30.3293 50.403 28.792 49.0578 28.4557C47.4724 28.0714 46.5596 29.8489 46.0792 31.05C45.3105 32.9236 44.8301 34.8933 44.686 36.9111C44.5419 38.8327 44.5419 40.8024 44.2536 42.7241C43.9173 45.0782 43.1967 47.3842 42.5722 49.6902C43.0045 49.6421 43.4369 49.5941 43.8693 49.498C42.2359 46.2792 40.3142 43.2045 38.3925 40.1298C38.2004 39.8416 37.9121 39.7455 37.5758 39.7936C37.3836 39.8416 37.1434 39.8416 36.9513 39.8416C36.5669 39.8897 36.2306 40.1299 36.2306 40.5622C36.1346 42.8682 36.0385 45.2223 35.9904 47.5283C35.8463 51.2275 35.7022 54.9748 35.6061 58.674C35.5581 59.5388 35.5581 60.4035 35.51 61.2202C35.51 61.5085 35.7502 61.8448 36.0385 61.8928C40.6505 63.1419 46.4155 63.1899 50.3549 60.0672C52.1805 58.6259 52.9492 56.5601 53.3335 54.3022C53.91 50.7951 54.0542 47.192 54.1983 43.685C54.3424 39.5534 53.862 35.2296 51.8442 31.4343C51.4118 30.6176 50.1628 31.3382 50.5951 32.1549C52.3247 35.4218 52.8051 39.121 52.709 42.7721C52.6129 46.1351 52.4207 49.498 52.0364 52.8129C51.7962 54.6865 51.4599 56.9445 50.1628 58.3377C48.193 60.4515 45.2145 61.2202 42.428 61.2682C40.4103 61.3163 38.3445 61.1241 36.3748 60.5957C36.5669 60.8359 36.7111 61.0761 36.9032 61.2682C36.9993 58.9622 37.0954 56.6082 37.1434 54.3022C37.2876 50.603 37.4317 46.8557 37.5278 43.1565C37.5758 42.2918 37.5758 41.427 37.6239 40.6103C37.3837 40.8505 37.1434 41.0907 36.9032 41.3309C37.2395 41.3309 37.5758 41.2829 37.9121 41.1868C37.6238 41.0907 37.3836 40.9466 37.0954 40.8505C39.0171 43.9252 40.9387 46.9998 42.5722 50.2186C42.8604 50.7951 43.7252 50.603 43.8693 50.0265C44.3497 48.2489 44.9262 46.5194 45.2625 44.7419C45.6468 42.8682 45.839 40.9946 45.9351 39.073C46.0312 37.4395 46.0792 35.8061 46.5116 34.1727C46.7518 33.2118 47.0401 32.251 47.4244 31.3863C47.6646 30.8098 48.097 30.0411 48.5774 29.8009C48.6254 29.8009 48.6735 29.8009 48.7215 29.8009C48.4813 29.8009 48.6735 29.8009 48.7696 29.8009C48.9137 29.8489 48.7215 29.7528 48.8656 29.8489C48.9617 29.897 49.0098 29.945 49.0578 29.993C49.7304 30.5215 50.1628 31.3382 50.5951 32.1069C51.0756 32.9716 52.2766 32.251 51.8442 31.4343Z" fill="#FFD066"/>
<path d="M30.2734 9.14343C29.0243 7.70217 27.0065 7.07764 25.0849 7.07764C21.77 7.07764 18.5992 8.71105 16.2932 11.0651C13.9392 13.3711 12.3057 16.3497 11.0086 19.3764C9.32715 23.2197 8.12611 27.3993 8.75066 31.5309C8.94282 32.6359 9.75952 34.0291 10.7684 33.5967C11.1047 33.4526 11.3449 33.1644 11.5371 32.8281C12.546 31.2907 13.0264 29.4651 13.5548 27.7356C15.3804 21.9226 18.5031 16.2056 23.8358 13.227C26.0457 11.9779 28.5439 11.2573 30.4175 9.52779C30.1773 9.14345 29.7449 8.90323 29.3125 8.85519" fill="#333333"/>
<path d="M30.7539 8.61446C27.2949 4.67503 20.9534 6.35649 17.3502 9.09487C13.0745 12.3137 10.5283 17.6463 8.94291 22.6427C8.07815 25.333 7.59773 28.2155 7.93402 31.05C8.07815 32.1069 8.36641 33.2119 9.23116 33.9325C10.24 34.7492 11.393 34.3168 12.0656 33.356C13.5549 31.2902 13.9873 28.5999 14.852 26.2458C15.6688 23.9878 16.7257 21.7779 18.0228 19.7602C19.4641 17.5502 21.3377 15.5805 23.5476 14.1873C25.9497 12.698 28.7361 11.9294 30.898 10.0077C31.1382 9.81551 31.1863 9.38311 30.9941 9.1429C30.6098 8.61444 30.1294 8.23012 29.4568 8.13404C28.544 7.98991 28.1596 9.38314 29.0724 9.52726C29.3607 9.5753 29.5528 9.67136 29.745 9.86353C29.793 9.57528 29.8411 9.28704 29.8411 8.99878C28.1116 10.5361 25.8536 11.2568 23.8359 12.3137C21.9142 13.3226 20.2327 14.7158 18.7915 16.3011C15.8609 19.616 13.9873 23.6996 12.6902 27.8792C12.3539 29.0322 12.0176 30.1852 11.4891 31.2902C11.2489 31.7706 11.0087 32.3952 10.6244 32.7315C10.2881 33.0677 9.99982 32.7795 9.80765 32.4432C9.18311 31.4823 9.23116 30.1372 9.23116 29.0803C9.23116 27.7831 9.42333 26.5341 9.71158 25.285C10.2881 22.7868 11.2489 20.3366 12.3539 18.0306C13.4108 15.8688 14.6599 13.7549 16.3413 11.9774C18.1189 10.0557 20.4249 8.56642 22.9711 7.98992C25.3252 7.46146 28.0635 7.74969 29.745 9.62332C30.3695 10.3439 31.3784 9.33508 30.7539 8.61446Z" fill="#333333"/>
<path d="M42.3318 16.7816C41.9475 14.1393 40.1699 11.7372 37.8159 10.5842C36.6148 9.95969 35.2697 9.67146 33.9245 9.43125C30.8978 8.90279 27.5349 8.80669 25.1328 10.6803C23.4514 11.9775 22.5386 13.9472 21.8179 15.9169C21.0493 17.8866 20.4728 19.9524 19.9924 22.0182C19.5119 24.1801 19.2237 26.5341 20.2326 28.5039C21.0493 30.1373 22.6347 31.1942 24.3161 31.9628C25.0848 32.2991 25.9495 32.6354 26.8143 32.4913C27.6791 32.3472 28.4477 31.6265 28.3997 30.7618C27.1025 30.3294 25.8535 29.5127 25.277 28.2636C24.6524 27.0626 24.7485 25.4292 25.7093 24.4203C26.6702 23.4114 28.4958 23.4114 29.3125 24.5164C29.6968 25.0448 29.8409 25.7174 30.3694 26.1018C30.8979 26.4861 31.5704 26.4861 32.243 26.39C37.0472 25.7655 41.2749 21.9701 42.4279 17.3101C42.524 16.9738 42.2837 16.3973 41.9955 16.5895" fill="#333333"/>
<path d="M43.0044 16.5893C42.4279 13.1303 39.8817 10.392 36.5668 9.287C34.8373 8.7105 32.9637 8.42223 31.1381 8.37419C29.4086 8.27811 27.6311 8.51831 26.0457 9.23894C22.5867 10.8243 21.2415 14.8118 20.1846 18.1747C19.6081 20.0484 19.0796 22.0181 18.8394 23.9878C18.5992 25.8134 18.7914 27.735 19.8003 29.3204C20.9052 31.0019 22.6828 32.1069 24.5083 32.8275C25.4692 33.2118 26.5742 33.3559 27.535 32.9235C28.3997 32.4912 28.9762 31.6745 28.9762 30.7136C28.9762 30.3773 28.736 30.1371 28.4478 30.041C27.3909 29.7047 26.382 29.0322 25.8055 28.0713C25.3251 27.2066 25.277 25.9575 25.9016 25.1408C26.43 24.4682 27.535 24.228 28.2556 24.6604C28.688 24.9486 28.8321 25.381 29.0723 25.8134C29.3606 26.2938 29.6969 26.7262 30.2253 26.9664C31.2342 27.3988 32.4352 27.1585 33.4441 26.9183C34.501 26.6781 35.558 26.2457 36.4708 25.7173C38.3444 24.7084 39.9778 23.2191 41.1308 21.4416C41.8034 20.4327 42.3319 19.3277 42.7162 18.1747C42.8603 17.6463 43.0525 17.1658 42.8603 16.5893C42.6682 16.0609 42.1397 15.6285 41.6112 15.8687C41.2269 16.0128 40.9867 16.3491 41.1308 16.7335C41.2269 17.0698 41.6593 17.4061 41.9956 17.2139C41.8514 17.1659 41.7073 17.1178 41.5151 17.0217C41.5151 17.0698 41.5151 17.0698 41.5151 17.1178C41.4671 17.2139 41.4671 17.358 41.4191 17.4541C41.371 17.6943 41.2749 17.9345 41.1789 18.1747C40.9867 18.7032 40.7465 19.1836 40.5063 19.664C39.9778 20.5768 39.3533 21.4416 38.6326 22.2102C37.1914 23.6995 35.3178 24.8045 33.3 25.381C32.4353 25.6212 30.946 26.1016 30.3695 25.1408C30.0812 24.7084 29.9371 24.228 29.6008 23.8437C29.2645 23.4593 28.8321 23.2191 28.3997 23.0269C26.3339 22.3063 24.3162 23.7956 24.0279 25.8614C23.6436 28.5037 25.7094 30.5215 28.0154 31.2901C27.8232 31.0499 27.6791 30.8097 27.4869 30.6175C27.4869 31.3862 26.6702 31.7225 25.9976 31.6264C25.1809 31.5784 24.3642 31.146 23.6916 30.7617C22.4426 30.0891 21.2415 29.1283 20.617 27.8311C19.9444 26.3899 20.0405 24.7084 20.3287 23.1711C20.617 21.4416 21.0974 19.7601 21.6258 18.1267C22.5386 15.3402 23.5955 11.9773 26.382 10.5361C28.9762 9.1909 32.3872 9.62328 35.1256 10.2959C36.8071 10.6802 38.2963 11.4008 39.4974 12.6499C40.6024 13.8029 41.323 15.2922 41.5632 16.8776C41.7554 17.8865 43.1486 17.5021 43.0044 16.5893Z" fill="#333333"/>
<path d="M31.3304 9.0474C31.6667 8.42285 32.2432 7.89438 32.8677 7.55808C33.7805 7.07767 34.8855 6.98159 35.9424 7.02964C38.921 7.17376 41.8035 8.42285 43.9654 10.4887C46.1273 12.5545 47.4725 15.3889 47.7607 18.3675C47.8568 19.1842 47.7607 20.145 47.0881 20.6255C46.6077 20.9618 45.9351 20.9137 45.4067 20.7216C44.2537 20.2411 43.485 19.1362 43.0046 17.9832C42.5242 16.8302 42.2839 15.5811 41.6594 14.4761C40.7466 12.7947 39.1612 11.5456 37.4317 10.7289C35.7022 9.91215 33.8286 9.43172 31.955 8.99934C31.6187 8.90326 30.9941 9.09543 31.2343 9.43173" fill="#333333"/>
<path d="M31.9549 9.43121C32.8677 7.94192 34.5012 7.7017 36.1346 7.79778C37.6239 7.89387 39.1132 8.32625 40.4103 8.9508C43.1967 10.296 45.3586 12.6981 46.3675 15.5806C46.6077 16.2531 46.7999 16.9257 46.896 17.6464C46.992 18.2709 47.1842 19.2317 46.8479 19.8082C46.5116 20.3847 45.743 20.1445 45.2625 19.8563C44.638 19.472 44.2056 18.8954 43.9174 18.2709C43.1487 16.8296 42.9565 15.1962 42.0918 13.803C41.3711 12.602 40.3142 11.5931 39.1132 10.8244C37.5758 9.81553 35.8463 9.23904 34.1168 8.75862C33.3482 8.56645 32.3393 8.13407 31.5226 8.2782C30.7539 8.42233 30.3215 8.99884 30.6098 9.76751C30.7539 10.1518 31.2824 10.1999 31.6187 10.0077C32.003 9.81555 32.051 9.38316 31.8589 8.99883C31.9069 9.09491 31.7147 9.57532 31.7628 9.62336L32.003 9.67142C32.1952 9.76751 32.4354 9.7675 32.6275 9.81554C33.1079 9.91163 33.5403 10.0557 34.0208 10.1999C34.9336 10.4401 35.7983 10.7283 36.6631 11.1127C38.1043 11.7372 39.4975 12.65 40.4584 13.9471C41.4672 15.3403 41.7555 17.0218 42.4281 18.5592C43.0526 19.9043 44.1095 21.2495 45.6469 21.5378C47.2803 21.826 48.3372 20.625 48.4333 19.0396C48.4813 17.4542 48.0009 15.7727 47.3764 14.3315C46.0792 11.3049 43.7252 8.80665 40.6986 7.46148C37.6239 6.06827 32.6756 5.15549 30.6098 8.6145C30.2255 9.47925 31.4745 10.1999 31.9549 9.43121Z" fill="#333333"/>
<path d="M42.1877 27.1113C42.7642 27.2074 43.3407 27.3515 43.9172 27.4476L42.1877 27.1113Z" fill="#333333"/>
<path d="M41.9957 27.7835C42.5722 27.8796 43.1487 28.0237 43.7252 28.1197C43.9174 28.1678 44.1096 28.1678 44.3017 28.0237C44.4459 27.9276 44.59 27.7835 44.638 27.5913C44.6861 27.3991 44.6861 27.207 44.5419 27.0148C44.4459 26.8707 44.3017 26.7265 44.1096 26.6785C43.5331 26.5824 42.9566 26.4383 42.3801 26.3422C42.1879 26.2942 41.9957 26.2942 41.8036 26.4383C41.6594 26.5344 41.5153 26.6785 41.4673 26.8707C41.4192 27.0628 41.4192 27.255 41.5633 27.4472C41.6594 27.6393 41.8516 27.7354 41.9957 27.7835Z" fill="#333333"/>
<path d="M48.9138 27.4948C48.4334 26.0055 47.9529 24.4682 47.0882 23.1711C46.2234 21.8739 44.8302 20.769 43.2929 20.6249C42.6203 20.5768 41.8997 20.6729 41.4673 21.1533C40.7467 21.922 41.083 23.1711 41.7075 23.9878C42.3321 24.8045 43.2448 25.429 43.7733 26.2938C44.1576 26.9183 44.3498 27.6389 44.8783 28.1194C45.8871 29.1282 47.5206 28.792 48.8657 28.4557" fill="#FAC9B4"/>
<path d="M49.5863 27.3025C49.0098 25.4288 48.3853 23.5552 47.1362 22.0659C46.0312 20.7688 44.3017 19.7118 42.5722 19.904C41.6594 20.0001 40.8427 20.4805 40.5064 21.3453C40.1701 22.162 40.3623 23.0267 40.6986 23.7954C41.0829 24.6121 41.8035 25.2367 42.4281 25.8612C42.7163 26.1494 43.0046 26.4857 43.1967 26.822C43.437 27.2064 43.5811 27.6387 43.8213 28.0711C44.9743 29.9447 47.1842 29.7045 49.0098 29.2241C49.9226 28.9839 49.5383 27.5907 48.6255 27.8309C47.6166 28.1192 45.9832 28.5515 45.2145 27.5427C44.7821 26.9662 44.59 26.2455 44.1576 25.669C43.6772 25.0445 43.1007 24.516 42.5722 23.9876C42.1398 23.5552 41.8035 23.0267 41.7555 22.4022C41.7074 21.8257 42.0918 21.4894 42.6202 21.3933C43.9174 21.2011 45.2145 22.1139 46.0312 23.0267C47.1842 24.3238 47.6646 26.1014 48.1931 27.7348C48.4814 28.5515 49.8746 28.1672 49.5863 27.3025Z" fill="#FAC9B4"/>
<path d="M37.912 52.4289C36.7109 56.7046 35.1736 60.8842 33.3961 64.9678C33.0117 65.7845 34.2608 66.5531 34.6451 65.6884C36.5188 61.5087 38.0561 57.233 39.3052 52.8132C39.5454 51.9484 38.1522 51.5641 37.912 52.4289Z" fill="#FFB213"/>
<path d="M19.4641 57.2336C19.6563 62.8065 20.5691 68.5715 23.4996 73.3276C24.1722 74.4326 24.9889 75.5376 26.0939 76.2582C28.0156 77.6034 30.5618 77.7475 32.9158 77.6514C35.0777 77.5553 37.3357 77.3151 39.2573 76.3062C41.179 75.2493 42.7164 73.2796 42.6203 71.0697C39.4976 70.1088 36.1827 68.9558 34.213 66.3616C30.9942 62.1339 32.5315 55.8404 30.0333 51.1323" fill="#FFD066"/>
<path d="M18.7435 57.2332C18.9837 62.9982 19.8965 69.0995 23.0672 74.0478C23.8359 75.2008 24.7007 76.2578 25.8537 77.0264C27.0067 77.7951 28.3519 78.1314 29.697 78.3235C31.0902 78.5157 32.5315 78.4677 33.9247 78.3716C35.414 78.2755 36.8552 78.0833 38.2485 77.5549C40.9868 76.546 43.3889 74.1919 43.2929 71.1173C43.2929 70.781 43.0526 70.5408 42.7644 70.4447C39.6897 69.4839 36.2307 68.3789 34.3571 65.4964C32.5795 62.758 32.5795 59.299 32.1471 56.1763C31.8589 54.3507 31.4746 52.5251 30.5618 50.8436C30.1294 50.0269 28.8803 50.7476 29.3127 51.5643C30.8981 54.6389 30.802 58.194 31.3785 61.5089C31.6667 63.1423 32.1472 64.7277 33.0119 66.1209C33.9247 67.6102 35.2699 68.7632 36.7592 69.5799C38.4887 70.5408 40.4103 71.1653 42.284 71.7899C42.0918 71.5496 41.9477 71.3094 41.7555 71.1173C41.8035 73.5193 39.8819 75.393 37.768 76.1616C35.414 77.0264 32.6276 77.1225 30.1774 76.9303C28.9284 76.8342 27.6793 76.546 26.6223 75.8734C25.5174 75.2008 24.7487 74.1919 24.0761 73.135C22.6829 70.9251 21.7701 68.523 21.1456 66.0248C20.4249 63.1423 20.1367 60.2118 20.0406 57.2332C20.1367 56.3204 18.6954 56.3204 18.7435 57.2332Z" fill="#FFD066"/>
<path d="M42.7642 29.9937C42.5721 30.4741 42.3799 30.9545 42.1877 31.4349L42.7642 29.9937Z" fill="#333333"/>
<path d="M42.0918 29.8013C41.8996 30.2817 41.7075 30.7622 41.5153 31.2426C41.4673 31.3867 41.5153 31.675 41.6114 31.8191C41.7075 31.9632 41.8516 32.1073 42.0438 32.1554C42.2359 32.2034 42.4281 32.2034 42.6203 32.0593C42.6683 32.0112 42.7164 31.9632 42.7644 31.9632C42.8605 31.8671 42.9085 31.7711 42.9566 31.6269C43.1487 31.1465 43.3409 30.6661 43.5331 30.1857C43.5811 30.0416 43.5331 29.7533 43.437 29.6092C43.3409 29.465 43.1968 29.3209 43.0046 29.2729C42.8124 29.2248 42.6203 29.2248 42.4281 29.369C42.3801 29.417 42.332 29.4651 42.284 29.4651C42.1879 29.5611 42.1399 29.6572 42.0918 29.8013Z" fill="#333333"/>
<path d="M37.8161 27.2547C38.1524 27.2547 38.4887 27.2547 38.7769 27.2547C38.9691 27.2547 39.1613 27.1587 39.3054 27.0626C39.3534 27.0145 39.4015 26.9185 39.4495 26.8224C39.4975 26.7263 39.4975 26.6302 39.4975 26.5341C39.4975 26.3419 39.4495 26.1498 39.3054 26.0057C39.1613 25.8615 38.9691 25.8135 38.7769 25.8135C38.4406 25.8135 38.1043 25.8135 37.8161 25.8135C37.6239 25.8135 37.4317 25.9096 37.2876 26.0057C37.2396 26.0537 37.1915 26.1498 37.1435 26.2459C37.0955 26.3419 37.0955 26.438 37.0955 26.5341C37.0955 26.7263 37.1435 26.9185 37.2876 27.0626C37.4798 27.2067 37.6239 27.2547 37.8161 27.2547Z" fill="#333333"/>
<path d="M36.1345 35.6149C37.2875 35.2306 38.5847 35.1825 39.7857 35.5188L36.1345 35.6149Z" fill="#333333"/>
<path d="M36.3267 36.3356C36.615 36.2395 36.9032 36.1435 37.2395 36.0954C37.2876 36.0954 37.3837 36.0954 37.4317 36.0474C37.2876 36.0474 37.4797 36.0474 37.4797 36.0474C37.6239 36.0474 37.768 35.9993 37.9602 35.9993C38.2484 35.9993 38.5367 35.9993 38.8249 36.0474C38.921 36.0474 38.921 36.0474 38.8249 36.0474C38.873 36.0474 38.873 36.0474 38.921 36.0474C39.0171 36.0474 39.0651 36.0954 39.1612 36.0954C39.3053 36.1435 39.4495 36.1435 39.5936 36.1915C39.9779 36.2876 40.4103 36.0474 40.4583 35.7111C40.5544 35.3268 40.3623 34.9424 39.9779 34.8463C38.6808 34.51 37.2395 34.51 35.9424 34.9424C35.6061 35.0385 35.3179 35.4228 35.462 35.8072C35.5581 36.1915 35.9424 36.4317 36.3267 36.3356Z" fill="#333333"/>
<path d="M37.2397 29.5601C37.0955 29.9924 36.9995 30.3768 36.9514 30.8092L37.2397 29.5601Z" fill="#333333"/>
<path d="M36.567 29.3687C36.4229 29.8491 36.3268 30.3296 36.2787 30.81C36.2787 31.0022 36.3748 31.1943 36.4709 31.3384C36.615 31.4826 36.8072 31.5787 36.9994 31.5306C37.1915 31.5306 37.3837 31.4826 37.5278 31.3384C37.5759 31.2904 37.6239 31.2424 37.6239 31.1943C37.672 31.0982 37.72 30.9541 37.72 30.81C37.72 30.7619 37.72 30.6658 37.72 30.6178C37.72 30.6658 37.72 30.7619 37.672 30.81C37.72 30.4257 37.8161 30.0894 37.9122 29.7531C37.9602 29.5609 37.9122 29.3687 37.8161 29.1766C37.72 29.0324 37.5759 28.8883 37.3837 28.8403C37.1916 28.7922 36.9994 28.7922 36.8072 28.9363C36.7111 29.0324 36.615 29.1766 36.567 29.3687Z" fill="#333333"/>
<path d="M34.5011 65.0157C32.1471 60.6919 32.2431 55.5995 30.7538 50.9874C30.4656 50.1227 29.0724 50.507 29.3606 51.3718C30.898 56.1279 30.8499 61.2684 33.252 65.7363C33.6844 66.553 34.9335 65.8324 34.5011 65.0157Z" fill="#FFB213"/>
<path d="M18.7435 57.2334C18.8876 61.1248 19.368 65.1123 20.6171 68.8115C21.8182 72.3185 23.884 75.7295 27.2949 77.459C29.4088 78.5159 31.7628 78.8042 34.0688 78.612C34.9816 78.5159 34.9816 77.0747 34.0688 77.1708C32.1952 77.3149 30.2255 77.2188 28.4479 76.4501C26.9106 75.7776 25.5654 74.6726 24.5085 73.3274C22.2986 70.493 21.2897 66.8418 20.7132 63.3347C20.3769 61.317 20.2328 59.2992 20.1367 57.2334C20.1367 56.3206 18.6954 56.3206 18.7435 57.2334Z" fill="#FFB213"/>
<path d="M25.1096 38.3228C24.5617 39.2533 24.746 40.3418 25.4812 41.3053C26.214 42.3108 27.4655 42.8896 28.6827 43.2088C29.9488 43.5357 31.4181 43.7676 32.625 43.4072C33.6826 43.0656 34.5171 42.3074 34.8201 41.3383C35.062 40.5714 33.6611 40.0113 33.4192 40.7782C33.2335 41.4269 32.7612 41.9032 32.0537 42.1729C31.1969 42.4615 30.1218 42.2494 29.1937 42.0606C28.3635 41.8872 27.4451 41.5304 26.8375 40.9261C26.4185 40.4786 26.0679 39.7029 26.3442 39.1957C26.5081 38.9249 26.4809 38.5392 26.1502 38.2752C25.8171 38.0531 25.2759 38.0101 25.1096 38.3228Z" fill="#FFB213"/>
<path d="M29.6008 22.8354C32.3872 22.7393 35.0295 21.1539 36.4227 18.7038C36.7109 18.1754 35.8942 17.6949 35.606 18.2234C34.4049 20.3853 32.0989 21.7785 29.6488 21.8746C28.9762 21.8746 28.9762 22.8354 29.6008 22.8354Z" fill="#676766"/>
<path d="M33.7324 24.2769C35.7982 23.4122 37.4797 21.7788 38.4885 19.8091C38.7768 19.2806 37.9601 18.7521 37.6718 19.3286C36.711 21.2023 35.1737 22.6435 33.252 23.4602C33.0118 23.5563 32.9637 23.8926 33.0598 24.1328C33.204 24.373 33.4922 24.373 33.7324 24.2769Z" fill="#676766"/>
<path d="M35.0296 10.9686C32.6756 9.86364 29.9853 9.62342 27.4871 10.296C26.9106 10.4401 27.1508 11.401 27.7273 11.2088C29.9853 10.6323 32.4354 10.8244 34.5492 11.7853C35.0777 12.0735 35.5581 11.2568 35.0296 10.9686Z" fill="#676766"/>
<path d="M30.2734 12.7457C29.2165 12.4094 28.1596 12.2653 27.0546 12.2173C26.8144 12.2173 26.5742 12.4575 26.5742 12.6977C26.5742 12.986 26.7664 13.1781 27.0546 13.1781C28.0635 13.2262 29.0243 13.3703 30.0332 13.6585C30.2734 13.7546 30.5617 13.5625 30.6097 13.3222C30.6578 13.082 30.5136 12.7938 30.2734 12.7457Z" fill="#676766"/>
<path d="M26.5262 16.0131C26.1419 15.4846 25.8056 14.9081 25.4212 14.3796C25.2771 14.1875 24.9888 14.0433 24.7486 14.1875C24.5565 14.3316 24.4123 14.6198 24.5565 14.8601C24.9408 15.3885 25.2771 15.965 25.6614 16.4935C25.8056 16.6857 26.0938 16.8298 26.334 16.6856C26.5742 16.5415 26.6703 16.2533 26.5262 16.0131Z" fill="#676766"/>
<path d="M14.3716 18.0308C15.957 13.659 19.8484 10.2481 24.4124 9.23919C25.0369 9.09506 24.7487 8.18229 24.1722 8.32641C19.2719 9.43137 15.1884 13.0825 13.4588 17.7906C13.2186 18.3671 14.1314 18.6073 14.3716 18.0308Z" fill="#676766"/>
<path d="M18.3591 15.3888C19.32 13.4671 21.0495 11.9778 23.1633 11.3533C23.7398 11.1611 23.4996 10.2483 22.9231 10.4405C20.6171 11.1131 18.6474 12.7945 17.5905 14.9084C17.2542 15.4849 18.0709 15.9653 18.3591 15.3888Z" fill="#676766"/>
<path d="M40.4103 23.6036C41.3712 24.9007 42.2839 26.2459 43.2448 27.543C44.0135 28.5999 45.0223 29.7529 46.4636 29.7529C47.3764 29.7529 47.3764 28.3116 46.4636 28.3116C46.2714 28.3116 46.0312 28.2636 45.8871 28.1675C45.6469 28.0234 45.5028 27.9273 45.3106 27.7832C44.8782 27.3989 44.59 26.9665 44.2537 26.4861C43.3889 25.285 42.5242 24.084 41.6594 22.8829C41.4192 22.5466 41.0349 22.4025 40.6505 22.6427C40.3623 22.8349 40.1701 23.3153 40.4103 23.6036Z" fill="#E5A58F"/>
</g>
<g filter="url(#filter0_d)">
<path fill-rule="evenodd" clip-rule="evenodd" d="M77 33H62L72 23L77.2554 17.7446C78.2781 13.308 82.2528 10 87 10H320C325.523 10 330 14.4772 330 20V40C330 45.5228 325.523 50 320 50H87C81.4772 50 77 45.5228 77 40V33Z" fill="#D4DCFF"/>
<path d="M90.9971 26.356H89.8351L90.8151 23.206H91.5851L90.9971 26.356ZM88.9391 26.356H87.7771L88.7571 23.206H89.5271L88.9391 26.356ZM104.472 30.458V31.312H99.0957V35.904H98.1017V31.312H92.7117V30.458H104.472ZM100.23 27.742C99.287 27.2753 98.741 26.8833 98.5917 26.566H98.5777C98.4003 26.902 97.8543 27.2987 96.9397 27.756C96.557 27.9427 96.1043 28.1573 95.5817 28.4C95.0683 28.6333 94.527 28.862 93.9577 29.086L93.5237 28.302C94.0463 28.106 94.5783 27.8867 95.1197 27.644C95.6703 27.4013 96.1697 27.1633 96.6177 26.93C96.8883 26.79 97.117 26.6547 97.3037 26.524C97.4903 26.384 97.6397 26.23 97.7517 26.062C97.873 25.894 97.957 25.698 98.0037 25.474C98.0597 25.25 98.0877 24.984 98.0877 24.676V23.556H99.0817V24.676C99.0817 24.984 99.105 25.25 99.1517 25.474C99.2077 25.698 99.2917 25.894 99.4037 26.062C99.5157 26.23 99.665 26.384 99.8517 26.524C100.038 26.6547 100.267 26.79 100.538 26.93C100.986 27.1633 101.476 27.4013 102.008 27.644C102.549 27.8773 103.081 28.092 103.604 28.288L103.184 29.058C102.614 28.834 102.073 28.6053 101.56 28.372C101.056 28.1387 100.612 27.9287 100.23 27.742ZM113.768 27.728H115.7V23.108H116.68V35.904H115.7V28.61H113.768V35.274H112.788V23.374H113.768V27.728ZM105.928 32.32C106.553 31.9 107.09 31.5267 107.538 31.2C107.986 30.864 108.359 30.556 108.658 30.276C108.966 29.9867 109.209 29.716 109.386 29.464C109.563 29.2027 109.699 28.9367 109.792 28.666C109.885 28.386 109.946 28.0873 109.974 27.77C110.002 27.4433 110.016 27.0747 110.016 26.664V25.264H106.166V24.382H110.982V26.72C110.982 27.1867 110.959 27.6067 110.912 27.98C110.875 28.3533 110.8 28.7033 110.688 29.03C110.576 29.3473 110.417 29.6553 110.212 29.954C110.007 30.2433 109.736 30.5467 109.4 30.864C109.064 31.1813 108.653 31.522 108.168 31.886C107.692 32.2407 107.127 32.642 106.474 33.09L105.928 32.32ZM129.294 31.256V34.014H122.098V35.148H129.672V35.974H121.132V33.202H128.328V32.082H121.062V31.256H129.294ZM122.924 27.28C122.495 27.28 122.093 27.238 121.72 27.154C121.347 27.07 121.02 26.9533 120.74 26.804C120.469 26.6453 120.255 26.454 120.096 26.23C119.937 26.006 119.858 25.754 119.858 25.474V25.026C119.858 24.746 119.937 24.494 120.096 24.27C120.255 24.046 120.469 23.8593 120.74 23.71C121.02 23.5513 121.347 23.43 121.72 23.346C122.093 23.262 122.495 23.22 122.924 23.22C123.353 23.22 123.755 23.262 124.128 23.346C124.501 23.43 124.823 23.5513 125.094 23.71C125.374 23.8593 125.593 24.046 125.752 24.27C125.911 24.494 125.99 24.746 125.99 25.026V25.474C125.99 25.754 125.911 26.006 125.752 26.23C125.593 26.454 125.374 26.6453 125.094 26.804C124.823 26.9533 124.501 27.07 124.128 27.154C123.755 27.238 123.353 27.28 122.924 27.28ZM129.294 30.654H128.314V30.178H125.43V29.352H128.314V23.108H129.294V30.654ZM127.348 28.526C126.769 28.6007 126.149 28.6613 125.486 28.708C124.833 28.7547 124.081 28.792 123.232 28.82V30.64H122.238V28.848C121.743 28.8667 121.225 28.876 120.684 28.876C120.143 28.876 119.559 28.876 118.934 28.876V28.022C119.97 28.022 120.889 28.0173 121.692 28.008C122.495 27.9893 123.223 27.966 123.876 27.938C124.539 27.91 125.141 27.8773 125.682 27.84C126.223 27.7933 126.751 27.742 127.264 27.686L127.348 28.526ZM122.924 24.06C122.289 24.06 121.771 24.158 121.37 24.354C120.978 24.5407 120.782 24.788 120.782 25.096V25.404C120.782 25.712 120.978 25.964 121.37 26.16C121.771 26.3467 122.289 26.44 122.924 26.44C123.559 26.44 124.072 26.3467 124.464 26.16C124.865 25.964 125.066 25.712 125.066 25.404V25.096C125.066 24.788 124.865 24.5407 124.464 24.354C124.072 24.158 123.559 24.06 122.924 24.06ZM143.448 28.834V29.674H131.688V28.834H143.448ZM141.572 25.768C141.572 26.0947 141.47 26.3887 141.264 26.65C141.059 26.9113 140.774 27.1353 140.41 27.322C140.056 27.4993 139.631 27.6393 139.136 27.742C138.651 27.8353 138.128 27.882 137.568 27.882C137.008 27.882 136.481 27.8353 135.986 27.742C135.501 27.6393 135.076 27.4993 134.712 27.322C134.358 27.1353 134.078 26.9113 133.872 26.65C133.667 26.3887 133.564 26.0947 133.564 25.768V25.348C133.564 25.012 133.667 24.7133 133.872 24.452C134.078 24.1907 134.358 23.9713 134.712 23.794C135.076 23.6073 135.501 23.4673 135.986 23.374C136.481 23.2807 137.008 23.234 137.568 23.234C138.128 23.234 138.651 23.2853 139.136 23.388C139.631 23.4813 140.056 23.6213 140.41 23.808C140.774 23.9853 141.059 24.2047 141.264 24.466C141.47 24.7273 141.572 25.0213 141.572 25.348V25.768ZM134.53 25.726C134.53 25.9127 134.61 26.09 134.768 26.258C134.927 26.4167 135.142 26.5567 135.412 26.678C135.692 26.7993 136.014 26.8927 136.378 26.958C136.752 27.0233 137.148 27.056 137.568 27.056C137.988 27.056 138.38 27.0233 138.744 26.958C139.118 26.8927 139.44 26.7993 139.71 26.678C139.99 26.5567 140.21 26.4167 140.368 26.258C140.527 26.09 140.606 25.9127 140.606 25.726V25.39C140.606 25.2033 140.527 25.0307 140.368 24.872C140.21 24.704 139.99 24.564 139.71 24.452C139.44 24.3307 139.118 24.2373 138.744 24.172C138.38 24.0973 137.988 24.06 137.568 24.06C137.148 24.06 136.752 24.0973 136.378 24.172C136.014 24.2373 135.692 24.3307 135.412 24.452C135.142 24.564 134.927 24.704 134.768 24.872C134.61 25.0307 134.53 25.2033 134.53 25.39V25.726ZM141.698 30.794V33.776H134.418V35.134H142.076V35.96H133.452V32.964H140.732V31.62H133.382V30.794H141.698ZM154.31 31.172C154.833 31.172 155.332 31.2233 155.808 31.326C156.294 31.4193 156.718 31.564 157.082 31.76C157.446 31.956 157.736 32.1987 157.95 32.488C158.174 32.768 158.286 33.09 158.286 33.454V33.958C158.286 34.322 158.174 34.644 157.95 34.924C157.736 35.2133 157.446 35.456 157.082 35.652C156.718 35.848 156.294 35.9927 155.808 36.086C155.332 36.1887 154.833 36.24 154.31 36.24C153.788 36.24 153.284 36.1887 152.798 36.086C152.322 35.9927 151.902 35.848 151.538 35.652C151.174 35.456 150.88 35.2133 150.656 34.924C150.442 34.644 150.334 34.322 150.334 33.958V33.454C150.334 33.0807 150.442 32.754 150.656 32.474C150.88 32.1847 151.174 31.9467 151.538 31.76C151.902 31.564 152.322 31.4193 152.798 31.326C153.284 31.2233 153.788 31.172 154.31 31.172ZM154.31 35.4C154.684 35.4 155.052 35.3627 155.416 35.288C155.78 35.2227 156.102 35.1247 156.382 34.994C156.672 34.8727 156.9 34.7187 157.068 34.532C157.246 34.3453 157.334 34.1353 157.334 33.902V33.51C157.334 33.2767 157.246 33.0667 157.068 32.88C156.9 32.6933 156.672 32.5393 156.382 32.418C156.102 32.2873 155.78 32.1893 155.416 32.124C155.052 32.0493 154.684 32.012 154.31 32.012C153.928 32.012 153.554 32.0493 153.19 32.124C152.836 32.1893 152.514 32.2873 152.224 32.418C151.944 32.5393 151.716 32.6933 151.538 32.88C151.37 33.0667 151.286 33.2767 151.286 33.51V33.902C151.286 34.1353 151.37 34.3453 151.538 34.532C151.716 34.7187 151.944 34.8727 152.224 34.994C152.514 35.1247 152.836 35.2227 153.19 35.288C153.554 35.3627 153.928 35.4 154.31 35.4ZM153.106 29.114V26.412H154.114V29.114H160.19V29.954H148.43V29.114H153.106ZM158.398 23.668V24.97C158.398 25.222 158.389 25.488 158.37 25.768C158.352 26.048 158.324 26.3327 158.286 26.622C158.258 26.902 158.221 27.1773 158.174 27.448C158.137 27.7187 158.095 27.966 158.048 28.19L157.068 28.078C157.18 27.5647 157.264 27.042 157.32 26.51C157.386 25.9687 157.418 25.46 157.418 24.984V24.536H149.984V23.668H158.398ZM171.447 23.598V29.086H163.159V23.598H164.125V25.516H170.481V23.598H171.447ZM173.183 30.794V31.648H167.807V35.904H166.813V31.648H161.423V30.794H173.183ZM170.481 28.26V26.37H164.125V28.26H170.481ZM177.593 30.318C177.201 30.318 176.841 30.2667 176.515 30.164C176.197 30.0613 175.922 29.926 175.689 29.758C175.465 29.5807 175.287 29.38 175.157 29.156C175.035 28.932 174.975 28.6987 174.975 28.456V27.966C174.975 27.714 175.035 27.476 175.157 27.252C175.287 27.028 175.465 26.832 175.689 26.664C175.922 26.496 176.197 26.3607 176.515 26.258C176.841 26.1553 177.201 26.104 177.593 26.104C177.985 26.104 178.339 26.1553 178.657 26.258C178.983 26.3607 179.259 26.496 179.483 26.664C179.716 26.832 179.893 27.028 180.015 27.252C180.145 27.476 180.211 27.714 180.211 27.966V28.456C180.211 28.6987 180.145 28.932 180.015 29.156C179.893 29.38 179.716 29.5807 179.483 29.758C179.259 29.926 178.983 30.0613 178.657 30.164C178.339 30.2667 177.985 30.318 177.593 30.318ZM182.479 26.328H184.299V23.108H185.265V30.682H184.299V27.21H182.479V30.486H181.513V23.276H182.479V26.328ZM180.925 35.946C180.626 35.694 180.355 35.4607 180.113 35.246C179.879 35.0407 179.674 34.8587 179.497 34.7C179.002 34.252 178.717 33.944 178.643 33.776C178.587 33.8693 178.489 33.9907 178.349 34.14C178.218 34.2893 177.985 34.4993 177.649 34.77C177.471 34.9287 177.257 35.1013 177.005 35.288C176.762 35.484 176.477 35.7033 176.151 35.946L175.619 35.246C175.917 35.022 176.188 34.8167 176.431 34.63C176.673 34.4527 176.883 34.2893 177.061 34.14C177.322 33.916 177.527 33.7247 177.677 33.566C177.826 33.398 177.938 33.2393 178.013 33.09C178.087 32.9407 178.129 32.7867 178.139 32.628C178.157 32.46 178.167 32.264 178.167 32.04V31.284H179.133V32.096C179.133 32.3107 179.137 32.4927 179.147 32.642C179.156 32.782 179.189 32.9173 179.245 33.048C179.301 33.1787 179.389 33.3187 179.511 33.468C179.641 33.6173 179.819 33.7993 180.043 34.014C180.276 34.2567 180.57 34.5087 180.925 34.77C181.102 34.6393 181.265 34.5087 181.415 34.378C181.564 34.2473 181.695 34.126 181.807 34.014C182.031 33.7993 182.203 33.6173 182.325 33.468C182.455 33.3187 182.549 33.1787 182.605 33.048C182.661 32.9173 182.693 32.782 182.703 32.642C182.712 32.4927 182.717 32.3107 182.717 32.096V31.284H183.683V32.04C183.683 32.264 183.687 32.46 183.697 32.628C183.715 32.7867 183.762 32.9407 183.837 33.09C183.911 33.2393 184.019 33.398 184.159 33.566C184.308 33.7247 184.518 33.916 184.789 34.14C184.966 34.2893 185.176 34.4527 185.419 34.63C185.661 34.8167 185.932 35.022 186.231 35.246L185.699 35.946C185.372 35.7033 185.083 35.484 184.831 35.288C184.588 35.1013 184.378 34.9287 184.201 34.77C183.865 34.4993 183.627 34.2893 183.487 34.14C183.356 33.9907 183.263 33.8693 183.207 33.776C183.132 33.944 182.847 34.252 182.353 34.7C182.175 34.8587 181.965 35.0407 181.723 35.246C181.489 35.4607 181.223 35.694 180.925 35.946ZM177.593 26.916C177.079 26.916 176.664 27.028 176.347 27.252C176.029 27.4667 175.871 27.728 175.871 28.036V28.386C175.871 28.694 176.029 28.96 176.347 29.184C176.664 29.3987 177.079 29.506 177.593 29.506C178.106 29.506 178.521 29.3987 178.839 29.184C179.156 28.96 179.315 28.694 179.315 28.386V28.036C179.315 27.728 179.156 27.4667 178.839 27.252C178.521 27.028 178.106 26.916 177.593 26.916ZM177.103 24.648V23.08H178.083V24.648H180.477V25.502H174.499V24.648H177.103ZM199.167 29.73V30.584H187.407V29.73H199.167ZM190.137 34.882H197.683V35.75H189.143V31.928H190.137V34.882ZM190.193 27.084H197.501V27.952H189.199V23.598H190.193V27.084ZM205.831 24.326V25.222H201.995V31.522H202.765C203.148 31.522 203.507 31.5173 203.843 31.508C204.179 31.4987 204.506 31.4847 204.823 31.466C205.141 31.4473 205.453 31.4193 205.761 31.382C206.069 31.3447 206.382 31.298 206.699 31.242L206.811 32.124C206.139 32.236 205.486 32.3153 204.851 32.362C204.226 32.3993 203.559 32.418 202.849 32.418H201.001V24.326H205.831ZM207.847 27.7V23.374H208.827V35.274H207.847V28.596H205.075V27.7H207.847ZM211.347 35.904H210.367V23.108H211.347V35.904ZM227.655 30.192V33.482H220.795V35.106H227.991V35.946H219.829V32.656H226.689V31.046H219.759V30.192H227.655ZM227.655 29.436H226.675V23.108H227.655V29.436ZM221.131 26.762C221.057 26.9953 220.711 27.378 220.095 27.91C219.853 28.1247 219.54 28.386 219.157 28.694C218.775 29.002 218.345 29.3287 217.869 29.674L217.281 28.96C217.72 28.6613 218.135 28.358 218.527 28.05C218.919 27.7327 219.26 27.4433 219.549 27.182C219.755 26.9953 219.923 26.8227 220.053 26.664C220.184 26.5053 220.287 26.342 220.361 26.174C220.445 25.9967 220.501 25.81 220.529 25.614C220.567 25.418 220.585 25.194 220.585 24.942V23.43H221.593V24.9C221.593 25.152 221.603 25.3713 221.621 25.558C221.649 25.7353 221.696 25.8987 221.761 26.048C221.836 26.1973 221.939 26.3467 222.069 26.496C222.2 26.636 222.377 26.7993 222.601 26.986C222.863 27.2007 223.175 27.448 223.539 27.728C223.913 28.008 224.286 28.2693 224.659 28.512L224.099 29.226C223.773 28.9927 223.46 28.764 223.161 28.54C222.863 28.316 222.611 28.1247 222.405 27.966C222.079 27.7047 221.799 27.4713 221.565 27.266C221.332 27.0513 221.192 26.8833 221.145 26.762H221.131ZM231.926 29.366C232.523 29.366 233.088 29.366 233.62 29.366C234.152 29.3567 234.656 29.3473 235.132 29.338C235.608 29.3193 236.065 29.296 236.504 29.268C236.942 29.2307 237.376 29.1887 237.806 29.142L237.904 29.996C237.474 30.0427 237.036 30.0847 236.588 30.122C236.14 30.15 235.645 30.1733 235.104 30.192C234.572 30.2107 233.97 30.2247 233.298 30.234C232.626 30.234 231.846 30.234 230.96 30.234V26.552H235.202V24.592H230.96V23.724H236.168V27.392H231.926V29.366ZM239.822 24.9V23.108H240.788V30.92H239.822V28.008H237.148V27.154H239.822V25.754H237.148V24.9H239.822ZM232.556 31.676H240.788V36.016H239.822V32.544H232.556V31.676ZM254.886 29.842V30.696H243.126V29.842H254.886ZM245.856 34.882H253.416V35.75H244.862V31.984H245.856V34.882ZM249.006 28.666C248.436 28.666 247.904 28.61 247.41 28.498C246.924 28.386 246.5 28.2273 246.136 28.022C245.781 27.8167 245.501 27.5693 245.296 27.28C245.09 26.9813 244.988 26.6547 244.988 26.3V25.768C244.988 25.4133 245.09 25.0913 245.296 24.802C245.501 24.5033 245.781 24.2513 246.136 24.046C246.5 23.8407 246.924 23.682 247.41 23.57C247.904 23.458 248.436 23.402 249.006 23.402C249.575 23.402 250.102 23.458 250.588 23.57C251.082 23.682 251.507 23.8407 251.862 24.046C252.226 24.2513 252.51 24.5033 252.716 24.802C252.921 25.0913 253.024 25.4133 253.024 25.768V26.3C253.024 26.6547 252.921 26.9813 252.716 27.28C252.51 27.5693 252.226 27.8167 251.862 28.022C251.507 28.2273 251.082 28.386 250.588 28.498C250.102 28.61 249.575 28.666 249.006 28.666ZM249.006 24.242C248.595 24.242 248.203 24.284 247.83 24.368C247.466 24.4427 247.144 24.55 246.864 24.69C246.584 24.83 246.36 24.998 246.192 25.194C246.024 25.39 245.94 25.6047 245.94 25.838V26.23C245.94 26.4633 246.024 26.678 246.192 26.874C246.36 27.07 246.584 27.238 246.864 27.378C247.144 27.518 247.466 27.63 247.83 27.714C248.203 27.7887 248.595 27.826 249.006 27.826C249.416 27.826 249.804 27.7887 250.168 27.714C250.541 27.63 250.868 27.518 251.148 27.378C251.428 27.238 251.652 27.07 251.82 26.874C251.988 26.678 252.072 26.4633 252.072 26.23V25.838C252.072 25.6047 251.988 25.39 251.82 25.194C251.652 24.998 251.428 24.83 251.148 24.69C250.868 24.55 250.541 24.4427 250.168 24.368C249.804 24.284 249.416 24.242 249.006 24.242ZM260.246 24.368H265.832V25.236H263.578V27.14C263.578 27.4667 263.587 27.7467 263.606 27.98C263.634 28.2133 263.676 28.428 263.732 28.624C263.797 28.82 263.886 29.0113 263.998 29.198C264.11 29.3753 264.255 29.576 264.432 29.8C264.665 30.0893 264.945 30.416 265.272 30.78C265.599 31.1347 265.958 31.508 266.35 31.9L265.706 32.53C265.547 32.3807 265.384 32.2173 265.216 32.04C265.057 31.8533 264.894 31.6713 264.726 31.494C264.567 31.3167 264.413 31.144 264.264 30.976C264.124 30.808 263.993 30.6587 263.872 30.528C263.667 30.2947 263.494 30.08 263.354 29.884C263.223 29.6787 263.144 29.5387 263.116 29.464H263.102C263.083 29.5387 263.013 29.6693 262.892 29.856C262.78 30.0427 262.617 30.262 262.402 30.514C262.141 30.8127 261.847 31.144 261.52 31.508C261.193 31.8627 260.806 32.2593 260.358 32.698L259.7 32.04C259.905 31.844 260.111 31.6433 260.316 31.438C260.521 31.2327 260.713 31.032 260.89 30.836C261.077 30.64 261.245 30.458 261.394 30.29C261.553 30.1127 261.683 29.954 261.786 29.814C261.954 29.5993 262.089 29.3987 262.192 29.212C262.304 29.0253 262.388 28.8293 262.444 28.624C262.5 28.4187 262.537 28.1993 262.556 27.966C262.584 27.7233 262.598 27.448 262.598 27.14V25.236H260.246V24.368ZM267.414 27.434V23.374H268.394V35.274H267.414V28.33H265.146V27.434H267.414ZM270.886 35.904H269.906V23.108H270.886V35.904ZM280.07 25.166H277.172V27.168C277.172 27.4387 277.181 27.672 277.2 27.868C277.219 28.064 277.256 28.2507 277.312 28.428C277.368 28.6053 277.447 28.7827 277.55 28.96C277.662 29.128 277.811 29.3193 277.998 29.534C278.269 29.8513 278.605 30.2107 279.006 30.612C279.417 31.0133 279.883 31.4473 280.406 31.914L279.762 32.572C279.277 32.124 278.857 31.7227 278.502 31.368C278.157 31.0133 277.844 30.6867 277.564 30.388C277.359 30.1733 277.172 29.968 277.004 29.772C276.836 29.576 276.733 29.4313 276.696 29.338H276.682C276.663 29.4033 276.617 29.4873 276.542 29.59C276.477 29.6927 276.393 29.8047 276.29 29.926C276.197 30.0473 276.094 30.1733 275.982 30.304C275.87 30.4253 275.763 30.542 275.66 30.654C275.567 30.7567 275.441 30.892 275.282 31.06C275.123 31.2187 274.946 31.396 274.75 31.592C274.563 31.7787 274.358 31.9793 274.134 32.194C273.919 32.3993 273.709 32.5907 273.504 32.768L272.846 32.11C273.294 31.718 273.709 31.3307 274.092 30.948C274.484 30.5653 274.843 30.192 275.17 29.828C275.394 29.576 275.571 29.352 275.702 29.156C275.833 28.9507 275.931 28.75 275.996 28.554C276.071 28.358 276.117 28.1573 276.136 27.952C276.164 27.7467 276.178 27.5087 276.178 27.238V25.166H273.238V24.298H280.07V25.166ZM282.786 27.994H284.914V28.876H282.786V35.904H281.792V23.108H282.786V27.994ZM296.408 35.904H295.414V23.108H296.408V35.904ZM287.812 31.844H289.73C290.44 31.844 291.158 31.8253 291.886 31.788C292.624 31.7413 293.319 31.6667 293.972 31.564L294.084 32.418C293.338 32.5393 292.572 32.6233 291.788 32.67C291.014 32.7073 290.244 32.726 289.478 32.726H286.832V27.826H291.466V25.012H286.832V24.144H292.446V28.694H287.812V31.844ZM305.592 29.03C305.592 30.206 305.312 31.1207 304.752 31.774C304.202 32.418 303.432 32.74 302.442 32.74C301.453 32.74 300.678 32.418 300.118 31.774C299.568 31.1207 299.292 30.206 299.292 29.03V27.714C299.292 26.5473 299.568 25.642 300.118 24.998C300.678 24.3447 301.453 24.018 302.442 24.018C303.432 24.018 304.202 24.3447 304.752 24.998C305.312 25.6513 305.592 26.5613 305.592 27.728V29.03ZM304.626 27.896C304.626 27.364 304.575 26.9113 304.472 26.538C304.37 26.1647 304.22 25.8613 304.024 25.628C303.838 25.3853 303.609 25.2127 303.338 25.11C303.068 24.998 302.769 24.942 302.442 24.942C302.116 24.942 301.817 24.998 301.546 25.11C301.276 25.2127 301.042 25.3853 300.846 25.628C300.66 25.8613 300.515 26.1647 300.412 26.538C300.31 26.9113 300.258 27.364 300.258 27.896V28.862C300.258 29.394 300.31 29.8513 300.412 30.234C300.515 30.6073 300.66 30.9153 300.846 31.158C301.042 31.3913 301.276 31.564 301.546 31.676C301.817 31.7787 302.116 31.83 302.442 31.83C302.769 31.83 303.068 31.7787 303.338 31.676C303.609 31.564 303.838 31.3913 304.024 31.158C304.22 30.9153 304.37 30.6073 304.472 30.234C304.575 29.8513 304.626 29.394 304.626 28.862V27.896ZM308.756 26.09H310.884V26.972H308.756V29.688H310.884V30.57H308.756V35.904H307.776V23.108H308.756V26.09ZM312.355 33.37H313.769V34.77H312.355V33.37ZM316.008 23.402H317.17L316.19 26.552H315.42L316.008 23.402ZM318.066 23.402H319.228L318.248 26.552H317.478L318.066 23.402Z" fill="#161260"/>
</g>
<defs>
<filter id="filter0_d" x="58" y="8" width="276" height="48" filterUnits="userSpaceOnUse" color-interpolation-filters="sRGB">
<feFlood flood-opacity="0" result="BackgroundImageFix"/>
<feColorMatrix in="SourceAlpha" type="matrix" values="0 0 0 0 0 0 0 0 0 0 0 0 0 0 0 0 0 0 127 0" result="hardAlpha"/>
<feOffset dy="2"/>
<feGaussianBlur stdDeviation="2"/>
<feColorMatrix type="matrix" values="0 0 0 0 0 0 0 0 0 0 0 0 0 0 0 0 0 0 0.15 0"/>
<feBlend mode="normal" in2="BackgroundImageFix" result="effect1_dropShadow"/>
<feBlend mode="normal" in="SourceGraphic" in2="effect1_dropShadow" result="shape"/>
</filter>
</defs>
</svg>
