<svg width="100" height="100" viewBox="0 0 100 100" fill="none" xmlns="http://www.w3.org/2000/svg">
<circle cx="50" cy="50" r="50" fill="white"/>
<mask id="mask0" mask-type="alpha" maskUnits="userSpaceOnUse" x="0" y="0" width="100" height="100">
<circle cx="50" cy="50" r="50" fill="#FF9F9F"/>
</mask>
<g mask="url(#mask0)">
<path d="M32.9943 47.4342C32.9479 47.3387 32.946 47.2901 32.9422 47.1929C32.0442 47.1308 31.1575 47.3602 30.9789 48.2431C30.909 48.6351 31.0094 49.0204 31.1098 49.4058C31.8532 52.053 33.0167 54.5377 34.5502 56.6673C35.3179 57.7564 36.7649 58.7703 37.5785 57.7652C37.6192 57.7149 37.7006 57.6144 37.7412 57.5642C35.742 54.4309 34.1183 51.0883 32.9943 47.4342Z" fill="#343434"/>
<path d="M33.7933 47.1591C33.7469 47.0636 33.745 47.015 33.7411 46.9179C33.6388 46.4839 33.2461 46.256 32.9035 46.2208C31.4501 46.1318 29.905 46.9709 30.1089 48.9093C30.2283 49.7805 30.5625 50.6919 30.8504 51.5079C31.1827 52.3707 31.5151 53.2336 31.9307 54.0445C32.6284 55.5257 33.5041 57.1945 34.6531 58.22C35.8466 59.2924 37.4838 59.7148 38.4429 58.0715C38.6037 57.8219 38.5847 57.336 38.4048 57.0997C36.4926 54.0118 34.9116 50.6675 33.7933 47.1591C33.4069 46.0064 31.8078 46.5557 32.1535 47.7586C33.3221 51.4597 34.994 54.9464 36.9544 58.1784C36.9411 57.8383 36.9297 57.5468 36.9164 57.2067C36.556 57.8048 35.3975 56.5363 35.2157 56.2515C34.4963 55.3065 33.8545 54.1638 33.2997 53.0664C32.7449 51.9689 32.3141 50.7693 31.9685 49.5663C31.8719 49.2781 31.6342 48.6549 31.795 48.4053C31.9965 48.1054 32.639 48.1776 32.939 48.2145C32.674 47.9815 32.3664 47.7503 32.1014 47.5174C32.1052 47.6146 32.1497 47.6615 32.1535 47.7586C32.4973 48.913 34.1389 48.3621 33.7933 47.1591Z" fill="#343434"/>
<path d="M34.1255 39.1321C33.036 37.7862 30.7448 37.7702 29.3829 38.8597C28.021 39.9492 27.5404 41.8398 27.7967 43.5221C28.005 44.9 28.71 46.2619 29.9116 47.031C30.9851 47.7199 32.331 47.8641 33.6288 47.8321C33.9652 50.0431 34.3017 52.3023 35.3111 54.305C36.3205 56.3078 37.3299 58.0862 39.589 58.4868C40.4061 58.631 41.4155 58.7111 41.784 59.4321C41.8962 59.6724 41.9282 59.9448 41.9442 60.2172C42.1525 62.973 42.3448 67.347 42.5531 70.1028C42.5851 70.5194 42.6172 70.952 42.8575 71.3045C43.1779 71.7691 43.7708 71.9774 44.3315 72.1216C47.3757 72.8746 52.2625 72.6824 55.1785 71.5608C55.9476 71.2724 56.7326 70.8719 57.1332 70.1829C57.5177 69.526 57.4697 68.7089 57.4536 67.9558C57.3735 66.0012 57.4536 62.4282 57.6779 60.4896C57.726 60.057 57.7901 59.6244 57.9984 59.2398C58.5752 58.1824 59.2802 58.3105 60.3536 57.7338C62.2282 56.7083 63.3818 54.1768 63.9907 52.1741C64.5034 50.4757 64.5354 48.7934 65.0481 47.0951C67.3713 46.4862 69.358 44.7398 70.1912 42.5448C71.0243 40.3498 70.6879 37.7702 69.31 35.8476C69.0697 35.5111 68.7973 35.1907 68.4448 34.9663C67.4034 34.2934 65.9133 34.71 65.0321 35.5592C64.1348 36.4083 63.7023 37.61 63.2857 38.7476C62.9172 35.2387 62.2763 31.7619 61.331 28.3652C60.9785 27.0995 60.5779 25.8017 59.7768 24.7442C58.415 22.9337 56.0277 22.0205 53.7205 21.9404C51.4133 21.8603 49.1221 22.5012 46.9431 23.2542C44.7161 24.0393 42.473 24.9686 40.7105 26.5227C37.7625 29.1023 36.4647 32.9956 35.7437 36.7929C35.5674 37.7221 35.3592 38.7476 34.5581 39.2763" fill="#FAC9B4"/>
<path d="M40.9669 36.6645C41.752 36.5364 42.5851 36.7927 43.3702 36.8888C44.1874 36.985 44.1874 35.7032 43.3702 35.6071C42.441 35.4949 41.5758 35.2706 40.6305 35.4308C39.8133 35.559 40.1658 36.7927 40.9669 36.6645Z" fill="#333333"/>
<path d="M55.0663 36.2321C55.7553 36.168 56.4602 35.9757 57.1332 36.216C57.9182 36.4884 58.2547 35.2547 57.4696 34.9823C56.6685 34.71 55.8834 34.8702 55.0663 34.9503C54.7138 34.9823 54.4254 35.2227 54.4254 35.5912C54.4254 35.9116 54.7298 36.2641 55.0663 36.2321Z" fill="#333333"/>
<path d="M43.1779 41.2308C42.9857 41.0546 43.0337 40.8463 43.21 40.6861C42.9056 40.6861 42.6011 40.6861 42.2967 40.6861C42.505 40.9585 42.473 41.5513 42.3288 41.8237C41.9282 42.5447 43.0337 43.1855 43.4343 42.4645C43.8989 41.6314 43.7868 40.5099 43.21 39.7728C42.9857 39.4844 42.5371 39.5806 42.2967 39.7728C41.5917 40.3496 41.5917 41.5192 42.2647 42.1281C42.8735 42.7049 43.7868 41.7916 43.1779 41.2308Z" fill="#333333"/>
<path d="M56.9731 40.7183C56.909 40.6381 56.8289 40.542 56.7488 40.4779C56.6847 40.4299 56.7327 40.4459 56.7488 40.4939C56.7648 40.542 56.7808 40.5741 56.7808 40.6221C56.7808 40.6702 56.8289 40.542 56.7648 40.6542C56.7808 40.6221 56.7968 40.5901 56.8289 40.558C56.8769 40.4619 56.8129 40.558 56.8609 40.526C56.893 40.4939 56.925 40.4619 56.957 40.4299C56.909 40.4619 56.909 40.4619 56.957 40.4459C56.8609 40.51 56.7648 40.4939 56.6687 40.4138C56.5405 40.4299 56.4604 40.3818 56.4123 40.2857C56.3482 40.2536 56.3963 40.1094 56.3803 40.2696C56.3803 40.3177 56.3803 40.3497 56.3803 40.3978C56.3803 40.4459 56.3803 40.51 56.3803 40.558C56.3642 40.6381 56.4283 40.4619 56.3642 40.6061C56.3322 40.6702 56.3322 40.6381 56.3642 40.6221C56.4123 40.5901 56.4283 40.542 56.4924 40.526C55.7073 40.7663 56.0438 42 56.8289 41.7597C57.4217 41.5835 57.662 41.0067 57.662 40.4299C57.662 39.805 57.3416 39.052 56.5885 39.2282C56.1079 39.3404 55.7394 39.789 55.5791 40.2376C55.467 40.526 55.467 40.8464 55.6112 41.1188C55.7233 41.3271 55.9156 41.4713 56.0598 41.6475C56.2681 41.9199 56.7488 41.8719 56.9731 41.6475C57.2454 41.3431 57.1974 40.9906 56.9731 40.7183Z" fill="#333333"/>
<path d="M48.1128 39.7569C48.5294 40.6382 48.4653 41.5034 47.9526 42.3205C47.52 43.0254 48.6255 43.6663 49.0581 42.9614C49.8111 41.7437 49.8111 40.3978 49.2183 39.1C48.8658 38.363 47.7603 39.0199 48.1128 39.7569Z" fill="#333333"/>
<path d="M45.5171 48.0884C46.9591 47.752 48.4171 47.5757 49.9072 47.5918C50.6282 47.5918 51.3332 47.6398 52.0542 47.736C52.5829 47.8481 52.631 47.8321 52.2144 47.6719C52.1984 47.784 52.1663 47.8962 52.1182 47.9923C52.0221 48.2807 51.8619 48.5691 51.6696 48.8255C50.9006 49.7708 49.2503 49.5625 48.1608 49.5304C47.0713 49.4984 45.3569 48.9056 45.9177 47.4796C46.2061 46.7105 44.9724 46.3741 44.684 47.1431C44.0271 48.8575 45.5171 50.3796 47.1193 50.7C48.0646 50.8923 49.058 50.7962 50.0033 50.7801C50.9326 50.7641 51.7818 50.5719 52.4547 49.8989C53.0155 49.3382 53.4481 48.505 53.5282 47.7199C53.6243 46.8547 53.1757 46.5984 52.3746 46.5023C49.9713 46.1818 47.568 46.31 45.2127 46.8547C44.3796 47.031 44.716 48.2647 45.5171 48.0884Z" fill="#333333"/>
<path d="M15.9084 93.5275C15.7001 88.0159 15.636 82.0236 19.1449 77.6015C20.6029 75.775 22.5736 74.3651 24.6244 73.1474C28.8222 70.664 33.4686 68.8855 38.3233 67.9082C38.9322 67.78 39.5891 67.6678 40.1819 67.8761C40.6626 68.0363 41.0311 68.3888 41.4156 68.7253C44.7802 71.5933 49.7952 72.6507 54.1371 71.401C55.4029 71.0325 56.6526 70.4717 57.5659 69.5584C58.2388 68.8855 58.8156 68.0043 59.7609 67.78C60.2576 67.6678 60.7703 67.764 61.283 67.8601C68.6051 69.2861 76.536 71.0645 81.1344 76.6082C85.1239 81.4308 85.6206 88.0159 85.1239 94.1203C85.0918 94.4568 85.0598 94.8093 84.8836 95.1137C84.6753 95.4982 84.2587 95.7546 83.8742 95.9629C78.3465 99.0551 71.5692 99.2634 65.1443 99.2634C52.7112 99.2795 40.262 98.943 27.8288 98.5905C25.4896 98.5264 23.1023 98.4463 20.9073 97.6772C18.7123 96.9082 16.7095 95.306 16.1808 93.159" fill="#E8DBFF"/>
<path d="M16.5493 93.5269C16.357 88.3998 16.2128 82.6639 19.4012 78.338C21.1316 75.9827 23.6951 74.3805 26.2106 73.0026C28.8702 71.5446 31.6741 70.391 34.5581 69.5258C35.9841 69.0932 37.4741 68.6606 38.9481 68.4684C40.3901 68.2761 41.3354 69.5739 42.457 70.2949C44.5559 71.6407 47.0233 72.3938 49.4907 72.538C51.9741 72.6982 54.7459 72.2656 56.8769 70.9197C57.3896 70.5993 57.8382 70.2148 58.2548 69.7822C58.6713 69.3496 59.0559 68.8048 59.6006 68.5324C60.2896 68.212 61.1227 68.5004 61.8277 68.6446C62.4846 68.7728 63.1255 68.901 63.7824 69.0452C68.7012 70.0866 73.8283 71.4004 77.9139 74.4606C82.2559 77.7131 84.1945 82.7761 84.5631 88.0634C84.6592 89.3772 84.6592 90.691 84.6111 92.0048C84.5951 92.6297 84.547 93.2706 84.499 93.8954C84.4669 94.2479 84.4669 94.6324 84.2426 94.9208C84.0183 95.2253 83.6178 95.4015 83.2973 95.5778C80.7979 96.9396 78.01 97.6927 75.2062 98.1092C72.3382 98.5418 69.4062 98.638 66.5062 98.654C63.2857 98.686 60.0493 98.654 56.8288 98.622C50.2918 98.5579 43.7548 98.4137 37.2178 98.2374C33.9332 98.1573 30.6487 98.0612 27.3802 97.965C24.5122 97.8849 21.4039 97.7407 18.9686 95.9943C17.9272 95.2573 17.126 94.2479 16.7736 93.0142C16.5493 92.2131 15.3155 92.5496 15.5399 93.3507C16.2448 95.8661 18.4719 97.5485 20.8592 98.3656C23.9194 99.407 27.3321 99.2468 30.5205 99.3269C37.5863 99.5192 44.652 99.7115 51.7178 99.8236C55.2266 99.8717 58.7354 99.9197 62.2443 99.9197C65.4647 99.9358 68.7012 99.9518 71.9216 99.7275C74.9338 99.5032 77.962 99.0545 80.8139 98.0451C82.0796 97.5965 83.4255 97.0678 84.5631 96.2987C85.7807 95.4816 85.7487 94.1998 85.8288 92.87C86.1332 87.4225 85.5404 81.5264 82.2078 77.0081C79.0194 72.6822 74.0045 70.407 68.9575 68.9811C66.3139 68.228 63.5421 67.5231 60.8183 67.1545C59.4404 66.9783 58.5272 67.5551 57.6139 68.5485C56.5885 69.67 55.4028 70.375 53.9288 70.7916C51.2211 71.5606 48.289 71.4004 45.6454 70.4551C44.3476 69.9905 43.0979 69.3015 42.0084 68.4203C41.5117 68.0197 41.0631 67.5711 40.4702 67.3308C39.7973 67.0584 39.0923 67.1225 38.3874 67.2507C35.3111 67.7954 32.2669 68.7888 29.399 70.0225C26.5951 71.2242 23.8073 72.6661 21.3879 74.5407C19.0968 76.3032 17.3824 78.5302 16.389 81.254C15.4437 83.8335 15.1874 86.6214 15.1553 89.3452C15.1393 90.7391 15.1714 92.149 15.2354 93.5429C15.2995 94.344 16.5813 94.3601 16.5493 93.5269Z" fill="#E8DBFF"/>
<path d="M40.4542 68.3088C42.3448 71.4011 45.9818 72.2502 49.3625 72.3464C52.8232 72.4425 56.7326 72.3303 59.0078 69.3182C59.6967 68.4049 58.1586 67.5397 57.4857 68.421C55.6752 70.8243 52.0382 70.648 49.3625 70.5839C46.6387 70.5038 43.5144 69.9431 41.9763 67.4276C41.3835 66.4502 39.8614 67.3315 40.4542 68.3088Z" fill="#6370B4"/>
<path d="M33.9908 39.8213C32.2163 39.7989 30.6459 38.7029 29.6169 37.4023C27.3879 34.7114 26.7436 31.0487 27.6666 27.7213C28.5499 24.3982 30.9208 21.419 33.9114 19.3142C35.1061 18.4579 36.3961 17.7362 37.8527 17.4311C39.3093 17.1259 40.9365 17.2733 42.1133 18.0864C43.5486 19.0523 44.1036 20.8036 43.8828 22.459C43.6979 24.0742 42.8605 25.6161 41.9715 27.055C40.0182 30.1695 37.6433 33.1128 36.1553 36.4299C35.541 37.8023 34.9463 39.3538 33.4495 40.0258" fill="#343434"/>
<path d="M34.1108 39.0828C32.2527 39.0333 30.8297 37.8123 29.8763 36.4673C28.7878 34.992 28.1891 33.2093 28.0758 31.4456C27.8094 27.9227 29.4049 24.485 32.0142 21.8422C33.3169 20.5028 34.9497 19.2359 36.761 18.4931C38.4209 17.8394 40.5777 17.6748 41.9172 18.8687C43.2129 20.0312 43.2943 21.8708 42.8588 23.4048C42.3433 25.3101 41.0442 27.0478 39.9361 28.692C38.6566 30.6087 37.2897 32.4626 36.221 34.4649C35.7186 35.3901 35.3036 36.3781 34.8449 37.3347C34.4859 38.0991 34.0115 38.9125 33.1715 39.331C32.7893 39.518 32.5461 39.871 32.7128 40.2876C32.8715 40.6326 33.3408 40.871 33.7627 40.6797C35.7931 39.7315 36.3405 37.7503 37.198 36.0249C38.1832 33.9955 39.5024 32.0744 40.7858 30.1934C43.0417 26.9007 46.453 22.3936 43.7 18.6003C42.5123 16.9547 40.1854 16.3043 38.0523 16.6838C35.76 17.0808 33.765 18.3512 32.0723 19.8059C28.8342 22.5904 26.5858 26.3173 26.4656 30.354C26.3992 32.6811 26.9735 34.974 28.2802 36.9689C29.4439 38.7621 31.4035 40.4678 33.8703 40.5591C34.3159 40.5826 34.734 40.3554 34.81 39.9483C34.8463 39.5456 34.5564 39.1063 34.1108 39.0828Z" fill="#343434"/>
<path d="M71.2108 37.9443C71.0133 30.7172 68.3676 23.5708 63.8264 17.9991C62.6022 16.5053 61.2201 15.0921 59.5616 14.1635C55.6127 11.9833 50.7951 12.7504 46.4118 13.7598C45.0297 14.0828 43.6081 14.4058 42.4629 15.2536C41.3178 16.1015 40.4885 17.5954 40.8044 18.9681C41.1203 20.2601 42.305 21.2291 42.7393 22.4403L42.6209 21.9155C43.0553 23.2075 44.161 24.2572 45.3851 24.9032C46.8857 25.6703 48.6232 25.9529 50.2422 26.3971C55.8891 27.8506 61.0622 31.2824 64.6951 35.9255C64.9321 36.2485 65.169 36.5715 65.4059 36.9349C65.6034 36.9349 65.8008 36.9753 65.9983 37.0156C67.025 36.4908 68.2491 36.41 69.1574 37.2579C69.5523 37.6213 69.7892 38.1058 69.9077 38.5903C70.579 39.4381 70.7764 40.609 70.579 41.6991C70.1446 44.5657 68.2491 47.1093 66.0377 49.0473C65.7613 50.8238 65.2085 52.5196 64.3792 54.1345C69.3153 50.8642 71.3687 44.0812 71.2108 37.9443Z" fill="#343434"/>
<path d="M72 37.9444C71.7631 30.4347 69.0383 23.1269 64.3392 17.3936C63.1545 15.9401 61.8119 14.6078 60.1928 13.6388C58.6133 12.7102 56.8363 12.2257 55.0593 12.0642C53.2033 11.9027 51.3473 12.0642 49.5309 12.3468C47.7144 12.6294 45.8189 12.9524 44.0814 13.558C42.2254 14.204 40.4484 15.5364 40.0536 17.5955C39.8956 18.5645 40.093 19.4931 40.5669 20.341C41.0013 21.1485 41.7121 21.7945 42.028 22.6827C42.4229 23.6113 43.7655 23.2884 43.5681 22.2386C43.5286 22.0771 43.4891 21.9156 43.4496 21.7137C42.9362 21.8752 42.4229 21.9964 41.9095 22.1579C42.5019 23.7325 43.726 24.9841 45.2266 25.7108C46.8456 26.5183 48.6226 26.801 50.3601 27.2451C53.4403 28.0929 56.3624 29.5061 58.9687 31.4037C60.2718 32.3323 60.8943 33.8291 62 35C62.5528 35.6056 62.4866 38.354 63 39C63.2764 39.323 64.6187 38.2021 65 38C65.4054 37.7852 65.8386 37.6618 66.1545 37.5406C66.8258 37.3388 67.5378 37.2177 68.2486 37.5406C68.9989 37.8636 69.1568 38.6711 69.5517 39.3171C70.381 40.6091 69.8676 42.426 69.3148 43.718C68.5645 45.3734 67 46 66 46.5C65.775 46.6125 65.158 46.7981 65 47C64.842 47.2422 64.0395 49.7174 64 50C64 50 63.658 51.5155 63.5 52C62.685 54.5 59 58.5 59 58.5C59 59 61.2207 59.3459 61.892 58.8614C65.9989 56.0352 71.1312 47.1095 71.8026 42.2241C71.921 40.8514 72 39.3979 72 37.9444C71.9605 36.8947 70.381 36.8947 70.4204 37.9444C70.5784 43.5969 68.8804 50.1376 64.0627 53.4887C64.4181 53.8521 64.7735 54.2154 65.1289 54.5788C65.9977 52.9234 66.59 51.1469 66.8665 49.3301C66.7875 49.4512 66.748 49.5723 66.669 49.6935C68.3275 48.24 69.7886 46.5039 70.6574 44.4447C71.5261 42.3856 71.9605 39.9631 70.4994 38.0655C70.5784 38.1866 70.6179 38.3078 70.6969 38.4289C70.381 37.3388 69.6701 36.4505 68.6039 36.0468C67.6167 35.6834 66.5111 35.8853 65.6028 36.3698C65.8003 36.3294 65.9977 36.3294 66.1951 36.289C65.9187 36.2487 65.6818 36.2083 65.4054 36.1679C65.6423 36.289 65.8792 36.4505 66.0767 36.5717C64.0233 33.5435 61.259 30.9999 58.2184 29.0619C56.7178 28.093 55.0988 27.2855 53.4403 26.6395C51.6633 25.9531 49.8468 25.5493 48.0303 25.0648C46.1743 24.5803 44.0419 23.7325 43.3311 21.7541C42.9757 20.7851 41.5936 21.1485 41.7911 22.1982C41.8306 22.3597 41.87 22.5212 41.9095 22.7231C42.4229 22.5616 42.9362 22.4405 43.4496 22.279C43.1732 21.5522 42.7388 20.9466 42.3044 20.341C41.9095 19.7757 41.4752 19.1297 41.4752 18.3626C41.4752 16.788 42.9362 15.6979 44.2394 15.2134C45.8189 14.6481 47.5169 14.3251 49.1755 14.0425C50.834 13.7599 52.532 13.558 54.23 13.6388C55.8096 13.7195 57.4286 14.0425 58.8502 14.8096C60.3508 15.6171 61.6144 16.788 62.7201 18.08C64.892 20.6236 66.669 23.571 67.9327 26.7202C69.3543 30.2732 70.1835 34.1088 70.302 37.9848C70.4205 38.9941 72 38.9941 72 37.9444Z" fill="#343434"/>
<path d="M37.9495 21.2036C36.9508 21.9777 36.027 22.8266 35.178 23.7754C34.9533 24.0251 34.9283 24.4246 35.178 24.6493C35.4277 24.874 35.8272 24.899 36.0519 24.6493C36.9009 23.7255 37.8247 22.8765 38.8234 22.0775C38.9483 21.9777 38.9982 21.7779 38.9982 21.6281C38.9982 21.4783 38.9233 21.3035 38.8234 21.1787C38.6986 21.0788 38.5488 20.9789 38.374 21.0039C38.1992 21.0288 38.0744 21.1038 37.9495 21.2036Z" fill="#676766"/>
<path d="M38.1991 23.4504C37.525 24.6239 36.8258 25.7974 36.1517 26.946C35.9769 27.2206 36.0768 27.6451 36.3764 27.7949C36.676 27.9447 37.0506 27.8698 37.2253 27.5702C37.8995 26.3967 38.5986 25.2231 39.2728 24.0746C39.4475 23.7999 39.3477 23.3755 39.048 23.2256C38.7484 23.0509 38.3739 23.1508 38.1991 23.4504Z" fill="#676766"/>
</g>
<circle cx="50" cy="50" r="48.5" stroke="#FDCB59" stroke-width="3"/>
</svg>
