<svg width="20" height="15" viewBox="0 0 20 15" fill="none" xmlns="http://www.w3.org/2000/svg">
<path d="M15.7143 15C14.0723 15 12.8079 14.4737 11.9212 13.4211C11.0673 12.3375 10.6404 10.8978 10.6404 9.10217C10.6404 7.12074 11.3465 5.3096 12.7586 3.66873C14.2036 2.02787 16.6174 0.804954 20 0V2.73994C18.6864 3.2353 17.6683 3.66873 16.9458 4.04025C16.2562 4.41177 15.9113 5.04644 15.9113 5.94427C15.9113 6.37771 16.092 6.71827 16.4532 6.96594C16.8145 7.18266 17.225 7.43034 17.6847 7.70898C18.1773 7.98762 18.6043 8.40557 18.9655 8.96285C19.3268 9.52012 19.5074 10.3406 19.5074 11.4241C19.5074 12.5697 19.1461 13.452 18.4236 14.0712C17.7011 14.6904 16.798 15 15.7143 15ZM5.07389 15C3.43186 15 2.16749 14.4737 1.28079 13.4211C0.426929 12.3375 0 10.8978 0 9.10217C0 7.12074 0.706075 5.3096 2.11823 3.66873C3.56322 2.02787 5.97701 0.804954 9.35961 0V2.73994C8.04598 3.2353 7.02792 3.66873 6.30542 4.04025C5.61576 4.41177 5.27094 5.04644 5.27094 5.94427C5.27094 6.37771 5.45156 6.71827 5.81281 6.96594C6.17406 7.18266 6.58457 7.43034 7.04434 7.70898C7.53695 7.98762 7.96387 8.40557 8.32512 8.96285C8.68637 9.52012 8.867 10.3406 8.867 11.4241C8.867 12.5697 8.50575 13.452 7.78325 14.0712C7.06076 14.6904 6.15764 15 5.07389 15Z" fill="#98AAFF"/>
</svg>
