<svg width="200" height="30" viewBox="0 0 200 30" fill="none" xmlns="http://www.w3.org/2000/svg">
<path d="M63.6174 30H55.8212V5.60553H59.0436V26.9896H63.5135V30H63.6174Z" fill="#020303"/>
<path d="M62.1621 14.5329L63.7214 10.173H62.1621V5.60553H64.449C65.3846 5.60553 65.8004 6.02077 65.8004 6.95503V10.173L64.1372 14.5329H62.1621Z" fill="#020303"/>
<path d="M68.2952 30V5.60553H76.4033V8.51213H71.6215V15.8824H75.8835V18.7889H71.6215V26.8858H76.4033V29.7924H68.2952V30ZM72.3492 4.04844H70.0623L71.6215 0H74.6361L72.3492 4.04844Z" fill="#020303"/>
<path d="M83.8877 8.51212V29.8962H80.6653V8.51212H77.5468V5.60553H87.1101V8.51212H83.8877Z" fill="#020303"/>
<path d="M91.9958 30H88.7733V9.75778C88.7733 6.95501 90.1247 5.60553 92.7234 5.60553H95.2182C97.817 5.60553 99.1683 6.95501 99.1683 9.75778V30H95.9459V21.0727H92.2037V30H91.9958ZM95.738 18.0623V9.9654C95.738 9.03115 95.2182 8.51212 94.2827 8.51212H93.3471C92.4116 8.51212 91.8918 9.03115 91.8918 9.9654V18.0623H95.738Z" fill="#020303"/>
<path d="M101.871 5.60553H107.796C110.395 5.60553 111.746 6.95501 111.746 9.75778V17.0242C111.746 19.827 110.395 21.1765 107.796 21.1765H105.094V30H101.871V5.60553ZM105.198 18.1661H107.277C108.108 18.1661 108.524 17.6471 108.524 16.7128V9.9654C108.524 9.03115 108.004 8.51212 107.069 8.51212H105.198V18.1661Z" fill="#020303"/>
<path d="M114.449 30V5.60553H122.557V8.51212H117.775V15.8824H122.037V18.7889H117.775V26.8858H122.557V29.7924H114.449V30Z" fill="#020303"/>
<path d="M137.838 15.9862V18.8927H133.576V30H130.25V5.60553H138.358V8.51212H133.576V15.8824H137.838V15.9862Z" fill="#020303"/>
<path d="M140.541 5.60553H146.985C149.48 5.60553 150.728 6.95501 150.728 9.75778V15.7786C150.728 17.9585 150.104 19.2042 148.753 19.827L151.039 30H147.921L145.738 20.1384H143.763V30H140.541V5.60553ZM143.867 17.3357H146.05C146.985 17.3357 147.505 16.7128 147.505 15.5709V10.2768C147.505 9.13494 146.985 8.51212 146.05 8.51212H143.867V17.3357Z" fill="#020303"/>
<path d="M156.549 30H153.326V9.75778C153.326 6.95501 154.678 5.60553 157.277 5.60553H159.771C162.37 5.60553 163.721 6.95501 163.721 9.75778V30H160.499V21.0727H156.757V30H156.549ZM160.291 18.0623V9.9654C160.291 9.03115 159.771 8.51212 158.836 8.51212H157.9C156.965 8.51212 156.445 9.03115 156.445 9.9654V18.0623H160.291Z" fill="#020303"/>
<path d="M173.181 17.4395V5.60553H176.403V30H173.181V25.1211L169.75 14.0138V30H166.528V5.60553H169.75L173.181 17.4395Z" fill="#020303"/>
<path d="M189.293 24.2907V25.8477C189.293 28.6505 187.942 30 185.343 30H183.264C180.665 30 179.314 28.6505 179.314 25.8477V9.75778C179.314 6.95501 180.665 5.60553 183.264 5.60553H185.343C187.942 5.60553 189.293 6.95501 189.293 9.75778V12.5606H186.071V10.0692C186.071 9.13496 185.551 8.61594 184.615 8.61594H183.992C183.16 8.61594 182.744 9.13496 182.744 10.0692V25.744C182.744 26.6782 183.16 27.1972 183.992 27.1972H184.823C185.655 27.1972 186.071 26.6782 186.071 25.744V24.3945H189.293V24.2907Z" fill="#020303"/>
<path d="M191.892 30V5.60553H200V8.51212H195.218V15.8824H199.48V18.7889H195.218V26.8858H200V29.7924H191.892V30Z" fill="#020303"/>
<path d="M41.892 7.16263H25.3639V27.4048H41.892V7.16263Z" fill="#C24040"/>
<path d="M41.788 29.0658H25.2599C24.4283 29.0658 23.7007 28.3391 23.7007 27.5087V7.26644C23.7007 6.43599 24.4283 5.70935 25.2599 5.70935H41.788C42.6196 5.70935 43.3472 6.43599 43.3472 7.26644V27.5087C43.3472 28.3391 42.7235 29.0658 41.788 29.0658ZM26.9231 25.8478H40.2287V8.71973H26.9231V25.8478Z" fill="#221916"/>
<path d="M28.4824 12.9758H13.3057V27.5087H28.4824V12.9758Z" fill="white"/>
<path d="M28.5863 29.0658H13.4096C12.578 29.0658 11.8503 28.3391 11.8503 27.5087V12.9758C11.8503 12.1453 12.578 11.4187 13.4096 11.4187H28.5863C29.4179 11.4187 30.1456 12.1453 30.1456 12.9758V27.5087C30.1456 28.3391 29.4179 29.0658 28.5863 29.0658ZM14.9688 25.8478H26.9231V14.5329H14.9688V25.8478Z" fill="#221916"/>
<path d="M18.0873 19.308H1.5592V27.5087H18.0873V19.308Z" fill="#24356B"/>
<path d="M18.0873 29.0658H1.55925C0.727651 29.0658 0 28.3391 0 27.5087V19.308C0 18.4775 0.727651 17.7509 1.55925 17.7509H18.0873C18.9189 17.7509 19.6466 18.4775 19.6466 19.308V27.5087C19.7505 28.3391 19.0229 29.0658 18.0873 29.0658ZM3.22246 25.8478H16.5281V20.8651H3.22246V25.8478Z" fill="#221916"/>
</svg>
