<svg width="120" height="85" viewBox="0 0 120 85" fill="none" xmlns="http://www.w3.org/2000/svg">
<mask id="path-1-inside-1" fill="white">
<path fill-rule="evenodd" clip-rule="evenodd" d="M110 0C115.523 0 120 4.47715 120 10V35C120 40.5228 115.523 45 110 45H108V53.5933L96.6598 45H60C54.4771 45 50 40.5228 50 35V10C50 4.47715 54.4771 0 60 0H110Z"/>
</mask>
<path fill-rule="evenodd" clip-rule="evenodd" d="M110 0C115.523 0 120 4.47715 120 10V35C120 40.5228 115.523 45 110 45H108V53.5933L96.6598 45H60C54.4771 45 50 40.5228 50 35V10C50 4.47715 54.4771 0 60 0H110Z" fill="#F5F5F5"/>
<path d="M108 45H103V40H108V45ZM108 53.5933H113V63.6555L104.98 57.5784L108 53.5933ZM96.6598 45V40H98.3403L99.6796 41.0149L96.6598 45ZM115 10C115 7.23858 112.761 5 110 5V-5C118.284 -5 125 1.71573 125 10H115ZM115 35V10H125V35H115ZM110 40C112.761 40 115 37.7614 115 35H125C125 43.2843 118.284 50 110 50V40ZM108 40H110V50H108V40ZM103 53.5933V45H113V53.5933H103ZM99.6796 41.0149L111.02 49.6082L104.98 57.5784L93.64 48.9851L99.6796 41.0149ZM60 40H96.6598V50H60V40ZM55 35C55 37.7614 57.2386 40 60 40V50C51.7157 50 45 43.2843 45 35H55ZM55 10V35H45V10H55ZM60 5C57.2386 5 55 7.23858 55 10H45C45 1.71573 51.7157 -5 60 -5V5ZM110 5H60V-5H110V5Z" fill="black" mask="url(#path-1-inside-1)"/>
<path d="M81.891 30.456C81.891 29.704 82.115 29.112 82.563 28.68C83.011 28.248 83.643 28.032 84.459 28.032C85.275 28.032 85.907 28.256 86.355 28.704C86.803 29.136 87.027 29.72 87.027 30.456C87.027 31.192 86.803 31.784 86.355 32.232C85.907 32.664 85.275 32.88 84.459 32.88C83.643 32.88 83.011 32.664 82.563 32.232C82.115 31.8 81.891 31.208 81.891 30.456ZM82.035 26.904V25.44C82.035 24.512 82.139 23.752 82.347 23.16C82.555 22.568 82.995 22.072 83.667 21.672C84.195 21.352 84.667 21.064 85.083 20.808C85.499 20.552 85.835 20.312 86.091 20.088C86.475 19.736 86.731 19.416 86.859 19.128C86.987 18.824 87.051 18.464 87.051 18.048C87.051 17.488 86.859 17.048 86.475 16.728C86.091 16.408 85.627 16.248 85.083 16.248C84.523 16.248 84.019 16.384 83.571 16.656C83.139 16.912 82.851 17.288 82.707 17.784C82.531 18.36 82.211 18.8 81.747 19.104C81.283 19.408 80.715 19.536 80.043 19.488C79.771 19.472 79.507 19.416 79.251 19.32C78.995 19.208 78.771 19.056 78.579 18.864C78.403 18.672 78.259 18.44 78.147 18.168C78.035 17.88 77.987 17.552 78.003 17.184C78.019 16.448 78.219 15.768 78.603 15.144C78.987 14.504 79.499 13.952 80.139 13.488C80.779 13.024 81.523 12.664 82.371 12.408C83.219 12.136 84.123 12 85.083 12C86.075 12 86.987 12.128 87.819 12.384C88.667 12.624 89.395 12.992 90.003 13.488C90.611 13.984 91.083 14.616 91.419 15.384C91.771 16.136 91.947 17.024 91.947 18.048C91.947 18.864 91.851 19.568 91.659 20.16C91.467 20.752 91.155 21.304 90.723 21.816C90.355 22.232 89.899 22.648 89.355 23.064C88.827 23.48 88.267 23.88 87.675 24.264C87.339 24.488 87.123 24.728 87.027 24.984C86.931 25.224 86.883 25.504 86.883 25.824V26.904H82.035Z" fill="black"/>
<mask id="path-4-inside-2" fill="white">
<path fill-rule="evenodd" clip-rule="evenodd" d="M10 25C4.47715 25 0 29.4772 0 35V65.4649C0 70.9877 4.47716 75.4649 10 75.4649H13.3886V85L26.0927 75.4649H68.2721C73.7949 75.4649 78.2721 70.9877 78.2721 65.4649V35C78.2721 29.4772 73.7949 25 68.2721 25H10Z"/>
</mask>
<path fill-rule="evenodd" clip-rule="evenodd" d="M10 25C4.47715 25 0 29.4772 0 35V65.4649C0 70.9877 4.47716 75.4649 10 75.4649H13.3886V85L26.0927 75.4649H68.2721C73.7949 75.4649 78.2721 70.9877 78.2721 65.4649V35C78.2721 29.4772 73.7949 25 68.2721 25H10Z" fill="#F5F5F5"/>
<path d="M13.3886 75.4649H18.3886V70.4649H13.3886V75.4649ZM13.3886 85H8.38864V95.0044L16.3901 88.9989L13.3886 85ZM26.0927 75.4649V70.4649H24.4251L23.0913 71.466L26.0927 75.4649ZM5 35C5 32.2386 7.23858 30 10 30V20C1.71572 20 -5 26.7157 -5 35H5ZM5 65.4649V35H-5V65.4649H5ZM10 70.4649C7.23858 70.4649 5 68.2263 5 65.4649H-5C-5 73.7492 1.71575 80.4649 10 80.4649V70.4649ZM13.3886 70.4649H10V80.4649H13.3886V70.4649ZM18.3886 85V75.4649H8.38864V85H18.3886ZM23.0913 71.466L10.3872 81.0011L16.3901 88.9989L29.0941 79.4638L23.0913 71.466ZM68.2721 70.4649H26.0927V80.4649H68.2721V70.4649ZM73.2721 65.4649C73.2721 68.2263 71.0335 70.4649 68.2721 70.4649V80.4649C76.5563 80.4649 83.2721 73.7491 83.2721 65.4649H73.2721ZM73.2721 35V65.4649H83.2721V35H73.2721ZM68.2721 30C71.0335 30 73.2721 32.2386 73.2721 35H83.2721C83.2721 26.7157 76.5563 20 68.2721 20V30ZM10 30H68.2721V20H10V30Z" fill="black" mask="url(#path-4-inside-2)"/>
<path d="M25.1594 44.3188H53.8648C55.0452 44.3188 56.0242 43.3398 56.0242 42.1594C56.0242 40.9789 55.0452 40 53.8648 40H25.1594C23.9789 40 23 40.9789 23 42.1594C23 43.3398 23.9789 44.3188 25.1594 44.3188Z" fill="#5771EE"/>
<path d="M25.1594 52.3188H53.8648C55.0452 52.3188 56.0242 51.3398 56.0242 50.1594C56.0242 48.9789 55.0452 48 53.8648 48H25.1594C23.9789 48 23 48.9789 23 50.1594C23 51.3398 23.9789 52.3188 25.1594 52.3188Z" fill="#5771EE"/>
<path d="M25.1594 60.3188H53.8648C55.0452 60.3188 56.0242 59.3398 56.0242 58.1594C56.0242 56.9789 55.0452 56 53.8648 56H25.1594C23.9789 56 23 56.9789 23 58.1594C23 59.3398 23.9789 60.3188 25.1594 60.3188Z" fill="#5771EE"/>
</svg>
