<svg width="334" height="88" viewBox="0 0 334 88" fill="none" xmlns="http://www.w3.org/2000/svg">
<mask id="mask0" mask-type="alpha" maskUnits="userSpaceOnUse" x="0" y="11" width="62" height="62">
<circle cx="31" cy="42" r="31" fill="#C4C4C4"/>
</mask>
<g mask="url(#mask0)">
<path d="M27.1508 46.7096C22.0584 47.7665 17.9268 51.6098 14.8041 55.5492C11.7774 59.2965 9.47143 63.6203 7.93409 68.2323C6.39675 72.7962 5.67613 77.6965 5.77221 82.5007C5.82025 84.9028 6.10851 87.3049 6.58893 89.707C6.82914 90.908 7.16543 92.1091 7.54976 93.3101C7.88606 94.319 8.31843 95.472 9.23123 96.0965C10.5764 97.0574 12.0176 96.2406 13.2667 95.52C14.6599 94.7033 16.0051 93.8385 17.3503 92.9258C20.0406 91.1002 22.5868 89.0344 24.9409 86.8245C25.6135 86.1999 24.6046 85.191 23.932 85.8156C21.9143 87.6892 19.8004 89.4187 17.5905 91.0041C16.5336 91.7727 15.4286 92.4934 14.2756 93.214C13.7472 93.5503 13.2187 93.8386 12.6902 94.1749C12.1137 94.5111 11.4412 95.0396 10.7205 95.0876C9.66361 95.1837 9.18318 93.7905 8.94297 92.9738C8.60668 91.9169 8.31844 90.8119 8.07823 89.755C7.59781 87.5451 7.30955 85.2871 7.21346 83.0291C6.87717 73.9973 9.61556 64.8693 14.9962 57.567C18.0709 53.4354 22.2506 49.1597 27.4871 48.1027C28.4479 47.9106 28.0636 46.5174 27.1508 46.7096Z" fill="#FFD066"/>
<path d="M29.1205 46.8536C21.8182 48.8233 15.7169 54.156 11.9216 60.6897C8.12626 67.2233 6.49283 74.8139 6.30066 82.3565C6.15654 86.5842 6.54087 91.004 8.65471 94.7032C8.991 95.2797 9.37534 95.8082 9.9038 96.1445C11.4411 97.0573 13.3148 95.9043 14.708 94.7993C17.3022 92.7816 20.0406 90.6677 23.3075 90.1393C25.5174 89.7549 27.7753 90.1393 29.9853 89.9952C32.1952 89.851 34.6453 89.0343 35.7023 87.0646C36.2788 86.0557 36.3748 84.8547 36.6631 83.7017C36.9513 82.5967 37.5759 81.3957 38.6808 81.0113C37.3357 79.9544 35.9905 78.8975 34.6453 77.8406C34.3571 77.6004 34.0688 77.3602 33.9727 77.0239C33.8286 76.6395 33.9727 76.2552 34.1169 75.8709C34.6453 74.5257 35.2218 73.2286 35.9425 71.9314C36.0385 72.556 36.8553 72.7962 37.4798 72.8923C39.7378 73.1325 42.0438 73.4207 44.3017 73.1325C46.5597 72.8442 48.8177 71.8834 50.2589 70.1539C51.2678 68.9529 51.7963 67.4155 52.1806 65.9262C52.9973 62.7555 53.0934 59.4406 53.1895 56.1737C53.3336 51.5617 53.4777 46.7575 51.6521 42.5299C51.0756 41.1847 49.9226 39.7434 48.5294 40.0797C47.4244 40.3199 46.848 41.521 46.5117 42.5779C44.8782 48.0066 45.9352 54.204 43.2929 59.2004C41.6594 57.4709 40.3143 55.4051 39.3534 53.2432C38.873 52.1863 38.4887 51.0332 37.672 50.1685C36.8552 49.3037 35.5101 48.8233 34.5012 49.3998C34.213 50.8891 33.2521 52.2343 31.8109 52.7628C30.4177 53.2912 28.6401 52.8108 27.8714 51.5137C27.1028 50.2166 27.7273 48.2468 29.1205 47.8145" fill="#FFD066"/>
<path d="M28.9283 46.1814C23.1633 47.7668 18.1189 51.3699 14.3716 55.9339C10.192 61.0263 7.69379 67.2718 6.49275 73.7574C5.8682 77.1203 5.57996 80.5793 5.57996 84.0383C5.57996 87.3052 6.01234 90.6201 7.30946 93.6467C7.88597 94.9919 8.70268 96.6253 10.24 97.1057C11.7774 97.5861 13.4108 96.7214 14.6599 95.8566C17.2541 93.983 19.7523 91.7731 22.9711 91.0044C26.6223 90.1877 30.4656 91.5329 33.9246 89.7553C35.4139 88.9867 36.4228 87.7376 36.9032 86.1522C37.2876 84.759 37.3356 82.4049 38.969 81.7804C39.4014 81.5882 39.7377 80.9637 39.3053 80.5794C38.5847 80.0029 37.816 79.4263 37.0954 78.8498C36.4228 78.3214 35.6061 77.7929 34.9815 77.1684C34.6453 76.8321 34.7894 76.5438 34.9335 76.1595C35.0776 75.7271 35.2698 75.2947 35.462 74.8624C35.8463 74.0457 36.2306 73.229 36.663 72.4122C36.2306 72.3642 35.7983 72.3162 35.3659 72.2201C35.6061 73.277 36.663 73.5652 37.6238 73.7094C38.969 73.9015 40.3622 74.0457 41.7554 74.0457C44.1575 74.0937 46.6077 73.7574 48.6735 72.5564C53.1894 69.9621 53.6698 64.053 53.9581 59.3929C54.1022 56.7986 54.1983 54.2044 54.1502 51.6101C54.1022 49.1119 53.862 46.5657 53.1894 44.1636C52.6609 42.3381 51.652 39.6477 49.4421 39.3114C47.0881 38.9751 46.1753 41.5214 45.7429 43.347C44.5419 48.4394 45.3105 54.1083 42.8124 58.8645C43.1967 58.8164 43.581 58.7684 43.9654 58.7203C42.5721 57.231 41.4191 55.5496 40.5064 53.724C39.6896 52.0425 39.1612 50.0247 37.5278 48.9678C36.8071 48.5354 35.9904 48.2952 35.1737 48.4394C34.7894 48.4874 34.309 48.6315 34.0687 48.9198C33.8285 49.2561 33.7805 49.7845 33.6364 50.1689C32.9638 51.6582 31.3304 52.7151 29.745 52.0425C28.9763 51.7543 28.4479 51.0817 28.4479 50.265C28.4479 49.5443 28.7841 48.7276 29.5048 48.4874C30.3695 48.1511 29.9852 46.7579 29.1204 47.0942C27.8714 47.5266 27.1027 48.6796 27.0066 49.9767C26.9105 51.3699 27.6792 52.619 28.8802 53.2436C31.7627 54.6848 34.7413 52.4749 35.3659 49.5924C35.2698 49.7365 35.1257 49.8806 35.0296 50.0247C35.8943 49.5924 36.9032 50.1689 37.4797 50.8415C38.2003 51.7062 38.5847 52.9073 39.0651 53.9162C40.074 56.078 41.4191 57.9997 43.0045 59.7292C43.2928 60.0655 43.9173 59.9694 44.1575 59.5851C46.1272 55.8378 46.1753 51.6101 46.6077 47.5266C46.7037 46.4696 46.8479 45.3647 47.0881 44.3078C47.2802 43.395 47.4724 42.4341 47.9528 41.6174C48.3372 40.9448 49.0098 40.4644 49.8265 40.8968C50.5951 41.3292 51.0755 42.242 51.3638 43.0107C53.0453 47.1903 52.9011 51.8503 52.757 56.2702C52.6609 58.6723 52.6129 61.0744 52.2286 63.4765C51.8923 65.5903 51.4118 67.9443 50.0186 69.6258C48.6254 71.3553 46.3674 72.2201 44.2056 72.4603C42.8604 72.6044 41.4672 72.5564 40.074 72.4603C39.3533 72.4122 38.6808 72.3162 37.9601 72.2201C37.6238 72.172 36.9513 72.172 36.8552 71.7877C36.711 71.2112 35.8463 71.0671 35.558 71.5955C35.0296 72.6044 34.5492 73.6133 34.1168 74.6222C33.7805 75.4869 33.204 76.4477 33.5883 77.4086C33.9727 78.2733 34.9815 78.8018 35.6541 79.3783C36.5669 80.0989 37.4797 80.8196 38.3925 81.5402C38.4886 81.1559 38.5847 80.7235 38.7288 80.3391C37.4317 80.8676 36.663 81.9726 36.2787 83.2697C35.8463 84.6629 35.8463 86.2963 34.7894 87.4493C32.6755 89.7553 29.1204 89.2749 26.334 89.2749C24.6526 89.2749 23.0191 89.419 21.4338 89.9955C19.9925 90.524 18.6473 91.2927 17.3502 92.1574C16.0531 93.0222 14.9001 94.0791 13.6029 94.8958C12.3539 95.7125 10.8165 96.289 9.80763 94.8477C8.03008 92.3015 7.45359 88.8906 7.30946 85.864C7.1173 82.6452 7.30946 79.3783 7.78988 76.2075C8.65463 69.9621 10.7204 63.7647 14.4196 58.5762C18.1189 53.3877 23.4035 49.2561 29.6009 47.5746C30.2254 47.3344 29.8411 45.9412 28.9283 46.1814Z" fill="#FFD066"/>
<path d="M46.3676 40.2247C45.5989 43.1072 44.4939 46.0858 42.1399 47.9114C39.8819 49.6409 36.6631 49.9772 34.0688 48.7762C34.4051 50.1694 33.6365 51.7548 32.3394 52.4754C31.0422 53.196 29.4568 53.148 28.1597 52.4754C27.1508 51.995 26.19 50.938 26.4302 49.8331C26.6224 48.9203 27.5352 48.2957 27.9195 47.431C28.496 46.1339 27.6793 44.5965 26.6224 43.6357C25.5654 42.6748 24.2683 42.0022 23.3555 40.8973C21.4339 38.5913 21.9143 34.9882 23.7879 32.5861C25.6615 30.184 28.496 28.8869 31.3305 27.9741C34.0689 27.0613 36.9514 26.4847 39.8339 26.1484C41.6114 25.9563 43.485 25.9083 44.9743 26.9171C47.0882 28.4064 47.3284 31.4331 47.0882 34.0273C46.7999 36.7177 46.2234 39.408 45.3587 41.9542" fill="#FAC9B4"/>
<path d="M45.6469 40.0327C44.9743 42.6269 44.0615 45.3173 41.9957 47.1429C39.9779 48.9204 36.9033 49.3048 34.4531 48.1518C33.8766 47.8635 33.2521 48.3439 33.3962 48.9684C33.8766 51.1784 31.4745 52.5716 29.5529 52.1872C28.6401 51.9951 27.3429 51.4186 27.1508 50.3136C27.0067 49.4008 28.1116 48.6802 28.496 47.9596C29.5529 45.8938 28.0636 43.828 26.4782 42.5789C25.6134 41.9063 24.6526 41.3298 23.932 40.4651C23.3074 39.7444 22.9711 38.7836 22.8751 37.8228C22.5388 33.2107 26.7184 30.4243 30.5137 29.0791C32.9158 28.2144 35.414 27.5898 37.9602 27.2055C40.026 26.8692 42.8124 26.3408 44.638 27.6859C46.3675 28.9831 46.5116 31.4812 46.3675 33.4509C46.1753 36.2854 45.5028 39.1679 44.59 41.8583C44.3017 42.723 45.6949 43.1073 45.9832 42.2426C46.896 39.4562 47.5685 36.5737 47.7607 33.6431C47.9048 31.5293 47.7127 29.1272 46.3195 27.3977C44.686 25.3319 41.9477 25.2838 39.5456 25.524C36.615 25.8603 33.7325 26.4849 30.8981 27.3977C26.3821 28.887 21.5299 31.8175 21.3858 37.1502C21.3377 38.3032 21.5779 39.4562 22.1064 40.4651C22.6829 41.57 23.6918 42.3867 24.7006 43.1074C25.6615 43.828 26.7184 44.5486 27.1508 45.6536C27.6792 46.9507 26.8625 47.6713 26.1899 48.6322C25.3732 49.7852 25.5174 51.1303 26.4302 52.1392C27.3429 53.1961 28.7842 53.6765 30.1294 53.7246C32.8678 53.8207 35.3179 51.4186 34.6934 48.5841C34.3571 48.8724 33.9727 49.1126 33.6364 49.4008C36.4709 50.746 39.9779 50.4577 42.4761 48.488C45.0223 46.5183 46.1753 43.3956 46.944 40.417C47.2803 39.5042 45.8871 39.1199 45.6469 40.0327Z" fill="#FAC9B4"/>
<path d="M51.2196 42.8184C49.8264 40.1761 48.8656 40.128 48.5773 40.1761C47.6165 40.2721 46.992 41.6173 46.5596 42.7703C44.782 47.3823 45.6468 49.7364 44.8301 54.4925C44.3977 57.1348 43.6771 59.2487 43.1967 60.8821C41.8034 58.1437 39.6896 54.6367 37.7199 51.5139C37.4316 51.562 37.1914 51.61 36.9032 51.61L36.1345 72.316C37.1434 72.6043 45.839 74.7662 50.5951 69.9139C52.6609 67.8001 52.9011 63.6205 53.3815 55.3573C53.5737 52.5228 53.6698 47.4304 51.2196 42.8184Z" fill="#FFD066"/>
<path d="M51.8442 42.4333C51.2677 41.3284 50.403 39.791 49.0578 39.4547C47.4724 39.0704 46.5596 40.8479 46.0792 42.049C45.3105 43.9226 44.8301 45.8923 44.686 47.9101C44.5419 49.8318 44.5419 51.8015 44.2536 53.7231C43.9173 56.0772 43.1967 58.3832 42.5722 60.6892C43.0045 60.6412 43.4369 60.5931 43.8693 60.497C42.2359 57.2782 40.3142 54.2035 38.3925 51.1289C38.2004 50.8406 37.9121 50.7446 37.5758 50.7926C37.3836 50.8406 37.1434 50.8406 36.9513 50.8406C36.5669 50.8887 36.2306 51.1289 36.2306 51.5613C36.1346 53.8673 36.0385 56.2213 35.9904 58.5273C35.8463 62.2265 35.7022 65.9738 35.6061 69.673C35.5581 70.5378 35.5581 71.4025 35.51 72.2192C35.51 72.5075 35.7502 72.8438 36.0385 72.8918C40.6505 74.1409 46.4155 74.1889 50.3549 71.0662C52.1805 69.625 52.9492 67.5592 53.3335 65.3012C53.91 61.7942 54.0542 58.191 54.1983 54.684C54.3424 50.5524 53.862 46.2286 51.8442 42.4333C51.4118 41.6166 50.1628 42.3372 50.5951 43.1539C52.3247 46.4208 52.8051 50.12 52.709 53.7712C52.6129 57.1341 52.4207 60.497 52.0364 63.8119C51.7962 65.6855 51.4599 67.9435 50.1628 69.3367C48.193 71.4506 45.2145 72.2192 42.428 72.2673C40.4103 72.3153 38.3445 72.1232 36.3748 71.5947C36.5669 71.8349 36.7111 72.0751 36.9032 72.2673C36.9993 69.9613 37.0954 67.6072 37.1434 65.3012C37.2876 61.602 37.4317 57.8547 37.5278 54.1555C37.5758 53.2908 37.5758 52.426 37.6239 51.6093C37.3837 51.8495 37.1434 52.0897 36.9032 52.3299C37.2395 52.3299 37.5758 52.2819 37.9121 52.1858C37.6238 52.0897 37.3836 51.9456 37.0954 51.8495C39.0171 54.9242 40.9387 57.9988 42.5722 61.2176C42.8604 61.7942 43.7252 61.602 43.8693 61.0255C44.3497 59.248 44.9262 57.5184 45.2625 55.7409C45.6468 53.8673 45.839 51.9936 45.9351 50.072C46.0312 48.4386 46.0792 46.8051 46.5116 45.1717C46.7518 44.2109 47.0401 43.25 47.4244 42.3853C47.6646 41.8088 48.097 41.0401 48.5774 40.7999C48.6254 40.7999 48.6735 40.7999 48.7215 40.7999C48.4813 40.7999 48.6735 40.7999 48.7696 40.7999C48.9137 40.8479 48.7215 40.7519 48.8656 40.8479C48.9617 40.896 49.0098 40.944 49.0578 40.9921C49.7304 41.5205 50.1628 42.3372 50.5951 43.1059C51.0756 43.9707 52.2766 43.25 51.8442 42.4333Z" fill="#FFD066"/>
<path d="M30.2734 20.1439C29.0243 18.7027 27.0065 18.0781 25.0849 18.0781C21.77 18.0781 18.5992 19.7115 16.2932 22.0656C13.9392 24.3716 12.3057 27.3502 11.0086 30.3768C9.32715 34.2202 8.12611 38.3998 8.75066 42.5314C8.94282 43.6364 9.75952 45.0296 10.7684 44.5972C11.1047 44.4531 11.3449 44.1648 11.5371 43.8285C12.546 42.2912 13.0264 40.4656 13.5548 38.7361C15.3804 32.923 18.5031 27.2061 23.8358 24.2275C26.0457 22.9784 28.5439 22.2578 30.4175 20.5283C30.1773 20.1439 29.7449 19.9037 29.3125 19.8557" fill="#333333"/>
<path d="M30.7539 19.6145C27.2949 15.675 20.9534 17.3565 17.3502 20.0949C13.0745 23.3137 10.5283 28.6463 8.94291 33.6427C8.07815 36.333 7.59773 39.2155 7.93402 42.05C8.07815 43.1069 8.36641 44.2119 9.23116 44.9325C10.24 45.7492 11.393 45.3168 12.0656 44.356C13.5549 42.2902 13.9873 39.5999 14.852 37.2458C15.6688 34.9878 16.7257 32.7779 18.0228 30.7602C19.4641 28.5502 21.3377 26.5805 23.5476 25.1873C25.9497 23.698 28.7361 22.9294 30.898 21.0077C31.1382 20.8155 31.1863 20.3831 30.9941 20.1429C30.6098 19.6144 30.1294 19.2301 29.4568 19.134C28.544 18.9899 28.1596 20.3831 29.0724 20.5273C29.3607 20.5753 29.5528 20.6714 29.745 20.8635C29.793 20.5753 29.8411 20.287 29.8411 19.9988C28.1116 21.5361 25.8536 22.2568 23.8359 23.3137C21.9142 24.3226 20.2327 25.7158 18.7915 27.3011C15.8609 30.616 13.9873 34.6996 12.6902 38.8792C12.3539 40.0322 12.0176 41.1852 11.4891 42.2902C11.2489 42.7706 11.0087 43.3952 10.6244 43.7315C10.2881 44.0677 9.99982 43.7795 9.80765 43.4432C9.18311 42.4823 9.23116 41.1372 9.23116 40.0803C9.23116 38.7831 9.42333 37.5341 9.71158 36.285C10.2881 33.7868 11.2489 31.3366 12.3539 29.0306C13.4108 26.8688 14.6599 24.7549 16.3413 22.9774C18.1189 21.0557 20.4249 19.5664 22.9711 18.9899C25.3252 18.4615 28.0635 18.7497 29.745 20.6233C30.3695 21.3439 31.3784 20.3351 30.7539 19.6145Z" fill="#333333"/>
<path d="M42.3318 27.7811C41.9475 25.1389 40.1699 22.7367 37.8159 21.5837C36.6148 20.9592 35.2697 20.671 33.9245 20.4308C30.8978 19.9023 27.5349 19.8062 25.1328 21.6798C23.4514 22.977 22.5386 24.9467 21.8179 26.9164C21.0493 28.8861 20.4728 30.9519 19.9924 33.0177C19.5119 35.1796 19.2237 37.5336 20.2326 39.5034C21.0493 41.1368 22.6347 42.1937 24.3161 42.9623C25.0848 43.2986 25.9495 43.635 26.8143 43.4908C27.6791 43.3467 28.4477 42.6261 28.3997 41.7613C27.1025 41.3289 25.8535 40.5122 25.277 39.2632C24.6524 38.0621 24.7485 36.4287 25.7093 35.4198C26.6702 34.4109 28.4958 34.4109 29.3125 35.5159C29.6968 36.0443 29.8409 36.7169 30.3694 37.1013C30.8979 37.4856 31.5704 37.4856 32.243 37.3895C37.0472 36.765 41.2749 32.9697 42.4279 28.3096C42.524 27.9733 42.2837 27.3968 41.9955 27.589" fill="#333333"/>
<path d="M43.0044 27.5888C42.4279 24.1298 39.8817 21.3915 36.5668 20.2865C34.8373 19.71 32.9637 19.4217 31.1381 19.3737C29.4086 19.2776 27.6311 19.5178 26.0457 20.2384C22.5867 21.8238 21.2415 25.8113 20.1846 29.1742C19.6081 31.0479 19.0796 33.0176 18.8394 34.9873C18.5992 36.8129 18.7914 38.7345 19.8003 40.3199C20.9052 42.0014 22.6828 43.1064 24.5083 43.827C25.4692 44.2113 26.5742 44.3554 27.535 43.9231C28.3997 43.4907 28.9762 42.674 28.9762 41.7131C28.9762 41.3769 28.736 41.1366 28.4478 41.0405C27.3909 40.7043 26.382 40.0317 25.8055 39.0708C25.3251 38.2061 25.277 36.957 25.9016 36.1403C26.43 35.4677 27.535 35.2275 28.2556 35.6599C28.688 35.9481 28.8321 36.3805 29.0723 36.8129C29.3606 37.2933 29.6969 37.7257 30.2253 37.9659C31.2342 38.3983 32.4352 38.158 33.4441 37.9178C34.501 37.6776 35.558 37.2452 36.4708 36.7168C38.3444 35.7079 39.9778 34.2186 41.1308 32.4411C41.8034 31.4322 42.3319 30.3272 42.7162 29.1742C42.8603 28.6458 43.0525 28.1653 42.8603 27.5888C42.6682 27.0604 42.1397 26.628 41.6112 26.8682C41.2269 27.0123 40.9867 27.3487 41.1308 27.733C41.2269 28.0693 41.6593 28.4056 41.9956 28.2134C41.8514 28.1654 41.7073 28.1173 41.5151 28.0212C41.5151 28.0693 41.5151 28.0693 41.5151 28.1173C41.4671 28.2134 41.4671 28.3575 41.4191 28.4536C41.371 28.6938 41.2749 28.934 41.1789 29.1742C40.9867 29.7027 40.7465 30.1831 40.5063 30.6635C39.9778 31.5763 39.3533 32.4411 38.6326 33.2097C37.1914 34.699 35.3178 35.804 33.3 36.3805C32.4353 36.6207 30.946 37.1011 30.3695 36.1403C30.0812 35.7079 29.9371 35.2275 29.6008 34.8432C29.2645 34.4588 28.8321 34.2186 28.3997 34.0265C26.3339 33.3058 24.3162 34.7951 24.0279 36.8609C23.6436 39.5032 25.7094 41.521 28.0154 42.2897C27.8232 42.0494 27.6791 41.8092 27.4869 41.6171C27.4869 42.3857 26.6702 42.722 25.9976 42.626C25.1809 42.5779 24.3642 42.1455 23.6916 41.7612C22.4426 41.0886 21.2415 40.1278 20.617 38.8306C19.9444 37.3894 20.0405 35.7079 20.3287 34.1706C20.617 32.4411 21.0974 30.7596 21.6258 29.1262C22.5386 26.3398 23.5955 22.9768 26.382 21.5356C28.9762 20.1904 32.3872 20.6228 35.1256 21.2954C36.8071 21.6797 38.2963 22.4003 39.4974 23.6494C40.6024 24.8024 41.323 26.2917 41.5632 27.8771C41.7554 28.886 43.1486 28.5016 43.0044 27.5888Z" fill="#333333"/>
<path d="M31.3304 20.0464C31.6667 19.4219 32.2432 18.8934 32.8677 18.5571C33.7805 18.0767 34.8855 17.9806 35.9424 18.0287C38.921 18.1728 41.8035 19.4219 43.9654 21.4877C46.1273 23.5535 47.4725 26.3879 47.7607 29.3665C47.8568 30.1832 47.7607 31.1441 47.0881 31.6245C46.6077 31.9608 45.9351 31.9127 45.4067 31.7206C44.2537 31.2402 43.485 30.1352 43.0046 28.9822C42.5242 27.8292 42.2839 26.5801 41.6594 25.4751C40.7466 23.7937 39.1612 22.5446 37.4317 21.7279C35.7022 20.9112 33.8286 20.4307 31.955 19.9984C31.6187 19.9023 30.9941 20.0945 31.2343 20.4308" fill="#333333"/>
<path d="M31.9549 20.4307C32.8677 18.9414 34.5012 18.7012 36.1346 18.7973C37.6239 18.8934 39.1132 19.3258 40.4103 19.9503C43.1967 21.2955 45.3586 23.6976 46.3675 26.5801C46.6077 27.2527 46.7999 27.9252 46.896 28.6459C46.992 29.2704 47.1842 30.2312 46.8479 30.8077C46.5116 31.3842 45.743 31.1441 45.2625 30.8558C44.638 30.4715 44.2056 29.8949 43.9174 29.2704C43.1487 27.8291 42.9565 26.1957 42.0918 24.8025C41.3711 23.6015 40.3142 22.5926 39.1132 21.8239C37.5758 20.815 35.8463 20.2385 34.1168 19.7581C33.3482 19.566 32.3393 19.1336 31.5226 19.2777C30.7539 19.4218 30.3215 19.9984 30.6098 20.767C30.7539 21.1514 31.2824 21.1994 31.6187 21.0072C32.003 20.8151 32.051 20.3827 31.8589 19.9983C31.9069 20.0944 31.7147 20.5748 31.7628 20.6229L32.003 20.6709C32.1952 20.767 32.4354 20.767 32.6275 20.8151C33.1079 20.9111 33.5403 21.0553 34.0208 21.1994C34.9336 21.4396 35.7983 21.7279 36.6631 22.1122C38.1043 22.7367 39.4975 23.6495 40.4584 24.9466C41.4672 26.3399 41.7555 28.0213 42.4281 29.5587C43.0526 30.9038 44.1095 32.249 45.6469 32.5373C47.2803 32.8255 48.3372 31.6245 48.4333 30.0391C48.4813 28.4537 48.0009 26.7723 47.3764 25.331C46.0792 22.3044 43.7252 19.8062 40.6986 18.461C37.6239 17.0678 32.6756 16.155 30.6098 19.614C30.2255 20.4788 31.4745 21.1994 31.9549 20.4307Z" fill="#333333"/>
<path d="M42.1877 38.1104C42.7642 38.2064 43.3407 38.3506 43.9172 38.4467L42.1877 38.1104Z" fill="#333333"/>
<path d="M41.9957 38.7825C42.5722 38.8786 43.1487 39.0227 43.7252 39.1188C43.9174 39.1668 44.1096 39.1668 44.3017 39.0227C44.4459 38.9266 44.59 38.7825 44.638 38.5903C44.6861 38.3981 44.6861 38.206 44.5419 38.0138C44.4459 37.8697 44.3017 37.7256 44.1096 37.6775C43.5331 37.5814 42.9566 37.4373 42.3801 37.3412C42.1879 37.2932 41.9957 37.2932 41.8036 37.4373C41.6594 37.5334 41.5153 37.6775 41.4673 37.8697C41.4192 38.0619 41.4192 38.254 41.5633 38.4462C41.6594 38.6384 41.8516 38.7345 41.9957 38.7825Z" fill="#333333"/>
<path d="M48.9138 38.4943C48.4334 37.005 47.9529 35.4677 47.0882 34.1706C46.2234 32.8734 44.8302 31.7685 43.2929 31.6244C42.6203 31.5763 41.8997 31.6724 41.4673 32.1528C40.7467 32.9215 41.083 34.1706 41.7075 34.9873C42.3321 35.804 43.2448 36.4285 43.7733 37.2933C44.1576 37.9178 44.3498 38.6385 44.8783 39.1189C45.8871 40.1278 47.5206 39.7915 48.8657 39.4552" fill="#FAC9B4"/>
<path d="M49.5863 38.302C49.0098 36.4283 48.3853 34.5547 47.1362 33.0654C46.0312 31.7683 44.3017 30.7113 42.5722 30.9035C41.6594 30.9996 40.8427 31.48 40.5064 32.3448C40.1701 33.1615 40.3623 34.0262 40.6986 34.7949C41.0829 35.6116 41.8035 36.2362 42.4281 36.8607C42.7163 37.149 43.0046 37.4853 43.1967 37.8215C43.437 38.2059 43.5811 38.6382 43.8213 39.0706C44.9743 40.9443 47.1842 40.7041 49.0098 40.2236C49.9226 39.9834 49.5383 38.5902 48.6255 38.8304C47.6166 39.1187 45.9832 39.5511 45.2145 38.5422C44.7821 37.9657 44.59 37.245 44.1576 36.6685C43.6772 36.044 43.1007 35.5155 42.5722 34.9871C42.1398 34.5547 41.8035 34.0262 41.7555 33.4017C41.7074 32.8252 42.0918 32.4889 42.6202 32.3928C43.9174 32.2006 45.2145 33.1134 46.0312 34.0262C47.1842 35.3234 47.6646 37.1009 48.1931 38.7343C48.4814 39.551 49.8746 39.1667 49.5863 38.302Z" fill="#FAC9B4"/>
<path d="M37.912 63.4289C36.7109 67.7046 35.1736 71.8842 33.3961 75.9678C33.0117 76.7845 34.2608 77.5531 34.6451 76.6884C36.5188 72.5087 38.0561 68.233 39.3052 63.8132C39.5454 62.9484 38.1522 62.5641 37.912 63.4289Z" fill="#FFB213"/>
<path d="M19.4641 68.2341C19.6563 73.807 20.5691 79.572 23.4996 84.3281C24.1722 85.4331 24.9889 86.538 26.0939 87.2587C28.0156 88.6038 30.5618 88.748 32.9158 88.6519C35.0777 88.5558 37.3357 88.3156 39.2573 87.3067C41.179 86.2498 42.7164 84.2801 42.6203 82.0702C39.4976 81.1093 36.1827 79.9563 34.213 77.3621C30.9942 73.1344 32.5315 66.8409 30.0333 62.1328" fill="#FFD066"/>
<path d="M18.7435 68.2332C18.9837 73.9982 19.8965 80.0995 23.0672 85.0478C23.8359 86.2008 24.7007 87.2578 25.8537 88.0264C27.0067 88.7951 28.3519 89.1314 29.697 89.3235C31.0902 89.5157 32.5315 89.4677 33.9247 89.3716C35.414 89.2755 36.8552 89.0833 38.2485 88.5549C40.9868 87.546 43.3889 85.1919 43.2929 82.1173C43.2929 81.781 43.0526 81.5408 42.7644 81.4447C39.6897 80.4839 36.2307 79.3789 34.3571 76.4964C32.5795 73.758 32.5795 70.299 32.1471 67.1763C31.8589 65.3507 31.4746 63.5251 30.5618 61.8436C30.1294 61.0269 28.8803 61.7476 29.3127 62.5643C30.8981 65.6389 30.802 69.194 31.3785 72.5089C31.6667 74.1423 32.1472 75.7277 33.0119 77.1209C33.9247 78.6102 35.2699 79.7632 36.7592 80.5799C38.4887 81.5408 40.4103 82.1653 42.284 82.7899C42.0918 82.5496 41.9477 82.3094 41.7555 82.1173C41.8035 84.5193 39.8819 86.393 37.768 87.1616C35.414 88.0264 32.6276 88.1225 30.1774 87.9303C28.9284 87.8342 27.6793 87.546 26.6223 86.8734C25.5174 86.2008 24.7487 85.1919 24.0761 84.135C22.6829 81.9251 21.7701 79.523 21.1456 77.0248C20.4249 74.1423 20.1367 71.2118 20.0406 68.2332C20.1367 67.3204 18.6954 67.3204 18.7435 68.2332Z" fill="#FFD066"/>
<path d="M42.7642 40.9922C42.5721 41.4726 42.3799 41.953 42.1877 42.4334L42.7642 40.9922Z" fill="#333333"/>
<path d="M42.0918 40.8003C41.8996 41.2808 41.7075 41.7612 41.5153 42.2416C41.4673 42.3857 41.5153 42.674 41.6114 42.8181C41.7075 42.9622 41.8516 43.1064 42.0438 43.1544C42.2359 43.2024 42.4281 43.2024 42.6203 43.0583C42.6683 43.0103 42.7164 42.9622 42.7644 42.9622C42.8605 42.8661 42.9085 42.7701 42.9566 42.626C43.1487 42.1455 43.3409 41.6651 43.5331 41.1847C43.5811 41.0406 43.5331 40.7523 43.437 40.6082C43.3409 40.4641 43.1968 40.3199 43.0046 40.2719C42.8124 40.2239 42.6203 40.2239 42.4281 40.368C42.3801 40.416 42.332 40.4641 42.284 40.4641C42.1879 40.5602 42.1399 40.6562 42.0918 40.8003Z" fill="#333333"/>
<path d="M37.8161 38.2547C38.1524 38.2547 38.4887 38.2547 38.7769 38.2547C38.9691 38.2547 39.1613 38.1587 39.3054 38.0626C39.3534 38.0145 39.4015 37.9185 39.4495 37.8224C39.4975 37.7263 39.4975 37.6302 39.4975 37.5341C39.4975 37.3419 39.4495 37.1498 39.3054 37.0057C39.1613 36.8615 38.9691 36.8135 38.7769 36.8135C38.4406 36.8135 38.1043 36.8135 37.8161 36.8135C37.6239 36.8135 37.4317 36.9096 37.2876 37.0057C37.2396 37.0537 37.1915 37.1498 37.1435 37.2459C37.0955 37.3419 37.0955 37.438 37.0955 37.5341C37.0955 37.7263 37.1435 37.9185 37.2876 38.0626C37.4798 38.2067 37.6239 38.2547 37.8161 38.2547Z" fill="#333333"/>
<path d="M36.1345 46.6139C37.2875 46.2296 38.5847 46.1816 39.7857 46.5179L36.1345 46.6139Z" fill="#333333"/>
<path d="M36.3267 47.3351C36.615 47.2391 36.9032 47.143 37.2395 47.0949C37.2876 47.0949 37.3837 47.0949 37.4317 47.0469C37.2876 47.0469 37.4797 47.0469 37.4797 47.0469C37.6239 47.0469 37.768 46.9988 37.9602 46.9988C38.2484 46.9988 38.5367 46.9988 38.8249 47.0469C38.921 47.0469 38.921 47.0469 38.8249 47.0469C38.873 47.0469 38.873 47.0469 38.921 47.0469C39.0171 47.0469 39.0651 47.0949 39.1612 47.0949C39.3053 47.143 39.4495 47.143 39.5936 47.191C39.9779 47.2871 40.4103 47.0469 40.4583 46.7106C40.5544 46.3263 40.3623 45.9419 39.9779 45.8458C38.6808 45.5095 37.2395 45.5095 35.9424 45.9419C35.6061 46.038 35.3179 46.4223 35.462 46.8067C35.5581 47.191 35.9424 47.4312 36.3267 47.3351Z" fill="#333333"/>
<path d="M37.2397 40.5605C37.0955 40.9929 36.9995 41.3773 36.9514 41.8097L37.2397 40.5605Z" fill="#333333"/>
<path d="M36.567 40.3687C36.4229 40.8491 36.3268 41.3296 36.2787 41.81C36.2787 42.0022 36.3748 42.1943 36.4709 42.3384C36.615 42.4826 36.8072 42.5787 36.9994 42.5306C37.1915 42.5306 37.3837 42.4826 37.5278 42.3384C37.5759 42.2904 37.6239 42.2424 37.6239 42.1943C37.672 42.0982 37.72 41.9541 37.72 41.81C37.72 41.7619 37.72 41.6658 37.72 41.6178C37.72 41.6658 37.72 41.7619 37.672 41.81C37.72 41.4257 37.8161 41.0894 37.9122 40.7531C37.9602 40.5609 37.9122 40.3687 37.8161 40.1766C37.72 40.0324 37.5759 39.8883 37.3837 39.8403C37.1916 39.7922 36.9994 39.7922 36.8072 39.9363C36.7111 40.0324 36.615 40.1766 36.567 40.3687Z" fill="#333333"/>
<path d="M34.5011 76.0147C32.1471 71.6909 32.2431 66.5985 30.7538 61.9865C30.4656 61.1217 29.0724 61.506 29.3606 62.3708C30.898 67.1269 30.8499 72.2674 33.252 76.7353C33.6844 77.552 34.9335 76.8314 34.5011 76.0147Z" fill="#FFB213"/>
<path d="M18.7435 68.2324C18.8876 72.1238 19.368 76.1113 20.6171 79.8105C21.8182 83.3176 23.884 86.7285 27.2949 88.458C29.4088 89.515 31.7628 89.8032 34.0688 89.611C34.9816 89.515 34.9816 88.0737 34.0688 88.1698C32.1952 88.3139 30.2255 88.2178 28.4479 87.4492C26.9106 86.7766 25.5654 85.6716 24.5085 84.3265C22.2986 81.492 21.2897 77.8408 20.7132 74.3338C20.3769 72.316 20.2328 70.2982 20.1367 68.2324C20.1367 67.3197 18.6954 67.3197 18.7435 68.2324Z" fill="#FFB213"/>
<path d="M25.0453 49.3081C24.5093 50.1458 24.7113 51.1638 25.4647 52.0913C26.2164 53.0577 27.4827 53.6524 28.7103 54.0047C29.9873 54.3665 31.467 54.6494 32.6739 54.3709C33.731 54.103 34.5577 53.4384 34.8471 52.5536C35.0783 51.8535 33.6623 51.2693 33.4311 51.9694C33.2545 52.5624 32.7875 52.9824 32.0809 53.1998C31.2246 53.4278 30.1413 53.1815 29.206 52.9635C28.3693 52.7643 27.4411 52.3909 26.8214 51.8023C26.3935 51.3679 26.0293 50.6324 26.2991 50.1747C26.4596 49.9312 26.4263 49.5722 26.09 49.312C25.7519 49.0907 25.2076 49.0258 25.0453 49.3081Z" fill="#FFB213"/>
<path d="M29.6008 33.8354C32.3872 33.7393 35.0295 32.1539 36.4227 29.7038C36.7109 29.1754 35.8942 28.6949 35.606 29.2234C34.4049 31.3853 32.0989 32.7785 29.6488 32.8746C28.9762 32.8746 28.9762 33.8354 29.6008 33.8354Z" fill="#676766"/>
<path d="M33.7324 35.276C35.7982 34.4112 37.4797 32.7778 38.4885 30.8081C38.7768 30.2796 37.9601 29.7512 37.6718 30.3277C36.711 32.2013 35.1737 33.6426 33.252 34.4593C33.0118 34.5554 32.9637 34.8916 33.0598 35.1318C33.204 35.372 33.4922 35.372 33.7324 35.276Z" fill="#676766"/>
<path d="M35.0296 21.9686C32.6756 20.8636 29.9853 20.6234 27.4871 21.296C26.9106 21.4401 27.1508 22.401 27.7273 22.2088C29.9853 21.6323 32.4354 21.8244 34.5492 22.7853C35.0777 23.0735 35.5581 22.2568 35.0296 21.9686Z" fill="#676766"/>
<path d="M30.2734 23.7452C29.2165 23.409 28.1596 23.2648 27.0546 23.2168C26.8144 23.2168 26.5742 23.457 26.5742 23.6972C26.5742 23.9855 26.7664 24.1776 27.0546 24.1776C28.0635 24.2257 29.0243 24.3698 30.0332 24.6581C30.2734 24.7541 30.5617 24.562 30.6097 24.3218C30.6578 24.0815 30.5136 23.7933 30.2734 23.7452Z" fill="#676766"/>
<path d="M26.5262 27.0131C26.1419 26.4846 25.8056 25.9081 25.4212 25.3796C25.2771 25.1875 24.9888 25.0433 24.7486 25.1875C24.5565 25.3316 24.4123 25.6198 24.5565 25.8601C24.9408 26.3885 25.2771 26.965 25.6614 27.4935C25.8056 27.6857 26.0938 27.8298 26.334 27.6856C26.5742 27.5415 26.6703 27.2533 26.5262 27.0131Z" fill="#676766"/>
<path d="M14.3716 29.0303C15.957 24.6585 19.8484 21.2476 24.4124 20.2387C25.0369 20.0946 24.7487 19.1818 24.1722 19.3259C19.2719 20.4309 15.1884 24.082 13.4588 28.7901C13.2186 29.3666 14.1314 29.6068 14.3716 29.0303Z" fill="#676766"/>
<path d="M18.3591 26.3878C19.32 24.4661 21.0495 22.9769 23.1633 22.3523C23.7398 22.1601 23.4996 21.2473 22.9231 21.4395C20.6171 22.1121 18.6474 23.7935 17.5905 25.9074C17.2542 26.4839 18.0709 26.9643 18.3591 26.3878Z" fill="#676766"/>
<path d="M40.4103 34.6026C41.3712 35.8997 42.2839 37.2449 43.2448 38.542C44.0135 39.5989 45.0223 40.7519 46.4636 40.7519C47.3764 40.7519 47.3764 39.3107 46.4636 39.3107C46.2714 39.3107 46.0312 39.2626 45.8871 39.1666C45.6469 39.0224 45.5028 38.9263 45.3106 38.7822C44.8782 38.3979 44.59 37.9655 44.2537 37.4851C43.3889 36.284 42.5242 35.083 41.6594 33.882C41.4192 33.5457 41.0349 33.4015 40.6505 33.6417C40.3623 33.8339 40.1701 34.3143 40.4103 34.6026Z" fill="#E5A58F"/>
</g>
<g filter="url(#filter0_d)">
<path fill-rule="evenodd" clip-rule="evenodd" d="M77 25H62L72 15L77.2554 9.7446C78.2781 5.30797 82.2528 2 87 2H320C325.523 2 330 6.47715 330 12V72C330 77.5229 325.523 82 320 82H87C81.4772 82 77 77.5229 77 72V25Z" fill="#D4DCFF"/>
</g>
<defs>
<filter id="filter0_d" x="58" y="0" width="276" height="88" filterUnits="userSpaceOnUse" color-interpolation-filters="sRGB">
<feFlood flood-opacity="0" result="BackgroundImageFix"/>
<feColorMatrix in="SourceAlpha" type="matrix" values="0 0 0 0 0 0 0 0 0 0 0 0 0 0 0 0 0 0 127 0" result="hardAlpha"/>
<feOffset dy="2"/>
<feGaussianBlur stdDeviation="2"/>
<feColorMatrix type="matrix" values="0 0 0 0 0 0 0 0 0 0 0 0 0 0 0 0 0 0 0.15 0"/>
<feBlend mode="normal" in2="BackgroundImageFix" result="effect1_dropShadow"/>
<feBlend mode="normal" in="SourceGraphic" in2="effect1_dropShadow" result="shape"/>
</filter>
</defs>
</svg>
